M48
; DRILL file {KiCad 8.0.6-8.0.6-0~ubuntu22.04.1} date 2024-11-16T23:27:21-0800
; FORMAT={-:-/ absolute / inch / decimal}
; #@! TF.CreationDate,2024-11-16T23:27:21-08:00
; #@! TF.GenerationSoftware,Kicad,Pcbnew,8.0.6-8.0.6-0~ubuntu22.04.1
; #@! TF.FileFunction,Plated,1,2,PTH
FMAT,2
INCH
; #@! TA.AperFunction,Plated,PTH,ViaDrill
T1C0.0118
; #@! TA.AperFunction,Plated,PTH,ComponentDrill
T2C0.0315
; #@! TA.AperFunction,Plated,PTH,ComponentDrill
T3C0.0354
; #@! TA.AperFunction,Plated,PTH,ComponentDrill
T4C0.0394
; #@! TA.AperFunction,Plated,PTH,ComponentDrill
T5C0.0433
; #@! TA.AperFunction,Plated,PTH,ComponentDrill
T6C0.0512
%
G90
G05
T1
X4.79Y-3.23
X4.9Y-4.06
X4.9Y-4.51
X4.9Y-4.93
X4.96Y-3.07
X5.3Y-3.56
X5.37Y-4.1
X5.4734Y-3.72
X5.4734Y-3.76
X5.4734Y-3.8
X5.64Y-3.83
X5.64Y-4.29
X5.64Y-4.7
X5.65Y-3.49
X5.95Y-4.15
X6.02Y-4.77
X6.03Y-3.76
X6.09Y-3.32
X6.44Y-3.33
X6.59Y-4.77
X6.83Y-3.72
X6.84Y-3.15
X6.845Y-3.855
X6.9Y-4.26
X7.1Y-3.15
X7.1Y-4.24
X7.22Y-3.79
X7.22Y-4.39
T2
X6.26Y-3.7
X6.66Y-3.7
T3
X6.9491Y-3.7896
X6.9491Y-3.8699
X6.9491Y-3.9502
X7.0491Y-3.8298
X7.0491Y-3.9101
X7.0491Y-3.9904
T4
X4.7502Y-3.8098
X4.7502Y-3.9098
X4.8502Y-3.8098
X4.8502Y-3.9098
X4.9502Y-3.8098
X4.9502Y-3.9098
X5.0502Y-3.8098
X5.0502Y-3.9098
X5.1502Y-3.8098
X5.1502Y-3.9098
X5.2502Y-3.8098
X5.2502Y-3.9098
X5.27Y-4.6698
X5.27Y-4.7698
X5.2769Y-4.26
X5.2769Y-4.36
X5.3502Y-3.8098
X5.3502Y-3.9098
X5.3661Y-3.0213
X5.375Y-3.375
X5.4661Y-3.0213
X5.475Y-3.375
X5.5661Y-3.0213
X5.575Y-3.375
X5.6661Y-3.0213
X5.675Y-3.375
X5.726Y-4.9213
X5.7661Y-3.0213
X5.775Y-3.375
X5.826Y-4.9213
X5.8661Y-3.0213
X5.875Y-3.375
X5.926Y-4.9213
X5.9661Y-3.0213
X6.026Y-4.9213
X6.0661Y-3.0213
X6.126Y-4.9213
X6.1661Y-3.0213
X6.226Y-4.9213
X6.2661Y-3.0213
X6.326Y-4.9213
X6.426Y-3.0213
X6.426Y-4.9213
X6.526Y-3.0213
X6.626Y-3.0213
X6.626Y-4.9213
X6.675Y-3.375
X6.726Y-3.0213
X6.726Y-4.9213
X6.775Y-3.375
X6.826Y-3.0213
X6.826Y-4.9213
X6.875Y-3.375
X6.926Y-3.0213
X6.926Y-4.9213
X6.975Y-3.375
X7.026Y-3.0213
X7.026Y-4.9213
X7.075Y-3.375
X7.1Y-4.33
X7.1Y-4.43
X7.1Y-4.53
X7.126Y-3.0213
X7.126Y-4.9213
T5
X6.19Y-3.87
X6.19Y-4.27
X6.37Y-3.87
X6.37Y-4.27
X6.55Y-3.87
X6.55Y-4.27
X6.73Y-3.87
X6.73Y-4.27
T6
X6.16Y-4.48
X6.76Y-4.48
T2
G00X4.775Y-4.1801
M15
G01X4.7475Y-4.1801
M16
G05
G00X4.775Y-4.4399
M15
G01X4.7475Y-4.4399
M16
G05
G00X4.775Y-4.5901
M15
G01X4.7475Y-4.5901
M16
G05
G00X4.775Y-4.8499
M15
G01X4.7475Y-4.8499
M16
G05
G00X5.09Y-4.1978
M15
G01X5.0624Y-4.1978
M16
G05
G00X5.09Y-4.4222
M15
G01X5.0624Y-4.4222
M16
G05
G00X5.09Y-4.6078
M15
G01X5.0624Y-4.6078
M16
G05
G00X5.09Y-4.8322
M15
G01X5.0624Y-4.8322
M16
G05
G00X5.1077Y-4.2962
M15
G01X5.1077Y-4.3238
M16
G05
G00X5.1077Y-4.7062
M15
G01X5.1077Y-4.7338
M16
G05
M30
