%TF.GenerationSoftware,KiCad,Pcbnew,8.0.6-8.0.6-0~ubuntu22.04.1*%
%TF.CreationDate,2024-11-16T23:11:12-08:00*%
%TF.ProjectId,telduino,74656c64-7569-46e6-9f2e-6b696361645f,0.1*%
%TF.SameCoordinates,Original*%
%TF.FileFunction,Legend,Top*%
%TF.FilePolarity,Positive*%
%FSLAX46Y46*%
G04 Gerber Fmt 4.6, Leading zero omitted, Abs format (unit mm)*
G04 Created by KiCad (PCBNEW 8.0.6-8.0.6-0~ubuntu22.04.1) date 2024-11-16 23:11:12*
%MOMM*%
%LPD*%
G01*
G04 APERTURE LIST*
%ADD10C,0.100000*%
%ADD11C,0.150000*%
%ADD12C,0.200000*%
%ADD13C,0.120000*%
%ADD14C,0.127000*%
G04 APERTURE END LIST*
D10*
X145337884Y-117474419D02*
X145337884Y-116474419D01*
X145337884Y-116855371D02*
X145433122Y-116807752D01*
X145433122Y-116807752D02*
X145623598Y-116807752D01*
X145623598Y-116807752D02*
X145718836Y-116855371D01*
X145718836Y-116855371D02*
X145766455Y-116902990D01*
X145766455Y-116902990D02*
X145814074Y-116998228D01*
X145814074Y-116998228D02*
X145814074Y-117283942D01*
X145814074Y-117283942D02*
X145766455Y-117379180D01*
X145766455Y-117379180D02*
X145718836Y-117426800D01*
X145718836Y-117426800D02*
X145623598Y-117474419D01*
X145623598Y-117474419D02*
X145433122Y-117474419D01*
X145433122Y-117474419D02*
X145337884Y-117426800D01*
X146671217Y-117474419D02*
X146671217Y-116950609D01*
X146671217Y-116950609D02*
X146623598Y-116855371D01*
X146623598Y-116855371D02*
X146528360Y-116807752D01*
X146528360Y-116807752D02*
X146337884Y-116807752D01*
X146337884Y-116807752D02*
X146242646Y-116855371D01*
X146671217Y-117426800D02*
X146575979Y-117474419D01*
X146575979Y-117474419D02*
X146337884Y-117474419D01*
X146337884Y-117474419D02*
X146242646Y-117426800D01*
X146242646Y-117426800D02*
X146195027Y-117331561D01*
X146195027Y-117331561D02*
X146195027Y-117236323D01*
X146195027Y-117236323D02*
X146242646Y-117141085D01*
X146242646Y-117141085D02*
X146337884Y-117093466D01*
X146337884Y-117093466D02*
X146575979Y-117093466D01*
X146575979Y-117093466D02*
X146671217Y-117045847D01*
X147147408Y-116807752D02*
X147147408Y-117474419D01*
X147147408Y-116902990D02*
X147195027Y-116855371D01*
X147195027Y-116855371D02*
X147290265Y-116807752D01*
X147290265Y-116807752D02*
X147433122Y-116807752D01*
X147433122Y-116807752D02*
X147528360Y-116855371D01*
X147528360Y-116855371D02*
X147575979Y-116950609D01*
X147575979Y-116950609D02*
X147575979Y-117474419D01*
X148480741Y-117474419D02*
X148480741Y-116950609D01*
X148480741Y-116950609D02*
X148433122Y-116855371D01*
X148433122Y-116855371D02*
X148337884Y-116807752D01*
X148337884Y-116807752D02*
X148147408Y-116807752D01*
X148147408Y-116807752D02*
X148052170Y-116855371D01*
X148480741Y-117426800D02*
X148385503Y-117474419D01*
X148385503Y-117474419D02*
X148147408Y-117474419D01*
X148147408Y-117474419D02*
X148052170Y-117426800D01*
X148052170Y-117426800D02*
X148004551Y-117331561D01*
X148004551Y-117331561D02*
X148004551Y-117236323D01*
X148004551Y-117236323D02*
X148052170Y-117141085D01*
X148052170Y-117141085D02*
X148147408Y-117093466D01*
X148147408Y-117093466D02*
X148385503Y-117093466D01*
X148385503Y-117093466D02*
X148480741Y-117045847D01*
X148956932Y-116807752D02*
X148956932Y-117474419D01*
X148956932Y-116902990D02*
X149004551Y-116855371D01*
X149004551Y-116855371D02*
X149099789Y-116807752D01*
X149099789Y-116807752D02*
X149242646Y-116807752D01*
X149242646Y-116807752D02*
X149337884Y-116855371D01*
X149337884Y-116855371D02*
X149385503Y-116950609D01*
X149385503Y-116950609D02*
X149385503Y-117474419D01*
X150290265Y-116807752D02*
X150290265Y-117474419D01*
X149861694Y-116807752D02*
X149861694Y-117331561D01*
X149861694Y-117331561D02*
X149909313Y-117426800D01*
X149909313Y-117426800D02*
X150004551Y-117474419D01*
X150004551Y-117474419D02*
X150147408Y-117474419D01*
X150147408Y-117474419D02*
X150242646Y-117426800D01*
X150242646Y-117426800D02*
X150290265Y-117379180D01*
X150909313Y-117474419D02*
X150814075Y-117426800D01*
X150814075Y-117426800D02*
X150766456Y-117331561D01*
X150766456Y-117331561D02*
X150766456Y-116474419D01*
X151718837Y-117474419D02*
X151718837Y-116950609D01*
X151718837Y-116950609D02*
X151671218Y-116855371D01*
X151671218Y-116855371D02*
X151575980Y-116807752D01*
X151575980Y-116807752D02*
X151385504Y-116807752D01*
X151385504Y-116807752D02*
X151290266Y-116855371D01*
X151718837Y-117426800D02*
X151623599Y-117474419D01*
X151623599Y-117474419D02*
X151385504Y-117474419D01*
X151385504Y-117474419D02*
X151290266Y-117426800D01*
X151290266Y-117426800D02*
X151242647Y-117331561D01*
X151242647Y-117331561D02*
X151242647Y-117236323D01*
X151242647Y-117236323D02*
X151290266Y-117141085D01*
X151290266Y-117141085D02*
X151385504Y-117093466D01*
X151385504Y-117093466D02*
X151623599Y-117093466D01*
X151623599Y-117093466D02*
X151718837Y-117045847D01*
X152195028Y-117474419D02*
X152195028Y-116807752D01*
X152195028Y-116998228D02*
X152242647Y-116902990D01*
X152242647Y-116902990D02*
X152290266Y-116855371D01*
X152290266Y-116855371D02*
X152385504Y-116807752D01*
X152385504Y-116807752D02*
X152480742Y-116807752D01*
D11*
X120018180Y-92252969D02*
X120018180Y-91776779D01*
X120018180Y-91776779D02*
X121018180Y-91776779D01*
X120541990Y-92586303D02*
X120541990Y-92919636D01*
X120018180Y-93062493D02*
X120018180Y-92586303D01*
X120018180Y-92586303D02*
X121018180Y-92586303D01*
X121018180Y-92586303D02*
X121018180Y-93062493D01*
X120018180Y-93491065D02*
X121018180Y-93491065D01*
X121018180Y-93491065D02*
X121018180Y-93729160D01*
X121018180Y-93729160D02*
X120970561Y-93872017D01*
X120970561Y-93872017D02*
X120875323Y-93967255D01*
X120875323Y-93967255D02*
X120780085Y-94014874D01*
X120780085Y-94014874D02*
X120589609Y-94062493D01*
X120589609Y-94062493D02*
X120446752Y-94062493D01*
X120446752Y-94062493D02*
X120256276Y-94014874D01*
X120256276Y-94014874D02*
X120161038Y-93967255D01*
X120161038Y-93967255D02*
X120065800Y-93872017D01*
X120065800Y-93872017D02*
X120018180Y-93729160D01*
X120018180Y-93729160D02*
X120018180Y-93491065D01*
X120018180Y-95014874D02*
X120018180Y-94443446D01*
X120018180Y-94729160D02*
X121018180Y-94729160D01*
X121018180Y-94729160D02*
X120875323Y-94633922D01*
X120875323Y-94633922D02*
X120780085Y-94538684D01*
X120780085Y-94538684D02*
X120732466Y-94443446D01*
X122558180Y-92252969D02*
X122558180Y-91776779D01*
X122558180Y-91776779D02*
X123558180Y-91776779D01*
X123081990Y-92586303D02*
X123081990Y-92919636D01*
X122558180Y-93062493D02*
X122558180Y-92586303D01*
X122558180Y-92586303D02*
X123558180Y-92586303D01*
X123558180Y-92586303D02*
X123558180Y-93062493D01*
X122558180Y-93491065D02*
X123558180Y-93491065D01*
X123558180Y-93491065D02*
X123558180Y-93729160D01*
X123558180Y-93729160D02*
X123510561Y-93872017D01*
X123510561Y-93872017D02*
X123415323Y-93967255D01*
X123415323Y-93967255D02*
X123320085Y-94014874D01*
X123320085Y-94014874D02*
X123129609Y-94062493D01*
X123129609Y-94062493D02*
X122986752Y-94062493D01*
X122986752Y-94062493D02*
X122796276Y-94014874D01*
X122796276Y-94014874D02*
X122701038Y-93967255D01*
X122701038Y-93967255D02*
X122605800Y-93872017D01*
X122605800Y-93872017D02*
X122558180Y-93729160D01*
X122558180Y-93729160D02*
X122558180Y-93491065D01*
X123462942Y-94443446D02*
X123510561Y-94491065D01*
X123510561Y-94491065D02*
X123558180Y-94586303D01*
X123558180Y-94586303D02*
X123558180Y-94824398D01*
X123558180Y-94824398D02*
X123510561Y-94919636D01*
X123510561Y-94919636D02*
X123462942Y-94967255D01*
X123462942Y-94967255D02*
X123367704Y-95014874D01*
X123367704Y-95014874D02*
X123272466Y-95014874D01*
X123272466Y-95014874D02*
X123129609Y-94967255D01*
X123129609Y-94967255D02*
X122558180Y-94395827D01*
X122558180Y-94395827D02*
X122558180Y-95014874D01*
X125098180Y-92252969D02*
X125098180Y-91776779D01*
X125098180Y-91776779D02*
X126098180Y-91776779D01*
X125621990Y-92586303D02*
X125621990Y-92919636D01*
X125098180Y-93062493D02*
X125098180Y-92586303D01*
X125098180Y-92586303D02*
X126098180Y-92586303D01*
X126098180Y-92586303D02*
X126098180Y-93062493D01*
X125098180Y-93491065D02*
X126098180Y-93491065D01*
X126098180Y-93491065D02*
X126098180Y-93729160D01*
X126098180Y-93729160D02*
X126050561Y-93872017D01*
X126050561Y-93872017D02*
X125955323Y-93967255D01*
X125955323Y-93967255D02*
X125860085Y-94014874D01*
X125860085Y-94014874D02*
X125669609Y-94062493D01*
X125669609Y-94062493D02*
X125526752Y-94062493D01*
X125526752Y-94062493D02*
X125336276Y-94014874D01*
X125336276Y-94014874D02*
X125241038Y-93967255D01*
X125241038Y-93967255D02*
X125145800Y-93872017D01*
X125145800Y-93872017D02*
X125098180Y-93729160D01*
X125098180Y-93729160D02*
X125098180Y-93491065D01*
X126098180Y-94395827D02*
X126098180Y-95014874D01*
X126098180Y-95014874D02*
X125717228Y-94681541D01*
X125717228Y-94681541D02*
X125717228Y-94824398D01*
X125717228Y-94824398D02*
X125669609Y-94919636D01*
X125669609Y-94919636D02*
X125621990Y-94967255D01*
X125621990Y-94967255D02*
X125526752Y-95014874D01*
X125526752Y-95014874D02*
X125288657Y-95014874D01*
X125288657Y-95014874D02*
X125193419Y-94967255D01*
X125193419Y-94967255D02*
X125145800Y-94919636D01*
X125145800Y-94919636D02*
X125098180Y-94824398D01*
X125098180Y-94824398D02*
X125098180Y-94538684D01*
X125098180Y-94538684D02*
X125145800Y-94443446D01*
X125145800Y-94443446D02*
X125193419Y-94395827D01*
X127685800Y-93253160D02*
X127638180Y-93396017D01*
X127638180Y-93396017D02*
X127638180Y-93634112D01*
X127638180Y-93634112D02*
X127685800Y-93729350D01*
X127685800Y-93729350D02*
X127733419Y-93776969D01*
X127733419Y-93776969D02*
X127828657Y-93824588D01*
X127828657Y-93824588D02*
X127923895Y-93824588D01*
X127923895Y-93824588D02*
X128019133Y-93776969D01*
X128019133Y-93776969D02*
X128066752Y-93729350D01*
X128066752Y-93729350D02*
X128114371Y-93634112D01*
X128114371Y-93634112D02*
X128161990Y-93443636D01*
X128161990Y-93443636D02*
X128209609Y-93348398D01*
X128209609Y-93348398D02*
X128257228Y-93300779D01*
X128257228Y-93300779D02*
X128352466Y-93253160D01*
X128352466Y-93253160D02*
X128447704Y-93253160D01*
X128447704Y-93253160D02*
X128542942Y-93300779D01*
X128542942Y-93300779D02*
X128590561Y-93348398D01*
X128590561Y-93348398D02*
X128638180Y-93443636D01*
X128638180Y-93443636D02*
X128638180Y-93681731D01*
X128638180Y-93681731D02*
X128590561Y-93824588D01*
X128638180Y-94157922D02*
X127638180Y-94396017D01*
X127638180Y-94396017D02*
X128352466Y-94586493D01*
X128352466Y-94586493D02*
X127638180Y-94776969D01*
X127638180Y-94776969D02*
X128638180Y-95015065D01*
X120970561Y-101952588D02*
X121018180Y-101857350D01*
X121018180Y-101857350D02*
X121018180Y-101714493D01*
X121018180Y-101714493D02*
X120970561Y-101571636D01*
X120970561Y-101571636D02*
X120875323Y-101476398D01*
X120875323Y-101476398D02*
X120780085Y-101428779D01*
X120780085Y-101428779D02*
X120589609Y-101381160D01*
X120589609Y-101381160D02*
X120446752Y-101381160D01*
X120446752Y-101381160D02*
X120256276Y-101428779D01*
X120256276Y-101428779D02*
X120161038Y-101476398D01*
X120161038Y-101476398D02*
X120065800Y-101571636D01*
X120065800Y-101571636D02*
X120018180Y-101714493D01*
X120018180Y-101714493D02*
X120018180Y-101809731D01*
X120018180Y-101809731D02*
X120065800Y-101952588D01*
X120065800Y-101952588D02*
X120113419Y-102000207D01*
X120113419Y-102000207D02*
X120446752Y-102000207D01*
X120446752Y-102000207D02*
X120446752Y-101809731D01*
X120018180Y-102428779D02*
X121018180Y-102428779D01*
X121018180Y-102428779D02*
X120018180Y-103000207D01*
X120018180Y-103000207D02*
X121018180Y-103000207D01*
X120018180Y-103476398D02*
X121018180Y-103476398D01*
X121018180Y-103476398D02*
X121018180Y-103714493D01*
X121018180Y-103714493D02*
X120970561Y-103857350D01*
X120970561Y-103857350D02*
X120875323Y-103952588D01*
X120875323Y-103952588D02*
X120780085Y-104000207D01*
X120780085Y-104000207D02*
X120589609Y-104047826D01*
X120589609Y-104047826D02*
X120446752Y-104047826D01*
X120446752Y-104047826D02*
X120256276Y-104000207D01*
X120256276Y-104000207D02*
X120161038Y-103952588D01*
X120161038Y-103952588D02*
X120065800Y-103857350D01*
X120065800Y-103857350D02*
X120018180Y-103714493D01*
X120018180Y-103714493D02*
X120018180Y-103476398D01*
X123510561Y-101952588D02*
X123558180Y-101857350D01*
X123558180Y-101857350D02*
X123558180Y-101714493D01*
X123558180Y-101714493D02*
X123510561Y-101571636D01*
X123510561Y-101571636D02*
X123415323Y-101476398D01*
X123415323Y-101476398D02*
X123320085Y-101428779D01*
X123320085Y-101428779D02*
X123129609Y-101381160D01*
X123129609Y-101381160D02*
X122986752Y-101381160D01*
X122986752Y-101381160D02*
X122796276Y-101428779D01*
X122796276Y-101428779D02*
X122701038Y-101476398D01*
X122701038Y-101476398D02*
X122605800Y-101571636D01*
X122605800Y-101571636D02*
X122558180Y-101714493D01*
X122558180Y-101714493D02*
X122558180Y-101809731D01*
X122558180Y-101809731D02*
X122605800Y-101952588D01*
X122605800Y-101952588D02*
X122653419Y-102000207D01*
X122653419Y-102000207D02*
X122986752Y-102000207D01*
X122986752Y-102000207D02*
X122986752Y-101809731D01*
X122558180Y-102428779D02*
X123558180Y-102428779D01*
X123558180Y-102428779D02*
X122558180Y-103000207D01*
X122558180Y-103000207D02*
X123558180Y-103000207D01*
X122558180Y-103476398D02*
X123558180Y-103476398D01*
X123558180Y-103476398D02*
X123558180Y-103714493D01*
X123558180Y-103714493D02*
X123510561Y-103857350D01*
X123510561Y-103857350D02*
X123415323Y-103952588D01*
X123415323Y-103952588D02*
X123320085Y-104000207D01*
X123320085Y-104000207D02*
X123129609Y-104047826D01*
X123129609Y-104047826D02*
X122986752Y-104047826D01*
X122986752Y-104047826D02*
X122796276Y-104000207D01*
X122796276Y-104000207D02*
X122701038Y-103952588D01*
X122701038Y-103952588D02*
X122605800Y-103857350D01*
X122605800Y-103857350D02*
X122558180Y-103714493D01*
X122558180Y-103714493D02*
X122558180Y-103476398D01*
X126050561Y-101952588D02*
X126098180Y-101857350D01*
X126098180Y-101857350D02*
X126098180Y-101714493D01*
X126098180Y-101714493D02*
X126050561Y-101571636D01*
X126050561Y-101571636D02*
X125955323Y-101476398D01*
X125955323Y-101476398D02*
X125860085Y-101428779D01*
X125860085Y-101428779D02*
X125669609Y-101381160D01*
X125669609Y-101381160D02*
X125526752Y-101381160D01*
X125526752Y-101381160D02*
X125336276Y-101428779D01*
X125336276Y-101428779D02*
X125241038Y-101476398D01*
X125241038Y-101476398D02*
X125145800Y-101571636D01*
X125145800Y-101571636D02*
X125098180Y-101714493D01*
X125098180Y-101714493D02*
X125098180Y-101809731D01*
X125098180Y-101809731D02*
X125145800Y-101952588D01*
X125145800Y-101952588D02*
X125193419Y-102000207D01*
X125193419Y-102000207D02*
X125526752Y-102000207D01*
X125526752Y-102000207D02*
X125526752Y-101809731D01*
X125098180Y-102428779D02*
X126098180Y-102428779D01*
X126098180Y-102428779D02*
X125098180Y-103000207D01*
X125098180Y-103000207D02*
X126098180Y-103000207D01*
X125098180Y-103476398D02*
X126098180Y-103476398D01*
X126098180Y-103476398D02*
X126098180Y-103714493D01*
X126098180Y-103714493D02*
X126050561Y-103857350D01*
X126050561Y-103857350D02*
X125955323Y-103952588D01*
X125955323Y-103952588D02*
X125860085Y-104000207D01*
X125860085Y-104000207D02*
X125669609Y-104047826D01*
X125669609Y-104047826D02*
X125526752Y-104047826D01*
X125526752Y-104047826D02*
X125336276Y-104000207D01*
X125336276Y-104000207D02*
X125241038Y-103952588D01*
X125241038Y-103952588D02*
X125145800Y-103857350D01*
X125145800Y-103857350D02*
X125098180Y-103714493D01*
X125098180Y-103714493D02*
X125098180Y-103476398D01*
X128638180Y-101904969D02*
X128638180Y-101428779D01*
X128638180Y-101428779D02*
X128161990Y-101381160D01*
X128161990Y-101381160D02*
X128209609Y-101428779D01*
X128209609Y-101428779D02*
X128257228Y-101524017D01*
X128257228Y-101524017D02*
X128257228Y-101762112D01*
X128257228Y-101762112D02*
X128209609Y-101857350D01*
X128209609Y-101857350D02*
X128161990Y-101904969D01*
X128161990Y-101904969D02*
X128066752Y-101952588D01*
X128066752Y-101952588D02*
X127828657Y-101952588D01*
X127828657Y-101952588D02*
X127733419Y-101904969D01*
X127733419Y-101904969D02*
X127685800Y-101857350D01*
X127685800Y-101857350D02*
X127638180Y-101762112D01*
X127638180Y-101762112D02*
X127638180Y-101524017D01*
X127638180Y-101524017D02*
X127685800Y-101428779D01*
X127685800Y-101428779D02*
X127733419Y-101381160D01*
X128638180Y-102238303D02*
X127638180Y-102571636D01*
X127638180Y-102571636D02*
X128638180Y-102904969D01*
X131130561Y-101952588D02*
X131178180Y-101857350D01*
X131178180Y-101857350D02*
X131178180Y-101714493D01*
X131178180Y-101714493D02*
X131130561Y-101571636D01*
X131130561Y-101571636D02*
X131035323Y-101476398D01*
X131035323Y-101476398D02*
X130940085Y-101428779D01*
X130940085Y-101428779D02*
X130749609Y-101381160D01*
X130749609Y-101381160D02*
X130606752Y-101381160D01*
X130606752Y-101381160D02*
X130416276Y-101428779D01*
X130416276Y-101428779D02*
X130321038Y-101476398D01*
X130321038Y-101476398D02*
X130225800Y-101571636D01*
X130225800Y-101571636D02*
X130178180Y-101714493D01*
X130178180Y-101714493D02*
X130178180Y-101809731D01*
X130178180Y-101809731D02*
X130225800Y-101952588D01*
X130225800Y-101952588D02*
X130273419Y-102000207D01*
X130273419Y-102000207D02*
X130606752Y-102000207D01*
X130606752Y-102000207D02*
X130606752Y-101809731D01*
X130178180Y-102428779D02*
X131178180Y-102428779D01*
X131178180Y-102428779D02*
X130178180Y-103000207D01*
X130178180Y-103000207D02*
X131178180Y-103000207D01*
X130178180Y-103476398D02*
X131178180Y-103476398D01*
X131178180Y-103476398D02*
X131178180Y-103714493D01*
X131178180Y-103714493D02*
X131130561Y-103857350D01*
X131130561Y-103857350D02*
X131035323Y-103952588D01*
X131035323Y-103952588D02*
X130940085Y-104000207D01*
X130940085Y-104000207D02*
X130749609Y-104047826D01*
X130749609Y-104047826D02*
X130606752Y-104047826D01*
X130606752Y-104047826D02*
X130416276Y-104000207D01*
X130416276Y-104000207D02*
X130321038Y-103952588D01*
X130321038Y-103952588D02*
X130225800Y-103857350D01*
X130225800Y-103857350D02*
X130178180Y-103714493D01*
X130178180Y-103714493D02*
X130178180Y-103476398D01*
X132718180Y-102000207D02*
X133194371Y-101666874D01*
X132718180Y-101428779D02*
X133718180Y-101428779D01*
X133718180Y-101428779D02*
X133718180Y-101809731D01*
X133718180Y-101809731D02*
X133670561Y-101904969D01*
X133670561Y-101904969D02*
X133622942Y-101952588D01*
X133622942Y-101952588D02*
X133527704Y-102000207D01*
X133527704Y-102000207D02*
X133384847Y-102000207D01*
X133384847Y-102000207D02*
X133289609Y-101952588D01*
X133289609Y-101952588D02*
X133241990Y-101904969D01*
X133241990Y-101904969D02*
X133194371Y-101809731D01*
X133194371Y-101809731D02*
X133194371Y-101428779D01*
X132765800Y-102381160D02*
X132718180Y-102524017D01*
X132718180Y-102524017D02*
X132718180Y-102762112D01*
X132718180Y-102762112D02*
X132765800Y-102857350D01*
X132765800Y-102857350D02*
X132813419Y-102904969D01*
X132813419Y-102904969D02*
X132908657Y-102952588D01*
X132908657Y-102952588D02*
X133003895Y-102952588D01*
X133003895Y-102952588D02*
X133099133Y-102904969D01*
X133099133Y-102904969D02*
X133146752Y-102857350D01*
X133146752Y-102857350D02*
X133194371Y-102762112D01*
X133194371Y-102762112D02*
X133241990Y-102571636D01*
X133241990Y-102571636D02*
X133289609Y-102476398D01*
X133289609Y-102476398D02*
X133337228Y-102428779D01*
X133337228Y-102428779D02*
X133432466Y-102381160D01*
X133432466Y-102381160D02*
X133527704Y-102381160D01*
X133527704Y-102381160D02*
X133622942Y-102428779D01*
X133622942Y-102428779D02*
X133670561Y-102476398D01*
X133670561Y-102476398D02*
X133718180Y-102571636D01*
X133718180Y-102571636D02*
X133718180Y-102809731D01*
X133718180Y-102809731D02*
X133670561Y-102952588D01*
X133718180Y-103238303D02*
X133718180Y-103809731D01*
X132718180Y-103524017D02*
X133718180Y-103524017D01*
X131178180Y-93411922D02*
X131178180Y-93983350D01*
X130178180Y-93697636D02*
X131178180Y-93697636D01*
X131178180Y-94221446D02*
X130178180Y-94888112D01*
X131178180Y-94888112D02*
X130178180Y-94221446D01*
X132718180Y-93872207D02*
X133194371Y-93538874D01*
X132718180Y-93300779D02*
X133718180Y-93300779D01*
X133718180Y-93300779D02*
X133718180Y-93681731D01*
X133718180Y-93681731D02*
X133670561Y-93776969D01*
X133670561Y-93776969D02*
X133622942Y-93824588D01*
X133622942Y-93824588D02*
X133527704Y-93872207D01*
X133527704Y-93872207D02*
X133384847Y-93872207D01*
X133384847Y-93872207D02*
X133289609Y-93824588D01*
X133289609Y-93824588D02*
X133241990Y-93776969D01*
X133241990Y-93776969D02*
X133194371Y-93681731D01*
X133194371Y-93681731D02*
X133194371Y-93300779D01*
X133718180Y-94205541D02*
X132718180Y-94872207D01*
X133718180Y-94872207D02*
X132718180Y-94205541D01*
X136258180Y-101904969D02*
X136258180Y-101428779D01*
X136258180Y-101428779D02*
X135781990Y-101381160D01*
X135781990Y-101381160D02*
X135829609Y-101428779D01*
X135829609Y-101428779D02*
X135877228Y-101524017D01*
X135877228Y-101524017D02*
X135877228Y-101762112D01*
X135877228Y-101762112D02*
X135829609Y-101857350D01*
X135829609Y-101857350D02*
X135781990Y-101904969D01*
X135781990Y-101904969D02*
X135686752Y-101952588D01*
X135686752Y-101952588D02*
X135448657Y-101952588D01*
X135448657Y-101952588D02*
X135353419Y-101904969D01*
X135353419Y-101904969D02*
X135305800Y-101857350D01*
X135305800Y-101857350D02*
X135258180Y-101762112D01*
X135258180Y-101762112D02*
X135258180Y-101524017D01*
X135258180Y-101524017D02*
X135305800Y-101428779D01*
X135305800Y-101428779D02*
X135353419Y-101381160D01*
X136258180Y-102238303D02*
X135258180Y-102571636D01*
X135258180Y-102571636D02*
X136258180Y-102904969D01*
X136210561Y-92808588D02*
X136258180Y-92713350D01*
X136258180Y-92713350D02*
X136258180Y-92570493D01*
X136258180Y-92570493D02*
X136210561Y-92427636D01*
X136210561Y-92427636D02*
X136115323Y-92332398D01*
X136115323Y-92332398D02*
X136020085Y-92284779D01*
X136020085Y-92284779D02*
X135829609Y-92237160D01*
X135829609Y-92237160D02*
X135686752Y-92237160D01*
X135686752Y-92237160D02*
X135496276Y-92284779D01*
X135496276Y-92284779D02*
X135401038Y-92332398D01*
X135401038Y-92332398D02*
X135305800Y-92427636D01*
X135305800Y-92427636D02*
X135258180Y-92570493D01*
X135258180Y-92570493D02*
X135258180Y-92665731D01*
X135258180Y-92665731D02*
X135305800Y-92808588D01*
X135305800Y-92808588D02*
X135353419Y-92856207D01*
X135353419Y-92856207D02*
X135686752Y-92856207D01*
X135686752Y-92856207D02*
X135686752Y-92665731D01*
X135258180Y-93284779D02*
X136258180Y-93284779D01*
X136258180Y-93284779D02*
X135258180Y-93856207D01*
X135258180Y-93856207D02*
X136258180Y-93856207D01*
X135258180Y-94332398D02*
X136258180Y-94332398D01*
X136258180Y-94332398D02*
X136258180Y-94570493D01*
X136258180Y-94570493D02*
X136210561Y-94713350D01*
X136210561Y-94713350D02*
X136115323Y-94808588D01*
X136115323Y-94808588D02*
X136020085Y-94856207D01*
X136020085Y-94856207D02*
X135829609Y-94903826D01*
X135829609Y-94903826D02*
X135686752Y-94903826D01*
X135686752Y-94903826D02*
X135496276Y-94856207D01*
X135496276Y-94856207D02*
X135401038Y-94808588D01*
X135401038Y-94808588D02*
X135305800Y-94713350D01*
X135305800Y-94713350D02*
X135258180Y-94570493D01*
X135258180Y-94570493D02*
X135258180Y-94332398D01*
X136179160Y-108296104D02*
X136655350Y-108296104D01*
X136083922Y-108581819D02*
X136417255Y-107581819D01*
X136417255Y-107581819D02*
X136750588Y-108581819D01*
X137083922Y-107581819D02*
X137083922Y-108391342D01*
X137083922Y-108391342D02*
X137131541Y-108486580D01*
X137131541Y-108486580D02*
X137179160Y-108534200D01*
X137179160Y-108534200D02*
X137274398Y-108581819D01*
X137274398Y-108581819D02*
X137464874Y-108581819D01*
X137464874Y-108581819D02*
X137560112Y-108534200D01*
X137560112Y-108534200D02*
X137607731Y-108486580D01*
X137607731Y-108486580D02*
X137655350Y-108391342D01*
X137655350Y-108391342D02*
X137655350Y-107581819D01*
X138131541Y-108581819D02*
X138131541Y-107581819D01*
X138131541Y-107581819D02*
X138369636Y-107581819D01*
X138369636Y-107581819D02*
X138512493Y-107629438D01*
X138512493Y-107629438D02*
X138607731Y-107724676D01*
X138607731Y-107724676D02*
X138655350Y-107819914D01*
X138655350Y-107819914D02*
X138702969Y-108010390D01*
X138702969Y-108010390D02*
X138702969Y-108153247D01*
X138702969Y-108153247D02*
X138655350Y-108343723D01*
X138655350Y-108343723D02*
X138607731Y-108438961D01*
X138607731Y-108438961D02*
X138512493Y-108534200D01*
X138512493Y-108534200D02*
X138369636Y-108581819D01*
X138369636Y-108581819D02*
X138131541Y-108581819D01*
X139131541Y-108581819D02*
X139131541Y-107581819D01*
X139798207Y-107581819D02*
X139988683Y-107581819D01*
X139988683Y-107581819D02*
X140083921Y-107629438D01*
X140083921Y-107629438D02*
X140179159Y-107724676D01*
X140179159Y-107724676D02*
X140226778Y-107915152D01*
X140226778Y-107915152D02*
X140226778Y-108248485D01*
X140226778Y-108248485D02*
X140179159Y-108438961D01*
X140179159Y-108438961D02*
X140083921Y-108534200D01*
X140083921Y-108534200D02*
X139988683Y-108581819D01*
X139988683Y-108581819D02*
X139798207Y-108581819D01*
X139798207Y-108581819D02*
X139702969Y-108534200D01*
X139702969Y-108534200D02*
X139607731Y-108438961D01*
X139607731Y-108438961D02*
X139560112Y-108248485D01*
X139560112Y-108248485D02*
X139560112Y-107915152D01*
X139560112Y-107915152D02*
X139607731Y-107724676D01*
X139607731Y-107724676D02*
X139702969Y-107629438D01*
X139702969Y-107629438D02*
X139798207Y-107581819D01*
X141607731Y-107581819D02*
X141798207Y-107581819D01*
X141798207Y-107581819D02*
X141893445Y-107629438D01*
X141893445Y-107629438D02*
X141988683Y-107724676D01*
X141988683Y-107724676D02*
X142036302Y-107915152D01*
X142036302Y-107915152D02*
X142036302Y-108248485D01*
X142036302Y-108248485D02*
X141988683Y-108438961D01*
X141988683Y-108438961D02*
X141893445Y-108534200D01*
X141893445Y-108534200D02*
X141798207Y-108581819D01*
X141798207Y-108581819D02*
X141607731Y-108581819D01*
X141607731Y-108581819D02*
X141512493Y-108534200D01*
X141512493Y-108534200D02*
X141417255Y-108438961D01*
X141417255Y-108438961D02*
X141369636Y-108248485D01*
X141369636Y-108248485D02*
X141369636Y-107915152D01*
X141369636Y-107915152D02*
X141417255Y-107724676D01*
X141417255Y-107724676D02*
X141512493Y-107629438D01*
X141512493Y-107629438D02*
X141607731Y-107581819D01*
X142464874Y-107581819D02*
X142464874Y-108391342D01*
X142464874Y-108391342D02*
X142512493Y-108486580D01*
X142512493Y-108486580D02*
X142560112Y-108534200D01*
X142560112Y-108534200D02*
X142655350Y-108581819D01*
X142655350Y-108581819D02*
X142845826Y-108581819D01*
X142845826Y-108581819D02*
X142941064Y-108534200D01*
X142941064Y-108534200D02*
X142988683Y-108486580D01*
X142988683Y-108486580D02*
X143036302Y-108391342D01*
X143036302Y-108391342D02*
X143036302Y-107581819D01*
X143369636Y-107581819D02*
X143941064Y-107581819D01*
X143655350Y-108581819D02*
X143655350Y-107581819D01*
X135925160Y-118710104D02*
X136401350Y-118710104D01*
X135829922Y-118995819D02*
X136163255Y-117995819D01*
X136163255Y-117995819D02*
X136496588Y-118995819D01*
X136829922Y-117995819D02*
X136829922Y-118805342D01*
X136829922Y-118805342D02*
X136877541Y-118900580D01*
X136877541Y-118900580D02*
X136925160Y-118948200D01*
X136925160Y-118948200D02*
X137020398Y-118995819D01*
X137020398Y-118995819D02*
X137210874Y-118995819D01*
X137210874Y-118995819D02*
X137306112Y-118948200D01*
X137306112Y-118948200D02*
X137353731Y-118900580D01*
X137353731Y-118900580D02*
X137401350Y-118805342D01*
X137401350Y-118805342D02*
X137401350Y-117995819D01*
X137877541Y-118995819D02*
X137877541Y-117995819D01*
X137877541Y-117995819D02*
X138115636Y-117995819D01*
X138115636Y-117995819D02*
X138258493Y-118043438D01*
X138258493Y-118043438D02*
X138353731Y-118138676D01*
X138353731Y-118138676D02*
X138401350Y-118233914D01*
X138401350Y-118233914D02*
X138448969Y-118424390D01*
X138448969Y-118424390D02*
X138448969Y-118567247D01*
X138448969Y-118567247D02*
X138401350Y-118757723D01*
X138401350Y-118757723D02*
X138353731Y-118852961D01*
X138353731Y-118852961D02*
X138258493Y-118948200D01*
X138258493Y-118948200D02*
X138115636Y-118995819D01*
X138115636Y-118995819D02*
X137877541Y-118995819D01*
X138877541Y-118995819D02*
X138877541Y-117995819D01*
X139544207Y-117995819D02*
X139734683Y-117995819D01*
X139734683Y-117995819D02*
X139829921Y-118043438D01*
X139829921Y-118043438D02*
X139925159Y-118138676D01*
X139925159Y-118138676D02*
X139972778Y-118329152D01*
X139972778Y-118329152D02*
X139972778Y-118662485D01*
X139972778Y-118662485D02*
X139925159Y-118852961D01*
X139925159Y-118852961D02*
X139829921Y-118948200D01*
X139829921Y-118948200D02*
X139734683Y-118995819D01*
X139734683Y-118995819D02*
X139544207Y-118995819D01*
X139544207Y-118995819D02*
X139448969Y-118948200D01*
X139448969Y-118948200D02*
X139353731Y-118852961D01*
X139353731Y-118852961D02*
X139306112Y-118662485D01*
X139306112Y-118662485D02*
X139306112Y-118329152D01*
X139306112Y-118329152D02*
X139353731Y-118138676D01*
X139353731Y-118138676D02*
X139448969Y-118043438D01*
X139448969Y-118043438D02*
X139544207Y-117995819D01*
X141163255Y-118995819D02*
X141163255Y-117995819D01*
X141639445Y-118995819D02*
X141639445Y-117995819D01*
X141639445Y-117995819D02*
X142210873Y-118995819D01*
X142210873Y-118995819D02*
X142210873Y-117995819D01*
X176866779Y-115439819D02*
X176866779Y-114439819D01*
X176866779Y-114439819D02*
X177438207Y-115439819D01*
X177438207Y-115439819D02*
X177438207Y-114439819D01*
X178485826Y-115344580D02*
X178438207Y-115392200D01*
X178438207Y-115392200D02*
X178295350Y-115439819D01*
X178295350Y-115439819D02*
X178200112Y-115439819D01*
X178200112Y-115439819D02*
X178057255Y-115392200D01*
X178057255Y-115392200D02*
X177962017Y-115296961D01*
X177962017Y-115296961D02*
X177914398Y-115201723D01*
X177914398Y-115201723D02*
X177866779Y-115011247D01*
X177866779Y-115011247D02*
X177866779Y-114868390D01*
X177866779Y-114868390D02*
X177914398Y-114677914D01*
X177914398Y-114677914D02*
X177962017Y-114582676D01*
X177962017Y-114582676D02*
X178057255Y-114487438D01*
X178057255Y-114487438D02*
X178200112Y-114439819D01*
X178200112Y-114439819D02*
X178295350Y-114439819D01*
X178295350Y-114439819D02*
X178438207Y-114487438D01*
X178438207Y-114487438D02*
X178485826Y-114535057D01*
X176469922Y-111899819D02*
X177041350Y-111899819D01*
X176755636Y-112899819D02*
X176755636Y-111899819D01*
X177374684Y-112899819D02*
X177374684Y-111899819D01*
X177850874Y-112899819D02*
X177850874Y-111899819D01*
X177850874Y-111899819D02*
X178231826Y-111899819D01*
X178231826Y-111899819D02*
X178327064Y-111947438D01*
X178327064Y-111947438D02*
X178374683Y-111995057D01*
X178374683Y-111995057D02*
X178422302Y-112090295D01*
X178422302Y-112090295D02*
X178422302Y-112233152D01*
X178422302Y-112233152D02*
X178374683Y-112328390D01*
X178374683Y-112328390D02*
X178327064Y-112376009D01*
X178327064Y-112376009D02*
X178231826Y-112423628D01*
X178231826Y-112423628D02*
X177850874Y-112423628D01*
X175914207Y-110359819D02*
X175580874Y-109883628D01*
X175342779Y-110359819D02*
X175342779Y-109359819D01*
X175342779Y-109359819D02*
X175723731Y-109359819D01*
X175723731Y-109359819D02*
X175818969Y-109407438D01*
X175818969Y-109407438D02*
X175866588Y-109455057D01*
X175866588Y-109455057D02*
X175914207Y-109550295D01*
X175914207Y-109550295D02*
X175914207Y-109693152D01*
X175914207Y-109693152D02*
X175866588Y-109788390D01*
X175866588Y-109788390D02*
X175818969Y-109836009D01*
X175818969Y-109836009D02*
X175723731Y-109883628D01*
X175723731Y-109883628D02*
X175342779Y-109883628D01*
X176342779Y-110359819D02*
X176342779Y-109359819D01*
X176818969Y-110359819D02*
X176818969Y-109359819D01*
X176818969Y-109359819D02*
X177390397Y-110359819D01*
X177390397Y-110359819D02*
X177390397Y-109359819D01*
X178390397Y-109407438D02*
X178295159Y-109359819D01*
X178295159Y-109359819D02*
X178152302Y-109359819D01*
X178152302Y-109359819D02*
X178009445Y-109407438D01*
X178009445Y-109407438D02*
X177914207Y-109502676D01*
X177914207Y-109502676D02*
X177866588Y-109597914D01*
X177866588Y-109597914D02*
X177818969Y-109788390D01*
X177818969Y-109788390D02*
X177818969Y-109931247D01*
X177818969Y-109931247D02*
X177866588Y-110121723D01*
X177866588Y-110121723D02*
X177914207Y-110216961D01*
X177914207Y-110216961D02*
X178009445Y-110312200D01*
X178009445Y-110312200D02*
X178152302Y-110359819D01*
X178152302Y-110359819D02*
X178247540Y-110359819D01*
X178247540Y-110359819D02*
X178390397Y-110312200D01*
X178390397Y-110312200D02*
X178438016Y-110264580D01*
X178438016Y-110264580D02*
X178438016Y-109931247D01*
X178438016Y-109931247D02*
X178247540Y-109931247D01*
X172894666Y-95212819D02*
X172894666Y-95927104D01*
X172894666Y-95927104D02*
X172847047Y-96069961D01*
X172847047Y-96069961D02*
X172751809Y-96165200D01*
X172751809Y-96165200D02*
X172608952Y-96212819D01*
X172608952Y-96212819D02*
X172513714Y-96212819D01*
X173894666Y-96212819D02*
X173323238Y-96212819D01*
X173608952Y-96212819D02*
X173608952Y-95212819D01*
X173608952Y-95212819D02*
X173513714Y-95355676D01*
X173513714Y-95355676D02*
X173418476Y-95450914D01*
X173418476Y-95450914D02*
X173323238Y-95498533D01*
X148931333Y-94339580D02*
X148883714Y-94387200D01*
X148883714Y-94387200D02*
X148740857Y-94434819D01*
X148740857Y-94434819D02*
X148645619Y-94434819D01*
X148645619Y-94434819D02*
X148502762Y-94387200D01*
X148502762Y-94387200D02*
X148407524Y-94291961D01*
X148407524Y-94291961D02*
X148359905Y-94196723D01*
X148359905Y-94196723D02*
X148312286Y-94006247D01*
X148312286Y-94006247D02*
X148312286Y-93863390D01*
X148312286Y-93863390D02*
X148359905Y-93672914D01*
X148359905Y-93672914D02*
X148407524Y-93577676D01*
X148407524Y-93577676D02*
X148502762Y-93482438D01*
X148502762Y-93482438D02*
X148645619Y-93434819D01*
X148645619Y-93434819D02*
X148740857Y-93434819D01*
X148740857Y-93434819D02*
X148883714Y-93482438D01*
X148883714Y-93482438D02*
X148931333Y-93530057D01*
X149264667Y-93434819D02*
X149883714Y-93434819D01*
X149883714Y-93434819D02*
X149550381Y-93815771D01*
X149550381Y-93815771D02*
X149693238Y-93815771D01*
X149693238Y-93815771D02*
X149788476Y-93863390D01*
X149788476Y-93863390D02*
X149836095Y-93911009D01*
X149836095Y-93911009D02*
X149883714Y-94006247D01*
X149883714Y-94006247D02*
X149883714Y-94244342D01*
X149883714Y-94244342D02*
X149836095Y-94339580D01*
X149836095Y-94339580D02*
X149788476Y-94387200D01*
X149788476Y-94387200D02*
X149693238Y-94434819D01*
X149693238Y-94434819D02*
X149407524Y-94434819D01*
X149407524Y-94434819D02*
X149312286Y-94387200D01*
X149312286Y-94387200D02*
X149264667Y-94339580D01*
X143851333Y-92815580D02*
X143803714Y-92863200D01*
X143803714Y-92863200D02*
X143660857Y-92910819D01*
X143660857Y-92910819D02*
X143565619Y-92910819D01*
X143565619Y-92910819D02*
X143422762Y-92863200D01*
X143422762Y-92863200D02*
X143327524Y-92767961D01*
X143327524Y-92767961D02*
X143279905Y-92672723D01*
X143279905Y-92672723D02*
X143232286Y-92482247D01*
X143232286Y-92482247D02*
X143232286Y-92339390D01*
X143232286Y-92339390D02*
X143279905Y-92148914D01*
X143279905Y-92148914D02*
X143327524Y-92053676D01*
X143327524Y-92053676D02*
X143422762Y-91958438D01*
X143422762Y-91958438D02*
X143565619Y-91910819D01*
X143565619Y-91910819D02*
X143660857Y-91910819D01*
X143660857Y-91910819D02*
X143803714Y-91958438D01*
X143803714Y-91958438D02*
X143851333Y-92006057D01*
X144232286Y-92006057D02*
X144279905Y-91958438D01*
X144279905Y-91958438D02*
X144375143Y-91910819D01*
X144375143Y-91910819D02*
X144613238Y-91910819D01*
X144613238Y-91910819D02*
X144708476Y-91958438D01*
X144708476Y-91958438D02*
X144756095Y-92006057D01*
X144756095Y-92006057D02*
X144803714Y-92101295D01*
X144803714Y-92101295D02*
X144803714Y-92196533D01*
X144803714Y-92196533D02*
X144756095Y-92339390D01*
X144756095Y-92339390D02*
X144184667Y-92910819D01*
X144184667Y-92910819D02*
X144803714Y-92910819D01*
D10*
X158623095Y-83182419D02*
X158623095Y-83991942D01*
X158623095Y-83991942D02*
X158670714Y-84087180D01*
X158670714Y-84087180D02*
X158718333Y-84134800D01*
X158718333Y-84134800D02*
X158813571Y-84182419D01*
X158813571Y-84182419D02*
X159004047Y-84182419D01*
X159004047Y-84182419D02*
X159099285Y-84134800D01*
X159099285Y-84134800D02*
X159146904Y-84087180D01*
X159146904Y-84087180D02*
X159194523Y-83991942D01*
X159194523Y-83991942D02*
X159194523Y-83182419D01*
X160194523Y-84182419D02*
X159623095Y-84182419D01*
X159908809Y-84182419D02*
X159908809Y-83182419D01*
X159908809Y-83182419D02*
X159813571Y-83325276D01*
X159813571Y-83325276D02*
X159718333Y-83420514D01*
X159718333Y-83420514D02*
X159623095Y-83468133D01*
D11*
X120483333Y-86830819D02*
X120150000Y-86354628D01*
X119911905Y-86830819D02*
X119911905Y-85830819D01*
X119911905Y-85830819D02*
X120292857Y-85830819D01*
X120292857Y-85830819D02*
X120388095Y-85878438D01*
X120388095Y-85878438D02*
X120435714Y-85926057D01*
X120435714Y-85926057D02*
X120483333Y-86021295D01*
X120483333Y-86021295D02*
X120483333Y-86164152D01*
X120483333Y-86164152D02*
X120435714Y-86259390D01*
X120435714Y-86259390D02*
X120388095Y-86307009D01*
X120388095Y-86307009D02*
X120292857Y-86354628D01*
X120292857Y-86354628D02*
X119911905Y-86354628D01*
X120864286Y-85926057D02*
X120911905Y-85878438D01*
X120911905Y-85878438D02*
X121007143Y-85830819D01*
X121007143Y-85830819D02*
X121245238Y-85830819D01*
X121245238Y-85830819D02*
X121340476Y-85878438D01*
X121340476Y-85878438D02*
X121388095Y-85926057D01*
X121388095Y-85926057D02*
X121435714Y-86021295D01*
X121435714Y-86021295D02*
X121435714Y-86116533D01*
X121435714Y-86116533D02*
X121388095Y-86259390D01*
X121388095Y-86259390D02*
X120816667Y-86830819D01*
X120816667Y-86830819D02*
X121435714Y-86830819D01*
X133524666Y-115737819D02*
X133524666Y-116452104D01*
X133524666Y-116452104D02*
X133477047Y-116594961D01*
X133477047Y-116594961D02*
X133381809Y-116690200D01*
X133381809Y-116690200D02*
X133238952Y-116737819D01*
X133238952Y-116737819D02*
X133143714Y-116737819D01*
X134429428Y-115737819D02*
X134238952Y-115737819D01*
X134238952Y-115737819D02*
X134143714Y-115785438D01*
X134143714Y-115785438D02*
X134096095Y-115833057D01*
X134096095Y-115833057D02*
X134000857Y-115975914D01*
X134000857Y-115975914D02*
X133953238Y-116166390D01*
X133953238Y-116166390D02*
X133953238Y-116547342D01*
X133953238Y-116547342D02*
X134000857Y-116642580D01*
X134000857Y-116642580D02*
X134048476Y-116690200D01*
X134048476Y-116690200D02*
X134143714Y-116737819D01*
X134143714Y-116737819D02*
X134334190Y-116737819D01*
X134334190Y-116737819D02*
X134429428Y-116690200D01*
X134429428Y-116690200D02*
X134477047Y-116642580D01*
X134477047Y-116642580D02*
X134524666Y-116547342D01*
X134524666Y-116547342D02*
X134524666Y-116309247D01*
X134524666Y-116309247D02*
X134477047Y-116214009D01*
X134477047Y-116214009D02*
X134429428Y-116166390D01*
X134429428Y-116166390D02*
X134334190Y-116118771D01*
X134334190Y-116118771D02*
X134143714Y-116118771D01*
X134143714Y-116118771D02*
X134048476Y-116166390D01*
X134048476Y-116166390D02*
X134000857Y-116214009D01*
X134000857Y-116214009D02*
X133953238Y-116309247D01*
X155394819Y-104116094D02*
X154394819Y-104116094D01*
X154394819Y-104116094D02*
X154394819Y-103877999D01*
X154394819Y-103877999D02*
X154442438Y-103735142D01*
X154442438Y-103735142D02*
X154537676Y-103639904D01*
X154537676Y-103639904D02*
X154632914Y-103592285D01*
X154632914Y-103592285D02*
X154823390Y-103544666D01*
X154823390Y-103544666D02*
X154966247Y-103544666D01*
X154966247Y-103544666D02*
X155156723Y-103592285D01*
X155156723Y-103592285D02*
X155251961Y-103639904D01*
X155251961Y-103639904D02*
X155347200Y-103735142D01*
X155347200Y-103735142D02*
X155394819Y-103877999D01*
X155394819Y-103877999D02*
X155394819Y-104116094D01*
X154394819Y-103211332D02*
X154394819Y-102592285D01*
X154394819Y-102592285D02*
X154775771Y-102925618D01*
X154775771Y-102925618D02*
X154775771Y-102782761D01*
X154775771Y-102782761D02*
X154823390Y-102687523D01*
X154823390Y-102687523D02*
X154871009Y-102639904D01*
X154871009Y-102639904D02*
X154966247Y-102592285D01*
X154966247Y-102592285D02*
X155204342Y-102592285D01*
X155204342Y-102592285D02*
X155299580Y-102639904D01*
X155299580Y-102639904D02*
X155347200Y-102687523D01*
X155347200Y-102687523D02*
X155394819Y-102782761D01*
X155394819Y-102782761D02*
X155394819Y-103068475D01*
X155394819Y-103068475D02*
X155347200Y-103163713D01*
X155347200Y-103163713D02*
X155299580Y-103211332D01*
X159780819Y-98559904D02*
X158780819Y-98559904D01*
X159780819Y-97988476D02*
X159209390Y-98417047D01*
X158780819Y-97988476D02*
X159352247Y-98559904D01*
X133700666Y-105328819D02*
X133700666Y-106043104D01*
X133700666Y-106043104D02*
X133653047Y-106185961D01*
X133653047Y-106185961D02*
X133557809Y-106281200D01*
X133557809Y-106281200D02*
X133414952Y-106328819D01*
X133414952Y-106328819D02*
X133319714Y-106328819D01*
X134653047Y-105328819D02*
X134176857Y-105328819D01*
X134176857Y-105328819D02*
X134129238Y-105805009D01*
X134129238Y-105805009D02*
X134176857Y-105757390D01*
X134176857Y-105757390D02*
X134272095Y-105709771D01*
X134272095Y-105709771D02*
X134510190Y-105709771D01*
X134510190Y-105709771D02*
X134605428Y-105757390D01*
X134605428Y-105757390D02*
X134653047Y-105805009D01*
X134653047Y-105805009D02*
X134700666Y-105900247D01*
X134700666Y-105900247D02*
X134700666Y-106138342D01*
X134700666Y-106138342D02*
X134653047Y-106233580D01*
X134653047Y-106233580D02*
X134605428Y-106281200D01*
X134605428Y-106281200D02*
X134510190Y-106328819D01*
X134510190Y-106328819D02*
X134272095Y-106328819D01*
X134272095Y-106328819D02*
X134176857Y-106281200D01*
X134176857Y-106281200D02*
X134129238Y-106233580D01*
X163345905Y-117971819D02*
X163345905Y-116971819D01*
X163345905Y-116971819D02*
X163584000Y-116971819D01*
X163584000Y-116971819D02*
X163726857Y-117019438D01*
X163726857Y-117019438D02*
X163822095Y-117114676D01*
X163822095Y-117114676D02*
X163869714Y-117209914D01*
X163869714Y-117209914D02*
X163917333Y-117400390D01*
X163917333Y-117400390D02*
X163917333Y-117543247D01*
X163917333Y-117543247D02*
X163869714Y-117733723D01*
X163869714Y-117733723D02*
X163822095Y-117828961D01*
X163822095Y-117828961D02*
X163726857Y-117924200D01*
X163726857Y-117924200D02*
X163584000Y-117971819D01*
X163584000Y-117971819D02*
X163345905Y-117971819D01*
X164822095Y-116971819D02*
X164345905Y-116971819D01*
X164345905Y-116971819D02*
X164298286Y-117448009D01*
X164298286Y-117448009D02*
X164345905Y-117400390D01*
X164345905Y-117400390D02*
X164441143Y-117352771D01*
X164441143Y-117352771D02*
X164679238Y-117352771D01*
X164679238Y-117352771D02*
X164774476Y-117400390D01*
X164774476Y-117400390D02*
X164822095Y-117448009D01*
X164822095Y-117448009D02*
X164869714Y-117543247D01*
X164869714Y-117543247D02*
X164869714Y-117781342D01*
X164869714Y-117781342D02*
X164822095Y-117876580D01*
X164822095Y-117876580D02*
X164774476Y-117924200D01*
X164774476Y-117924200D02*
X164679238Y-117971819D01*
X164679238Y-117971819D02*
X164441143Y-117971819D01*
X164441143Y-117971819D02*
X164345905Y-117924200D01*
X164345905Y-117924200D02*
X164298286Y-117876580D01*
X171442095Y-116546819D02*
X171442095Y-115546819D01*
X172013523Y-116546819D02*
X171584952Y-115975390D01*
X172013523Y-115546819D02*
X171442095Y-116118247D01*
X123023333Y-86830819D02*
X122690000Y-86354628D01*
X122451905Y-86830819D02*
X122451905Y-85830819D01*
X122451905Y-85830819D02*
X122832857Y-85830819D01*
X122832857Y-85830819D02*
X122928095Y-85878438D01*
X122928095Y-85878438D02*
X122975714Y-85926057D01*
X122975714Y-85926057D02*
X123023333Y-86021295D01*
X123023333Y-86021295D02*
X123023333Y-86164152D01*
X123023333Y-86164152D02*
X122975714Y-86259390D01*
X122975714Y-86259390D02*
X122928095Y-86307009D01*
X122928095Y-86307009D02*
X122832857Y-86354628D01*
X122832857Y-86354628D02*
X122451905Y-86354628D01*
X123356667Y-85830819D02*
X123975714Y-85830819D01*
X123975714Y-85830819D02*
X123642381Y-86211771D01*
X123642381Y-86211771D02*
X123785238Y-86211771D01*
X123785238Y-86211771D02*
X123880476Y-86259390D01*
X123880476Y-86259390D02*
X123928095Y-86307009D01*
X123928095Y-86307009D02*
X123975714Y-86402247D01*
X123975714Y-86402247D02*
X123975714Y-86640342D01*
X123975714Y-86640342D02*
X123928095Y-86735580D01*
X123928095Y-86735580D02*
X123880476Y-86783200D01*
X123880476Y-86783200D02*
X123785238Y-86830819D01*
X123785238Y-86830819D02*
X123499524Y-86830819D01*
X123499524Y-86830819D02*
X123404286Y-86783200D01*
X123404286Y-86783200D02*
X123356667Y-86735580D01*
X181784666Y-106896819D02*
X181784666Y-107611104D01*
X181784666Y-107611104D02*
X181737047Y-107753961D01*
X181737047Y-107753961D02*
X181641809Y-107849200D01*
X181641809Y-107849200D02*
X181498952Y-107896819D01*
X181498952Y-107896819D02*
X181403714Y-107896819D01*
X182213238Y-106992057D02*
X182260857Y-106944438D01*
X182260857Y-106944438D02*
X182356095Y-106896819D01*
X182356095Y-106896819D02*
X182594190Y-106896819D01*
X182594190Y-106896819D02*
X182689428Y-106944438D01*
X182689428Y-106944438D02*
X182737047Y-106992057D01*
X182737047Y-106992057D02*
X182784666Y-107087295D01*
X182784666Y-107087295D02*
X182784666Y-107182533D01*
X182784666Y-107182533D02*
X182737047Y-107325390D01*
X182737047Y-107325390D02*
X182165619Y-107896819D01*
X182165619Y-107896819D02*
X182784666Y-107896819D01*
X163917333Y-96804819D02*
X163584000Y-96328628D01*
X163345905Y-96804819D02*
X163345905Y-95804819D01*
X163345905Y-95804819D02*
X163726857Y-95804819D01*
X163726857Y-95804819D02*
X163822095Y-95852438D01*
X163822095Y-95852438D02*
X163869714Y-95900057D01*
X163869714Y-95900057D02*
X163917333Y-95995295D01*
X163917333Y-95995295D02*
X163917333Y-96138152D01*
X163917333Y-96138152D02*
X163869714Y-96233390D01*
X163869714Y-96233390D02*
X163822095Y-96281009D01*
X163822095Y-96281009D02*
X163726857Y-96328628D01*
X163726857Y-96328628D02*
X163345905Y-96328628D01*
X164869714Y-96804819D02*
X164298286Y-96804819D01*
X164584000Y-96804819D02*
X164584000Y-95804819D01*
X164584000Y-95804819D02*
X164488762Y-95947676D01*
X164488762Y-95947676D02*
X164393524Y-96042914D01*
X164393524Y-96042914D02*
X164298286Y-96090533D01*
X137679819Y-98372333D02*
X138394104Y-98372333D01*
X138394104Y-98372333D02*
X138536961Y-98419952D01*
X138536961Y-98419952D02*
X138632200Y-98515190D01*
X138632200Y-98515190D02*
X138679819Y-98658047D01*
X138679819Y-98658047D02*
X138679819Y-98753285D01*
X137679819Y-97991380D02*
X137679819Y-97324714D01*
X137679819Y-97324714D02*
X138679819Y-97753285D01*
X169110819Y-104116094D02*
X168110819Y-104116094D01*
X168110819Y-104116094D02*
X168110819Y-103877999D01*
X168110819Y-103877999D02*
X168158438Y-103735142D01*
X168158438Y-103735142D02*
X168253676Y-103639904D01*
X168253676Y-103639904D02*
X168348914Y-103592285D01*
X168348914Y-103592285D02*
X168539390Y-103544666D01*
X168539390Y-103544666D02*
X168682247Y-103544666D01*
X168682247Y-103544666D02*
X168872723Y-103592285D01*
X168872723Y-103592285D02*
X168967961Y-103639904D01*
X168967961Y-103639904D02*
X169063200Y-103735142D01*
X169063200Y-103735142D02*
X169110819Y-103877999D01*
X169110819Y-103877999D02*
X169110819Y-104116094D01*
X168206057Y-103163713D02*
X168158438Y-103116094D01*
X168158438Y-103116094D02*
X168110819Y-103020856D01*
X168110819Y-103020856D02*
X168110819Y-102782761D01*
X168110819Y-102782761D02*
X168158438Y-102687523D01*
X168158438Y-102687523D02*
X168206057Y-102639904D01*
X168206057Y-102639904D02*
X168301295Y-102592285D01*
X168301295Y-102592285D02*
X168396533Y-102592285D01*
X168396533Y-102592285D02*
X168539390Y-102639904D01*
X168539390Y-102639904D02*
X169110819Y-103211332D01*
X169110819Y-103211332D02*
X169110819Y-102592285D01*
X169296819Y-108719904D02*
X168296819Y-108719904D01*
X169296819Y-108148476D02*
X168725390Y-108577047D01*
X168296819Y-108148476D02*
X168868247Y-108719904D01*
X125563333Y-86830819D02*
X125230000Y-86354628D01*
X124991905Y-86830819D02*
X124991905Y-85830819D01*
X124991905Y-85830819D02*
X125372857Y-85830819D01*
X125372857Y-85830819D02*
X125468095Y-85878438D01*
X125468095Y-85878438D02*
X125515714Y-85926057D01*
X125515714Y-85926057D02*
X125563333Y-86021295D01*
X125563333Y-86021295D02*
X125563333Y-86164152D01*
X125563333Y-86164152D02*
X125515714Y-86259390D01*
X125515714Y-86259390D02*
X125468095Y-86307009D01*
X125468095Y-86307009D02*
X125372857Y-86354628D01*
X125372857Y-86354628D02*
X124991905Y-86354628D01*
X126420476Y-86164152D02*
X126420476Y-86830819D01*
X126182381Y-85783200D02*
X125944286Y-86497485D01*
X125944286Y-86497485D02*
X126563333Y-86497485D01*
X159966819Y-104116094D02*
X158966819Y-104116094D01*
X158966819Y-104116094D02*
X158966819Y-103877999D01*
X158966819Y-103877999D02*
X159014438Y-103735142D01*
X159014438Y-103735142D02*
X159109676Y-103639904D01*
X159109676Y-103639904D02*
X159204914Y-103592285D01*
X159204914Y-103592285D02*
X159395390Y-103544666D01*
X159395390Y-103544666D02*
X159538247Y-103544666D01*
X159538247Y-103544666D02*
X159728723Y-103592285D01*
X159728723Y-103592285D02*
X159823961Y-103639904D01*
X159823961Y-103639904D02*
X159919200Y-103735142D01*
X159919200Y-103735142D02*
X159966819Y-103877999D01*
X159966819Y-103877999D02*
X159966819Y-104116094D01*
X159966819Y-102592285D02*
X159966819Y-103163713D01*
X159966819Y-102877999D02*
X158966819Y-102877999D01*
X158966819Y-102877999D02*
X159109676Y-102973237D01*
X159109676Y-102973237D02*
X159204914Y-103068475D01*
X159204914Y-103068475D02*
X159252533Y-103163713D01*
X164352819Y-98559904D02*
X163352819Y-98559904D01*
X164352819Y-97988476D02*
X163781390Y-98417047D01*
X163352819Y-97988476D02*
X163924247Y-98559904D01*
X142835333Y-90275580D02*
X142787714Y-90323200D01*
X142787714Y-90323200D02*
X142644857Y-90370819D01*
X142644857Y-90370819D02*
X142549619Y-90370819D01*
X142549619Y-90370819D02*
X142406762Y-90323200D01*
X142406762Y-90323200D02*
X142311524Y-90227961D01*
X142311524Y-90227961D02*
X142263905Y-90132723D01*
X142263905Y-90132723D02*
X142216286Y-89942247D01*
X142216286Y-89942247D02*
X142216286Y-89799390D01*
X142216286Y-89799390D02*
X142263905Y-89608914D01*
X142263905Y-89608914D02*
X142311524Y-89513676D01*
X142311524Y-89513676D02*
X142406762Y-89418438D01*
X142406762Y-89418438D02*
X142549619Y-89370819D01*
X142549619Y-89370819D02*
X142644857Y-89370819D01*
X142644857Y-89370819D02*
X142787714Y-89418438D01*
X142787714Y-89418438D02*
X142835333Y-89466057D01*
X143787714Y-90370819D02*
X143216286Y-90370819D01*
X143502000Y-90370819D02*
X143502000Y-89370819D01*
X143502000Y-89370819D02*
X143406762Y-89513676D01*
X143406762Y-89513676D02*
X143311524Y-89608914D01*
X143311524Y-89608914D02*
X143216286Y-89656533D01*
X164538819Y-104116094D02*
X163538819Y-104116094D01*
X163538819Y-104116094D02*
X163538819Y-103877999D01*
X163538819Y-103877999D02*
X163586438Y-103735142D01*
X163586438Y-103735142D02*
X163681676Y-103639904D01*
X163681676Y-103639904D02*
X163776914Y-103592285D01*
X163776914Y-103592285D02*
X163967390Y-103544666D01*
X163967390Y-103544666D02*
X164110247Y-103544666D01*
X164110247Y-103544666D02*
X164300723Y-103592285D01*
X164300723Y-103592285D02*
X164395961Y-103639904D01*
X164395961Y-103639904D02*
X164491200Y-103735142D01*
X164491200Y-103735142D02*
X164538819Y-103877999D01*
X164538819Y-103877999D02*
X164538819Y-104116094D01*
X163872152Y-102687523D02*
X164538819Y-102687523D01*
X163491200Y-102925618D02*
X164205485Y-103163713D01*
X164205485Y-103163713D02*
X164205485Y-102544666D01*
X164724819Y-108719904D02*
X163724819Y-108719904D01*
X164724819Y-108148476D02*
X164153390Y-108577047D01*
X163724819Y-108148476D02*
X164296247Y-108719904D01*
X146645333Y-94339580D02*
X146597714Y-94387200D01*
X146597714Y-94387200D02*
X146454857Y-94434819D01*
X146454857Y-94434819D02*
X146359619Y-94434819D01*
X146359619Y-94434819D02*
X146216762Y-94387200D01*
X146216762Y-94387200D02*
X146121524Y-94291961D01*
X146121524Y-94291961D02*
X146073905Y-94196723D01*
X146073905Y-94196723D02*
X146026286Y-94006247D01*
X146026286Y-94006247D02*
X146026286Y-93863390D01*
X146026286Y-93863390D02*
X146073905Y-93672914D01*
X146073905Y-93672914D02*
X146121524Y-93577676D01*
X146121524Y-93577676D02*
X146216762Y-93482438D01*
X146216762Y-93482438D02*
X146359619Y-93434819D01*
X146359619Y-93434819D02*
X146454857Y-93434819D01*
X146454857Y-93434819D02*
X146597714Y-93482438D01*
X146597714Y-93482438D02*
X146645333Y-93530057D01*
X147502476Y-93768152D02*
X147502476Y-94434819D01*
X147264381Y-93387200D02*
X147026286Y-94101485D01*
X147026286Y-94101485D02*
X147645333Y-94101485D01*
X129502819Y-125301333D02*
X130217104Y-125301333D01*
X130217104Y-125301333D02*
X130359961Y-125348952D01*
X130359961Y-125348952D02*
X130455200Y-125444190D01*
X130455200Y-125444190D02*
X130502819Y-125587047D01*
X130502819Y-125587047D02*
X130502819Y-125682285D01*
X129836152Y-124396571D02*
X130502819Y-124396571D01*
X129455200Y-124634666D02*
X130169485Y-124872761D01*
X130169485Y-124872761D02*
X130169485Y-124253714D01*
X129502819Y-114887333D02*
X130217104Y-114887333D01*
X130217104Y-114887333D02*
X130359961Y-114934952D01*
X130359961Y-114934952D02*
X130455200Y-115030190D01*
X130455200Y-115030190D02*
X130502819Y-115173047D01*
X130502819Y-115173047D02*
X130502819Y-115268285D01*
X129502819Y-114506380D02*
X129502819Y-113887333D01*
X129502819Y-113887333D02*
X129883771Y-114220666D01*
X129883771Y-114220666D02*
X129883771Y-114077809D01*
X129883771Y-114077809D02*
X129931390Y-113982571D01*
X129931390Y-113982571D02*
X129979009Y-113934952D01*
X129979009Y-113934952D02*
X130074247Y-113887333D01*
X130074247Y-113887333D02*
X130312342Y-113887333D01*
X130312342Y-113887333D02*
X130407580Y-113934952D01*
X130407580Y-113934952D02*
X130455200Y-113982571D01*
X130455200Y-113982571D02*
X130502819Y-114077809D01*
X130502819Y-114077809D02*
X130502819Y-114363523D01*
X130502819Y-114363523D02*
X130455200Y-114458761D01*
X130455200Y-114458761D02*
X130407580Y-114506380D01*
D12*
%TO.C,J1*%
X174348000Y-91831000D02*
X179818000Y-91831000D01*
X174348000Y-105781000D02*
X174348000Y-91831000D01*
X174348000Y-105781000D02*
X179818000Y-105781000D01*
X187348000Y-91831000D02*
X182878000Y-91831000D01*
X187348000Y-105781000D02*
X182878000Y-105781000D01*
X187348000Y-105781000D02*
X187348000Y-91831000D01*
X176608000Y-90876000D02*
G75*
G02*
X176408000Y-90876000I-100000J0D01*
G01*
X176408000Y-90876000D02*
G75*
G02*
X176608000Y-90876000I100000J0D01*
G01*
D13*
%TO.C,C3*%
X148363000Y-90924748D02*
X148363000Y-91447252D01*
X149833000Y-90924748D02*
X149833000Y-91447252D01*
%TO.C,C2*%
X137977000Y-91521000D02*
X137977000Y-93391000D01*
X137977000Y-93391000D02*
X142062000Y-93391000D01*
X142062000Y-91521000D02*
X137977000Y-91521000D01*
%TO.C,U1*%
D10*
X130175000Y-78867000D02*
X181737000Y-78867000D01*
X181737000Y-88773000D01*
X130175000Y-88773000D01*
X130175000Y-78867000D01*
D13*
%TO.C,R2*%
X119857000Y-89381064D02*
X119857000Y-88926936D01*
X121327000Y-89381064D02*
X121327000Y-88926936D01*
%TO.C,J6*%
X132528000Y-117283000D02*
X133858000Y-117283000D01*
X132528000Y-118613000D02*
X132528000Y-117283000D01*
X132528000Y-119883000D02*
X132528000Y-122483000D01*
X132528000Y-119883000D02*
X135188000Y-119883000D01*
X132528000Y-122483000D02*
X135188000Y-122483000D01*
X135188000Y-119883000D02*
X135188000Y-122483000D01*
%TO.C,D3*%
X155756000Y-100658000D02*
X155756000Y-106098000D01*
X155756000Y-106098000D02*
X158696000Y-106098000D01*
X157226000Y-99638000D02*
X157226000Y-100658000D01*
X157226000Y-107118000D02*
X157226000Y-106098000D01*
X158696000Y-100658000D02*
X155756000Y-100658000D01*
X158696000Y-101438000D02*
X155756000Y-101438000D01*
X158696000Y-101558000D02*
X155756000Y-101558000D01*
X158696000Y-101678000D02*
X155756000Y-101678000D01*
X158696000Y-106098000D02*
X158696000Y-100658000D01*
%TO.C,J5*%
X132704000Y-106874000D02*
X134034000Y-106874000D01*
X132704000Y-108204000D02*
X132704000Y-106874000D01*
X132704000Y-109474000D02*
X132704000Y-112074000D01*
X132704000Y-109474000D02*
X135364000Y-109474000D01*
X132704000Y-112074000D02*
X135364000Y-112074000D01*
X135364000Y-109474000D02*
X135364000Y-112074000D01*
%TO.C,D5*%
X158004000Y-113792000D02*
X159199000Y-113792000D01*
X159199000Y-111067000D02*
X159199000Y-116517000D01*
X159199000Y-116517000D02*
X168969000Y-116517000D01*
X167299500Y-116517000D02*
X167299500Y-111067000D01*
X167419500Y-116517000D02*
X167419500Y-111067000D01*
X167539500Y-116517000D02*
X167539500Y-111067000D01*
X168969000Y-111067000D02*
X159199000Y-111067000D01*
X168969000Y-116517000D02*
X168969000Y-111067000D01*
X170164000Y-113792000D02*
X168969000Y-113792000D01*
%TO.C,R3*%
X122455000Y-89381064D02*
X122455000Y-88926936D01*
X123925000Y-89381064D02*
X123925000Y-88926936D01*
%TO.C,J2*%
X179010000Y-108652000D02*
X180340000Y-108652000D01*
X179010000Y-109982000D02*
X179010000Y-108652000D01*
X179010000Y-111252000D02*
X179010000Y-116392000D01*
X179010000Y-111252000D02*
X181670000Y-111252000D01*
X179010000Y-116392000D02*
X181670000Y-116392000D01*
X181670000Y-111252000D02*
X181670000Y-116392000D01*
%TO.C,R1*%
X160044000Y-93980000D02*
X160814000Y-93980000D01*
X160814000Y-92610000D02*
X160814000Y-95350000D01*
X160814000Y-95350000D02*
X167354000Y-95350000D01*
X167354000Y-92610000D02*
X160814000Y-92610000D01*
X167354000Y-95350000D02*
X167354000Y-92610000D01*
X168124000Y-93980000D02*
X167354000Y-93980000D01*
%TO.C,J7*%
X119325000Y-95439000D02*
X119325000Y-100639000D01*
X134625000Y-95439000D02*
X119325000Y-95439000D01*
X134625000Y-95439000D02*
X134625000Y-98039000D01*
X134625000Y-98039000D02*
X137225000Y-98039000D01*
X135895000Y-95439000D02*
X137225000Y-95439000D01*
X137225000Y-95439000D02*
X137225000Y-96769000D01*
X137225000Y-98039000D02*
X137225000Y-100639000D01*
X137225000Y-100639000D02*
X119325000Y-100639000D01*
%TO.C,D2*%
X169472000Y-100658000D02*
X169472000Y-106098000D01*
X169472000Y-105078000D02*
X172412000Y-105078000D01*
X169472000Y-105198000D02*
X172412000Y-105198000D01*
X169472000Y-105318000D02*
X172412000Y-105318000D01*
X169472000Y-106098000D02*
X172412000Y-106098000D01*
X170942000Y-99638000D02*
X170942000Y-100658000D01*
X170942000Y-107118000D02*
X170942000Y-106098000D01*
X172412000Y-100658000D02*
X169472000Y-100658000D01*
X172412000Y-106098000D02*
X172412000Y-100658000D01*
%TO.C,R4*%
X124995000Y-89381064D02*
X124995000Y-88926936D01*
X126465000Y-89381064D02*
X126465000Y-88926936D01*
%TO.C,D1*%
X160328000Y-100658000D02*
X160328000Y-106098000D01*
X160328000Y-106098000D02*
X163268000Y-106098000D01*
X161798000Y-99638000D02*
X161798000Y-100658000D01*
X161798000Y-107118000D02*
X161798000Y-106098000D01*
X163268000Y-100658000D02*
X160328000Y-100658000D01*
X163268000Y-101438000D02*
X160328000Y-101438000D01*
X163268000Y-101558000D02*
X160328000Y-101558000D01*
X163268000Y-101678000D02*
X160328000Y-101678000D01*
X163268000Y-106098000D02*
X163268000Y-100658000D01*
%TO.C,C1*%
X139692748Y-89181000D02*
X140215252Y-89181000D01*
X139692748Y-90651000D02*
X140215252Y-90651000D01*
%TO.C,D4*%
X164900000Y-100658000D02*
X164900000Y-106098000D01*
X164900000Y-105078000D02*
X167840000Y-105078000D01*
X164900000Y-105198000D02*
X167840000Y-105198000D01*
X164900000Y-105318000D02*
X167840000Y-105318000D01*
X164900000Y-106098000D02*
X167840000Y-106098000D01*
X166370000Y-99638000D02*
X166370000Y-100658000D01*
X166370000Y-107118000D02*
X166370000Y-106098000D01*
X167840000Y-100658000D02*
X164900000Y-100658000D01*
X167840000Y-106098000D02*
X167840000Y-100658000D01*
%TO.C,C4*%
X146077000Y-90924748D02*
X146077000Y-91447252D01*
X147547000Y-90924748D02*
X147547000Y-91447252D01*
D14*
%TO.C,J4*%
X117436000Y-116388000D02*
X119308000Y-116388000D01*
X117436000Y-123388000D02*
X119308000Y-123388000D01*
X127308000Y-116388000D02*
X122564000Y-116388000D01*
X127308000Y-123388000D02*
X122564000Y-123388000D01*
D12*
X131036000Y-119888000D02*
G75*
G02*
X130836000Y-119888000I-100000J0D01*
G01*
X130836000Y-119888000D02*
G75*
G02*
X131036000Y-119888000I100000J0D01*
G01*
D14*
%TO.C,J3*%
X117436000Y-105974000D02*
X119308000Y-105974000D01*
X117436000Y-112974000D02*
X119308000Y-112974000D01*
X127308000Y-105974000D02*
X122564000Y-105974000D01*
X127308000Y-112974000D02*
X122564000Y-112974000D01*
D12*
X131036000Y-109474000D02*
G75*
G02*
X130836000Y-109474000I-100000J0D01*
G01*
X130836000Y-109474000D02*
G75*
G02*
X131036000Y-109474000I100000J0D01*
G01*
%TD*%
M02*
