%TF.GenerationSoftware,KiCad,Pcbnew,8.0.6-8.0.6-0~ubuntu22.04.1*%
%TF.CreationDate,2024-11-16T23:11:02-08:00*%
%TF.ProjectId,telduino,74656c64-7569-46e6-9f2e-6b696361645f,0.1*%
%TF.SameCoordinates,Original*%
%TF.FileFunction,Copper,L1,Top*%
%TF.FilePolarity,Positive*%
%FSLAX46Y46*%
G04 Gerber Fmt 4.6, Leading zero omitted, Abs format (unit mm)*
G04 Created by KiCad (PCBNEW 8.0.6-8.0.6-0~ubuntu22.04.1) date 2024-11-16 23:11:02*
%MOMM*%
%LPD*%
G01*
G04 APERTURE LIST*
G04 Aperture macros list*
%AMRoundRect*
0 Rectangle with rounded corners*
0 $1 Rounding radius*
0 $2 $3 $4 $5 $6 $7 $8 $9 X,Y pos of 4 corners*
0 Add a 4 corners polygon primitive as box body*
4,1,4,$2,$3,$4,$5,$6,$7,$8,$9,$2,$3,0*
0 Add four circle primitives for the rounded corners*
1,1,$1+$1,$2,$3*
1,1,$1+$1,$4,$5*
1,1,$1+$1,$6,$7*
1,1,$1+$1,$8,$9*
0 Add four rect primitives between the rounded corners*
20,1,$1+$1,$2,$3,$4,$5,0*
20,1,$1+$1,$4,$5,$6,$7,0*
20,1,$1+$1,$6,$7,$8,$9,0*
20,1,$1+$1,$8,$9,$2,$3,0*%
G04 Aperture macros list end*
%TA.AperFunction,ComponentPad*%
%ADD10R,1.408000X1.408000*%
%TD*%
%TA.AperFunction,ComponentPad*%
%ADD11C,1.408000*%
%TD*%
%TA.AperFunction,ComponentPad*%
%ADD12R,1.600000X1.600000*%
%TD*%
%TA.AperFunction,ComponentPad*%
%ADD13O,1.600000X1.600000*%
%TD*%
%TA.AperFunction,SMDPad,CuDef*%
%ADD14RoundRect,0.250000X-0.475000X0.337500X-0.475000X-0.337500X0.475000X-0.337500X0.475000X0.337500X0*%
%TD*%
%TA.AperFunction,SMDPad,CuDef*%
%ADD15RoundRect,0.250000X-0.537500X-0.425000X0.537500X-0.425000X0.537500X0.425000X-0.537500X0.425000X0*%
%TD*%
%TA.AperFunction,ComponentPad*%
%ADD16C,1.600000*%
%TD*%
%TA.AperFunction,SMDPad,CuDef*%
%ADD17RoundRect,0.250000X0.450000X-0.350000X0.450000X0.350000X-0.450000X0.350000X-0.450000X-0.350000X0*%
%TD*%
%TA.AperFunction,ComponentPad*%
%ADD18R,1.700000X1.700000*%
%TD*%
%TA.AperFunction,ComponentPad*%
%ADD19O,1.700000X1.700000*%
%TD*%
%TA.AperFunction,ComponentPad*%
%ADD20R,2.200000X2.200000*%
%TD*%
%TA.AperFunction,ComponentPad*%
%ADD21O,2.200000X2.200000*%
%TD*%
%TA.AperFunction,ComponentPad*%
%ADD22R,2.600000X2.600000*%
%TD*%
%TA.AperFunction,ComponentPad*%
%ADD23O,2.600000X2.600000*%
%TD*%
%TA.AperFunction,SMDPad,CuDef*%
%ADD24RoundRect,0.250000X-0.337500X-0.475000X0.337500X-0.475000X0.337500X0.475000X-0.337500X0.475000X0*%
%TD*%
%TA.AperFunction,ComponentPad*%
%ADD25O,2.616000X1.308000*%
%TD*%
%TA.AperFunction,ComponentPad*%
%ADD26O,1.308000X2.616000*%
%TD*%
%TA.AperFunction,ViaPad*%
%ADD27C,0.600000*%
%TD*%
%TA.AperFunction,Conductor*%
%ADD28C,0.200000*%
%TD*%
%TA.AperFunction,Conductor*%
%ADD29C,0.800000*%
%TD*%
%TA.AperFunction,Conductor*%
%ADD30C,0.500000*%
%TD*%
G04 APERTURE END LIST*
D10*
%TO.P,J1,1*%
%TO.N,unconnected-(J1-Pad1)*%
X176508000Y-96256000D03*
D11*
%TO.P,J1,2*%
%TO.N,unconnected-(J1-Pad2)*%
X179048000Y-97276000D03*
%TO.P,J1,3*%
%TO.N,Net-(D1-K)*%
X176508000Y-98296000D03*
%TO.P,J1,4*%
%TO.N,Net-(D3-K)*%
X179048000Y-99316000D03*
%TO.P,J1,5*%
%TO.N,unconnected-(J1-Pad5)*%
X176508000Y-100336000D03*
%TO.P,J1,6*%
%TO.N,unconnected-(J1-Pad6)*%
X179048000Y-101356000D03*
%TD*%
D12*
%TO.P,A1,1,NC*%
%TO.N,unconnected-(A1-NC-Pad1)*%
X145440000Y-125000000D03*
D13*
%TO.P,A1,2,IOREF*%
%TO.N,unconnected-(A1-IOREF-Pad2)*%
X147980000Y-125000000D03*
%TO.P,A1,3,~{RESET}*%
%TO.N,Net-(A1-~{RESET})*%
X150520000Y-125000000D03*
%TO.P,A1,4,3V3*%
%TO.N,unconnected-(A1-3V3-Pad4)*%
X153060000Y-125000000D03*
%TO.P,A1,5,+5V*%
%TO.N,5V*%
X155600000Y-125000000D03*
%TO.P,A1,6,GND*%
%TO.N,GND*%
X158140000Y-125000000D03*
%TO.P,A1,7,GND*%
X160680000Y-125000000D03*
%TO.P,A1,8,VIN*%
%TO.N,unconnected-(A1-VIN-Pad8)*%
X163220000Y-125000000D03*
%TO.P,A1,9,A0*%
%TO.N,unconnected-(A1-A0-Pad9)*%
X168300000Y-125000000D03*
%TO.P,A1,10,A1*%
%TO.N,unconnected-(A1-A1-Pad10)*%
X170840000Y-125000000D03*
%TO.P,A1,11,A2*%
%TO.N,unconnected-(A1-A2-Pad11)*%
X173380000Y-125000000D03*
%TO.P,A1,12,A3*%
%TO.N,unconnected-(A1-A3-Pad12)*%
X175920000Y-125000000D03*
%TO.P,A1,13,SDA/A4*%
%TO.N,unconnected-(A1-SDA{slash}A4-Pad13)*%
X178460000Y-125000000D03*
%TO.P,A1,14,SCL/A5*%
%TO.N,unconnected-(A1-SCL{slash}A5-Pad14)*%
X181000000Y-125000000D03*
%TO.P,A1,15,D0/RX*%
%TO.N,Net-(A1-D0{slash}RX)*%
X181000000Y-76740000D03*
%TO.P,A1,16,D1/TX*%
%TO.N,Net-(A1-D1{slash}TX)*%
X178460000Y-76740000D03*
%TO.P,A1,17,D2*%
%TO.N,unconnected-(A1-D2-Pad17)*%
X175920000Y-76740000D03*
%TO.P,A1,18,D3*%
%TO.N,unconnected-(A1-D3-Pad18)*%
X173380000Y-76740000D03*
%TO.P,A1,19,D4*%
%TO.N,unconnected-(A1-D4-Pad19)*%
X170840000Y-76740000D03*
%TO.P,A1,20,D5*%
%TO.N,Net-(A1-D5)*%
X168300000Y-76740000D03*
%TO.P,A1,21,D6*%
%TO.N,Net-(A1-D6)*%
X165760000Y-76740000D03*
%TO.P,A1,22,D7*%
%TO.N,Net-(A1-D7)*%
X163220000Y-76740000D03*
%TO.P,A1,23,D8*%
%TO.N,unconnected-(A1-D8-Pad23)*%
X159160000Y-76740000D03*
%TO.P,A1,24,D9*%
%TO.N,unconnected-(A1-D9-Pad24)*%
X156620000Y-76740000D03*
%TO.P,A1,25,D10*%
%TO.N,Net-(A1-D10)*%
X154080000Y-76740000D03*
%TO.P,A1,26,D11*%
%TO.N,Net-(A1-D11)*%
X151540000Y-76740000D03*
%TO.P,A1,27,D12*%
%TO.N,Net-(A1-D12)*%
X149000000Y-76740000D03*
%TO.P,A1,28,D13*%
%TO.N,Net-(A1-D13)*%
X146460000Y-76740000D03*
%TO.P,A1,29,GND*%
%TO.N,GND*%
X143920000Y-76740000D03*
%TO.P,A1,30,AREF*%
%TO.N,unconnected-(A1-AREF-Pad30)*%
X141380000Y-76740000D03*
%TO.P,A1,31,SDA/A4*%
%TO.N,unconnected-(A1-SDA{slash}A4-Pad31)*%
X138840000Y-76740000D03*
%TO.P,A1,32,SCL/A5*%
%TO.N,unconnected-(A1-SCL{slash}A5-Pad32)*%
X136300000Y-76740000D03*
%TD*%
D14*
%TO.P,C3,1*%
%TO.N,Net-(U1-VR)*%
X149098000Y-90148500D03*
%TO.P,C3,2*%
%TO.N,Net-(J6-Pin_1)*%
X149098000Y-92223500D03*
%TD*%
D15*
%TO.P,C2,1*%
%TO.N,5V*%
X139024500Y-92456000D03*
%TO.P,C2,2*%
%TO.N,GND*%
X141899500Y-92456000D03*
%TD*%
D12*
%TO.P,U1,1,RING*%
%TO.N,Net-(D1-K)*%
X179705000Y-85725000D03*
D16*
%TO.P,U1,2,TIP*%
%TO.N,Net-(D3-K)*%
X177165000Y-85725000D03*
%TO.P,U1,3,FR*%
%TO.N,Net-(A1-D5)*%
X174625000Y-85725000D03*
%TO.P,U1,4,RM*%
%TO.N,Net-(A1-D6)*%
X172085000Y-85725000D03*
%TO.P,U1,5,SHK*%
%TO.N,Net-(A1-D7)*%
X169545000Y-85725000D03*
%TO.P,U1,6,VR*%
%TO.N,Net-(U1-VR)*%
X149225000Y-85725000D03*
%TO.P,U1,7,VX*%
%TO.N,Net-(U1-VX)*%
X146685000Y-85725000D03*
%TO.P,U1,8,NC*%
%TO.N,unconnected-(U1-NC-Pad8)*%
X144145000Y-85725000D03*
%TO.P,U1,9,GND*%
%TO.N,GND*%
X141605000Y-85725000D03*
%TO.P,U1,10,VDC*%
%TO.N,5V*%
X139065000Y-85725000D03*
%TO.P,U1,11,PD*%
%TO.N,unconnected-(U1-PD-Pad11)*%
X136525000Y-85725000D03*
%TD*%
D17*
%TO.P,R2,1*%
%TO.N,Net-(J7-Pin_13)*%
X120592000Y-90154000D03*
%TO.P,R2,2*%
%TO.N,Net-(A1-D13)*%
X120592000Y-88154000D03*
%TD*%
D18*
%TO.P,J6,1,Pin_1*%
%TO.N,Net-(J6-Pin_1)*%
X133858000Y-118613000D03*
D19*
%TO.P,J6,2,Pin_2*%
%TO.N,GND*%
X133858000Y-121153000D03*
%TD*%
D20*
%TO.P,D3,1,K*%
%TO.N,Net-(D3-K)*%
X157226000Y-98298000D03*
D21*
%TO.P,D3,2,A*%
%TO.N,GND*%
X157226000Y-108458000D03*
%TD*%
D18*
%TO.P,J5,1,Pin_1*%
%TO.N,Net-(J5-Pin_1)*%
X134034000Y-108204000D03*
D19*
%TO.P,J5,2,Pin_2*%
%TO.N,GND*%
X134034000Y-110744000D03*
%TD*%
D22*
%TO.P,D5,1,K*%
%TO.N,Net-(D2-K)*%
X171704000Y-113792000D03*
D23*
%TO.P,D5,2,A*%
%TO.N,GND*%
X156464000Y-113792000D03*
%TD*%
D17*
%TO.P,R3,1*%
%TO.N,Net-(J7-Pin_11)*%
X123190000Y-90154000D03*
%TO.P,R3,2*%
%TO.N,Net-(A1-D12)*%
X123190000Y-88154000D03*
%TD*%
D18*
%TO.P,J2,1,Pin_1*%
%TO.N,Net-(D1-K)*%
X180340000Y-109982000D03*
D19*
%TO.P,J2,2,Pin_2*%
%TO.N,Net-(D3-K)*%
X180340000Y-112522000D03*
%TO.P,J2,3,Pin_3*%
%TO.N,unconnected-(J2-Pin_3-Pad3)*%
X180340000Y-115062000D03*
%TD*%
D16*
%TO.P,R1,1*%
%TO.N,Net-(D1-K)*%
X169164000Y-93980000D03*
D13*
%TO.P,R1,2*%
%TO.N,Net-(D3-K)*%
X159004000Y-93980000D03*
%TD*%
D18*
%TO.P,J7,1,Pin_1*%
%TO.N,GND*%
X135895000Y-96769000D03*
D19*
%TO.P,J7,2,Pin_2*%
%TO.N,5V*%
X135895000Y-99309000D03*
%TO.P,J7,3,Pin_3*%
%TO.N,Net-(A1-D0{slash}RX)*%
X133355000Y-96769000D03*
%TO.P,J7,4,Pin_4*%
%TO.N,Net-(A1-~{RESET})*%
X133355000Y-99309000D03*
%TO.P,J7,5,Pin_5*%
%TO.N,Net-(A1-D1{slash}TX)*%
X130815000Y-96769000D03*
%TO.P,J7,6,Pin_6*%
%TO.N,GND*%
X130815000Y-99309000D03*
%TO.P,J7,7,Pin_7*%
%TO.N,Net-(A1-D10)*%
X128275000Y-96769000D03*
%TO.P,J7,8,Pin_8*%
%TO.N,5V*%
X128275000Y-99309000D03*
%TO.P,J7,9,Pin_9*%
%TO.N,Net-(J7-Pin_9)*%
X125735000Y-96769000D03*
%TO.P,J7,10,Pin_10*%
%TO.N,GND*%
X125735000Y-99309000D03*
%TO.P,J7,11,Pin_11*%
%TO.N,Net-(J7-Pin_11)*%
X123195000Y-96769000D03*
%TO.P,J7,12,Pin_12*%
%TO.N,GND*%
X123195000Y-99309000D03*
%TO.P,J7,13,Pin_13*%
%TO.N,Net-(J7-Pin_13)*%
X120655000Y-96769000D03*
%TO.P,J7,14,Pin_14*%
%TO.N,GND*%
X120655000Y-99309000D03*
%TD*%
D20*
%TO.P,D2,1,K*%
%TO.N,Net-(D2-K)*%
X170942000Y-108458000D03*
D21*
%TO.P,D2,2,A*%
%TO.N,Net-(D1-K)*%
X170942000Y-98298000D03*
%TD*%
D17*
%TO.P,R4,1*%
%TO.N,Net-(J7-Pin_9)*%
X125730000Y-90154000D03*
%TO.P,R4,2*%
%TO.N,Net-(A1-D11)*%
X125730000Y-88154000D03*
%TD*%
D20*
%TO.P,D1,1,K*%
%TO.N,Net-(D1-K)*%
X161798000Y-98298000D03*
D21*
%TO.P,D1,2,A*%
%TO.N,GND*%
X161798000Y-108458000D03*
%TD*%
D24*
%TO.P,C1,1*%
%TO.N,5V*%
X138916500Y-89916000D03*
%TO.P,C1,2*%
%TO.N,GND*%
X140991500Y-89916000D03*
%TD*%
D20*
%TO.P,D4,1,K*%
%TO.N,Net-(D2-K)*%
X166370000Y-108458000D03*
D21*
%TO.P,D4,2,A*%
%TO.N,Net-(D3-K)*%
X166370000Y-98298000D03*
%TD*%
D14*
%TO.P,C4,1*%
%TO.N,Net-(U1-VX)*%
X146812000Y-90148500D03*
%TO.P,C4,2*%
%TO.N,Net-(J5-Pin_1)*%
X146812000Y-92223500D03*
%TD*%
D25*
%TO.P,J4,R1*%
%TO.N,unconnected-(J4-PadR1)*%
X128936000Y-122738000D03*
%TO.P,J4,R2*%
%TO.N,unconnected-(J4-PadR2)*%
X128936000Y-117038000D03*
D26*
%TO.P,J4,S*%
%TO.N,GND*%
X129736000Y-119888000D03*
D25*
%TO.P,J4,T*%
%TO.N,Net-(J6-Pin_1)*%
X120936000Y-116588000D03*
X120936000Y-123188000D03*
%TD*%
%TO.P,J3,R1*%
%TO.N,unconnected-(J3-PadR1)*%
X128936000Y-112324000D03*
%TO.P,J3,R2*%
%TO.N,unconnected-(J3-PadR2)*%
X128936000Y-106624000D03*
D26*
%TO.P,J3,S*%
%TO.N,GND*%
X129736000Y-109474000D03*
D25*
%TO.P,J3,T*%
%TO.N,Net-(J5-Pin_1)*%
X120936000Y-106174000D03*
X120936000Y-112774000D03*
%TD*%
D27*
%TO.N,5V*%
X139024500Y-95504000D03*
X139024500Y-94488000D03*
X139024500Y-96520000D03*
%TO.N,GND*%
X173482000Y-94488000D03*
X175260000Y-108204000D03*
X183388000Y-96266000D03*
X143256000Y-97282000D03*
X124460000Y-114554000D03*
X180340000Y-80010000D03*
X152908000Y-121158000D03*
X153162000Y-95504000D03*
X124460000Y-103124000D03*
X125984000Y-77978000D03*
X151130000Y-105410000D03*
X167386000Y-121158000D03*
X121666000Y-82042000D03*
X154686000Y-84328000D03*
X173736000Y-80010000D03*
X143256000Y-108966000D03*
X183388000Y-111506000D03*
X143256000Y-119380000D03*
X134620000Y-90424000D03*
X124460000Y-125222000D03*
X143510000Y-88646000D03*
X163576000Y-84582000D03*
%TO.N,Net-(D1-K)*%
X173863000Y-97917000D03*
X180340000Y-107696000D03*
%TO.N,Net-(A1-~{RESET})*%
X136398000Y-104140000D03*
%TD*%
D28*
%TO.N,Net-(A1-D13)*%
X146460000Y-76740000D02*
X143444000Y-79756000D01*
X121958000Y-85814000D02*
X120592000Y-87180000D01*
X143444000Y-79756000D02*
X133096000Y-79756000D01*
X133096000Y-79756000D02*
X127038000Y-85814000D01*
X127038000Y-85814000D02*
X121958000Y-85814000D01*
X120592000Y-87180000D02*
X120592000Y-88154000D01*
%TO.N,Net-(A1-D11)*%
X151540000Y-76740000D02*
X151446000Y-76740000D01*
X125730000Y-87122000D02*
X125730000Y-88154000D01*
X151446000Y-76740000D02*
X147522000Y-80664000D01*
X147522000Y-80664000D02*
X133458000Y-80664000D01*
X133458000Y-80664000D02*
X127508000Y-86614000D01*
X127508000Y-86614000D02*
X126238000Y-86614000D01*
X126238000Y-86614000D02*
X125730000Y-87122000D01*
%TO.N,Net-(A1-D12)*%
X149000000Y-76740000D02*
X149000000Y-76806000D01*
X149000000Y-76806000D02*
X145542000Y-80264000D01*
X145542000Y-80264000D02*
X133292314Y-80264000D01*
X133292314Y-80264000D02*
X127342314Y-86214000D01*
X127342314Y-86214000D02*
X124098000Y-86214000D01*
X124098000Y-86214000D02*
X123190000Y-87122000D01*
X123190000Y-87122000D02*
X123190000Y-88154000D01*
%TO.N,Net-(J7-Pin_13)*%
X120592000Y-90154000D02*
X120592000Y-96706000D01*
X120592000Y-96706000D02*
X120655000Y-96769000D01*
%TO.N,Net-(J7-Pin_11)*%
X123190000Y-90154000D02*
X123190000Y-96764000D01*
X123190000Y-96764000D02*
X123195000Y-96769000D01*
%TO.N,Net-(J7-Pin_9)*%
X125730000Y-90154000D02*
X125730000Y-96764000D01*
X125730000Y-96764000D02*
X125735000Y-96769000D01*
%TO.N,Net-(A1-D7)*%
X163220000Y-79400000D02*
X169545000Y-85725000D01*
X163220000Y-76740000D02*
X163220000Y-79400000D01*
%TO.N,Net-(A1-D5)*%
X168300000Y-79400000D02*
X174625000Y-85725000D01*
X168300000Y-76740000D02*
X168300000Y-79400000D01*
%TO.N,5V*%
X139024500Y-90024000D02*
X138916500Y-89916000D01*
D29*
X139024500Y-91186000D02*
X139024500Y-90024000D01*
D28*
X139065000Y-89810500D02*
X139170500Y-89916000D01*
D29*
X139065000Y-85725000D02*
X139065000Y-96479500D01*
X139024500Y-92456000D02*
X139024500Y-91186000D01*
D28*
X139278500Y-90024000D02*
X139170500Y-89916000D01*
D29*
X139065000Y-85725000D02*
X139065000Y-89983500D01*
X139065000Y-96479500D02*
X139024500Y-96520000D01*
D28*
X139065000Y-89983500D02*
X139024500Y-90024000D01*
X139024500Y-89851000D02*
X139065000Y-89810500D01*
X139065000Y-89767500D02*
X138916500Y-89916000D01*
%TO.N,Net-(A1-D6)*%
X165760000Y-79400000D02*
X172085000Y-85725000D01*
X165760000Y-76740000D02*
X165760000Y-79400000D01*
%TO.N,Net-(J6-Pin_1)*%
X133525000Y-118280000D02*
X122628000Y-118280000D01*
X120936000Y-119972000D02*
X122628000Y-118280000D01*
X122628000Y-118280000D02*
X120936000Y-116588000D01*
X133858000Y-118613000D02*
X133525000Y-118280000D01*
X138176000Y-109728000D02*
X138176000Y-116840000D01*
X149098000Y-98806000D02*
X138176000Y-109728000D01*
X135890000Y-118618000D02*
X135885000Y-118613000D01*
X120936000Y-123188000D02*
X120936000Y-119972000D01*
X149098000Y-92223500D02*
X149098000Y-98806000D01*
X135885000Y-118613000D02*
X133858000Y-118613000D01*
X138176000Y-116840000D02*
X136398000Y-118618000D01*
X136398000Y-118618000D02*
X135890000Y-118618000D01*
%TO.N,Net-(U1-VR)*%
X149225000Y-85725000D02*
X149225000Y-90021500D01*
X149225000Y-90021500D02*
X149098000Y-90148500D01*
%TO.N,Net-(J5-Pin_1)*%
X122628000Y-107866000D02*
X120936000Y-106174000D01*
X120936000Y-109558000D02*
X122628000Y-107866000D01*
X133696000Y-107866000D02*
X122628000Y-107866000D01*
X138176000Y-108204000D02*
X134034000Y-108204000D01*
X134034000Y-108204000D02*
X133696000Y-107866000D01*
X146812000Y-99568000D02*
X138176000Y-108204000D01*
X120936000Y-112774000D02*
X120936000Y-109558000D01*
X146812000Y-92223500D02*
X146812000Y-99568000D01*
%TO.N,Net-(U1-VX)*%
X146685000Y-85725000D02*
X146685000Y-90021500D01*
X146685000Y-90021500D02*
X146812000Y-90148500D01*
D30*
%TO.N,Net-(D1-K)*%
X179705000Y-87757000D02*
X176022000Y-91440000D01*
X170434000Y-93980000D02*
X170942000Y-94488000D01*
X169926000Y-91440000D02*
X169164000Y-92202000D01*
X176508000Y-98296000D02*
X174244000Y-98296000D01*
X174244000Y-98296000D02*
X170944000Y-98296000D01*
X164084000Y-96012000D02*
X168656000Y-96012000D01*
D28*
X170944000Y-98296000D02*
X170942000Y-98298000D01*
D30*
X168656000Y-96012000D02*
X170942000Y-98298000D01*
X176022000Y-91440000D02*
X169926000Y-91440000D01*
X179705000Y-85725000D02*
X179705000Y-87757000D01*
X180340000Y-107696000D02*
X180340000Y-109977000D01*
X169164000Y-92202000D02*
X169164000Y-93980000D01*
X170942000Y-94488000D02*
X170942000Y-98298000D01*
X173863000Y-97917000D02*
X174242000Y-98296000D01*
X161798000Y-98298000D02*
X164084000Y-96012000D01*
X169164000Y-93980000D02*
X170434000Y-93980000D01*
D28*
X174242000Y-98296000D02*
X174244000Y-98296000D01*
%TO.N,Net-(D2-K)*%
X170942000Y-108458000D02*
X171704000Y-109220000D01*
D30*
X166370000Y-108458000D02*
X170942000Y-108458000D01*
X171704000Y-109220000D02*
X171704000Y-113792000D01*
%TO.N,Net-(D3-K)*%
X168402000Y-103378000D02*
X166370000Y-101346000D01*
X164084000Y-100584000D02*
X159512000Y-100584000D01*
X166370000Y-98298000D02*
X164084000Y-100584000D01*
D28*
X179190000Y-111367000D02*
X179185000Y-111367000D01*
D30*
X177165000Y-87503000D02*
X174752000Y-89916000D01*
X159004000Y-93980000D02*
X157734000Y-93980000D01*
X180340000Y-112517000D02*
X179190000Y-111367000D01*
X177165000Y-85725000D02*
X177165000Y-87503000D01*
X157734000Y-93980000D02*
X157226000Y-94488000D01*
X178308000Y-104902000D02*
X179832000Y-103378000D01*
X174752000Y-89916000D02*
X160528000Y-89916000D01*
X179832000Y-103378000D02*
X168402000Y-103378000D01*
X180594000Y-99822000D02*
X180594000Y-102616000D01*
X160528000Y-89916000D02*
X159004000Y-91440000D01*
X159512000Y-100584000D02*
X157226000Y-98298000D01*
X179185000Y-111367000D02*
X178308000Y-110490000D01*
X180594000Y-102616000D02*
X179832000Y-103378000D01*
X178308000Y-110490000D02*
X178308000Y-104902000D01*
X157226000Y-94488000D02*
X157226000Y-98298000D01*
X179048000Y-99316000D02*
X180088000Y-99316000D01*
X166370000Y-101346000D02*
X166370000Y-98298000D01*
X180088000Y-99316000D02*
X180594000Y-99822000D01*
X159004000Y-91440000D02*
X159004000Y-93980000D01*
D28*
%TO.N,Net-(A1-D1{slash}TX)*%
X176904000Y-75184000D02*
X162560000Y-75184000D01*
X159512000Y-78232000D02*
X153924000Y-78232000D01*
X129032000Y-94986000D02*
X130815000Y-96769000D01*
X129032000Y-86360000D02*
X129032000Y-94986000D01*
X150622000Y-81534000D02*
X133858000Y-81534000D01*
X133858000Y-81534000D02*
X129032000Y-86360000D01*
X153924000Y-78232000D02*
X150622000Y-81534000D01*
X178460000Y-76740000D02*
X176904000Y-75184000D01*
X162560000Y-75184000D02*
X159512000Y-78232000D01*
%TO.N,Net-(A1-D0{slash}RX)*%
X159677686Y-78632000D02*
X154089686Y-78632000D01*
X134112000Y-82042000D02*
X130556000Y-85598000D01*
X154089686Y-78632000D02*
X150679686Y-82042000D01*
X130556000Y-85598000D02*
X130556000Y-93970000D01*
X150679686Y-82042000D02*
X134112000Y-82042000D01*
X162715843Y-75593843D02*
X159677686Y-78632000D01*
X176685843Y-75593843D02*
X162715843Y-75593843D01*
X177292000Y-76200000D02*
X176685843Y-75593843D01*
X179762000Y-77978000D02*
X177927000Y-77978000D01*
X177927000Y-77978000D02*
X177292000Y-77343000D01*
X177292000Y-77343000D02*
X177292000Y-76200000D01*
X181000000Y-76740000D02*
X179762000Y-77978000D01*
X130556000Y-93970000D02*
X133355000Y-96769000D01*
%TO.N,Net-(A1-~{RESET})*%
X134874000Y-102616000D02*
X136398000Y-104140000D01*
X133355000Y-99309000D02*
X133355000Y-101097000D01*
X133355000Y-101097000D02*
X134874000Y-102616000D01*
%TO.N,Net-(J7-Pin_11)*%
X123195000Y-90361314D02*
X123195000Y-90689000D01*
%TO.N,Net-(A1-D10)*%
X127508000Y-87179686D02*
X127508000Y-96002000D01*
X127508000Y-96002000D02*
X128275000Y-96769000D01*
X149756000Y-81064000D02*
X133623686Y-81064000D01*
X133623686Y-81064000D02*
X127508000Y-87179686D01*
X154080000Y-76740000D02*
X149756000Y-81064000D01*
%TD*%
%TA.AperFunction,Conductor*%
%TO.N,GND*%
G36*
X160214075Y-124807007D02*
G01*
X160180000Y-124934174D01*
X160180000Y-125065826D01*
X160214075Y-125192993D01*
X160246988Y-125250000D01*
X158573012Y-125250000D01*
X158605925Y-125192993D01*
X158640000Y-125065826D01*
X158640000Y-124934174D01*
X158605925Y-124807007D01*
X158573012Y-124750000D01*
X160246988Y-124750000D01*
X160214075Y-124807007D01*
G37*
%TD.AperFunction*%
%TA.AperFunction,Conductor*%
G36*
X161961941Y-74720185D02*
G01*
X162007696Y-74772989D01*
X162017640Y-74842147D01*
X161988615Y-74905703D01*
X161982583Y-74912181D01*
X160580181Y-76314582D01*
X160518858Y-76348067D01*
X160449166Y-76343083D01*
X160393233Y-76301211D01*
X160380118Y-76279306D01*
X160377679Y-76274075D01*
X160290568Y-76087266D01*
X160160047Y-75900861D01*
X160160045Y-75900858D01*
X159999141Y-75739954D01*
X159812734Y-75609432D01*
X159812732Y-75609431D01*
X159606497Y-75513261D01*
X159606488Y-75513258D01*
X159386697Y-75454366D01*
X159386693Y-75454365D01*
X159386692Y-75454365D01*
X159386691Y-75454364D01*
X159386686Y-75454364D01*
X159160002Y-75434532D01*
X159159998Y-75434532D01*
X158933313Y-75454364D01*
X158933302Y-75454366D01*
X158713511Y-75513258D01*
X158713502Y-75513261D01*
X158507267Y-75609431D01*
X158507265Y-75609432D01*
X158320858Y-75739954D01*
X158159954Y-75900858D01*
X158029432Y-76087265D01*
X158029431Y-76087267D01*
X158002382Y-76145275D01*
X157956209Y-76197714D01*
X157889016Y-76216866D01*
X157822135Y-76196650D01*
X157777618Y-76145275D01*
X157750686Y-76087520D01*
X157750568Y-76087266D01*
X157620047Y-75900861D01*
X157620045Y-75900858D01*
X157459141Y-75739954D01*
X157272734Y-75609432D01*
X157272732Y-75609431D01*
X157066497Y-75513261D01*
X157066488Y-75513258D01*
X156846697Y-75454366D01*
X156846693Y-75454365D01*
X156846692Y-75454365D01*
X156846691Y-75454364D01*
X156846686Y-75454364D01*
X156620002Y-75434532D01*
X156619998Y-75434532D01*
X156393313Y-75454364D01*
X156393302Y-75454366D01*
X156173511Y-75513258D01*
X156173502Y-75513261D01*
X155967267Y-75609431D01*
X155967265Y-75609432D01*
X155780858Y-75739954D01*
X155619954Y-75900858D01*
X155489432Y-76087265D01*
X155489431Y-76087267D01*
X155462382Y-76145275D01*
X155416209Y-76197714D01*
X155349016Y-76216866D01*
X155282135Y-76196650D01*
X155237618Y-76145275D01*
X155210686Y-76087520D01*
X155210568Y-76087266D01*
X155080047Y-75900861D01*
X155080045Y-75900858D01*
X154919141Y-75739954D01*
X154732734Y-75609432D01*
X154732732Y-75609431D01*
X154526497Y-75513261D01*
X154526488Y-75513258D01*
X154306697Y-75454366D01*
X154306693Y-75454365D01*
X154306692Y-75454365D01*
X154306691Y-75454364D01*
X154306686Y-75454364D01*
X154080002Y-75434532D01*
X154079998Y-75434532D01*
X153853313Y-75454364D01*
X153853302Y-75454366D01*
X153633511Y-75513258D01*
X153633502Y-75513261D01*
X153427267Y-75609431D01*
X153427265Y-75609432D01*
X153240858Y-75739954D01*
X153079954Y-75900858D01*
X152949432Y-76087265D01*
X152949431Y-76087267D01*
X152922382Y-76145275D01*
X152876209Y-76197714D01*
X152809016Y-76216866D01*
X152742135Y-76196650D01*
X152697618Y-76145275D01*
X152670686Y-76087520D01*
X152670568Y-76087266D01*
X152540047Y-75900861D01*
X152540045Y-75900858D01*
X152379141Y-75739954D01*
X152192734Y-75609432D01*
X152192732Y-75609431D01*
X151986497Y-75513261D01*
X151986488Y-75513258D01*
X151766697Y-75454366D01*
X151766693Y-75454365D01*
X151766692Y-75454365D01*
X151766691Y-75454364D01*
X151766686Y-75454364D01*
X151540002Y-75434532D01*
X151539998Y-75434532D01*
X151313313Y-75454364D01*
X151313302Y-75454366D01*
X151093511Y-75513258D01*
X151093502Y-75513261D01*
X150887267Y-75609431D01*
X150887265Y-75609432D01*
X150700858Y-75739954D01*
X150539954Y-75900858D01*
X150409432Y-76087265D01*
X150409431Y-76087267D01*
X150382382Y-76145275D01*
X150336209Y-76197714D01*
X150269016Y-76216866D01*
X150202135Y-76196650D01*
X150157618Y-76145275D01*
X150130686Y-76087520D01*
X150130568Y-76087266D01*
X150000047Y-75900861D01*
X150000045Y-75900858D01*
X149839141Y-75739954D01*
X149652734Y-75609432D01*
X149652732Y-75609431D01*
X149446497Y-75513261D01*
X149446488Y-75513258D01*
X149226697Y-75454366D01*
X149226693Y-75454365D01*
X149226692Y-75454365D01*
X149226691Y-75454364D01*
X149226686Y-75454364D01*
X149000002Y-75434532D01*
X148999998Y-75434532D01*
X148773313Y-75454364D01*
X148773302Y-75454366D01*
X148553511Y-75513258D01*
X148553502Y-75513261D01*
X148347267Y-75609431D01*
X148347265Y-75609432D01*
X148160858Y-75739954D01*
X147999954Y-75900858D01*
X147869432Y-76087265D01*
X147869431Y-76087267D01*
X147842382Y-76145275D01*
X147796209Y-76197714D01*
X147729016Y-76216866D01*
X147662135Y-76196650D01*
X147617618Y-76145275D01*
X147590686Y-76087520D01*
X147590568Y-76087266D01*
X147460047Y-75900861D01*
X147460045Y-75900858D01*
X147299141Y-75739954D01*
X147112734Y-75609432D01*
X147112732Y-75609431D01*
X146906497Y-75513261D01*
X146906488Y-75513258D01*
X146686697Y-75454366D01*
X146686693Y-75454365D01*
X146686692Y-75454365D01*
X146686691Y-75454364D01*
X146686686Y-75454364D01*
X146460002Y-75434532D01*
X146459998Y-75434532D01*
X146233313Y-75454364D01*
X146233302Y-75454366D01*
X146013511Y-75513258D01*
X146013502Y-75513261D01*
X145807267Y-75609431D01*
X145807265Y-75609432D01*
X145620858Y-75739954D01*
X145459954Y-75900858D01*
X145329433Y-76087264D01*
X145329432Y-76087266D01*
X145329315Y-76087518D01*
X145302106Y-76145867D01*
X145255933Y-76198306D01*
X145188739Y-76217457D01*
X145121858Y-76197241D01*
X145077342Y-76145865D01*
X145050135Y-76087520D01*
X145050134Y-76087518D01*
X144919657Y-75901179D01*
X144758820Y-75740342D01*
X144572482Y-75609865D01*
X144366328Y-75513734D01*
X144170000Y-75461127D01*
X144170000Y-76306988D01*
X144112993Y-76274075D01*
X143985826Y-76240000D01*
X143854174Y-76240000D01*
X143727007Y-76274075D01*
X143670000Y-76306988D01*
X143670000Y-75461127D01*
X143473671Y-75513734D01*
X143267517Y-75609865D01*
X143081179Y-75740342D01*
X142920342Y-75901179D01*
X142789867Y-76087515D01*
X142762657Y-76145867D01*
X142716484Y-76198306D01*
X142649290Y-76217457D01*
X142582409Y-76197241D01*
X142537893Y-76145865D01*
X142510685Y-76087518D01*
X142510568Y-76087266D01*
X142380047Y-75900861D01*
X142380045Y-75900858D01*
X142219141Y-75739954D01*
X142032734Y-75609432D01*
X142032732Y-75609431D01*
X141826497Y-75513261D01*
X141826488Y-75513258D01*
X141606697Y-75454366D01*
X141606693Y-75454365D01*
X141606692Y-75454365D01*
X141606691Y-75454364D01*
X141606686Y-75454364D01*
X141380002Y-75434532D01*
X141379998Y-75434532D01*
X141153313Y-75454364D01*
X141153302Y-75454366D01*
X140933511Y-75513258D01*
X140933502Y-75513261D01*
X140727267Y-75609431D01*
X140727265Y-75609432D01*
X140540858Y-75739954D01*
X140379954Y-75900858D01*
X140249432Y-76087265D01*
X140249431Y-76087267D01*
X140222382Y-76145275D01*
X140176209Y-76197714D01*
X140109016Y-76216866D01*
X140042135Y-76196650D01*
X139997618Y-76145275D01*
X139970686Y-76087520D01*
X139970568Y-76087266D01*
X139840047Y-75900861D01*
X139840045Y-75900858D01*
X139679141Y-75739954D01*
X139492734Y-75609432D01*
X139492732Y-75609431D01*
X139286497Y-75513261D01*
X139286488Y-75513258D01*
X139066697Y-75454366D01*
X139066693Y-75454365D01*
X139066692Y-75454365D01*
X139066691Y-75454364D01*
X139066686Y-75454364D01*
X138840002Y-75434532D01*
X138839998Y-75434532D01*
X138613313Y-75454364D01*
X138613302Y-75454366D01*
X138393511Y-75513258D01*
X138393502Y-75513261D01*
X138187267Y-75609431D01*
X138187265Y-75609432D01*
X138000858Y-75739954D01*
X137839954Y-75900858D01*
X137709432Y-76087265D01*
X137709431Y-76087267D01*
X137682382Y-76145275D01*
X137636209Y-76197714D01*
X137569016Y-76216866D01*
X137502135Y-76196650D01*
X137457618Y-76145275D01*
X137430686Y-76087520D01*
X137430568Y-76087266D01*
X137300047Y-75900861D01*
X137300045Y-75900858D01*
X137139141Y-75739954D01*
X136952734Y-75609432D01*
X136952732Y-75609431D01*
X136746497Y-75513261D01*
X136746488Y-75513258D01*
X136526697Y-75454366D01*
X136526693Y-75454365D01*
X136526692Y-75454365D01*
X136526691Y-75454364D01*
X136526686Y-75454364D01*
X136300002Y-75434532D01*
X136299998Y-75434532D01*
X136073313Y-75454364D01*
X136073302Y-75454366D01*
X135853511Y-75513258D01*
X135853502Y-75513261D01*
X135647267Y-75609431D01*
X135647265Y-75609432D01*
X135460858Y-75739954D01*
X135299954Y-75900858D01*
X135169432Y-76087265D01*
X135169431Y-76087267D01*
X135073261Y-76293502D01*
X135073258Y-76293511D01*
X135014366Y-76513302D01*
X135014364Y-76513313D01*
X134994532Y-76739998D01*
X134994532Y-76740001D01*
X135014364Y-76966686D01*
X135014366Y-76966697D01*
X135073258Y-77186488D01*
X135073261Y-77186497D01*
X135169431Y-77392732D01*
X135169432Y-77392734D01*
X135299954Y-77579141D01*
X135460858Y-77740045D01*
X135460861Y-77740047D01*
X135647266Y-77870568D01*
X135853504Y-77966739D01*
X136073308Y-78025635D01*
X136217144Y-78038219D01*
X136299998Y-78045468D01*
X136300000Y-78045468D01*
X136300002Y-78045468D01*
X136356673Y-78040509D01*
X136526692Y-78025635D01*
X136746496Y-77966739D01*
X136952734Y-77870568D01*
X137139139Y-77740047D01*
X137300047Y-77579139D01*
X137430568Y-77392734D01*
X137457618Y-77334724D01*
X137503790Y-77282285D01*
X137570983Y-77263133D01*
X137637865Y-77283348D01*
X137682382Y-77334725D01*
X137709429Y-77392728D01*
X137709432Y-77392734D01*
X137839954Y-77579141D01*
X138000858Y-77740045D01*
X138000861Y-77740047D01*
X138187266Y-77870568D01*
X138393504Y-77966739D01*
X138613308Y-78025635D01*
X138757144Y-78038219D01*
X138839998Y-78045468D01*
X138840000Y-78045468D01*
X138840002Y-78045468D01*
X138896673Y-78040509D01*
X139066692Y-78025635D01*
X139286496Y-77966739D01*
X139492734Y-77870568D01*
X139679139Y-77740047D01*
X139840047Y-77579139D01*
X139970568Y-77392734D01*
X139997618Y-77334724D01*
X140043790Y-77282285D01*
X140110983Y-77263133D01*
X140177865Y-77283348D01*
X140222382Y-77334725D01*
X140249429Y-77392728D01*
X140249432Y-77392734D01*
X140379954Y-77579141D01*
X140540858Y-77740045D01*
X140540861Y-77740047D01*
X140727266Y-77870568D01*
X140933504Y-77966739D01*
X141153308Y-78025635D01*
X141297144Y-78038219D01*
X141379998Y-78045468D01*
X141380000Y-78045468D01*
X141380002Y-78045468D01*
X141436673Y-78040509D01*
X141606692Y-78025635D01*
X141826496Y-77966739D01*
X142032734Y-77870568D01*
X142219139Y-77740047D01*
X142380047Y-77579139D01*
X142510568Y-77392734D01*
X142537895Y-77334129D01*
X142584064Y-77281695D01*
X142651257Y-77262542D01*
X142718139Y-77282757D01*
X142762657Y-77334133D01*
X142789865Y-77392482D01*
X142920342Y-77578820D01*
X143081179Y-77739657D01*
X143267517Y-77870134D01*
X143473673Y-77966265D01*
X143473682Y-77966269D01*
X143669999Y-78018872D01*
X143670000Y-78018871D01*
X143670000Y-77173012D01*
X143727007Y-77205925D01*
X143854174Y-77240000D01*
X143985826Y-77240000D01*
X144112993Y-77205925D01*
X144170000Y-77173012D01*
X144170000Y-78031261D01*
X144190629Y-78059513D01*
X144194784Y-78129259D01*
X144161621Y-78189142D01*
X143231584Y-79119181D01*
X143170261Y-79152666D01*
X143143903Y-79155500D01*
X133182670Y-79155500D01*
X133182654Y-79155499D01*
X133175058Y-79155499D01*
X133016943Y-79155499D01*
X132940579Y-79175961D01*
X132864214Y-79196423D01*
X132864209Y-79196426D01*
X132727290Y-79275475D01*
X132727282Y-79275481D01*
X126825584Y-85177181D01*
X126764261Y-85210666D01*
X126737903Y-85213500D01*
X122044670Y-85213500D01*
X122044654Y-85213499D01*
X122037058Y-85213499D01*
X121878943Y-85213499D01*
X121802579Y-85233961D01*
X121726214Y-85254423D01*
X121726209Y-85254426D01*
X121589290Y-85333475D01*
X121589282Y-85333481D01*
X120111479Y-86811284D01*
X120098258Y-86834185D01*
X120085913Y-86855568D01*
X120070338Y-86882544D01*
X120032422Y-86948215D01*
X120032422Y-86948216D01*
X120019889Y-86994987D01*
X119983523Y-87054647D01*
X119939120Y-87080596D01*
X119864206Y-87105421D01*
X119822666Y-87119186D01*
X119822663Y-87119187D01*
X119673342Y-87211289D01*
X119549289Y-87335342D01*
X119457187Y-87484663D01*
X119457186Y-87484666D01*
X119402001Y-87651203D01*
X119402001Y-87651204D01*
X119402000Y-87651204D01*
X119391500Y-87753983D01*
X119391500Y-88554001D01*
X119391501Y-88554019D01*
X119402000Y-88656796D01*
X119402001Y-88656799D01*
X119457185Y-88823331D01*
X119457187Y-88823336D01*
X119469801Y-88843787D01*
X119549094Y-88972342D01*
X119549289Y-88972657D01*
X119642951Y-89066319D01*
X119676436Y-89127642D01*
X119671452Y-89197334D01*
X119642951Y-89241681D01*
X119549289Y-89335342D01*
X119457187Y-89484663D01*
X119457185Y-89484668D01*
X119439706Y-89537418D01*
X119402001Y-89651203D01*
X119402001Y-89651204D01*
X119402000Y-89651204D01*
X119391500Y-89753983D01*
X119391500Y-90554001D01*
X119391501Y-90554019D01*
X119402000Y-90656796D01*
X119402001Y-90656799D01*
X119457183Y-90823325D01*
X119457186Y-90823334D01*
X119549288Y-90972656D01*
X119673344Y-91096712D01*
X119822666Y-91188814D01*
X119906505Y-91216595D01*
X119963948Y-91256366D01*
X119990772Y-91320882D01*
X119991500Y-91334300D01*
X119991500Y-95520381D01*
X119971815Y-95587420D01*
X119938623Y-95621956D01*
X119783597Y-95730505D01*
X119616505Y-95897597D01*
X119480965Y-96091169D01*
X119480964Y-96091171D01*
X119404335Y-96255504D01*
X119383790Y-96299563D01*
X119381098Y-96305335D01*
X119381094Y-96305344D01*
X119319938Y-96533586D01*
X119319936Y-96533596D01*
X119299341Y-96768999D01*
X119299341Y-96769000D01*
X119319936Y-97004403D01*
X119319938Y-97004413D01*
X119381094Y-97232655D01*
X119381096Y-97232659D01*
X119381097Y-97232663D01*
X119452551Y-97385896D01*
X119480965Y-97446830D01*
X119480967Y-97446834D01*
X119557491Y-97556120D01*
X119616501Y-97640396D01*
X119616506Y-97640402D01*
X119783597Y-97807493D01*
X119783603Y-97807498D01*
X119969594Y-97937730D01*
X120013219Y-97992307D01*
X120020413Y-98061805D01*
X119988890Y-98124160D01*
X119969595Y-98140880D01*
X119783922Y-98270890D01*
X119783920Y-98270891D01*
X119616891Y-98437920D01*
X119616886Y-98437926D01*
X119481400Y-98631420D01*
X119481399Y-98631422D01*
X119381570Y-98845507D01*
X119381567Y-98845513D01*
X119324364Y-99058999D01*
X119324364Y-99059000D01*
X120221988Y-99059000D01*
X120189075Y-99116007D01*
X120155000Y-99243174D01*
X120155000Y-99374826D01*
X120189075Y-99501993D01*
X120221988Y-99559000D01*
X119324364Y-99559000D01*
X119381567Y-99772486D01*
X119381570Y-99772492D01*
X119481399Y-99986578D01*
X119616894Y-100180082D01*
X119783917Y-100347105D01*
X119977421Y-100482600D01*
X120191507Y-100582429D01*
X120191516Y-100582433D01*
X120405000Y-100639634D01*
X120405000Y-99742012D01*
X120462007Y-99774925D01*
X120589174Y-99809000D01*
X120720826Y-99809000D01*
X120847993Y-99774925D01*
X120905000Y-99742012D01*
X120905000Y-100639633D01*
X121118483Y-100582433D01*
X121118492Y-100582429D01*
X121332578Y-100482600D01*
X121526082Y-100347105D01*
X121693105Y-100180082D01*
X121823425Y-99993968D01*
X121878002Y-99950344D01*
X121947501Y-99943151D01*
X122009855Y-99974673D01*
X122026575Y-99993968D01*
X122156894Y-100180082D01*
X122323917Y-100347105D01*
X122517421Y-100482600D01*
X122731507Y-100582429D01*
X122731516Y-100582433D01*
X122945000Y-100639634D01*
X122945000Y-99742012D01*
X123002007Y-99774925D01*
X123129174Y-99809000D01*
X123260826Y-99809000D01*
X123387993Y-99774925D01*
X123445000Y-99742012D01*
X123445000Y-100639634D01*
X123658483Y-100582433D01*
X123658492Y-100582429D01*
X123872578Y-100482600D01*
X124066082Y-100347105D01*
X124233105Y-100180082D01*
X124363425Y-99993968D01*
X124418002Y-99950344D01*
X124487501Y-99943151D01*
X124549855Y-99974673D01*
X124566575Y-99993968D01*
X124696894Y-100180082D01*
X124863917Y-100347105D01*
X125057421Y-100482600D01*
X125271507Y-100582429D01*
X125271516Y-100582433D01*
X125485000Y-100639634D01*
X125485000Y-99742012D01*
X125542007Y-99774925D01*
X125669174Y-99809000D01*
X125800826Y-99809000D01*
X125927993Y-99774925D01*
X125985000Y-99742012D01*
X125985000Y-100639634D01*
X126198483Y-100582433D01*
X126198492Y-100582429D01*
X126412578Y-100482600D01*
X126606082Y-100347105D01*
X126773105Y-100180082D01*
X126903119Y-99994405D01*
X126957696Y-99950781D01*
X127027195Y-99943588D01*
X127089549Y-99975110D01*
X127106269Y-99994405D01*
X127236505Y-100180401D01*
X127403599Y-100347495D01*
X127441341Y-100373922D01*
X127597165Y-100483032D01*
X127597167Y-100483033D01*
X127597170Y-100483035D01*
X127811337Y-100582903D01*
X128039592Y-100644063D01*
X128227918Y-100660539D01*
X128274999Y-100664659D01*
X128275000Y-100664659D01*
X128275001Y-100664659D01*
X128314234Y-100661226D01*
X128510408Y-100644063D01*
X128738663Y-100582903D01*
X128952830Y-100483035D01*
X129146401Y-100347495D01*
X129313495Y-100180401D01*
X129443730Y-99994405D01*
X129498307Y-99950781D01*
X129567805Y-99943587D01*
X129630160Y-99975110D01*
X129646879Y-99994405D01*
X129776890Y-100180078D01*
X129943917Y-100347105D01*
X130137421Y-100482600D01*
X130351507Y-100582429D01*
X130351516Y-100582433D01*
X130565000Y-100639634D01*
X130565000Y-99742012D01*
X130622007Y-99774925D01*
X130749174Y-99809000D01*
X130880826Y-99809000D01*
X131007993Y-99774925D01*
X131065000Y-99742012D01*
X131065000Y-100639634D01*
X131278483Y-100582433D01*
X131278492Y-100582429D01*
X131492578Y-100482600D01*
X131686082Y-100347105D01*
X131853105Y-100180082D01*
X131983119Y-99994405D01*
X132037696Y-99950781D01*
X132107195Y-99943588D01*
X132169549Y-99975110D01*
X132186269Y-99994405D01*
X132316505Y-100180401D01*
X132483599Y-100347495D01*
X132521341Y-100373922D01*
X132677165Y-100483032D01*
X132677167Y-100483033D01*
X132677170Y-100483035D01*
X132682898Y-100485706D01*
X132735339Y-100531872D01*
X132754500Y-100598090D01*
X132754500Y-101010330D01*
X132754499Y-101010348D01*
X132754499Y-101176054D01*
X132754498Y-101176054D01*
X132789226Y-101305656D01*
X132795423Y-101328785D01*
X132797253Y-101331954D01*
X132798726Y-101334506D01*
X132874477Y-101465712D01*
X132874481Y-101465717D01*
X132993349Y-101584585D01*
X132993355Y-101584590D01*
X135567298Y-104158533D01*
X135600783Y-104219856D01*
X135602837Y-104232330D01*
X135612630Y-104319249D01*
X135672210Y-104489521D01*
X135716382Y-104559820D01*
X135768184Y-104642262D01*
X135895738Y-104769816D01*
X136048478Y-104865789D01*
X136199352Y-104918582D01*
X136218745Y-104925368D01*
X136218750Y-104925369D01*
X136397996Y-104945565D01*
X136398000Y-104945565D01*
X136398004Y-104945565D01*
X136577249Y-104925369D01*
X136577252Y-104925368D01*
X136577255Y-104925368D01*
X136747522Y-104865789D01*
X136900262Y-104769816D01*
X137027816Y-104642262D01*
X137123789Y-104489522D01*
X137183368Y-104319255D01*
X137193162Y-104232330D01*
X137203565Y-104140003D01*
X137203565Y-104139996D01*
X137183369Y-103960750D01*
X137183368Y-103960745D01*
X137123788Y-103790476D01*
X137027815Y-103637737D01*
X136900262Y-103510184D01*
X136747521Y-103414210D01*
X136577249Y-103354630D01*
X136490330Y-103344837D01*
X136425916Y-103317770D01*
X136416533Y-103309298D01*
X133991819Y-100884584D01*
X133958334Y-100823261D01*
X133955500Y-100796903D01*
X133955500Y-100598090D01*
X133975185Y-100531051D01*
X134027101Y-100485706D01*
X134032830Y-100483035D01*
X134226401Y-100347495D01*
X134393495Y-100180401D01*
X134523425Y-99994842D01*
X134578002Y-99951217D01*
X134647500Y-99944023D01*
X134709855Y-99975546D01*
X134726575Y-99994842D01*
X134856500Y-100180395D01*
X134856505Y-100180401D01*
X135023599Y-100347495D01*
X135061341Y-100373922D01*
X135217165Y-100483032D01*
X135217167Y-100483033D01*
X135217170Y-100483035D01*
X135431337Y-100582903D01*
X135659592Y-100644063D01*
X135847918Y-100660539D01*
X135894999Y-100664659D01*
X135895000Y-100664659D01*
X135895001Y-100664659D01*
X135934234Y-100661226D01*
X136130408Y-100644063D01*
X136358663Y-100582903D01*
X136572830Y-100483035D01*
X136766401Y-100347495D01*
X136933495Y-100180401D01*
X137069035Y-99986830D01*
X137168903Y-99772663D01*
X137230063Y-99544408D01*
X137250659Y-99309000D01*
X137230063Y-99073592D01*
X137168903Y-98845337D01*
X137069035Y-98631171D01*
X137063730Y-98623595D01*
X136933496Y-98437600D01*
X136883533Y-98387637D01*
X136811179Y-98315283D01*
X136777696Y-98253963D01*
X136782680Y-98184271D01*
X136824551Y-98128337D01*
X136855529Y-98111422D01*
X136987086Y-98062354D01*
X136987093Y-98062350D01*
X137102187Y-97976190D01*
X137102190Y-97976187D01*
X137188350Y-97861093D01*
X137188354Y-97861086D01*
X137238596Y-97726379D01*
X137238598Y-97726372D01*
X137244999Y-97666844D01*
X137245000Y-97666827D01*
X137245000Y-97019000D01*
X136328012Y-97019000D01*
X136360925Y-96961993D01*
X136395000Y-96834826D01*
X136395000Y-96703174D01*
X136360925Y-96576007D01*
X136328012Y-96519000D01*
X137245000Y-96519000D01*
X137245000Y-95871172D01*
X137244999Y-95871155D01*
X137238598Y-95811627D01*
X137238596Y-95811620D01*
X137188354Y-95676913D01*
X137188350Y-95676906D01*
X137102190Y-95561812D01*
X137102187Y-95561809D01*
X136987093Y-95475649D01*
X136987086Y-95475645D01*
X136852379Y-95425403D01*
X136852372Y-95425401D01*
X136792844Y-95419000D01*
X136145000Y-95419000D01*
X136145000Y-96335988D01*
X136087993Y-96303075D01*
X135960826Y-96269000D01*
X135829174Y-96269000D01*
X135702007Y-96303075D01*
X135645000Y-96335988D01*
X135645000Y-95419000D01*
X134997155Y-95419000D01*
X134937627Y-95425401D01*
X134937620Y-95425403D01*
X134802913Y-95475645D01*
X134802906Y-95475649D01*
X134687812Y-95561809D01*
X134687809Y-95561812D01*
X134601649Y-95676906D01*
X134601645Y-95676913D01*
X134552578Y-95808470D01*
X134510707Y-95864404D01*
X134445242Y-95888821D01*
X134376969Y-95873969D01*
X134348715Y-95852819D01*
X134295176Y-95799280D01*
X134226401Y-95730505D01*
X134226397Y-95730502D01*
X134226396Y-95730501D01*
X134032834Y-95594967D01*
X134032830Y-95594965D01*
X133934856Y-95549279D01*
X133818663Y-95495097D01*
X133818659Y-95495096D01*
X133818655Y-95495094D01*
X133590413Y-95433938D01*
X133590403Y-95433936D01*
X133355001Y-95413341D01*
X133354999Y-95413341D01*
X133119596Y-95433936D01*
X133119586Y-95433938D01*
X132991243Y-95468327D01*
X132921393Y-95466664D01*
X132871469Y-95436233D01*
X131192819Y-93757583D01*
X131159334Y-93696260D01*
X131156500Y-93669902D01*
X131156500Y-85898097D01*
X131176185Y-85831058D01*
X131192819Y-85810416D01*
X134324416Y-82678819D01*
X134385739Y-82645334D01*
X134412097Y-82642500D01*
X150593017Y-82642500D01*
X150593033Y-82642501D01*
X150600629Y-82642501D01*
X150758740Y-82642501D01*
X150758743Y-82642501D01*
X150911471Y-82601577D01*
X150961590Y-82572639D01*
X151048402Y-82522520D01*
X151160206Y-82410716D01*
X151160206Y-82410714D01*
X151170414Y-82400507D01*
X151170415Y-82400504D01*
X154302102Y-79268819D01*
X154363425Y-79235334D01*
X154389783Y-79232500D01*
X159591017Y-79232500D01*
X159591033Y-79232501D01*
X159598629Y-79232501D01*
X159756740Y-79232501D01*
X159756743Y-79232501D01*
X159909471Y-79191577D01*
X159971958Y-79155500D01*
X160046402Y-79112520D01*
X160158206Y-79000716D01*
X160158206Y-79000714D01*
X160168410Y-78990511D01*
X160168414Y-78990506D01*
X161861415Y-77297504D01*
X161922736Y-77264021D01*
X161992428Y-77269005D01*
X162048361Y-77310877D01*
X162061476Y-77332782D01*
X162089431Y-77392732D01*
X162089432Y-77392734D01*
X162219954Y-77579141D01*
X162380858Y-77740045D01*
X162380861Y-77740047D01*
X162566624Y-77870118D01*
X162610248Y-77924693D01*
X162619500Y-77971692D01*
X162619500Y-79313330D01*
X162619499Y-79313348D01*
X162619499Y-79479054D01*
X162619498Y-79479054D01*
X162660423Y-79631786D01*
X162660424Y-79631787D01*
X162678733Y-79663499D01*
X162739481Y-79768717D01*
X162858349Y-79887585D01*
X162858355Y-79887590D01*
X168253058Y-85282294D01*
X168286543Y-85343617D01*
X168285152Y-85402068D01*
X168259366Y-85498302D01*
X168259364Y-85498313D01*
X168239532Y-85724998D01*
X168239532Y-85725001D01*
X168259364Y-85951686D01*
X168259366Y-85951697D01*
X168318258Y-86171488D01*
X168318261Y-86171497D01*
X168414431Y-86377732D01*
X168414432Y-86377734D01*
X168544954Y-86564141D01*
X168705858Y-86725045D01*
X168705861Y-86725047D01*
X168892266Y-86855568D01*
X169098504Y-86951739D01*
X169318308Y-87010635D01*
X169471768Y-87024061D01*
X169544998Y-87030468D01*
X169545000Y-87030468D01*
X169545002Y-87030468D01*
X169618232Y-87024061D01*
X169771692Y-87010635D01*
X169991496Y-86951739D01*
X170197734Y-86855568D01*
X170384139Y-86725047D01*
X170545047Y-86564139D01*
X170675568Y-86377734D01*
X170702618Y-86319724D01*
X170748790Y-86267285D01*
X170815983Y-86248133D01*
X170882865Y-86268348D01*
X170927382Y-86319725D01*
X170954429Y-86377728D01*
X170954432Y-86377734D01*
X171084954Y-86564141D01*
X171245858Y-86725045D01*
X171245861Y-86725047D01*
X171432266Y-86855568D01*
X171638504Y-86951739D01*
X171858308Y-87010635D01*
X172011768Y-87024061D01*
X172084998Y-87030468D01*
X172085000Y-87030468D01*
X172085002Y-87030468D01*
X172158232Y-87024061D01*
X172311692Y-87010635D01*
X172531496Y-86951739D01*
X172737734Y-86855568D01*
X172924139Y-86725047D01*
X173085047Y-86564139D01*
X173215568Y-86377734D01*
X173242618Y-86319724D01*
X173288790Y-86267285D01*
X173355983Y-86248133D01*
X173422865Y-86268348D01*
X173467382Y-86319725D01*
X173494429Y-86377728D01*
X173494432Y-86377734D01*
X173624954Y-86564141D01*
X173785858Y-86725045D01*
X173785861Y-86725047D01*
X173972266Y-86855568D01*
X174178504Y-86951739D01*
X174398308Y-87010635D01*
X174551768Y-87024061D01*
X174624998Y-87030468D01*
X174625000Y-87030468D01*
X174625002Y-87030468D01*
X174698232Y-87024061D01*
X174851692Y-87010635D01*
X175071496Y-86951739D01*
X175277734Y-86855568D01*
X175464139Y-86725047D01*
X175625047Y-86564139D01*
X175755568Y-86377734D01*
X175782618Y-86319724D01*
X175828790Y-86267285D01*
X175895983Y-86248133D01*
X175962865Y-86268348D01*
X176007382Y-86319725D01*
X176034429Y-86377728D01*
X176034432Y-86377734D01*
X176164954Y-86564141D01*
X176325859Y-86725046D01*
X176361621Y-86750086D01*
X176405247Y-86804662D01*
X176414500Y-86851662D01*
X176414500Y-87140770D01*
X176394815Y-87207809D01*
X176378181Y-87228451D01*
X174477451Y-89129181D01*
X174416128Y-89162666D01*
X174389770Y-89165500D01*
X160454080Y-89165500D01*
X160309092Y-89194340D01*
X160309082Y-89194343D01*
X160172511Y-89250912D01*
X160172498Y-89250919D01*
X160049584Y-89333048D01*
X160049580Y-89333051D01*
X158421050Y-90961580D01*
X158421044Y-90961588D01*
X158371812Y-91035268D01*
X158371813Y-91035269D01*
X158338921Y-91084496D01*
X158338914Y-91084508D01*
X158282342Y-91221086D01*
X158282340Y-91221092D01*
X158253500Y-91366079D01*
X158253500Y-92853336D01*
X158233815Y-92920375D01*
X158200625Y-92954910D01*
X158164863Y-92979951D01*
X158003951Y-93140862D01*
X157978912Y-93176623D01*
X157924335Y-93220248D01*
X157877337Y-93229500D01*
X157660080Y-93229500D01*
X157515092Y-93258340D01*
X157515082Y-93258343D01*
X157378511Y-93314912D01*
X157378498Y-93314919D01*
X157255584Y-93397048D01*
X157255580Y-93397051D01*
X156643045Y-94009586D01*
X156613428Y-94053915D01*
X156613426Y-94053918D01*
X156560914Y-94132507D01*
X156504343Y-94269082D01*
X156504340Y-94269092D01*
X156475500Y-94414079D01*
X156475500Y-96573500D01*
X156455815Y-96640539D01*
X156403011Y-96686294D01*
X156351500Y-96697500D01*
X156078130Y-96697500D01*
X156078123Y-96697501D01*
X156018516Y-96703908D01*
X155883671Y-96754202D01*
X155883664Y-96754206D01*
X155768455Y-96840452D01*
X155768452Y-96840455D01*
X155682206Y-96955664D01*
X155682202Y-96955671D01*
X155631908Y-97090517D01*
X155627488Y-97131632D01*
X155625501Y-97150123D01*
X155625500Y-97150135D01*
X155625500Y-99445870D01*
X155625501Y-99445876D01*
X155631908Y-99505483D01*
X155682202Y-99640328D01*
X155682206Y-99640335D01*
X155768452Y-99755544D01*
X155768455Y-99755547D01*
X155883664Y-99841793D01*
X155883671Y-99841797D01*
X156018517Y-99892091D01*
X156018516Y-99892091D01*
X156025444Y-99892835D01*
X156078127Y-99898500D01*
X157713769Y-99898499D01*
X157780808Y-99918184D01*
X157801450Y-99934818D01*
X159033580Y-101166948D01*
X159033584Y-101166951D01*
X159156498Y-101249080D01*
X159156511Y-101249087D01*
X159282633Y-101301328D01*
X159293087Y-101305658D01*
X159293091Y-101305658D01*
X159293092Y-101305659D01*
X159438079Y-101334500D01*
X159438082Y-101334500D01*
X164157920Y-101334500D01*
X164255462Y-101315096D01*
X164302913Y-101305658D01*
X164439495Y-101249084D01*
X164488729Y-101216186D01*
X164562416Y-101166952D01*
X165407819Y-100321547D01*
X165469142Y-100288063D01*
X165538833Y-100293047D01*
X165594767Y-100334919D01*
X165619184Y-100400383D01*
X165619500Y-100409229D01*
X165619500Y-101419918D01*
X165619500Y-101419920D01*
X165619499Y-101419920D01*
X165648340Y-101564907D01*
X165648343Y-101564917D01*
X165704914Y-101701492D01*
X165737812Y-101750727D01*
X165737813Y-101750730D01*
X165787046Y-101824414D01*
X165787052Y-101824421D01*
X167923584Y-103960952D01*
X167923586Y-103960954D01*
X167953058Y-103980645D01*
X167997270Y-104010186D01*
X168046505Y-104043084D01*
X168046506Y-104043084D01*
X168046507Y-104043085D01*
X168046509Y-104043086D01*
X168183082Y-104099656D01*
X168183087Y-104099658D01*
X168183091Y-104099658D01*
X168183092Y-104099659D01*
X168328079Y-104128500D01*
X168328082Y-104128500D01*
X168328083Y-104128500D01*
X168475917Y-104128500D01*
X177720770Y-104128500D01*
X177787809Y-104148185D01*
X177833564Y-104200989D01*
X177843508Y-104270147D01*
X177814483Y-104333703D01*
X177808451Y-104340181D01*
X177725048Y-104423583D01*
X177702946Y-104456662D01*
X177680991Y-104489522D01*
X177661953Y-104518013D01*
X177642916Y-104546504D01*
X177642912Y-104546511D01*
X177586343Y-104683082D01*
X177586340Y-104683092D01*
X177557500Y-104828079D01*
X177557500Y-104828082D01*
X177557500Y-110563918D01*
X177557500Y-110563920D01*
X177557499Y-110563920D01*
X177586340Y-110708907D01*
X177586343Y-110708917D01*
X177642913Y-110845490D01*
X177642916Y-110845495D01*
X177658376Y-110868634D01*
X177725046Y-110968414D01*
X177725052Y-110968421D01*
X178706578Y-111949946D01*
X178706584Y-111949951D01*
X178711497Y-111953234D01*
X178730286Y-111968654D01*
X178967533Y-112205901D01*
X179001018Y-112267224D01*
X179003379Y-112304388D01*
X178993715Y-112414860D01*
X178984341Y-112521999D01*
X178984341Y-112522000D01*
X179004936Y-112757403D01*
X179004938Y-112757413D01*
X179066094Y-112985655D01*
X179066096Y-112985659D01*
X179066097Y-112985663D01*
X179138998Y-113142000D01*
X179165965Y-113199830D01*
X179165967Y-113199834D01*
X179301501Y-113393395D01*
X179301506Y-113393402D01*
X179468597Y-113560493D01*
X179468603Y-113560498D01*
X179654158Y-113690425D01*
X179697783Y-113745002D01*
X179704977Y-113814500D01*
X179673454Y-113876855D01*
X179654158Y-113893575D01*
X179468597Y-114023505D01*
X179301505Y-114190597D01*
X179165965Y-114384169D01*
X179165964Y-114384171D01*
X179066098Y-114598335D01*
X179066094Y-114598344D01*
X179004938Y-114826586D01*
X179004936Y-114826596D01*
X178984341Y-115061999D01*
X178984341Y-115062000D01*
X179004936Y-115297403D01*
X179004938Y-115297413D01*
X179066094Y-115525655D01*
X179066096Y-115525659D01*
X179066097Y-115525663D01*
X179097264Y-115592500D01*
X179165965Y-115739830D01*
X179165967Y-115739834D01*
X179266564Y-115883500D01*
X179301505Y-115933401D01*
X179468599Y-116100495D01*
X179549866Y-116157399D01*
X179662165Y-116236032D01*
X179662167Y-116236033D01*
X179662170Y-116236035D01*
X179876337Y-116335903D01*
X180104592Y-116397063D01*
X180292918Y-116413539D01*
X180339999Y-116417659D01*
X180340000Y-116417659D01*
X180340001Y-116417659D01*
X180379234Y-116414226D01*
X180575408Y-116397063D01*
X180803663Y-116335903D01*
X181017830Y-116236035D01*
X181211401Y-116100495D01*
X181378495Y-115933401D01*
X181514035Y-115739830D01*
X181613903Y-115525663D01*
X181675063Y-115297408D01*
X181695659Y-115062000D01*
X181675063Y-114826592D01*
X181613903Y-114598337D01*
X181514035Y-114384171D01*
X181502728Y-114368022D01*
X181378494Y-114190597D01*
X181211402Y-114023506D01*
X181211396Y-114023501D01*
X181025842Y-113893575D01*
X180982217Y-113838998D01*
X180975023Y-113769500D01*
X181006546Y-113707145D01*
X181025842Y-113690425D01*
X181077005Y-113654600D01*
X181211401Y-113560495D01*
X181378495Y-113393401D01*
X181514035Y-113199830D01*
X181613903Y-112985663D01*
X181675063Y-112757408D01*
X181695659Y-112522000D01*
X181694053Y-112503649D01*
X181691539Y-112474918D01*
X181675063Y-112286592D01*
X181618270Y-112074634D01*
X181613905Y-112058344D01*
X181613904Y-112058343D01*
X181613903Y-112058337D01*
X181514035Y-111844171D01*
X181415943Y-111704081D01*
X181378496Y-111650600D01*
X181327711Y-111599815D01*
X181256567Y-111528671D01*
X181223084Y-111467351D01*
X181228068Y-111397659D01*
X181269939Y-111341725D01*
X181300915Y-111324810D01*
X181432331Y-111275796D01*
X181547546Y-111189546D01*
X181633796Y-111074331D01*
X181684091Y-110939483D01*
X181690500Y-110879873D01*
X181690499Y-109084128D01*
X181684091Y-109024517D01*
X181657773Y-108953956D01*
X181633797Y-108889671D01*
X181633793Y-108889664D01*
X181547547Y-108774455D01*
X181547544Y-108774452D01*
X181432335Y-108688206D01*
X181432328Y-108688202D01*
X181297482Y-108637908D01*
X181297483Y-108637908D01*
X181237883Y-108631501D01*
X181237881Y-108631500D01*
X181237873Y-108631500D01*
X181237865Y-108631500D01*
X181214500Y-108631500D01*
X181147461Y-108611815D01*
X181101706Y-108559011D01*
X181090500Y-108507500D01*
X181090500Y-107995972D01*
X181097458Y-107955017D01*
X181097926Y-107953680D01*
X181125368Y-107875255D01*
X181136290Y-107778318D01*
X181145565Y-107696003D01*
X181145565Y-107695996D01*
X181125369Y-107516750D01*
X181125368Y-107516745D01*
X181065788Y-107346476D01*
X181014907Y-107265500D01*
X180969816Y-107193738D01*
X180842262Y-107066184D01*
X180781461Y-107027980D01*
X180689523Y-106970211D01*
X180519254Y-106910631D01*
X180519249Y-106910630D01*
X180340004Y-106890435D01*
X180339996Y-106890435D01*
X180160750Y-106910630D01*
X180160745Y-106910631D01*
X179990476Y-106970211D01*
X179837737Y-107066184D01*
X179710184Y-107193737D01*
X179614211Y-107346476D01*
X179554631Y-107516745D01*
X179554630Y-107516750D01*
X179534435Y-107695996D01*
X179534435Y-107696003D01*
X179554630Y-107875249D01*
X179554631Y-107875254D01*
X179582542Y-107955017D01*
X179589500Y-107995972D01*
X179589500Y-108507500D01*
X179569815Y-108574539D01*
X179517011Y-108620294D01*
X179465505Y-108631500D01*
X179442132Y-108631500D01*
X179442123Y-108631501D01*
X179382516Y-108637908D01*
X179247666Y-108688204D01*
X179241922Y-108691341D01*
X179173649Y-108706190D01*
X179108185Y-108681770D01*
X179066316Y-108625835D01*
X179058500Y-108582506D01*
X179058500Y-105264228D01*
X179078185Y-105197189D01*
X179094815Y-105176551D01*
X179711546Y-104559819D01*
X179772869Y-104526335D01*
X179842561Y-104531319D01*
X179898494Y-104573191D01*
X179922911Y-104638655D01*
X179921700Y-104666898D01*
X179917500Y-104693416D01*
X179917500Y-104918582D01*
X179952723Y-105140976D01*
X180022305Y-105355125D01*
X180123679Y-105554081D01*
X180124527Y-105555745D01*
X180256876Y-105737908D01*
X180416092Y-105897124D01*
X180598255Y-106029473D01*
X180693041Y-106077769D01*
X180798874Y-106131694D01*
X180798876Y-106131694D01*
X180798879Y-106131696D01*
X180913666Y-106168992D01*
X181013023Y-106201276D01*
X181124220Y-106218888D01*
X181235417Y-106236500D01*
X181235418Y-106236500D01*
X181460582Y-106236500D01*
X181460583Y-106236500D01*
X181682976Y-106201276D01*
X181897121Y-106131696D01*
X182097745Y-106029473D01*
X182279908Y-105897124D01*
X182439124Y-105737908D01*
X182571473Y-105555745D01*
X182673696Y-105355121D01*
X182743276Y-105140976D01*
X182778500Y-104918583D01*
X182778500Y-104693417D01*
X182743276Y-104471024D01*
X182727861Y-104423583D01*
X182673694Y-104256874D01*
X182571472Y-104056254D01*
X182561904Y-104043085D01*
X182439124Y-103874092D01*
X182279908Y-103714876D01*
X182097745Y-103582527D01*
X181897125Y-103480305D01*
X181682976Y-103410723D01*
X181487100Y-103379700D01*
X181460583Y-103375500D01*
X181235417Y-103375500D01*
X181217939Y-103378268D01*
X181208898Y-103379700D01*
X181139604Y-103370743D01*
X181086154Y-103325745D01*
X181065516Y-103258993D01*
X181084243Y-103191680D01*
X181101819Y-103169547D01*
X181176952Y-103094416D01*
X181201275Y-103058012D01*
X181250246Y-102984723D01*
X181250250Y-102984716D01*
X181259084Y-102971495D01*
X181288870Y-102899585D01*
X181315659Y-102834912D01*
X181344500Y-102689917D01*
X181344500Y-102542082D01*
X181344500Y-99748082D01*
X181344500Y-99748079D01*
X181315659Y-99603092D01*
X181315658Y-99603091D01*
X181315658Y-99603087D01*
X181297397Y-99559000D01*
X181259087Y-99466511D01*
X181259085Y-99466507D01*
X181259084Y-99466505D01*
X181218990Y-99406500D01*
X181195050Y-99370670D01*
X181176956Y-99343589D01*
X181176952Y-99343584D01*
X180566421Y-98733052D01*
X180566420Y-98733051D01*
X180566315Y-98732981D01*
X180464148Y-98664716D01*
X180464148Y-98664715D01*
X180443495Y-98650916D01*
X180443490Y-98650913D01*
X180306917Y-98594343D01*
X180306907Y-98594340D01*
X180161920Y-98565500D01*
X180161918Y-98565500D01*
X180052360Y-98565500D01*
X179985321Y-98545815D01*
X179953407Y-98516228D01*
X179945609Y-98505902D01*
X179941950Y-98501057D01*
X179817530Y-98387633D01*
X179781252Y-98327927D01*
X179783012Y-98258079D01*
X179817530Y-98204366D01*
X179941950Y-98090943D01*
X180076474Y-97912804D01*
X180175974Y-97712980D01*
X180175974Y-97712977D01*
X180175976Y-97712975D01*
X180224432Y-97542666D01*
X180237063Y-97498274D01*
X180257660Y-97276000D01*
X180253643Y-97232655D01*
X180237063Y-97053726D01*
X180237062Y-97053723D01*
X180237009Y-97053538D01*
X180224017Y-97007873D01*
X180175976Y-96839024D01*
X180175973Y-96839018D01*
X180133740Y-96754202D01*
X180076474Y-96639196D01*
X179941950Y-96461057D01*
X179840859Y-96368901D01*
X179776984Y-96310671D01*
X179776974Y-96310664D01*
X179587195Y-96193158D01*
X179587189Y-96193156D01*
X179379039Y-96112518D01*
X179159613Y-96071500D01*
X178936387Y-96071500D01*
X178716961Y-96112518D01*
X178585328Y-96163512D01*
X178508810Y-96193156D01*
X178508804Y-96193158D01*
X178319025Y-96310664D01*
X178319015Y-96310671D01*
X178154051Y-96461055D01*
X178019526Y-96639195D01*
X177947499Y-96783844D01*
X177899996Y-96835081D01*
X177832333Y-96852502D01*
X177765993Y-96830576D01*
X177722038Y-96776265D01*
X177712499Y-96728576D01*
X177712499Y-95504128D01*
X177706091Y-95444517D01*
X177703001Y-95436233D01*
X177655797Y-95309671D01*
X177655793Y-95309664D01*
X177569547Y-95194455D01*
X177569544Y-95194452D01*
X177454335Y-95108206D01*
X177454328Y-95108202D01*
X177319482Y-95057908D01*
X177319483Y-95057908D01*
X177259883Y-95051501D01*
X177259881Y-95051500D01*
X177259873Y-95051500D01*
X177259864Y-95051500D01*
X175756129Y-95051500D01*
X175756123Y-95051501D01*
X175696516Y-95057908D01*
X175561671Y-95108202D01*
X175561664Y-95108206D01*
X175446455Y-95194452D01*
X175446452Y-95194455D01*
X175360206Y-95309664D01*
X175360202Y-95309671D01*
X175309908Y-95444517D01*
X175303501Y-95504116D01*
X175303501Y-95504123D01*
X175303500Y-95504135D01*
X175303500Y-97007870D01*
X175303501Y-97007876D01*
X175309908Y-97067483D01*
X175360202Y-97202328D01*
X175360206Y-97202335D01*
X175446451Y-97317543D01*
X175446452Y-97317544D01*
X175446454Y-97317546D01*
X175452717Y-97322234D01*
X175494587Y-97378167D01*
X175499571Y-97447859D01*
X175466086Y-97509182D01*
X175404763Y-97542666D01*
X175378405Y-97545500D01*
X174643512Y-97545500D01*
X174576473Y-97525815D01*
X174538518Y-97487472D01*
X174492815Y-97414737D01*
X174365262Y-97287184D01*
X174212523Y-97191211D01*
X174042254Y-97131631D01*
X174042249Y-97131630D01*
X173863004Y-97111435D01*
X173862996Y-97111435D01*
X173683750Y-97131630D01*
X173683745Y-97131631D01*
X173513476Y-97191211D01*
X173360737Y-97287184D01*
X173233184Y-97414737D01*
X173187482Y-97487472D01*
X173135147Y-97533763D01*
X173082488Y-97545500D01*
X172427422Y-97545500D01*
X172360383Y-97525815D01*
X172321695Y-97486290D01*
X172240839Y-97354346D01*
X172240838Y-97354343D01*
X172173926Y-97276000D01*
X172077224Y-97162776D01*
X171949319Y-97053535D01*
X171885656Y-96999161D01*
X171885653Y-96999160D01*
X171751710Y-96917079D01*
X171704835Y-96865267D01*
X171692500Y-96811352D01*
X171692500Y-94414079D01*
X171663659Y-94269092D01*
X171663658Y-94269091D01*
X171663658Y-94269087D01*
X171663656Y-94269082D01*
X171607087Y-94132511D01*
X171607080Y-94132498D01*
X171524952Y-94009585D01*
X171495365Y-93979998D01*
X171420416Y-93905049D01*
X171398697Y-93883330D01*
X170912421Y-93397052D01*
X170912414Y-93397046D01*
X170838729Y-93347812D01*
X170838729Y-93347813D01*
X170789491Y-93314913D01*
X170652917Y-93258343D01*
X170652907Y-93258340D01*
X170507920Y-93229500D01*
X170507918Y-93229500D01*
X170290663Y-93229500D01*
X170223624Y-93209815D01*
X170189088Y-93176623D01*
X170164048Y-93140862D01*
X170164047Y-93140861D01*
X170003139Y-92979953D01*
X169998373Y-92976615D01*
X169967375Y-92954910D01*
X169923751Y-92900332D01*
X169914500Y-92853336D01*
X169914500Y-92693417D01*
X179917500Y-92693417D01*
X179917500Y-92918583D01*
X179919467Y-92931001D01*
X179952723Y-93140976D01*
X180022305Y-93355125D01*
X180103206Y-93513900D01*
X180124527Y-93555745D01*
X180256876Y-93737908D01*
X180416092Y-93897124D01*
X180598255Y-94029473D01*
X180693041Y-94077769D01*
X180798874Y-94131694D01*
X180798876Y-94131694D01*
X180798879Y-94131696D01*
X180913666Y-94168992D01*
X181013023Y-94201276D01*
X181047250Y-94206697D01*
X181235417Y-94236500D01*
X181235418Y-94236500D01*
X181460582Y-94236500D01*
X181460583Y-94236500D01*
X181682976Y-94201276D01*
X181897121Y-94131696D01*
X182097745Y-94029473D01*
X182279908Y-93897124D01*
X182439124Y-93737908D01*
X182571473Y-93555745D01*
X182673696Y-93355121D01*
X182743276Y-93140976D01*
X182778500Y-92918583D01*
X182778500Y-92693417D01*
X182749904Y-92512868D01*
X182743276Y-92471023D01*
X182673694Y-92256874D01*
X182596353Y-92105085D01*
X182571473Y-92056255D01*
X182439124Y-91874092D01*
X182279908Y-91714876D01*
X182097745Y-91582527D01*
X182058130Y-91562342D01*
X181897125Y-91480305D01*
X181682976Y-91410723D01*
X181490989Y-91380316D01*
X181460583Y-91375500D01*
X181235417Y-91375500D01*
X181208667Y-91379736D01*
X181013023Y-91410723D01*
X180798874Y-91480305D01*
X180598254Y-91582527D01*
X180416089Y-91714878D01*
X180256878Y-91874089D01*
X180124527Y-92056254D01*
X180022305Y-92256874D01*
X179952723Y-92471023D01*
X179917500Y-92693417D01*
X169914500Y-92693417D01*
X169914500Y-92564230D01*
X169934185Y-92497191D01*
X169950819Y-92476549D01*
X170200549Y-92226819D01*
X170261872Y-92193334D01*
X170288230Y-92190500D01*
X176095920Y-92190500D01*
X176193462Y-92171096D01*
X176240913Y-92161658D01*
X176377495Y-92105084D01*
X176457100Y-92051894D01*
X176500416Y-92022952D01*
X180287952Y-88235415D01*
X180315205Y-88194627D01*
X180370084Y-88112495D01*
X180424379Y-87981416D01*
X180426659Y-87975912D01*
X180455500Y-87830917D01*
X180455500Y-87683082D01*
X180455500Y-87147351D01*
X180475185Y-87080312D01*
X180527989Y-87034557D01*
X180566247Y-87024061D01*
X180612483Y-87019091D01*
X180747331Y-86968796D01*
X180862546Y-86882546D01*
X180948796Y-86767331D01*
X180999091Y-86632483D01*
X181005500Y-86572873D01*
X181005499Y-84877128D01*
X180999091Y-84817517D01*
X180964567Y-84724954D01*
X180948797Y-84682671D01*
X180948793Y-84682664D01*
X180862547Y-84567455D01*
X180862544Y-84567452D01*
X180747335Y-84481206D01*
X180747328Y-84481202D01*
X180612482Y-84430908D01*
X180612483Y-84430908D01*
X180552883Y-84424501D01*
X180552881Y-84424500D01*
X180552873Y-84424500D01*
X180552864Y-84424500D01*
X178857129Y-84424500D01*
X178857123Y-84424501D01*
X178797516Y-84430908D01*
X178662671Y-84481202D01*
X178662664Y-84481206D01*
X178547455Y-84567452D01*
X178547452Y-84567455D01*
X178461206Y-84682664D01*
X178461202Y-84682671D01*
X178410908Y-84817516D01*
X178407137Y-84852596D01*
X178380398Y-84917146D01*
X178323006Y-84956994D01*
X178253180Y-84959487D01*
X178193092Y-84923834D01*
X178182273Y-84910462D01*
X178165045Y-84885858D01*
X178004141Y-84724954D01*
X177817734Y-84594432D01*
X177817732Y-84594431D01*
X177611497Y-84498261D01*
X177611488Y-84498258D01*
X177391697Y-84439366D01*
X177391693Y-84439365D01*
X177391692Y-84439365D01*
X177391691Y-84439364D01*
X177391686Y-84439364D01*
X177165002Y-84419532D01*
X177164998Y-84419532D01*
X176938313Y-84439364D01*
X176938302Y-84439366D01*
X176718511Y-84498258D01*
X176718502Y-84498261D01*
X176512267Y-84594431D01*
X176512265Y-84594432D01*
X176325858Y-84724954D01*
X176164954Y-84885858D01*
X176034432Y-85072265D01*
X176034431Y-85072267D01*
X176007382Y-85130275D01*
X175961209Y-85182714D01*
X175894016Y-85201866D01*
X175827135Y-85181650D01*
X175782618Y-85130275D01*
X175755568Y-85072266D01*
X175625047Y-84885861D01*
X175625045Y-84885858D01*
X175464141Y-84724954D01*
X175277734Y-84594432D01*
X175277732Y-84594431D01*
X175071497Y-84498261D01*
X175071488Y-84498258D01*
X174851697Y-84439366D01*
X174851693Y-84439365D01*
X174851692Y-84439365D01*
X174851691Y-84439364D01*
X174851686Y-84439364D01*
X174625002Y-84419532D01*
X174624998Y-84419532D01*
X174398313Y-84439364D01*
X174398302Y-84439366D01*
X174302068Y-84465152D01*
X174232218Y-84463489D01*
X174182294Y-84433058D01*
X168936819Y-79187583D01*
X168903334Y-79126260D01*
X168900500Y-79099902D01*
X168900500Y-77971692D01*
X168920185Y-77904653D01*
X168953374Y-77870119D01*
X169139139Y-77740047D01*
X169300047Y-77579139D01*
X169430568Y-77392734D01*
X169457618Y-77334724D01*
X169503790Y-77282285D01*
X169570983Y-77263133D01*
X169637865Y-77283348D01*
X169682382Y-77334725D01*
X169709429Y-77392728D01*
X169709432Y-77392734D01*
X169839954Y-77579141D01*
X170000858Y-77740045D01*
X170000861Y-77740047D01*
X170187266Y-77870568D01*
X170393504Y-77966739D01*
X170613308Y-78025635D01*
X170757144Y-78038219D01*
X170839998Y-78045468D01*
X170840000Y-78045468D01*
X170840002Y-78045468D01*
X170896673Y-78040509D01*
X171066692Y-78025635D01*
X171286496Y-77966739D01*
X171492734Y-77870568D01*
X171679139Y-77740047D01*
X171840047Y-77579139D01*
X171970568Y-77392734D01*
X171997618Y-77334724D01*
X172043790Y-77282285D01*
X172110983Y-77263133D01*
X172177865Y-77283348D01*
X172222382Y-77334725D01*
X172249429Y-77392728D01*
X172249432Y-77392734D01*
X172379954Y-77579141D01*
X172540858Y-77740045D01*
X172540861Y-77740047D01*
X172727266Y-77870568D01*
X172933504Y-77966739D01*
X173153308Y-78025635D01*
X173297144Y-78038219D01*
X173379998Y-78045468D01*
X173380000Y-78045468D01*
X173380002Y-78045468D01*
X173436673Y-78040509D01*
X173606692Y-78025635D01*
X173826496Y-77966739D01*
X174032734Y-77870568D01*
X174219139Y-77740047D01*
X174380047Y-77579139D01*
X174510568Y-77392734D01*
X174537618Y-77334724D01*
X174583790Y-77282285D01*
X174650983Y-77263133D01*
X174717865Y-77283348D01*
X174762382Y-77334725D01*
X174789429Y-77392728D01*
X174789432Y-77392734D01*
X174919954Y-77579141D01*
X175080858Y-77740045D01*
X175080861Y-77740047D01*
X175267266Y-77870568D01*
X175473504Y-77966739D01*
X175693308Y-78025635D01*
X175837144Y-78038219D01*
X175919998Y-78045468D01*
X175920000Y-78045468D01*
X175920002Y-78045468D01*
X175976673Y-78040509D01*
X176146692Y-78025635D01*
X176366496Y-77966739D01*
X176572734Y-77870568D01*
X176721357Y-77766501D01*
X176787562Y-77744175D01*
X176855329Y-77761185D01*
X176880160Y-77780396D01*
X176930349Y-77830585D01*
X176930354Y-77830589D01*
X177558284Y-78458520D01*
X177558286Y-78458521D01*
X177558290Y-78458524D01*
X177695209Y-78537573D01*
X177695216Y-78537577D01*
X177847943Y-78578501D01*
X177847945Y-78578501D01*
X178013654Y-78578501D01*
X178013670Y-78578500D01*
X179675331Y-78578500D01*
X179675347Y-78578501D01*
X179682943Y-78578501D01*
X179841054Y-78578501D01*
X179841057Y-78578501D01*
X179993785Y-78537577D01*
X180043904Y-78508639D01*
X180130716Y-78458520D01*
X180242520Y-78346716D01*
X180242520Y-78346714D01*
X180252728Y-78336507D01*
X180252730Y-78336504D01*
X180557294Y-78031939D01*
X180618615Y-77998456D01*
X180677066Y-77999847D01*
X180696604Y-78005082D01*
X180773308Y-78025635D01*
X180917144Y-78038219D01*
X180999998Y-78045468D01*
X181000000Y-78045468D01*
X181000002Y-78045468D01*
X181056673Y-78040509D01*
X181226692Y-78025635D01*
X181446496Y-77966739D01*
X181652734Y-77870568D01*
X181839139Y-77740047D01*
X182000047Y-77579139D01*
X182130568Y-77392734D01*
X182226739Y-77186496D01*
X182285635Y-76966692D01*
X182305468Y-76740000D01*
X182285635Y-76513308D01*
X182226739Y-76293504D01*
X182130568Y-76087266D01*
X182000047Y-75900861D01*
X182000045Y-75900858D01*
X181839141Y-75739954D01*
X181652734Y-75609432D01*
X181652732Y-75609431D01*
X181446497Y-75513261D01*
X181446488Y-75513258D01*
X181226697Y-75454366D01*
X181226693Y-75454365D01*
X181226692Y-75454365D01*
X181226691Y-75454364D01*
X181226686Y-75454364D01*
X181000002Y-75434532D01*
X180999998Y-75434532D01*
X180773313Y-75454364D01*
X180773302Y-75454366D01*
X180553511Y-75513258D01*
X180553502Y-75513261D01*
X180347267Y-75609431D01*
X180347265Y-75609432D01*
X180160858Y-75739954D01*
X179999954Y-75900858D01*
X179869432Y-76087265D01*
X179869431Y-76087267D01*
X179842382Y-76145275D01*
X179796209Y-76197714D01*
X179729016Y-76216866D01*
X179662135Y-76196650D01*
X179617618Y-76145275D01*
X179590686Y-76087520D01*
X179590568Y-76087266D01*
X179460047Y-75900861D01*
X179460045Y-75900858D01*
X179299141Y-75739954D01*
X179112734Y-75609432D01*
X179112732Y-75609431D01*
X178906497Y-75513261D01*
X178906488Y-75513258D01*
X178686697Y-75454366D01*
X178686693Y-75454365D01*
X178686692Y-75454365D01*
X178686691Y-75454364D01*
X178686686Y-75454364D01*
X178460002Y-75434532D01*
X178459998Y-75434532D01*
X178233313Y-75454364D01*
X178233302Y-75454366D01*
X178137067Y-75480152D01*
X178067217Y-75478489D01*
X178017293Y-75448058D01*
X177481416Y-74912181D01*
X177447931Y-74850858D01*
X177452915Y-74781166D01*
X177494787Y-74725233D01*
X177560251Y-74700816D01*
X177569097Y-74700500D01*
X181594506Y-74700500D01*
X181661545Y-74720185D01*
X181673889Y-74729241D01*
X182674796Y-75563330D01*
X182683094Y-75570908D01*
X183003181Y-75890995D01*
X183036666Y-75952318D01*
X183039500Y-75978676D01*
X183039500Y-87084108D01*
X183039500Y-87215892D01*
X183042865Y-87228451D01*
X183073608Y-87343187D01*
X183101850Y-87392102D01*
X183139500Y-87457314D01*
X183139502Y-87457316D01*
X185543181Y-89860995D01*
X185576666Y-89922318D01*
X185579500Y-89948676D01*
X185579500Y-122201324D01*
X185559815Y-122268363D01*
X185543181Y-122289005D01*
X183139502Y-124692683D01*
X183139500Y-124692686D01*
X183073608Y-124806812D01*
X183039500Y-124934108D01*
X183039500Y-126876000D01*
X183019815Y-126943039D01*
X182967011Y-126988794D01*
X182915500Y-127000000D01*
X118124500Y-127000000D01*
X118057461Y-126980315D01*
X118011706Y-126927511D01*
X118000500Y-126876000D01*
X118000500Y-109390228D01*
X118585500Y-109390228D01*
X118585500Y-109557771D01*
X118618182Y-109722074D01*
X118618184Y-109722082D01*
X118682295Y-109876860D01*
X118775373Y-110016162D01*
X118893837Y-110134626D01*
X118986494Y-110196537D01*
X119033137Y-110227703D01*
X119187918Y-110291816D01*
X119352228Y-110324499D01*
X119352232Y-110324500D01*
X119352233Y-110324500D01*
X119519768Y-110324500D01*
X119519769Y-110324499D01*
X119684082Y-110291816D01*
X119838863Y-110227703D01*
X119978162Y-110134626D01*
X120096626Y-110016162D01*
X120108397Y-109998544D01*
X120162009Y-109953740D01*
X120231334Y-109945031D01*
X120294362Y-109975186D01*
X120331081Y-110034628D01*
X120335500Y-110067435D01*
X120335500Y-111495500D01*
X120315815Y-111562539D01*
X120263011Y-111608294D01*
X120211500Y-111619500D01*
X120191139Y-111619500D01*
X120131310Y-111628976D01*
X120011652Y-111647928D01*
X120011649Y-111647928D01*
X119838828Y-111704081D01*
X119838825Y-111704083D01*
X119676909Y-111786583D01*
X119597650Y-111844169D01*
X119529894Y-111893397D01*
X119529892Y-111893399D01*
X119529891Y-111893399D01*
X119401399Y-112021891D01*
X119401399Y-112021892D01*
X119401397Y-112021894D01*
X119363080Y-112074633D01*
X119294583Y-112168909D01*
X119212083Y-112330825D01*
X119212081Y-112330828D01*
X119155928Y-112503649D01*
X119155928Y-112503652D01*
X119127500Y-112683139D01*
X119127500Y-112864860D01*
X119155928Y-113044347D01*
X119155928Y-113044350D01*
X119212081Y-113217171D01*
X119212083Y-113217174D01*
X119294583Y-113379090D01*
X119401397Y-113526106D01*
X119529894Y-113654603D01*
X119676910Y-113761417D01*
X119838826Y-113843917D01*
X119838828Y-113843918D01*
X119940199Y-113876855D01*
X120011654Y-113900072D01*
X120191139Y-113928500D01*
X120191140Y-113928500D01*
X121680860Y-113928500D01*
X121680861Y-113928500D01*
X121860346Y-113900072D01*
X121860349Y-113900071D01*
X121860350Y-113900071D01*
X122033171Y-113843918D01*
X122033171Y-113843917D01*
X122033174Y-113843917D01*
X122195090Y-113761417D01*
X122342106Y-113654603D01*
X122470603Y-113526106D01*
X122577417Y-113379090D01*
X122659917Y-113217174D01*
X122676226Y-113166979D01*
X122716071Y-113044350D01*
X122716071Y-113044349D01*
X122716072Y-113044346D01*
X122744500Y-112864861D01*
X122744500Y-112683139D01*
X122716072Y-112503654D01*
X122716071Y-112503650D01*
X122716071Y-112503649D01*
X122659918Y-112330828D01*
X122659916Y-112330825D01*
X122637381Y-112286596D01*
X122577417Y-112168910D01*
X122470603Y-112021894D01*
X122342106Y-111893397D01*
X122195090Y-111786583D01*
X122033174Y-111704083D01*
X122033171Y-111704081D01*
X121860348Y-111647928D01*
X121740689Y-111628976D01*
X121680861Y-111619500D01*
X121680860Y-111619500D01*
X121660500Y-111619500D01*
X121593461Y-111599815D01*
X121547706Y-111547011D01*
X121536500Y-111495500D01*
X121536500Y-109858097D01*
X121556185Y-109791058D01*
X121572819Y-109770416D01*
X122840416Y-108502819D01*
X122901739Y-108469334D01*
X122928097Y-108466500D01*
X126022466Y-108466500D01*
X126089505Y-108486185D01*
X126135260Y-108538989D01*
X126145204Y-108608147D01*
X126116179Y-108671703D01*
X126069919Y-108705061D01*
X126033139Y-108720295D01*
X125893837Y-108813373D01*
X125775373Y-108931837D01*
X125682295Y-109071139D01*
X125618184Y-109225917D01*
X125618182Y-109225925D01*
X125585500Y-109390228D01*
X125585500Y-109557771D01*
X125618182Y-109722074D01*
X125618184Y-109722082D01*
X125682295Y-109876860D01*
X125775373Y-110016162D01*
X125893837Y-110134626D01*
X125986494Y-110196537D01*
X126033137Y-110227703D01*
X126187918Y-110291816D01*
X126352228Y-110324499D01*
X126352232Y-110324500D01*
X126352233Y-110324500D01*
X126519768Y-110324500D01*
X126519769Y-110324499D01*
X126684082Y-110291816D01*
X126838863Y-110227703D01*
X126978162Y-110134626D01*
X127096626Y-110016162D01*
X127189703Y-109876863D01*
X127253816Y-109722082D01*
X127286500Y-109557767D01*
X127286500Y-109390233D01*
X127253816Y-109225918D01*
X127195082Y-109084123D01*
X127189704Y-109071139D01*
X127096626Y-108931837D01*
X126978162Y-108813373D01*
X126838860Y-108720295D01*
X126802081Y-108705061D01*
X126747678Y-108661220D01*
X126725613Y-108594925D01*
X126742892Y-108527226D01*
X126794030Y-108479616D01*
X126849534Y-108466500D01*
X128478420Y-108466500D01*
X128545459Y-108486185D01*
X128591214Y-108538989D01*
X128601158Y-108608147D01*
X128600893Y-108609899D01*
X128582000Y-108729180D01*
X128582000Y-109224000D01*
X129336000Y-109224000D01*
X129336000Y-109724000D01*
X128582000Y-109724000D01*
X128582000Y-110218821D01*
X128610415Y-110398225D01*
X128666548Y-110570984D01*
X128749011Y-110732828D01*
X128855780Y-110879781D01*
X128855780Y-110879782D01*
X128933817Y-110957819D01*
X128967302Y-111019142D01*
X128962318Y-111088834D01*
X128920446Y-111144767D01*
X128854982Y-111169184D01*
X128846136Y-111169500D01*
X128191139Y-111169500D01*
X128131310Y-111178976D01*
X128011652Y-111197928D01*
X128011649Y-111197928D01*
X127838828Y-111254081D01*
X127838825Y-111254083D01*
X127676909Y-111336583D01*
X127593030Y-111397525D01*
X127529894Y-111443397D01*
X127529892Y-111443399D01*
X127529891Y-111443399D01*
X127401399Y-111571891D01*
X127401399Y-111571892D01*
X127401397Y-111571894D01*
X127381111Y-111599815D01*
X127294583Y-111718909D01*
X127212083Y-111880825D01*
X127212081Y-111880828D01*
X127155928Y-112053649D01*
X127155928Y-112053652D01*
X127143131Y-112134452D01*
X127127500Y-112233139D01*
X127127500Y-112414861D01*
X127132136Y-112444129D01*
X127155928Y-112594347D01*
X127155928Y-112594350D01*
X127212081Y-112767171D01*
X127212083Y-112767174D01*
X127294583Y-112929090D01*
X127401397Y-113076106D01*
X127529894Y-113204603D01*
X127676910Y-113311417D01*
X127838826Y-113393917D01*
X127838828Y-113393918D01*
X128000029Y-113446294D01*
X128011654Y-113450072D01*
X128191139Y-113478500D01*
X128191140Y-113478500D01*
X129680860Y-113478500D01*
X129680861Y-113478500D01*
X129860346Y-113450072D01*
X129860349Y-113450071D01*
X129860350Y-113450071D01*
X130033171Y-113393918D01*
X130033171Y-113393917D01*
X130033174Y-113393917D01*
X130195090Y-113311417D01*
X130342106Y-113204603D01*
X130470603Y-113076106D01*
X130577417Y-112929090D01*
X130659917Y-112767174D01*
X130716072Y-112594346D01*
X130744500Y-112414861D01*
X130744500Y-112233139D01*
X130716072Y-112053654D01*
X130716071Y-112053650D01*
X130716071Y-112053649D01*
X130659918Y-111880828D01*
X130659916Y-111880825D01*
X130611898Y-111786583D01*
X130577417Y-111718910D01*
X130470603Y-111571894D01*
X130342106Y-111443397D01*
X130239594Y-111368917D01*
X130196930Y-111313587D01*
X130190951Y-111243974D01*
X130223557Y-111182179D01*
X130256187Y-111158115D01*
X130340826Y-111114990D01*
X130487781Y-111008219D01*
X130487782Y-111008219D01*
X130616219Y-110879782D01*
X130616219Y-110879781D01*
X130722988Y-110732828D01*
X130805451Y-110570984D01*
X130861584Y-110398225D01*
X130890000Y-110218821D01*
X130890000Y-109724000D01*
X130136000Y-109724000D01*
X130136000Y-109224000D01*
X130890000Y-109224000D01*
X130890000Y-108729180D01*
X130871107Y-108609899D01*
X130880061Y-108540605D01*
X130925057Y-108487153D01*
X130991809Y-108466513D01*
X130993580Y-108466500D01*
X132559501Y-108466500D01*
X132626540Y-108486185D01*
X132672295Y-108538989D01*
X132683501Y-108590500D01*
X132683501Y-109101876D01*
X132689908Y-109161483D01*
X132740202Y-109296328D01*
X132740206Y-109296335D01*
X132826452Y-109411544D01*
X132826455Y-109411547D01*
X132941664Y-109497793D01*
X132941671Y-109497797D01*
X132941674Y-109497798D01*
X133073598Y-109547002D01*
X133129531Y-109588873D01*
X133153949Y-109654337D01*
X133139098Y-109722610D01*
X133117947Y-109750865D01*
X132995886Y-109872926D01*
X132860400Y-110066420D01*
X132860399Y-110066422D01*
X132760570Y-110280507D01*
X132760567Y-110280513D01*
X132703364Y-110493999D01*
X132703364Y-110494000D01*
X133600988Y-110494000D01*
X133568075Y-110551007D01*
X133534000Y-110678174D01*
X133534000Y-110809826D01*
X133568075Y-110936993D01*
X133600988Y-110994000D01*
X132703364Y-110994000D01*
X132760567Y-111207486D01*
X132760570Y-111207492D01*
X132860399Y-111421578D01*
X132995894Y-111615082D01*
X133162917Y-111782105D01*
X133356421Y-111917600D01*
X133570507Y-112017429D01*
X133570516Y-112017433D01*
X133784000Y-112074634D01*
X133784000Y-111177012D01*
X133841007Y-111209925D01*
X133968174Y-111244000D01*
X134099826Y-111244000D01*
X134226993Y-111209925D01*
X134284000Y-111177012D01*
X134284000Y-112074633D01*
X134497483Y-112017433D01*
X134497492Y-112017429D01*
X134711578Y-111917600D01*
X134905082Y-111782105D01*
X135072105Y-111615082D01*
X135207600Y-111421578D01*
X135307429Y-111207492D01*
X135307432Y-111207486D01*
X135364636Y-110994000D01*
X134467012Y-110994000D01*
X134499925Y-110936993D01*
X134534000Y-110809826D01*
X134534000Y-110678174D01*
X134499925Y-110551007D01*
X134467012Y-110494000D01*
X135364636Y-110494000D01*
X135364635Y-110493999D01*
X135307432Y-110280513D01*
X135307429Y-110280507D01*
X135207600Y-110066422D01*
X135207599Y-110066420D01*
X135072113Y-109872926D01*
X135072108Y-109872920D01*
X134950053Y-109750865D01*
X134916568Y-109689542D01*
X134921552Y-109619850D01*
X134963424Y-109563917D01*
X134994400Y-109547002D01*
X135126331Y-109497796D01*
X135241546Y-109411546D01*
X135327796Y-109296331D01*
X135378091Y-109161483D01*
X135384500Y-109101873D01*
X135384500Y-108928500D01*
X135404185Y-108861461D01*
X135456989Y-108815706D01*
X135508500Y-108804500D01*
X137950903Y-108804500D01*
X138017942Y-108824185D01*
X138063697Y-108876989D01*
X138073641Y-108946147D01*
X138044616Y-109009703D01*
X138038590Y-109016174D01*
X137893282Y-109161482D01*
X137807286Y-109247478D01*
X137695481Y-109359282D01*
X137695477Y-109359287D01*
X137678359Y-109388939D01*
X137678358Y-109388941D01*
X137616423Y-109496215D01*
X137575499Y-109648943D01*
X137575499Y-109648945D01*
X137575499Y-109817046D01*
X137575500Y-109817059D01*
X137575500Y-116539902D01*
X137555815Y-116606941D01*
X137539181Y-116627583D01*
X136185584Y-117981181D01*
X136124261Y-118014666D01*
X136097903Y-118017500D01*
X135999046Y-118017500D01*
X135966957Y-118013276D01*
X135964057Y-118012499D01*
X135805943Y-118012499D01*
X135798347Y-118012499D01*
X135798331Y-118012500D01*
X135332499Y-118012500D01*
X135265460Y-117992815D01*
X135219705Y-117940011D01*
X135208499Y-117888500D01*
X135208499Y-117715129D01*
X135208498Y-117715123D01*
X135202091Y-117655516D01*
X135151797Y-117520671D01*
X135151793Y-117520664D01*
X135065547Y-117405455D01*
X135065544Y-117405452D01*
X134950335Y-117319206D01*
X134950328Y-117319202D01*
X134815482Y-117268908D01*
X134815483Y-117268908D01*
X134755883Y-117262501D01*
X134755881Y-117262500D01*
X134755873Y-117262500D01*
X134755864Y-117262500D01*
X132960129Y-117262500D01*
X132960123Y-117262501D01*
X132900516Y-117268908D01*
X132765671Y-117319202D01*
X132765664Y-117319206D01*
X132650455Y-117405452D01*
X132650452Y-117405455D01*
X132564206Y-117520664D01*
X132564201Y-117520673D01*
X132535051Y-117598832D01*
X132493181Y-117654766D01*
X132427716Y-117679184D01*
X132418869Y-117679500D01*
X130761215Y-117679500D01*
X130694176Y-117659815D01*
X130648421Y-117607011D01*
X130638477Y-117537853D01*
X130650730Y-117499206D01*
X130659914Y-117481179D01*
X130659917Y-117481174D01*
X130664003Y-117468600D01*
X130716071Y-117308350D01*
X130716071Y-117308349D01*
X130716072Y-117308346D01*
X130744500Y-117128861D01*
X130744500Y-116947139D01*
X130716072Y-116767654D01*
X130716071Y-116767650D01*
X130716071Y-116767649D01*
X130659918Y-116594828D01*
X130659916Y-116594825D01*
X130631932Y-116539902D01*
X130577417Y-116432910D01*
X130470603Y-116285894D01*
X130342106Y-116157397D01*
X130195090Y-116050583D01*
X130033174Y-115968083D01*
X130033171Y-115968081D01*
X129860348Y-115911928D01*
X129740689Y-115892976D01*
X129680861Y-115883500D01*
X128191139Y-115883500D01*
X128131310Y-115892976D01*
X128011652Y-115911928D01*
X128011649Y-115911928D01*
X127838828Y-115968081D01*
X127838825Y-115968083D01*
X127676909Y-116050583D01*
X127608215Y-116100493D01*
X127529894Y-116157397D01*
X127529892Y-116157399D01*
X127529891Y-116157399D01*
X127401399Y-116285891D01*
X127401399Y-116285892D01*
X127401397Y-116285894D01*
X127378322Y-116317654D01*
X127294583Y-116432909D01*
X127212083Y-116594825D01*
X127212081Y-116594828D01*
X127155928Y-116767649D01*
X127155928Y-116767652D01*
X127127500Y-116947139D01*
X127127500Y-117128860D01*
X127155928Y-117308347D01*
X127155928Y-117308350D01*
X127212081Y-117481171D01*
X127212085Y-117481179D01*
X127221270Y-117499206D01*
X127234166Y-117567875D01*
X127207889Y-117632615D01*
X127150783Y-117672872D01*
X127110785Y-117679500D01*
X122928097Y-117679500D01*
X122861058Y-117659815D01*
X122840416Y-117643181D01*
X122573573Y-117376338D01*
X122540088Y-117315015D01*
X122545072Y-117245323D01*
X122560934Y-117215776D01*
X122577417Y-117193090D01*
X122659917Y-117031174D01*
X122716072Y-116858346D01*
X122744500Y-116678861D01*
X122744500Y-116497139D01*
X122716072Y-116317654D01*
X122716071Y-116317650D01*
X122716071Y-116317649D01*
X122659918Y-116144828D01*
X122659916Y-116144825D01*
X122637331Y-116100498D01*
X122577417Y-115982910D01*
X122470603Y-115835894D01*
X122342106Y-115707397D01*
X122195090Y-115600583D01*
X122033174Y-115518083D01*
X122033171Y-115518081D01*
X121860348Y-115461928D01*
X121740689Y-115442976D01*
X121680861Y-115433500D01*
X120191139Y-115433500D01*
X120131310Y-115442976D01*
X120011652Y-115461928D01*
X120011649Y-115461928D01*
X119838828Y-115518081D01*
X119838825Y-115518083D01*
X119676909Y-115600583D01*
X119593030Y-115661525D01*
X119529894Y-115707397D01*
X119529892Y-115707399D01*
X119529891Y-115707399D01*
X119401399Y-115835891D01*
X119401399Y-115835892D01*
X119401397Y-115835894D01*
X119366809Y-115883500D01*
X119294583Y-115982909D01*
X119212083Y-116144825D01*
X119212081Y-116144828D01*
X119155928Y-116317649D01*
X119155928Y-116317652D01*
X119127500Y-116497139D01*
X119127500Y-116678860D01*
X119155928Y-116858347D01*
X119155928Y-116858350D01*
X119212081Y-117031171D01*
X119212083Y-117031174D01*
X119294583Y-117193090D01*
X119401397Y-117340106D01*
X119529894Y-117468603D01*
X119676910Y-117575417D01*
X119838826Y-117657917D01*
X119838828Y-117657918D01*
X120000029Y-117710294D01*
X120011654Y-117714072D01*
X120191139Y-117742500D01*
X121189903Y-117742500D01*
X121256942Y-117762185D01*
X121277584Y-117778819D01*
X121691083Y-118192318D01*
X121724568Y-118253641D01*
X121719584Y-118323333D01*
X121691083Y-118367680D01*
X120567286Y-119491478D01*
X120455481Y-119603282D01*
X120455475Y-119603290D01*
X120454942Y-119604214D01*
X120454288Y-119604836D01*
X120450530Y-119609735D01*
X120449765Y-119609148D01*
X120404372Y-119652426D01*
X120335764Y-119665645D01*
X120270901Y-119639672D01*
X120232998Y-119589660D01*
X120189704Y-119485138D01*
X120096626Y-119345837D01*
X119978162Y-119227373D01*
X119838860Y-119134295D01*
X119684082Y-119070184D01*
X119684074Y-119070182D01*
X119519771Y-119037500D01*
X119519767Y-119037500D01*
X119352233Y-119037500D01*
X119352228Y-119037500D01*
X119187925Y-119070182D01*
X119187917Y-119070184D01*
X119033139Y-119134295D01*
X118893837Y-119227373D01*
X118775373Y-119345837D01*
X118682295Y-119485139D01*
X118618184Y-119639917D01*
X118618182Y-119639925D01*
X118585500Y-119804228D01*
X118585500Y-119971771D01*
X118618182Y-120136074D01*
X118618184Y-120136082D01*
X118682295Y-120290860D01*
X118775373Y-120430162D01*
X118893837Y-120548626D01*
X118986494Y-120610537D01*
X119033137Y-120641703D01*
X119187918Y-120705816D01*
X119352228Y-120738499D01*
X119352232Y-120738500D01*
X119352233Y-120738500D01*
X119519768Y-120738500D01*
X119519769Y-120738499D01*
X119684082Y-120705816D01*
X119838863Y-120641703D01*
X119978162Y-120548626D01*
X120096626Y-120430162D01*
X120108397Y-120412544D01*
X120162009Y-120367740D01*
X120231334Y-120359031D01*
X120294362Y-120389186D01*
X120331081Y-120448628D01*
X120335500Y-120481435D01*
X120335500Y-121909500D01*
X120315815Y-121976539D01*
X120263011Y-122022294D01*
X120211500Y-122033500D01*
X120191139Y-122033500D01*
X120131310Y-122042976D01*
X120011652Y-122061928D01*
X120011649Y-122061928D01*
X119838828Y-122118081D01*
X119838825Y-122118083D01*
X119676909Y-122200583D01*
X119613711Y-122246500D01*
X119529894Y-122307397D01*
X119529892Y-122307399D01*
X119529891Y-122307399D01*
X119401399Y-122435891D01*
X119401399Y-122435892D01*
X119401397Y-122435894D01*
X119366712Y-122483634D01*
X119294583Y-122582909D01*
X119212083Y-122744825D01*
X119212081Y-122744828D01*
X119155928Y-122917649D01*
X119155928Y-122917652D01*
X119127500Y-123097139D01*
X119127500Y-123278860D01*
X119155928Y-123458347D01*
X119155928Y-123458350D01*
X119212081Y-123631171D01*
X119212083Y-123631174D01*
X119294583Y-123793090D01*
X119401397Y-123940106D01*
X119529894Y-124068603D01*
X119676910Y-124175417D01*
X119838826Y-124257917D01*
X119838828Y-124257918D01*
X120000029Y-124310294D01*
X120011654Y-124314072D01*
X120191139Y-124342500D01*
X120191140Y-124342500D01*
X121680860Y-124342500D01*
X121680861Y-124342500D01*
X121860346Y-124314072D01*
X121860349Y-124314071D01*
X121860350Y-124314071D01*
X122033171Y-124257918D01*
X122033171Y-124257917D01*
X122033174Y-124257917D01*
X122195090Y-124175417D01*
X122342106Y-124068603D01*
X122470603Y-123940106D01*
X122577417Y-123793090D01*
X122659917Y-123631174D01*
X122705752Y-123490108D01*
X122716071Y-123458350D01*
X122716071Y-123458349D01*
X122716072Y-123458346D01*
X122744500Y-123278861D01*
X122744500Y-123097139D01*
X122716072Y-122917654D01*
X122716071Y-122917650D01*
X122716071Y-122917649D01*
X122659918Y-122744828D01*
X122659916Y-122744825D01*
X122583017Y-122593900D01*
X122577417Y-122582910D01*
X122470603Y-122435894D01*
X122342106Y-122307397D01*
X122195090Y-122200583D01*
X122033174Y-122118083D01*
X122033171Y-122118081D01*
X121860348Y-122061928D01*
X121740689Y-122042976D01*
X121680861Y-122033500D01*
X121680860Y-122033500D01*
X121660500Y-122033500D01*
X121593461Y-122013815D01*
X121547706Y-121961011D01*
X121536500Y-121909500D01*
X121536500Y-120272097D01*
X121556185Y-120205058D01*
X121572819Y-120184416D01*
X122840416Y-118916819D01*
X122901739Y-118883334D01*
X122928097Y-118880500D01*
X126022466Y-118880500D01*
X126089505Y-118900185D01*
X126135260Y-118952989D01*
X126145204Y-119022147D01*
X126116179Y-119085703D01*
X126069919Y-119119061D01*
X126033139Y-119134295D01*
X125893837Y-119227373D01*
X125775373Y-119345837D01*
X125682295Y-119485139D01*
X125618184Y-119639917D01*
X125618182Y-119639925D01*
X125585500Y-119804228D01*
X125585500Y-119971771D01*
X125618182Y-120136074D01*
X125618184Y-120136082D01*
X125682295Y-120290860D01*
X125775373Y-120430162D01*
X125893837Y-120548626D01*
X125986494Y-120610537D01*
X126033137Y-120641703D01*
X126187918Y-120705816D01*
X126352228Y-120738499D01*
X126352232Y-120738500D01*
X126352233Y-120738500D01*
X126519768Y-120738500D01*
X126519769Y-120738499D01*
X126684082Y-120705816D01*
X126838863Y-120641703D01*
X126978162Y-120548626D01*
X127096626Y-120430162D01*
X127189703Y-120290863D01*
X127253816Y-120136082D01*
X127286500Y-119971767D01*
X127286500Y-119804233D01*
X127253816Y-119639918D01*
X127200360Y-119510864D01*
X127189704Y-119485139D01*
X127096626Y-119345837D01*
X126978162Y-119227373D01*
X126838860Y-119134295D01*
X126802081Y-119119061D01*
X126747678Y-119075220D01*
X126725613Y-119008925D01*
X126742892Y-118941226D01*
X126794030Y-118893616D01*
X126849534Y-118880500D01*
X128478420Y-118880500D01*
X128545459Y-118900185D01*
X128591214Y-118952989D01*
X128601158Y-119022147D01*
X128600893Y-119023899D01*
X128582000Y-119143180D01*
X128582000Y-119638000D01*
X129336000Y-119638000D01*
X129336000Y-120138000D01*
X128582000Y-120138000D01*
X128582000Y-120632821D01*
X128610415Y-120812225D01*
X128666548Y-120984984D01*
X128749011Y-121146828D01*
X128855780Y-121293781D01*
X128855780Y-121293782D01*
X128933817Y-121371819D01*
X128967302Y-121433142D01*
X128962318Y-121502834D01*
X128920446Y-121558767D01*
X128854982Y-121583184D01*
X128846136Y-121583500D01*
X128191139Y-121583500D01*
X128131310Y-121592976D01*
X128011652Y-121611928D01*
X128011649Y-121611928D01*
X127838828Y-121668081D01*
X127838825Y-121668083D01*
X127676909Y-121750583D01*
X127614764Y-121795735D01*
X127529894Y-121857397D01*
X127529892Y-121857399D01*
X127529891Y-121857399D01*
X127401399Y-121985891D01*
X127401399Y-121985892D01*
X127401397Y-121985894D01*
X127381111Y-122013815D01*
X127294583Y-122132909D01*
X127212083Y-122294825D01*
X127212081Y-122294828D01*
X127155928Y-122467649D01*
X127155928Y-122467652D01*
X127127500Y-122647139D01*
X127127500Y-122828860D01*
X127155928Y-123008347D01*
X127155928Y-123008350D01*
X127212081Y-123181171D01*
X127212083Y-123181174D01*
X127294583Y-123343090D01*
X127401397Y-123490106D01*
X127529894Y-123618603D01*
X127676910Y-123725417D01*
X127838826Y-123807917D01*
X127838828Y-123807918D01*
X127945114Y-123842452D01*
X128011654Y-123864072D01*
X128191139Y-123892500D01*
X128191140Y-123892500D01*
X129680860Y-123892500D01*
X129680861Y-123892500D01*
X129860346Y-123864072D01*
X129860349Y-123864071D01*
X129860350Y-123864071D01*
X130033171Y-123807918D01*
X130033171Y-123807917D01*
X130033174Y-123807917D01*
X130195090Y-123725417D01*
X130342106Y-123618603D01*
X130470603Y-123490106D01*
X130577417Y-123343090D01*
X130659917Y-123181174D01*
X130696458Y-123068712D01*
X130696458Y-123068711D01*
X137595500Y-123068711D01*
X137595500Y-123311288D01*
X137627161Y-123551785D01*
X137689947Y-123786104D01*
X137778527Y-123999954D01*
X137782776Y-124010212D01*
X137904064Y-124220289D01*
X137904066Y-124220292D01*
X137904067Y-124220293D01*
X138051733Y-124412736D01*
X138051739Y-124412743D01*
X138223256Y-124584260D01*
X138223263Y-124584266D01*
X138243639Y-124599901D01*
X138415711Y-124731936D01*
X138625788Y-124853224D01*
X138849900Y-124946054D01*
X139084211Y-125008838D01*
X139264586Y-125032584D01*
X139324711Y-125040500D01*
X139324712Y-125040500D01*
X139567289Y-125040500D01*
X139615388Y-125034167D01*
X139807789Y-125008838D01*
X140042100Y-124946054D01*
X140266212Y-124853224D01*
X140476289Y-124731936D01*
X140668738Y-124584265D01*
X140840265Y-124412738D01*
X140987936Y-124220289D01*
X141027285Y-124152135D01*
X144139500Y-124152135D01*
X144139500Y-125847870D01*
X144139501Y-125847876D01*
X144145908Y-125907483D01*
X144196202Y-126042328D01*
X144196206Y-126042335D01*
X144282452Y-126157544D01*
X144282455Y-126157547D01*
X144397664Y-126243793D01*
X144397671Y-126243797D01*
X144532517Y-126294091D01*
X144532516Y-126294091D01*
X144539444Y-126294835D01*
X144592127Y-126300500D01*
X146287872Y-126300499D01*
X146347483Y-126294091D01*
X146482331Y-126243796D01*
X146597546Y-126157546D01*
X146683796Y-126042331D01*
X146734091Y-125907483D01*
X146737862Y-125872401D01*
X146764599Y-125807855D01*
X146821990Y-125768006D01*
X146891816Y-125765511D01*
X146951905Y-125801163D01*
X146962726Y-125814536D01*
X146979956Y-125839143D01*
X147140858Y-126000045D01*
X147140861Y-126000047D01*
X147327266Y-126130568D01*
X147533504Y-126226739D01*
X147753308Y-126285635D01*
X147915230Y-126299801D01*
X147979998Y-126305468D01*
X147980000Y-126305468D01*
X147980002Y-126305468D01*
X148036807Y-126300498D01*
X148206692Y-126285635D01*
X148426496Y-126226739D01*
X148632734Y-126130568D01*
X148819139Y-126000047D01*
X148980047Y-125839139D01*
X149110568Y-125652734D01*
X149137618Y-125594724D01*
X149183790Y-125542285D01*
X149250983Y-125523133D01*
X149317865Y-125543348D01*
X149362382Y-125594725D01*
X149389429Y-125652728D01*
X149389432Y-125652734D01*
X149519954Y-125839141D01*
X149680858Y-126000045D01*
X149680861Y-126000047D01*
X149867266Y-126130568D01*
X150073504Y-126226739D01*
X150293308Y-126285635D01*
X150455230Y-126299801D01*
X150519998Y-126305468D01*
X150520000Y-126305468D01*
X150520002Y-126305468D01*
X150576807Y-126300498D01*
X150746692Y-126285635D01*
X150966496Y-126226739D01*
X151172734Y-126130568D01*
X151359139Y-126000047D01*
X151520047Y-125839139D01*
X151650568Y-125652734D01*
X151677618Y-125594724D01*
X151723790Y-125542285D01*
X151790983Y-125523133D01*
X151857865Y-125543348D01*
X151902382Y-125594725D01*
X151929429Y-125652728D01*
X151929432Y-125652734D01*
X152059954Y-125839141D01*
X152220858Y-126000045D01*
X152220861Y-126000047D01*
X152407266Y-126130568D01*
X152613504Y-126226739D01*
X152833308Y-126285635D01*
X152995230Y-126299801D01*
X153059998Y-126305468D01*
X153060000Y-126305468D01*
X153060002Y-126305468D01*
X153116807Y-126300498D01*
X153286692Y-126285635D01*
X153506496Y-126226739D01*
X153712734Y-126130568D01*
X153899139Y-126000047D01*
X154060047Y-125839139D01*
X154190568Y-125652734D01*
X154217618Y-125594724D01*
X154263790Y-125542285D01*
X154330983Y-125523133D01*
X154397865Y-125543348D01*
X154442382Y-125594725D01*
X154469429Y-125652728D01*
X154469432Y-125652734D01*
X154599954Y-125839141D01*
X154760858Y-126000045D01*
X154760861Y-126000047D01*
X154947266Y-126130568D01*
X155153504Y-126226739D01*
X155373308Y-126285635D01*
X155535230Y-126299801D01*
X155599998Y-126305468D01*
X155600000Y-126305468D01*
X155600002Y-126305468D01*
X155656807Y-126300498D01*
X155826692Y-126285635D01*
X156046496Y-126226739D01*
X156252734Y-126130568D01*
X156439139Y-126000047D01*
X156600047Y-125839139D01*
X156730568Y-125652734D01*
X156757895Y-125594129D01*
X156804064Y-125541695D01*
X156871257Y-125522542D01*
X156938139Y-125542757D01*
X156982657Y-125594133D01*
X157009865Y-125652482D01*
X157140342Y-125838820D01*
X157301179Y-125999657D01*
X157487517Y-126130134D01*
X157693673Y-126226265D01*
X157693682Y-126226269D01*
X157889999Y-126278872D01*
X157890000Y-126278871D01*
X157890000Y-125433012D01*
X157947007Y-125465925D01*
X158074174Y-125500000D01*
X158205826Y-125500000D01*
X158332993Y-125465925D01*
X158390000Y-125433012D01*
X158390000Y-126278872D01*
X158586317Y-126226269D01*
X158586326Y-126226265D01*
X158792482Y-126130134D01*
X158978820Y-125999657D01*
X159139657Y-125838820D01*
X159270134Y-125652481D01*
X159270135Y-125652479D01*
X159297618Y-125593543D01*
X159343790Y-125541103D01*
X159410983Y-125521951D01*
X159477864Y-125542166D01*
X159522382Y-125593543D01*
X159549864Y-125652479D01*
X159549865Y-125652481D01*
X159680342Y-125838820D01*
X159841179Y-125999657D01*
X160027517Y-126130134D01*
X160233673Y-126226265D01*
X160233682Y-126226269D01*
X160429999Y-126278872D01*
X160430000Y-126278871D01*
X160430000Y-125433012D01*
X160487007Y-125465925D01*
X160614174Y-125500000D01*
X160745826Y-125500000D01*
X160872993Y-125465925D01*
X160930000Y-125433012D01*
X160930000Y-126278872D01*
X161126317Y-126226269D01*
X161126326Y-126226265D01*
X161332482Y-126130134D01*
X161518820Y-125999657D01*
X161679657Y-125838820D01*
X161810132Y-125652484D01*
X161837341Y-125594134D01*
X161883513Y-125541695D01*
X161950707Y-125522542D01*
X162017588Y-125542757D01*
X162062106Y-125594133D01*
X162089431Y-125652732D01*
X162089432Y-125652734D01*
X162219954Y-125839141D01*
X162380858Y-126000045D01*
X162380861Y-126000047D01*
X162567266Y-126130568D01*
X162773504Y-126226739D01*
X162993308Y-126285635D01*
X163155230Y-126299801D01*
X163219998Y-126305468D01*
X163220000Y-126305468D01*
X163220002Y-126305468D01*
X163276807Y-126300498D01*
X163446692Y-126285635D01*
X163666496Y-126226739D01*
X163872734Y-126130568D01*
X164059139Y-126000047D01*
X164220047Y-125839139D01*
X164350568Y-125652734D01*
X164446739Y-125446496D01*
X164505635Y-125226692D01*
X164525468Y-125000000D01*
X164525468Y-124999998D01*
X166994532Y-124999998D01*
X166994532Y-125000001D01*
X167014364Y-125226686D01*
X167014366Y-125226697D01*
X167073258Y-125446488D01*
X167073261Y-125446497D01*
X167169431Y-125652732D01*
X167169432Y-125652734D01*
X167299954Y-125839141D01*
X167460858Y-126000045D01*
X167460861Y-126000047D01*
X167647266Y-126130568D01*
X167853504Y-126226739D01*
X168073308Y-126285635D01*
X168235230Y-126299801D01*
X168299998Y-126305468D01*
X168300000Y-126305468D01*
X168300002Y-126305468D01*
X168356807Y-126300498D01*
X168526692Y-126285635D01*
X168746496Y-126226739D01*
X168952734Y-126130568D01*
X169139139Y-126000047D01*
X169300047Y-125839139D01*
X169430568Y-125652734D01*
X169457618Y-125594724D01*
X169503790Y-125542285D01*
X169570983Y-125523133D01*
X169637865Y-125543348D01*
X169682382Y-125594725D01*
X169709429Y-125652728D01*
X169709432Y-125652734D01*
X169839954Y-125839141D01*
X170000858Y-126000045D01*
X170000861Y-126000047D01*
X170187266Y-126130568D01*
X170393504Y-126226739D01*
X170613308Y-126285635D01*
X170775230Y-126299801D01*
X170839998Y-126305468D01*
X170840000Y-126305468D01*
X170840002Y-126305468D01*
X170896807Y-126300498D01*
X171066692Y-126285635D01*
X171286496Y-126226739D01*
X171492734Y-126130568D01*
X171679139Y-126000047D01*
X171840047Y-125839139D01*
X171970568Y-125652734D01*
X171997618Y-125594724D01*
X172043790Y-125542285D01*
X172110983Y-125523133D01*
X172177865Y-125543348D01*
X172222382Y-125594725D01*
X172249429Y-125652728D01*
X172249432Y-125652734D01*
X172379954Y-125839141D01*
X172540858Y-126000045D01*
X172540861Y-126000047D01*
X172727266Y-126130568D01*
X172933504Y-126226739D01*
X173153308Y-126285635D01*
X173315230Y-126299801D01*
X173379998Y-126305468D01*
X173380000Y-126305468D01*
X173380002Y-126305468D01*
X173436807Y-126300498D01*
X173606692Y-126285635D01*
X173826496Y-126226739D01*
X174032734Y-126130568D01*
X174219139Y-126000047D01*
X174380047Y-125839139D01*
X174510568Y-125652734D01*
X174537618Y-125594724D01*
X174583790Y-125542285D01*
X174650983Y-125523133D01*
X174717865Y-125543348D01*
X174762382Y-125594725D01*
X174789429Y-125652728D01*
X174789432Y-125652734D01*
X174919954Y-125839141D01*
X175080858Y-126000045D01*
X175080861Y-126000047D01*
X175267266Y-126130568D01*
X175473504Y-126226739D01*
X175693308Y-126285635D01*
X175855230Y-126299801D01*
X175919998Y-126305468D01*
X175920000Y-126305468D01*
X175920002Y-126305468D01*
X175976807Y-126300498D01*
X176146692Y-126285635D01*
X176366496Y-126226739D01*
X176572734Y-126130568D01*
X176759139Y-126000047D01*
X176920047Y-125839139D01*
X177050568Y-125652734D01*
X177077618Y-125594724D01*
X177123790Y-125542285D01*
X177190983Y-125523133D01*
X177257865Y-125543348D01*
X177302382Y-125594725D01*
X177329429Y-125652728D01*
X177329432Y-125652734D01*
X177459954Y-125839141D01*
X177620858Y-126000045D01*
X177620861Y-126000047D01*
X177807266Y-126130568D01*
X178013504Y-126226739D01*
X178233308Y-126285635D01*
X178395230Y-126299801D01*
X178459998Y-126305468D01*
X178460000Y-126305468D01*
X178460002Y-126305468D01*
X178516807Y-126300498D01*
X178686692Y-126285635D01*
X178906496Y-126226739D01*
X179112734Y-126130568D01*
X179299139Y-126000047D01*
X179460047Y-125839139D01*
X179590568Y-125652734D01*
X179617618Y-125594724D01*
X179663790Y-125542285D01*
X179730983Y-125523133D01*
X179797865Y-125543348D01*
X179842382Y-125594725D01*
X179869429Y-125652728D01*
X179869432Y-125652734D01*
X179999954Y-125839141D01*
X180160858Y-126000045D01*
X180160861Y-126000047D01*
X180347266Y-126130568D01*
X180553504Y-126226739D01*
X180773308Y-126285635D01*
X180935230Y-126299801D01*
X180999998Y-126305468D01*
X181000000Y-126305468D01*
X181000002Y-126305468D01*
X181056807Y-126300498D01*
X181226692Y-126285635D01*
X181446496Y-126226739D01*
X181652734Y-126130568D01*
X181839139Y-126000047D01*
X182000047Y-125839139D01*
X182130568Y-125652734D01*
X182226739Y-125446496D01*
X182285635Y-125226692D01*
X182305468Y-125000000D01*
X182285635Y-124773308D01*
X182226739Y-124553504D01*
X182130568Y-124347266D01*
X182000047Y-124160861D01*
X182000045Y-124160858D01*
X181839141Y-123999954D01*
X181652734Y-123869432D01*
X181652732Y-123869431D01*
X181446497Y-123773261D01*
X181446488Y-123773258D01*
X181226697Y-123714366D01*
X181226693Y-123714365D01*
X181226692Y-123714365D01*
X181226691Y-123714364D01*
X181226686Y-123714364D01*
X181000002Y-123694532D01*
X180999998Y-123694532D01*
X180773313Y-123714364D01*
X180773302Y-123714366D01*
X180553511Y-123773258D01*
X180553502Y-123773261D01*
X180347267Y-123869431D01*
X180347265Y-123869432D01*
X180160858Y-123999954D01*
X179999954Y-124160858D01*
X179869432Y-124347265D01*
X179869431Y-124347267D01*
X179842382Y-124405275D01*
X179796209Y-124457714D01*
X179729016Y-124476866D01*
X179662135Y-124456650D01*
X179617618Y-124405275D01*
X179590686Y-124347520D01*
X179590568Y-124347266D01*
X179460047Y-124160861D01*
X179460045Y-124160858D01*
X179299141Y-123999954D01*
X179112734Y-123869432D01*
X179112732Y-123869431D01*
X178906497Y-123773261D01*
X178906488Y-123773258D01*
X178686697Y-123714366D01*
X178686693Y-123714365D01*
X178686692Y-123714365D01*
X178686691Y-123714364D01*
X178686686Y-123714364D01*
X178460002Y-123694532D01*
X178459998Y-123694532D01*
X178233313Y-123714364D01*
X178233302Y-123714366D01*
X178013511Y-123773258D01*
X178013502Y-123773261D01*
X177807267Y-123869431D01*
X177807265Y-123869432D01*
X177620858Y-123999954D01*
X177459954Y-124160858D01*
X177329432Y-124347265D01*
X177329431Y-124347267D01*
X177302382Y-124405275D01*
X177256209Y-124457714D01*
X177189016Y-124476866D01*
X177122135Y-124456650D01*
X177077618Y-124405275D01*
X177050686Y-124347520D01*
X177050568Y-124347266D01*
X176920047Y-124160861D01*
X176920045Y-124160858D01*
X176759141Y-123999954D01*
X176572734Y-123869432D01*
X176572732Y-123869431D01*
X176366497Y-123773261D01*
X176366488Y-123773258D01*
X176146697Y-123714366D01*
X176146693Y-123714365D01*
X176146692Y-123714365D01*
X176146691Y-123714364D01*
X176146686Y-123714364D01*
X175920002Y-123694532D01*
X175919998Y-123694532D01*
X175693313Y-123714364D01*
X175693302Y-123714366D01*
X175473511Y-123773258D01*
X175473502Y-123773261D01*
X175267267Y-123869431D01*
X175267265Y-123869432D01*
X175080858Y-123999954D01*
X174919954Y-124160858D01*
X174789432Y-124347265D01*
X174789431Y-124347267D01*
X174762382Y-124405275D01*
X174716209Y-124457714D01*
X174649016Y-124476866D01*
X174582135Y-124456650D01*
X174537618Y-124405275D01*
X174510686Y-124347520D01*
X174510568Y-124347266D01*
X174380047Y-124160861D01*
X174380045Y-124160858D01*
X174219141Y-123999954D01*
X174032734Y-123869432D01*
X174032732Y-123869431D01*
X173826497Y-123773261D01*
X173826488Y-123773258D01*
X173606697Y-123714366D01*
X173606693Y-123714365D01*
X173606692Y-123714365D01*
X173606691Y-123714364D01*
X173606686Y-123714364D01*
X173380002Y-123694532D01*
X173379998Y-123694532D01*
X173153313Y-123714364D01*
X173153302Y-123714366D01*
X172933511Y-123773258D01*
X172933502Y-123773261D01*
X172727267Y-123869431D01*
X172727265Y-123869432D01*
X172540858Y-123999954D01*
X172379954Y-124160858D01*
X172249432Y-124347265D01*
X172249431Y-124347267D01*
X172222382Y-124405275D01*
X172176209Y-124457714D01*
X172109016Y-124476866D01*
X172042135Y-124456650D01*
X171997618Y-124405275D01*
X171970686Y-124347520D01*
X171970568Y-124347266D01*
X171840047Y-124160861D01*
X171840045Y-124160858D01*
X171679141Y-123999954D01*
X171492734Y-123869432D01*
X171492732Y-123869431D01*
X171286497Y-123773261D01*
X171286488Y-123773258D01*
X171066697Y-123714366D01*
X171066693Y-123714365D01*
X171066692Y-123714365D01*
X171066691Y-123714364D01*
X171066686Y-123714364D01*
X170840002Y-123694532D01*
X170839998Y-123694532D01*
X170613313Y-123714364D01*
X170613302Y-123714366D01*
X170393511Y-123773258D01*
X170393502Y-123773261D01*
X170187267Y-123869431D01*
X170187265Y-123869432D01*
X170000858Y-123999954D01*
X169839954Y-124160858D01*
X169709432Y-124347265D01*
X169709431Y-124347267D01*
X169682382Y-124405275D01*
X169636209Y-124457714D01*
X169569016Y-124476866D01*
X169502135Y-124456650D01*
X169457618Y-124405275D01*
X169430686Y-124347520D01*
X169430568Y-124347266D01*
X169300047Y-124160861D01*
X169300045Y-124160858D01*
X169139141Y-123999954D01*
X168952734Y-123869432D01*
X168952732Y-123869431D01*
X168746497Y-123773261D01*
X168746488Y-123773258D01*
X168526697Y-123714366D01*
X168526693Y-123714365D01*
X168526692Y-123714365D01*
X168526691Y-123714364D01*
X168526686Y-123714364D01*
X168300002Y-123694532D01*
X168299998Y-123694532D01*
X168073313Y-123714364D01*
X168073302Y-123714366D01*
X167853511Y-123773258D01*
X167853502Y-123773261D01*
X167647267Y-123869431D01*
X167647265Y-123869432D01*
X167460858Y-123999954D01*
X167299954Y-124160858D01*
X167169432Y-124347265D01*
X167169431Y-124347267D01*
X167073261Y-124553502D01*
X167073258Y-124553511D01*
X167014366Y-124773302D01*
X167014364Y-124773313D01*
X166994532Y-124999998D01*
X164525468Y-124999998D01*
X164505635Y-124773308D01*
X164446739Y-124553504D01*
X164350568Y-124347266D01*
X164220047Y-124160861D01*
X164220045Y-124160858D01*
X164059141Y-123999954D01*
X163872734Y-123869432D01*
X163872732Y-123869431D01*
X163666497Y-123773261D01*
X163666488Y-123773258D01*
X163446697Y-123714366D01*
X163446693Y-123714365D01*
X163446692Y-123714365D01*
X163446691Y-123714364D01*
X163446686Y-123714364D01*
X163220002Y-123694532D01*
X163219998Y-123694532D01*
X162993313Y-123714364D01*
X162993302Y-123714366D01*
X162773511Y-123773258D01*
X162773502Y-123773261D01*
X162567267Y-123869431D01*
X162567265Y-123869432D01*
X162380858Y-123999954D01*
X162219954Y-124160858D01*
X162112675Y-124314071D01*
X162089432Y-124347266D01*
X162089315Y-124347518D01*
X162062106Y-124405867D01*
X162015933Y-124458306D01*
X161948739Y-124477457D01*
X161881858Y-124457241D01*
X161837342Y-124405865D01*
X161810135Y-124347520D01*
X161810134Y-124347518D01*
X161679657Y-124161179D01*
X161518820Y-124000342D01*
X161332482Y-123869865D01*
X161126328Y-123773734D01*
X160930000Y-123721127D01*
X160930000Y-124566988D01*
X160872993Y-124534075D01*
X160745826Y-124500000D01*
X160614174Y-124500000D01*
X160487007Y-124534075D01*
X160430000Y-124566988D01*
X160430000Y-123721127D01*
X160233671Y-123773734D01*
X160027517Y-123869865D01*
X159841179Y-124000342D01*
X159680342Y-124161179D01*
X159549865Y-124347517D01*
X159522382Y-124406457D01*
X159476210Y-124458896D01*
X159409016Y-124478048D01*
X159342135Y-124457832D01*
X159297618Y-124406457D01*
X159270134Y-124347517D01*
X159139657Y-124161179D01*
X158978820Y-124000342D01*
X158792482Y-123869865D01*
X158586328Y-123773734D01*
X158390000Y-123721127D01*
X158390000Y-124566988D01*
X158332993Y-124534075D01*
X158205826Y-124500000D01*
X158074174Y-124500000D01*
X157947007Y-124534075D01*
X157890000Y-124566988D01*
X157890000Y-123721127D01*
X157693671Y-123773734D01*
X157487517Y-123869865D01*
X157301179Y-124000342D01*
X157140342Y-124161179D01*
X157009867Y-124347515D01*
X156982657Y-124405867D01*
X156936484Y-124458306D01*
X156869290Y-124477457D01*
X156802409Y-124457241D01*
X156757893Y-124405865D01*
X156730685Y-124347518D01*
X156730568Y-124347266D01*
X156600047Y-124160861D01*
X156600045Y-124160858D01*
X156439141Y-123999954D01*
X156252734Y-123869432D01*
X156252732Y-123869431D01*
X156046497Y-123773261D01*
X156046488Y-123773258D01*
X155826697Y-123714366D01*
X155826693Y-123714365D01*
X155826692Y-123714365D01*
X155826691Y-123714364D01*
X155826686Y-123714364D01*
X155600002Y-123694532D01*
X155599998Y-123694532D01*
X155373313Y-123714364D01*
X155373302Y-123714366D01*
X155153511Y-123773258D01*
X155153502Y-123773261D01*
X154947267Y-123869431D01*
X154947265Y-123869432D01*
X154760858Y-123999954D01*
X154599954Y-124160858D01*
X154469432Y-124347265D01*
X154469431Y-124347267D01*
X154442382Y-124405275D01*
X154396209Y-124457714D01*
X154329016Y-124476866D01*
X154262135Y-124456650D01*
X154217618Y-124405275D01*
X154190686Y-124347520D01*
X154190568Y-124347266D01*
X154060047Y-124160861D01*
X154060045Y-124160858D01*
X153899141Y-123999954D01*
X153712734Y-123869432D01*
X153712732Y-123869431D01*
X153506497Y-123773261D01*
X153506488Y-123773258D01*
X153286697Y-123714366D01*
X153286693Y-123714365D01*
X153286692Y-123714365D01*
X153286691Y-123714364D01*
X153286686Y-123714364D01*
X153060002Y-123694532D01*
X153059998Y-123694532D01*
X152833313Y-123714364D01*
X152833302Y-123714366D01*
X152613511Y-123773258D01*
X152613502Y-123773261D01*
X152407267Y-123869431D01*
X152407265Y-123869432D01*
X152220858Y-123999954D01*
X152059954Y-124160858D01*
X151929432Y-124347265D01*
X151929431Y-124347267D01*
X151902382Y-124405275D01*
X151856209Y-124457714D01*
X151789016Y-124476866D01*
X151722135Y-124456650D01*
X151677618Y-124405275D01*
X151650686Y-124347520D01*
X151650568Y-124347266D01*
X151520047Y-124160861D01*
X151520045Y-124160858D01*
X151359141Y-123999954D01*
X151172734Y-123869432D01*
X151172732Y-123869431D01*
X150966497Y-123773261D01*
X150966488Y-123773258D01*
X150746697Y-123714366D01*
X150746693Y-123714365D01*
X150746692Y-123714365D01*
X150746691Y-123714364D01*
X150746686Y-123714364D01*
X150520002Y-123694532D01*
X150519998Y-123694532D01*
X150293313Y-123714364D01*
X150293302Y-123714366D01*
X150073511Y-123773258D01*
X150073502Y-123773261D01*
X149867267Y-123869431D01*
X149867265Y-123869432D01*
X149680858Y-123999954D01*
X149519954Y-124160858D01*
X149389432Y-124347265D01*
X149389431Y-124347267D01*
X149362382Y-124405275D01*
X149316209Y-124457714D01*
X149249016Y-124476866D01*
X149182135Y-124456650D01*
X149137618Y-124405275D01*
X149110686Y-124347520D01*
X149110568Y-124347266D01*
X148980047Y-124160861D01*
X148980045Y-124160858D01*
X148819141Y-123999954D01*
X148632734Y-123869432D01*
X148632732Y-123869431D01*
X148426497Y-123773261D01*
X148426488Y-123773258D01*
X148206697Y-123714366D01*
X148206693Y-123714365D01*
X148206692Y-123714365D01*
X148206691Y-123714364D01*
X148206686Y-123714364D01*
X147980002Y-123694532D01*
X147979998Y-123694532D01*
X147753313Y-123714364D01*
X147753302Y-123714366D01*
X147533511Y-123773258D01*
X147533502Y-123773261D01*
X147327267Y-123869431D01*
X147327265Y-123869432D01*
X147140858Y-123999954D01*
X146979954Y-124160858D01*
X146962725Y-124185464D01*
X146908147Y-124229088D01*
X146838648Y-124236280D01*
X146776294Y-124204757D01*
X146740882Y-124144526D01*
X146737861Y-124127591D01*
X146734091Y-124092516D01*
X146683797Y-123957671D01*
X146683793Y-123957664D01*
X146597547Y-123842455D01*
X146597544Y-123842452D01*
X146482335Y-123756206D01*
X146482328Y-123756202D01*
X146347482Y-123705908D01*
X146347483Y-123705908D01*
X146287883Y-123699501D01*
X146287881Y-123699500D01*
X146287873Y-123699500D01*
X146287864Y-123699500D01*
X144592129Y-123699500D01*
X144592123Y-123699501D01*
X144532516Y-123705908D01*
X144397671Y-123756202D01*
X144397664Y-123756206D01*
X144282455Y-123842452D01*
X144282452Y-123842455D01*
X144196206Y-123957664D01*
X144196202Y-123957671D01*
X144145908Y-124092517D01*
X144139501Y-124152116D01*
X144139500Y-124152135D01*
X141027285Y-124152135D01*
X141109224Y-124010212D01*
X141202054Y-123786100D01*
X141264838Y-123551789D01*
X141296500Y-123311288D01*
X141296500Y-123068712D01*
X141264838Y-122828211D01*
X141202054Y-122593900D01*
X141109224Y-122369788D01*
X140987936Y-122159711D01*
X140891091Y-122033500D01*
X140840266Y-121967263D01*
X140840260Y-121967256D01*
X140668743Y-121795739D01*
X140668736Y-121795733D01*
X140476293Y-121648067D01*
X140476292Y-121648066D01*
X140476289Y-121648064D01*
X140266212Y-121526776D01*
X140208411Y-121502834D01*
X140042104Y-121433947D01*
X139807785Y-121371161D01*
X139567289Y-121339500D01*
X139567288Y-121339500D01*
X139324712Y-121339500D01*
X139324711Y-121339500D01*
X139084214Y-121371161D01*
X138849895Y-121433947D01*
X138625794Y-121526773D01*
X138625785Y-121526777D01*
X138415706Y-121648067D01*
X138223263Y-121795733D01*
X138223256Y-121795739D01*
X138051739Y-121967256D01*
X138051733Y-121967263D01*
X137904067Y-122159706D01*
X137782777Y-122369785D01*
X137782773Y-122369794D01*
X137689947Y-122593895D01*
X137627161Y-122828214D01*
X137595500Y-123068711D01*
X130696458Y-123068711D01*
X130716071Y-123008350D01*
X130716071Y-123008349D01*
X130716072Y-123008346D01*
X130744500Y-122828861D01*
X130744500Y-122647139D01*
X130716072Y-122467654D01*
X130716071Y-122467650D01*
X130716071Y-122467649D01*
X130659918Y-122294828D01*
X130659916Y-122294825D01*
X130638446Y-122252686D01*
X130577417Y-122132910D01*
X130470603Y-121985894D01*
X130342106Y-121857397D01*
X130239594Y-121782917D01*
X130196930Y-121727587D01*
X130190951Y-121657974D01*
X130223557Y-121596179D01*
X130256187Y-121572115D01*
X130340826Y-121528990D01*
X130487781Y-121422219D01*
X130487782Y-121422219D01*
X130616219Y-121293782D01*
X130616219Y-121293781D01*
X130722988Y-121146828D01*
X130805451Y-120984984D01*
X130861584Y-120812225D01*
X130890000Y-120632821D01*
X130890000Y-120138000D01*
X130136000Y-120138000D01*
X130136000Y-119638000D01*
X130890000Y-119638000D01*
X130890000Y-119143180D01*
X130871107Y-119023899D01*
X130880061Y-118954605D01*
X130925057Y-118901153D01*
X130991809Y-118880513D01*
X130993580Y-118880500D01*
X132383501Y-118880500D01*
X132450540Y-118900185D01*
X132496295Y-118952989D01*
X132507501Y-119004500D01*
X132507501Y-119510876D01*
X132513908Y-119570483D01*
X132564202Y-119705328D01*
X132564206Y-119705335D01*
X132650452Y-119820544D01*
X132650455Y-119820547D01*
X132765664Y-119906793D01*
X132765671Y-119906797D01*
X132765674Y-119906798D01*
X132897598Y-119956002D01*
X132953531Y-119997873D01*
X132977949Y-120063337D01*
X132963098Y-120131610D01*
X132941947Y-120159865D01*
X132819886Y-120281926D01*
X132684400Y-120475420D01*
X132684399Y-120475422D01*
X132584570Y-120689507D01*
X132584567Y-120689513D01*
X132527364Y-120902999D01*
X132527364Y-120903000D01*
X133424988Y-120903000D01*
X133392075Y-120960007D01*
X133358000Y-121087174D01*
X133358000Y-121218826D01*
X133392075Y-121345993D01*
X133424988Y-121403000D01*
X132527364Y-121403000D01*
X132584567Y-121616486D01*
X132584570Y-121616492D01*
X132684399Y-121830578D01*
X132819894Y-122024082D01*
X132986917Y-122191105D01*
X133180421Y-122326600D01*
X133394507Y-122426429D01*
X133394516Y-122426433D01*
X133608000Y-122483634D01*
X133608000Y-121586012D01*
X133665007Y-121618925D01*
X133792174Y-121653000D01*
X133923826Y-121653000D01*
X134050993Y-121618925D01*
X134108000Y-121586012D01*
X134108000Y-122483633D01*
X134321483Y-122426433D01*
X134321492Y-122426429D01*
X134535578Y-122326600D01*
X134729082Y-122191105D01*
X134896105Y-122024082D01*
X135031600Y-121830578D01*
X135131429Y-121616492D01*
X135131432Y-121616486D01*
X135188636Y-121403000D01*
X134291012Y-121403000D01*
X134323925Y-121345993D01*
X134358000Y-121218826D01*
X134358000Y-121087174D01*
X134323925Y-120960007D01*
X134291012Y-120903000D01*
X135188636Y-120903000D01*
X135188635Y-120902999D01*
X135131432Y-120689513D01*
X135131429Y-120689507D01*
X135031600Y-120475422D01*
X135031599Y-120475420D01*
X134896113Y-120281926D01*
X134896108Y-120281920D01*
X134888899Y-120274711D01*
X180267500Y-120274711D01*
X180267500Y-120517288D01*
X180299161Y-120757785D01*
X180361947Y-120992104D01*
X180426036Y-121146828D01*
X180454776Y-121216212D01*
X180576064Y-121426289D01*
X180576066Y-121426292D01*
X180576067Y-121426293D01*
X180723733Y-121618736D01*
X180723739Y-121618743D01*
X180895256Y-121790260D01*
X180895263Y-121790266D01*
X180902396Y-121795739D01*
X181087711Y-121937936D01*
X181297788Y-122059224D01*
X181521900Y-122152054D01*
X181756211Y-122214838D01*
X181936586Y-122238584D01*
X181996711Y-122246500D01*
X181996712Y-122246500D01*
X182239289Y-122246500D01*
X182287388Y-122240167D01*
X182479789Y-122214838D01*
X182714100Y-122152054D01*
X182938212Y-122059224D01*
X183148289Y-121937936D01*
X183340738Y-121790265D01*
X183512265Y-121618738D01*
X183659936Y-121426289D01*
X183781224Y-121216212D01*
X183874054Y-120992100D01*
X183936838Y-120757789D01*
X183968500Y-120517288D01*
X183968500Y-120274712D01*
X183936838Y-120034211D01*
X183874054Y-119799900D01*
X183781224Y-119575788D01*
X183659936Y-119365711D01*
X183546977Y-119218500D01*
X183512266Y-119173263D01*
X183512260Y-119173256D01*
X183340743Y-119001739D01*
X183340736Y-119001733D01*
X183148293Y-118854067D01*
X183148292Y-118854066D01*
X183148289Y-118854064D01*
X182938212Y-118732776D01*
X182938205Y-118732773D01*
X182714104Y-118639947D01*
X182479785Y-118577161D01*
X182239289Y-118545500D01*
X182239288Y-118545500D01*
X181996712Y-118545500D01*
X181996711Y-118545500D01*
X181756214Y-118577161D01*
X181521895Y-118639947D01*
X181297794Y-118732773D01*
X181297785Y-118732777D01*
X181087706Y-118854067D01*
X180895263Y-119001733D01*
X180895256Y-119001739D01*
X180723739Y-119173256D01*
X180723733Y-119173263D01*
X180576067Y-119365706D01*
X180454777Y-119575785D01*
X180454773Y-119575794D01*
X180361947Y-119799895D01*
X180299161Y-120034214D01*
X180267500Y-120274711D01*
X134888899Y-120274711D01*
X134774053Y-120159865D01*
X134740568Y-120098542D01*
X134745552Y-120028850D01*
X134787424Y-119972917D01*
X134818400Y-119956002D01*
X134950331Y-119906796D01*
X135065546Y-119820546D01*
X135151796Y-119705331D01*
X135202091Y-119570483D01*
X135208500Y-119510873D01*
X135208500Y-119337500D01*
X135228185Y-119270461D01*
X135280989Y-119224706D01*
X135332500Y-119213500D01*
X135775958Y-119213500D01*
X135808045Y-119217723D01*
X135810943Y-119218500D01*
X136311331Y-119218500D01*
X136311347Y-119218501D01*
X136318943Y-119218501D01*
X136477054Y-119218501D01*
X136477057Y-119218501D01*
X136629785Y-119177577D01*
X136679904Y-119148639D01*
X136766716Y-119098520D01*
X136878520Y-118986716D01*
X136878520Y-118986714D01*
X136888728Y-118976507D01*
X136888729Y-118976504D01*
X138656520Y-117208716D01*
X138735577Y-117071784D01*
X138776501Y-116919057D01*
X138776501Y-116760942D01*
X138776501Y-116753347D01*
X138776500Y-116753329D01*
X138776500Y-113541999D01*
X154677687Y-113541999D01*
X154677688Y-113542000D01*
X155863999Y-113542000D01*
X155838979Y-113602402D01*
X155814000Y-113727981D01*
X155814000Y-113856019D01*
X155838979Y-113981598D01*
X155863999Y-114042000D01*
X154677687Y-114042000D01*
X154679112Y-114061022D01*
X154679114Y-114061031D01*
X154739142Y-114324033D01*
X154739148Y-114324052D01*
X154837709Y-114575181D01*
X154837708Y-114575181D01*
X154972600Y-114808818D01*
X155140810Y-115019748D01*
X155338571Y-115203242D01*
X155561483Y-115355220D01*
X155561485Y-115355221D01*
X155804539Y-115472269D01*
X155804537Y-115472269D01*
X156062337Y-115551790D01*
X156062343Y-115551792D01*
X156213999Y-115574650D01*
X156214000Y-115574649D01*
X156214000Y-114392001D01*
X156274402Y-114417021D01*
X156399981Y-114442000D01*
X156528019Y-114442000D01*
X156653598Y-114417021D01*
X156714000Y-114392001D01*
X156714000Y-115574650D01*
X156865656Y-115551792D01*
X156865662Y-115551790D01*
X157123461Y-115472269D01*
X157366516Y-115355221D01*
X157366517Y-115355220D01*
X157589428Y-115203242D01*
X157787189Y-115019748D01*
X157955399Y-114808818D01*
X158090290Y-114575181D01*
X158188851Y-114324052D01*
X158188857Y-114324033D01*
X158248885Y-114061031D01*
X158248887Y-114061022D01*
X158250312Y-114042000D01*
X157064001Y-114042000D01*
X157089021Y-113981598D01*
X157114000Y-113856019D01*
X157114000Y-113727981D01*
X157089021Y-113602402D01*
X157064001Y-113542000D01*
X158250312Y-113542000D01*
X158250312Y-113541999D01*
X158248887Y-113522977D01*
X158248885Y-113522968D01*
X158188857Y-113259966D01*
X158188851Y-113259947D01*
X158090290Y-113008818D01*
X158090291Y-113008818D01*
X157955399Y-112775181D01*
X157787189Y-112564251D01*
X157589428Y-112380757D01*
X157366517Y-112228779D01*
X157366516Y-112228778D01*
X157123460Y-112111730D01*
X157123462Y-112111730D01*
X156865665Y-112032210D01*
X156714000Y-112009349D01*
X156714000Y-113191998D01*
X156653598Y-113166979D01*
X156528019Y-113142000D01*
X156399981Y-113142000D01*
X156274402Y-113166979D01*
X156214000Y-113191998D01*
X156214000Y-112009349D01*
X156062334Y-112032210D01*
X155804538Y-112111730D01*
X155561485Y-112228778D01*
X155561483Y-112228779D01*
X155338571Y-112380757D01*
X155140810Y-112564251D01*
X154972600Y-112775181D01*
X154837709Y-113008818D01*
X154739148Y-113259947D01*
X154739142Y-113259966D01*
X154679114Y-113522968D01*
X154679112Y-113522977D01*
X154677687Y-113541999D01*
X138776500Y-113541999D01*
X138776500Y-110028097D01*
X138796185Y-109961058D01*
X138812819Y-109940416D01*
X140545236Y-108207999D01*
X155640728Y-108207999D01*
X155640729Y-108208000D01*
X156735252Y-108208000D01*
X156713482Y-108245708D01*
X156676000Y-108385591D01*
X156676000Y-108530409D01*
X156713482Y-108670292D01*
X156735252Y-108708000D01*
X155640728Y-108708000D01*
X155640811Y-108709067D01*
X155699603Y-108953956D01*
X155795980Y-109186631D01*
X155927568Y-109401362D01*
X155927571Y-109401367D01*
X156091130Y-109592869D01*
X156282632Y-109756428D01*
X156282637Y-109756431D01*
X156497368Y-109888019D01*
X156730043Y-109984396D01*
X156974932Y-110043188D01*
X156975999Y-110043271D01*
X156976000Y-110043271D01*
X156976000Y-108948747D01*
X157013708Y-108970518D01*
X157153591Y-109008000D01*
X157298409Y-109008000D01*
X157438292Y-108970518D01*
X157476000Y-108948747D01*
X157476000Y-110043271D01*
X157477067Y-110043188D01*
X157721956Y-109984396D01*
X157954631Y-109888019D01*
X158169362Y-109756431D01*
X158169367Y-109756428D01*
X158360869Y-109592869D01*
X158524428Y-109401367D01*
X158524431Y-109401362D01*
X158656019Y-109186631D01*
X158752396Y-108953956D01*
X158811188Y-108709067D01*
X158811272Y-108708000D01*
X157716748Y-108708000D01*
X157738518Y-108670292D01*
X157776000Y-108530409D01*
X157776000Y-108385591D01*
X157738518Y-108245708D01*
X157716748Y-108208000D01*
X158811271Y-108208000D01*
X158811271Y-108207999D01*
X160212728Y-108207999D01*
X160212729Y-108208000D01*
X161307252Y-108208000D01*
X161285482Y-108245708D01*
X161248000Y-108385591D01*
X161248000Y-108530409D01*
X161285482Y-108670292D01*
X161307252Y-108708000D01*
X160212728Y-108708000D01*
X160212811Y-108709067D01*
X160271603Y-108953956D01*
X160367980Y-109186631D01*
X160499568Y-109401362D01*
X160499571Y-109401367D01*
X160663130Y-109592869D01*
X160854632Y-109756428D01*
X160854637Y-109756431D01*
X161069368Y-109888019D01*
X161302043Y-109984396D01*
X161546932Y-110043188D01*
X161548000Y-110043271D01*
X161548000Y-108948747D01*
X161585708Y-108970518D01*
X161725591Y-109008000D01*
X161870409Y-109008000D01*
X162010292Y-108970518D01*
X162048000Y-108948747D01*
X162048000Y-110043271D01*
X162049067Y-110043188D01*
X162293956Y-109984396D01*
X162526631Y-109888019D01*
X162741362Y-109756431D01*
X162741367Y-109756428D01*
X162932869Y-109592869D01*
X163096428Y-109401367D01*
X163096431Y-109401362D01*
X163228019Y-109186631D01*
X163324396Y-108953956D01*
X163383188Y-108709067D01*
X163383272Y-108708000D01*
X162288748Y-108708000D01*
X162310518Y-108670292D01*
X162348000Y-108530409D01*
X162348000Y-108385591D01*
X162310518Y-108245708D01*
X162288748Y-108208000D01*
X163383271Y-108208000D01*
X163383271Y-108207999D01*
X163383188Y-108206932D01*
X163324396Y-107962043D01*
X163228019Y-107729368D01*
X163096431Y-107514637D01*
X163096428Y-107514632D01*
X162932869Y-107323130D01*
X162917654Y-107310135D01*
X164769500Y-107310135D01*
X164769500Y-109605870D01*
X164769501Y-109605876D01*
X164775908Y-109665483D01*
X164826202Y-109800328D01*
X164826206Y-109800335D01*
X164912452Y-109915544D01*
X164912455Y-109915547D01*
X165027664Y-110001793D01*
X165027671Y-110001797D01*
X165162517Y-110052091D01*
X165162516Y-110052091D01*
X165169444Y-110052835D01*
X165222127Y-110058500D01*
X167517872Y-110058499D01*
X167577483Y-110052091D01*
X167712331Y-110001796D01*
X167827546Y-109915546D01*
X167913796Y-109800331D01*
X167964091Y-109665483D01*
X167970500Y-109605873D01*
X167970500Y-109332500D01*
X167990185Y-109265461D01*
X168042989Y-109219706D01*
X168094500Y-109208500D01*
X169217501Y-109208500D01*
X169284540Y-109228185D01*
X169330295Y-109280989D01*
X169341501Y-109332500D01*
X169341501Y-109605876D01*
X169347908Y-109665483D01*
X169398202Y-109800328D01*
X169398206Y-109800335D01*
X169484452Y-109915544D01*
X169484455Y-109915547D01*
X169599664Y-110001793D01*
X169599671Y-110001797D01*
X169734517Y-110052091D01*
X169734516Y-110052091D01*
X169741444Y-110052835D01*
X169794127Y-110058500D01*
X170829500Y-110058499D01*
X170896539Y-110078183D01*
X170942294Y-110130987D01*
X170953500Y-110182499D01*
X170953500Y-111867500D01*
X170933815Y-111934539D01*
X170881011Y-111980294D01*
X170829500Y-111991500D01*
X170356129Y-111991500D01*
X170356123Y-111991501D01*
X170296516Y-111997908D01*
X170161671Y-112048202D01*
X170161664Y-112048206D01*
X170046455Y-112134452D01*
X170046452Y-112134455D01*
X169960206Y-112249664D01*
X169960202Y-112249671D01*
X169909908Y-112384517D01*
X169903501Y-112444116D01*
X169903501Y-112444123D01*
X169903500Y-112444135D01*
X169903500Y-115139870D01*
X169903501Y-115139876D01*
X169909908Y-115199483D01*
X169960202Y-115334328D01*
X169960206Y-115334335D01*
X170046452Y-115449544D01*
X170046455Y-115449547D01*
X170161664Y-115535793D01*
X170161671Y-115535797D01*
X170296517Y-115586091D01*
X170296516Y-115586091D01*
X170303444Y-115586835D01*
X170356127Y-115592500D01*
X173051872Y-115592499D01*
X173111483Y-115586091D01*
X173246331Y-115535796D01*
X173361546Y-115449546D01*
X173447796Y-115334331D01*
X173498091Y-115199483D01*
X173504500Y-115139873D01*
X173504499Y-112444128D01*
X173498091Y-112384517D01*
X173478066Y-112330828D01*
X173447797Y-112249671D01*
X173447793Y-112249664D01*
X173361547Y-112134455D01*
X173361544Y-112134452D01*
X173246335Y-112048206D01*
X173246328Y-112048202D01*
X173111482Y-111997908D01*
X173111483Y-111997908D01*
X173051883Y-111991501D01*
X173051881Y-111991500D01*
X173051873Y-111991500D01*
X173051865Y-111991500D01*
X172578500Y-111991500D01*
X172511461Y-111971815D01*
X172465706Y-111919011D01*
X172454500Y-111867500D01*
X172454500Y-109883408D01*
X172474185Y-109816369D01*
X172479222Y-109809112D01*
X172485796Y-109800331D01*
X172536091Y-109665483D01*
X172542500Y-109605873D01*
X172542499Y-107310128D01*
X172536091Y-107250517D01*
X172534337Y-107245815D01*
X172485797Y-107115671D01*
X172485793Y-107115664D01*
X172399547Y-107000455D01*
X172399544Y-107000452D01*
X172284335Y-106914206D01*
X172284328Y-106914202D01*
X172149482Y-106863908D01*
X172149483Y-106863908D01*
X172089883Y-106857501D01*
X172089881Y-106857500D01*
X172089873Y-106857500D01*
X172089864Y-106857500D01*
X169794129Y-106857500D01*
X169794123Y-106857501D01*
X169734516Y-106863908D01*
X169599671Y-106914202D01*
X169599664Y-106914206D01*
X169484455Y-107000452D01*
X169484452Y-107000455D01*
X169398206Y-107115664D01*
X169398202Y-107115671D01*
X169347908Y-107250517D01*
X169342581Y-107300071D01*
X169341501Y-107310123D01*
X169341500Y-107310135D01*
X169341500Y-107583500D01*
X169321815Y-107650539D01*
X169269011Y-107696294D01*
X169217500Y-107707500D01*
X168094499Y-107707500D01*
X168027460Y-107687815D01*
X167981705Y-107635011D01*
X167970499Y-107583500D01*
X167970499Y-107310129D01*
X167970498Y-107310123D01*
X167970497Y-107310116D01*
X167964091Y-107250517D01*
X167962337Y-107245815D01*
X167913797Y-107115671D01*
X167913793Y-107115664D01*
X167827547Y-107000455D01*
X167827544Y-107000452D01*
X167712335Y-106914206D01*
X167712328Y-106914202D01*
X167577482Y-106863908D01*
X167577483Y-106863908D01*
X167517883Y-106857501D01*
X167517881Y-106857500D01*
X167517873Y-106857500D01*
X167517864Y-106857500D01*
X165222129Y-106857500D01*
X165222123Y-106857501D01*
X165162516Y-106863908D01*
X165027671Y-106914202D01*
X165027664Y-106914206D01*
X164912455Y-107000452D01*
X164912452Y-107000455D01*
X164826206Y-107115664D01*
X164826202Y-107115671D01*
X164775908Y-107250517D01*
X164770581Y-107300071D01*
X164769501Y-107310123D01*
X164769500Y-107310135D01*
X162917654Y-107310135D01*
X162741367Y-107159571D01*
X162741362Y-107159568D01*
X162526631Y-107027980D01*
X162293956Y-106931603D01*
X162049064Y-106872811D01*
X162048000Y-106872726D01*
X162048000Y-107967252D01*
X162010292Y-107945482D01*
X161870409Y-107908000D01*
X161725591Y-107908000D01*
X161585708Y-107945482D01*
X161548000Y-107967252D01*
X161548000Y-106872726D01*
X161546935Y-106872811D01*
X161302043Y-106931603D01*
X161069368Y-107027980D01*
X160854637Y-107159568D01*
X160854632Y-107159571D01*
X160663130Y-107323130D01*
X160499571Y-107514632D01*
X160499568Y-107514637D01*
X160367980Y-107729368D01*
X160271603Y-107962043D01*
X160212811Y-108206932D01*
X160212728Y-108207999D01*
X158811271Y-108207999D01*
X158811188Y-108206932D01*
X158752396Y-107962043D01*
X158656019Y-107729368D01*
X158524431Y-107514637D01*
X158524428Y-107514632D01*
X158360869Y-107323130D01*
X158169367Y-107159571D01*
X158169362Y-107159568D01*
X157954631Y-107027980D01*
X157721956Y-106931603D01*
X157477064Y-106872811D01*
X157476000Y-106872726D01*
X157476000Y-107967252D01*
X157438292Y-107945482D01*
X157298409Y-107908000D01*
X157153591Y-107908000D01*
X157013708Y-107945482D01*
X156976000Y-107967252D01*
X156976000Y-106872726D01*
X156974935Y-106872811D01*
X156730043Y-106931603D01*
X156497368Y-107027980D01*
X156282637Y-107159568D01*
X156282632Y-107159571D01*
X156091130Y-107323130D01*
X155927571Y-107514632D01*
X155927568Y-107514637D01*
X155795980Y-107729368D01*
X155699603Y-107962043D01*
X155640811Y-108206932D01*
X155640728Y-108207999D01*
X140545236Y-108207999D01*
X144114580Y-104638655D01*
X149578520Y-99174716D01*
X149657577Y-99037784D01*
X149698501Y-98885057D01*
X149698501Y-98726942D01*
X149698501Y-98719347D01*
X149698500Y-98719329D01*
X149698500Y-93399585D01*
X149718185Y-93332546D01*
X149770989Y-93286791D01*
X149783489Y-93281881D01*
X149892334Y-93245814D01*
X150041656Y-93153712D01*
X150165712Y-93029656D01*
X150257814Y-92880334D01*
X150312999Y-92713797D01*
X150323500Y-92611009D01*
X150323499Y-91835992D01*
X150312999Y-91733203D01*
X150257814Y-91566666D01*
X150165712Y-91417344D01*
X150041656Y-91293288D01*
X150038819Y-91291538D01*
X150037283Y-91289830D01*
X150035989Y-91288807D01*
X150036163Y-91288585D01*
X149992096Y-91239594D01*
X149980872Y-91170632D01*
X150008713Y-91106549D01*
X150038817Y-91080462D01*
X150041656Y-91078712D01*
X150165712Y-90954656D01*
X150257814Y-90805334D01*
X150312999Y-90638797D01*
X150323500Y-90536009D01*
X150323499Y-89760992D01*
X150318208Y-89709201D01*
X150312999Y-89658203D01*
X150312998Y-89658200D01*
X150298180Y-89613483D01*
X150257814Y-89491666D01*
X150165712Y-89342344D01*
X150041656Y-89218288D01*
X149892334Y-89126186D01*
X149892332Y-89126185D01*
X149886187Y-89122395D01*
X149887622Y-89120067D01*
X149844653Y-89082229D01*
X149825500Y-89016024D01*
X149825500Y-86956692D01*
X149845185Y-86889653D01*
X149878374Y-86855119D01*
X150064139Y-86725047D01*
X150225047Y-86564139D01*
X150355568Y-86377734D01*
X150451739Y-86171496D01*
X150510635Y-85951692D01*
X150530468Y-85725000D01*
X150510635Y-85498308D01*
X150451739Y-85278504D01*
X150355568Y-85072266D01*
X150225047Y-84885861D01*
X150225045Y-84885858D01*
X150064141Y-84724954D01*
X149877734Y-84594432D01*
X149877732Y-84594431D01*
X149671497Y-84498261D01*
X149671488Y-84498258D01*
X149451697Y-84439366D01*
X149451693Y-84439365D01*
X149451692Y-84439365D01*
X149451691Y-84439364D01*
X149451686Y-84439364D01*
X149225002Y-84419532D01*
X149224998Y-84419532D01*
X148998313Y-84439364D01*
X148998302Y-84439366D01*
X148778511Y-84498258D01*
X148778502Y-84498261D01*
X148572267Y-84594431D01*
X148572265Y-84594432D01*
X148385858Y-84724954D01*
X148224954Y-84885858D01*
X148094432Y-85072265D01*
X148094431Y-85072267D01*
X148067382Y-85130275D01*
X148021209Y-85182714D01*
X147954016Y-85201866D01*
X147887135Y-85181650D01*
X147842618Y-85130275D01*
X147815568Y-85072266D01*
X147685047Y-84885861D01*
X147685045Y-84885858D01*
X147524141Y-84724954D01*
X147337734Y-84594432D01*
X147337732Y-84594431D01*
X147131497Y-84498261D01*
X147131488Y-84498258D01*
X146911697Y-84439366D01*
X146911693Y-84439365D01*
X146911692Y-84439365D01*
X146911691Y-84439364D01*
X146911686Y-84439364D01*
X146685002Y-84419532D01*
X146684998Y-84419532D01*
X146458313Y-84439364D01*
X146458302Y-84439366D01*
X146238511Y-84498258D01*
X146238502Y-84498261D01*
X146032267Y-84594431D01*
X146032265Y-84594432D01*
X145845858Y-84724954D01*
X145684954Y-84885858D01*
X145554432Y-85072265D01*
X145554431Y-85072267D01*
X145527382Y-85130275D01*
X145481209Y-85182714D01*
X145414016Y-85201866D01*
X145347135Y-85181650D01*
X145302618Y-85130275D01*
X145275568Y-85072266D01*
X145145047Y-84885861D01*
X145145045Y-84885858D01*
X144984141Y-84724954D01*
X144797734Y-84594432D01*
X144797732Y-84594431D01*
X144591497Y-84498261D01*
X144591488Y-84498258D01*
X144371697Y-84439366D01*
X144371693Y-84439365D01*
X144371692Y-84439365D01*
X144371691Y-84439364D01*
X144371686Y-84439364D01*
X144145002Y-84419532D01*
X144144998Y-84419532D01*
X143918313Y-84439364D01*
X143918302Y-84439366D01*
X143698511Y-84498258D01*
X143698502Y-84498261D01*
X143492267Y-84594431D01*
X143492265Y-84594432D01*
X143305858Y-84724954D01*
X143144954Y-84885858D01*
X143014432Y-85072265D01*
X143014428Y-85072272D01*
X142987105Y-85130866D01*
X142940932Y-85183305D01*
X142873738Y-85202456D01*
X142806858Y-85182239D01*
X142762342Y-85130864D01*
X142735136Y-85072521D01*
X142735132Y-85072513D01*
X142684025Y-84999526D01*
X142087962Y-85595589D01*
X142070925Y-85532007D01*
X142005099Y-85417993D01*
X141912007Y-85324901D01*
X141797993Y-85259075D01*
X141734410Y-85242037D01*
X142330472Y-84645974D01*
X142257478Y-84594863D01*
X142051331Y-84498735D01*
X142051317Y-84498730D01*
X141831610Y-84439860D01*
X141831599Y-84439858D01*
X141605002Y-84420034D01*
X141604998Y-84420034D01*
X141378400Y-84439858D01*
X141378389Y-84439860D01*
X141158682Y-84498730D01*
X141158673Y-84498734D01*
X140952516Y-84594866D01*
X140952512Y-84594868D01*
X140879526Y-84645973D01*
X140879526Y-84645974D01*
X141475590Y-85242037D01*
X141412007Y-85259075D01*
X141297993Y-85324901D01*
X141204901Y-85417993D01*
X141139075Y-85532007D01*
X141122037Y-85595589D01*
X140525974Y-84999526D01*
X140525973Y-84999526D01*
X140474868Y-85072512D01*
X140474868Y-85072513D01*
X140447657Y-85130867D01*
X140401484Y-85183306D01*
X140334290Y-85202457D01*
X140267409Y-85182241D01*
X140222893Y-85130865D01*
X140195682Y-85072512D01*
X140195568Y-85072266D01*
X140065047Y-84885861D01*
X140065045Y-84885858D01*
X139904141Y-84724954D01*
X139717734Y-84594432D01*
X139717732Y-84594431D01*
X139511497Y-84498261D01*
X139511488Y-84498258D01*
X139291697Y-84439366D01*
X139291693Y-84439365D01*
X139291692Y-84439365D01*
X139291691Y-84439364D01*
X139291686Y-84439364D01*
X139065002Y-84419532D01*
X139064998Y-84419532D01*
X138838313Y-84439364D01*
X138838302Y-84439366D01*
X138618511Y-84498258D01*
X138618502Y-84498261D01*
X138412267Y-84594431D01*
X138412265Y-84594432D01*
X138225858Y-84724954D01*
X138064954Y-84885858D01*
X137934432Y-85072265D01*
X137934431Y-85072267D01*
X137907382Y-85130275D01*
X137861209Y-85182714D01*
X137794016Y-85201866D01*
X137727135Y-85181650D01*
X137682618Y-85130275D01*
X137655568Y-85072266D01*
X137525047Y-84885861D01*
X137525045Y-84885858D01*
X137364141Y-84724954D01*
X137177734Y-84594432D01*
X137177732Y-84594431D01*
X136971497Y-84498261D01*
X136971488Y-84498258D01*
X136751697Y-84439366D01*
X136751693Y-84439365D01*
X136751692Y-84439365D01*
X136751691Y-84439364D01*
X136751686Y-84439364D01*
X136525002Y-84419532D01*
X136524998Y-84419532D01*
X136298313Y-84439364D01*
X136298302Y-84439366D01*
X136078511Y-84498258D01*
X136078502Y-84498261D01*
X135872267Y-84594431D01*
X135872265Y-84594432D01*
X135685858Y-84724954D01*
X135524954Y-84885858D01*
X135394432Y-85072265D01*
X135394431Y-85072267D01*
X135298261Y-85278502D01*
X135298258Y-85278511D01*
X135239366Y-85498302D01*
X135239364Y-85498313D01*
X135219532Y-85724998D01*
X135219532Y-85725001D01*
X135239364Y-85951686D01*
X135239366Y-85951697D01*
X135298258Y-86171488D01*
X135298261Y-86171497D01*
X135394431Y-86377732D01*
X135394432Y-86377734D01*
X135524954Y-86564141D01*
X135685858Y-86725045D01*
X135685861Y-86725047D01*
X135872266Y-86855568D01*
X136078504Y-86951739D01*
X136298308Y-87010635D01*
X136451768Y-87024061D01*
X136524998Y-87030468D01*
X136525000Y-87030468D01*
X136525002Y-87030468D01*
X136598232Y-87024061D01*
X136751692Y-87010635D01*
X136971496Y-86951739D01*
X137177734Y-86855568D01*
X137364139Y-86725047D01*
X137525047Y-86564139D01*
X137655568Y-86377734D01*
X137682618Y-86319724D01*
X137728790Y-86267285D01*
X137795983Y-86248133D01*
X137862865Y-86268348D01*
X137907382Y-86319725D01*
X137934429Y-86377728D01*
X137934432Y-86377734D01*
X138064951Y-86564137D01*
X138064952Y-86564138D01*
X138064953Y-86564139D01*
X138128182Y-86627368D01*
X138161666Y-86688689D01*
X138164500Y-86715048D01*
X138164500Y-88745677D01*
X138144815Y-88812716D01*
X138114761Y-88842226D01*
X138116011Y-88843807D01*
X138110343Y-88848288D01*
X137986289Y-88972342D01*
X137894187Y-89121663D01*
X137894185Y-89121668D01*
X137870103Y-89194343D01*
X137839001Y-89288203D01*
X137839001Y-89288204D01*
X137839000Y-89288204D01*
X137828500Y-89390983D01*
X137828500Y-90441001D01*
X137828501Y-90441019D01*
X137839000Y-90543796D01*
X137839001Y-90543799D01*
X137894185Y-90710331D01*
X137894187Y-90710336D01*
X137899125Y-90718341D01*
X137986096Y-90859345D01*
X137986289Y-90859657D01*
X138087681Y-90961049D01*
X138121166Y-91022372D01*
X138124000Y-91048730D01*
X138124000Y-91303911D01*
X138104315Y-91370950D01*
X138065098Y-91409449D01*
X138018344Y-91438287D01*
X137894289Y-91562342D01*
X137802187Y-91711663D01*
X137802185Y-91711668D01*
X137795050Y-91733200D01*
X137747001Y-91878203D01*
X137747001Y-91878204D01*
X137747000Y-91878204D01*
X137736500Y-91980983D01*
X137736500Y-92931001D01*
X137736501Y-92931019D01*
X137747000Y-93033796D01*
X137747001Y-93033799D01*
X137786736Y-93153710D01*
X137802186Y-93200334D01*
X137894096Y-93349345D01*
X137894289Y-93349657D01*
X138018344Y-93473712D01*
X138105596Y-93527529D01*
X138152321Y-93579477D01*
X138164500Y-93633068D01*
X138164500Y-96219508D01*
X138159775Y-96251356D01*
X138159793Y-96251360D01*
X138159721Y-96251720D01*
X138159160Y-96255504D01*
X138158604Y-96257335D01*
X138124000Y-96431303D01*
X138124000Y-96608696D01*
X138158603Y-96782658D01*
X138158605Y-96782666D01*
X138226488Y-96946548D01*
X138325034Y-97094034D01*
X138325040Y-97094041D01*
X138450458Y-97219459D01*
X138450465Y-97219465D01*
X138597951Y-97318011D01*
X138597952Y-97318011D01*
X138597953Y-97318012D01*
X138761834Y-97385895D01*
X138906835Y-97414737D01*
X138935803Y-97420499D01*
X138935807Y-97420500D01*
X138935808Y-97420500D01*
X139113193Y-97420500D01*
X139113194Y-97420499D01*
X139287166Y-97385895D01*
X139451047Y-97318012D01*
X139598536Y-97219464D01*
X139764464Y-97053535D01*
X139785360Y-97022262D01*
X139863013Y-96906047D01*
X139877329Y-96871485D01*
X139896781Y-96824524D01*
X139896781Y-96824523D01*
X139916770Y-96776265D01*
X139930895Y-96742166D01*
X139965500Y-96568191D01*
X139965500Y-96390808D01*
X139965500Y-93583106D01*
X139985185Y-93516067D01*
X140024403Y-93477568D01*
X140030656Y-93473712D01*
X140154712Y-93349656D01*
X140246814Y-93200334D01*
X140301999Y-93033797D01*
X140312500Y-92931009D01*
X140312500Y-92930986D01*
X140612001Y-92930986D01*
X140622494Y-93033697D01*
X140677641Y-93200119D01*
X140677643Y-93200124D01*
X140769684Y-93349345D01*
X140893654Y-93473315D01*
X141042875Y-93565356D01*
X141042880Y-93565358D01*
X141209302Y-93620505D01*
X141209309Y-93620506D01*
X141312019Y-93630999D01*
X141649499Y-93630999D01*
X142149500Y-93630999D01*
X142486972Y-93630999D01*
X142486986Y-93630998D01*
X142589697Y-93620505D01*
X142756119Y-93565358D01*
X142756124Y-93565356D01*
X142905345Y-93473315D01*
X143029315Y-93349345D01*
X143121356Y-93200124D01*
X143121358Y-93200119D01*
X143176505Y-93033697D01*
X143176506Y-93033690D01*
X143186999Y-92930986D01*
X143187000Y-92930973D01*
X143187000Y-92706000D01*
X142149500Y-92706000D01*
X142149500Y-93630999D01*
X141649499Y-93630999D01*
X141649500Y-93630998D01*
X141649500Y-92706000D01*
X140612001Y-92706000D01*
X140612001Y-92930986D01*
X140312500Y-92930986D01*
X140312499Y-91981013D01*
X140612000Y-91981013D01*
X140612000Y-92206000D01*
X141649500Y-92206000D01*
X142149500Y-92206000D01*
X143186999Y-92206000D01*
X143186999Y-91981028D01*
X143186998Y-91981013D01*
X143176505Y-91878302D01*
X143121358Y-91711880D01*
X143121356Y-91711875D01*
X143029315Y-91562654D01*
X142905345Y-91438684D01*
X142756124Y-91346643D01*
X142756119Y-91346641D01*
X142589697Y-91291494D01*
X142589690Y-91291493D01*
X142486986Y-91281000D01*
X142149500Y-91281000D01*
X142149500Y-92206000D01*
X141649500Y-92206000D01*
X141649500Y-91280999D01*
X141632676Y-91264176D01*
X141599190Y-91202853D01*
X141604174Y-91133162D01*
X141646045Y-91077228D01*
X141655259Y-91070955D01*
X141797345Y-90983315D01*
X141921315Y-90859345D01*
X142013356Y-90710124D01*
X142013358Y-90710119D01*
X142068505Y-90543697D01*
X142068506Y-90543690D01*
X142078999Y-90440986D01*
X142079000Y-90440973D01*
X142079000Y-90166000D01*
X141241500Y-90166000D01*
X141241500Y-91191284D01*
X141221815Y-91258323D01*
X141169011Y-91304078D01*
X141156504Y-91308990D01*
X141042880Y-91346641D01*
X141042875Y-91346643D01*
X140893654Y-91438684D01*
X140769684Y-91562654D01*
X140677643Y-91711875D01*
X140677641Y-91711880D01*
X140622494Y-91878302D01*
X140622493Y-91878309D01*
X140612000Y-91981013D01*
X140312499Y-91981013D01*
X140312499Y-91980992D01*
X140301999Y-91878203D01*
X140246814Y-91711666D01*
X140154712Y-91562344D01*
X140030656Y-91438288D01*
X140030653Y-91438286D01*
X140024399Y-91434428D01*
X139977677Y-91382479D01*
X139965500Y-91328892D01*
X139965500Y-91062523D01*
X139985185Y-90995484D01*
X140037989Y-90949729D01*
X140107147Y-90939785D01*
X140170703Y-90968810D01*
X140177181Y-90974842D01*
X140185654Y-90983315D01*
X140334875Y-91075356D01*
X140334880Y-91075358D01*
X140501302Y-91130505D01*
X140501309Y-91130506D01*
X140604019Y-91140999D01*
X140741499Y-91140999D01*
X140741500Y-91140998D01*
X140741500Y-89666000D01*
X141241500Y-89666000D01*
X142078999Y-89666000D01*
X142078999Y-89391028D01*
X142078998Y-89391013D01*
X142068505Y-89288302D01*
X142013358Y-89121880D01*
X142013356Y-89121875D01*
X141921315Y-88972654D01*
X141797345Y-88848684D01*
X141648124Y-88756643D01*
X141648119Y-88756641D01*
X141481697Y-88701494D01*
X141481690Y-88701493D01*
X141378986Y-88691000D01*
X141241500Y-88691000D01*
X141241500Y-89666000D01*
X140741500Y-89666000D01*
X140741500Y-88691000D01*
X140604027Y-88691000D01*
X140604012Y-88691001D01*
X140501302Y-88701494D01*
X140334880Y-88756641D01*
X140334875Y-88756643D01*
X140185654Y-88848684D01*
X140177181Y-88857158D01*
X140115858Y-88890643D01*
X140046166Y-88885659D01*
X139990233Y-88843787D01*
X139965816Y-88778323D01*
X139965500Y-88769477D01*
X139965500Y-86715048D01*
X139985185Y-86648009D01*
X140001814Y-86627371D01*
X140065047Y-86564139D01*
X140195568Y-86377734D01*
X140222893Y-86319134D01*
X140269065Y-86266695D01*
X140336258Y-86247543D01*
X140403139Y-86267758D01*
X140447657Y-86319134D01*
X140474864Y-86377480D01*
X140525974Y-86450472D01*
X141122037Y-85854409D01*
X141139075Y-85917993D01*
X141204901Y-86032007D01*
X141297993Y-86125099D01*
X141412007Y-86190925D01*
X141475590Y-86207962D01*
X140879526Y-86804025D01*
X140952513Y-86855132D01*
X140952521Y-86855136D01*
X141158668Y-86951264D01*
X141158682Y-86951269D01*
X141378389Y-87010139D01*
X141378400Y-87010141D01*
X141604998Y-87029966D01*
X141605002Y-87029966D01*
X141831599Y-87010141D01*
X141831610Y-87010139D01*
X142051317Y-86951269D01*
X142051331Y-86951264D01*
X142257478Y-86855136D01*
X142330471Y-86804024D01*
X141734409Y-86207962D01*
X141797993Y-86190925D01*
X141912007Y-86125099D01*
X142005099Y-86032007D01*
X142070925Y-85917993D01*
X142087962Y-85854409D01*
X142684024Y-86450471D01*
X142735133Y-86377482D01*
X142762341Y-86319135D01*
X142808513Y-86266696D01*
X142875707Y-86247543D01*
X142942588Y-86267758D01*
X142987105Y-86319132D01*
X143014432Y-86377734D01*
X143014433Y-86377735D01*
X143144954Y-86564141D01*
X143305858Y-86725045D01*
X143305861Y-86725047D01*
X143492266Y-86855568D01*
X143698504Y-86951739D01*
X143918308Y-87010635D01*
X144071768Y-87024061D01*
X144144998Y-87030468D01*
X144145000Y-87030468D01*
X144145002Y-87030468D01*
X144218232Y-87024061D01*
X144371692Y-87010635D01*
X144591496Y-86951739D01*
X144797734Y-86855568D01*
X144984139Y-86725047D01*
X145145047Y-86564139D01*
X145275568Y-86377734D01*
X145302618Y-86319724D01*
X145348790Y-86267285D01*
X145415983Y-86248133D01*
X145482865Y-86268348D01*
X145527382Y-86319725D01*
X145554429Y-86377728D01*
X145554432Y-86377734D01*
X145684954Y-86564141D01*
X145845858Y-86725045D01*
X145845861Y-86725047D01*
X146031624Y-86855118D01*
X146075248Y-86909693D01*
X146084500Y-86956692D01*
X146084500Y-89016024D01*
X146064815Y-89083063D01*
X146022403Y-89120110D01*
X146023813Y-89122395D01*
X146017667Y-89126185D01*
X146017666Y-89126186D01*
X145929839Y-89180358D01*
X145868342Y-89218289D01*
X145744289Y-89342342D01*
X145652187Y-89491663D01*
X145652186Y-89491666D01*
X145597001Y-89658203D01*
X145597001Y-89658204D01*
X145597000Y-89658204D01*
X145586500Y-89760983D01*
X145586500Y-90536001D01*
X145586501Y-90536019D01*
X145597000Y-90638796D01*
X145597001Y-90638799D01*
X145652185Y-90805331D01*
X145652187Y-90805336D01*
X145668999Y-90832593D01*
X145731278Y-90933564D01*
X145744289Y-90954657D01*
X145868346Y-91078714D01*
X145871182Y-91080463D01*
X145872717Y-91082170D01*
X145874011Y-91083193D01*
X145873836Y-91083414D01*
X145917905Y-91132411D01*
X145929126Y-91201374D01*
X145901282Y-91265456D01*
X145871182Y-91291537D01*
X145868346Y-91293285D01*
X145744289Y-91417342D01*
X145652187Y-91566663D01*
X145652186Y-91566666D01*
X145597001Y-91733203D01*
X145597001Y-91733204D01*
X145597000Y-91733204D01*
X145586500Y-91835983D01*
X145586500Y-92611001D01*
X145586501Y-92611019D01*
X145597000Y-92713796D01*
X145597001Y-92713799D01*
X145643240Y-92853336D01*
X145652186Y-92880334D01*
X145744288Y-93029656D01*
X145868344Y-93153712D01*
X146017666Y-93245814D01*
X146126505Y-93281879D01*
X146183949Y-93321652D01*
X146210772Y-93386167D01*
X146211500Y-93399585D01*
X146211500Y-99267903D01*
X146191815Y-99334942D01*
X146175181Y-99355584D01*
X137963584Y-107567181D01*
X137902261Y-107600666D01*
X137875903Y-107603500D01*
X135508499Y-107603500D01*
X135441460Y-107583815D01*
X135395705Y-107531011D01*
X135384499Y-107479500D01*
X135384499Y-107306129D01*
X135384498Y-107306123D01*
X135383847Y-107300071D01*
X135378091Y-107246517D01*
X135377829Y-107245815D01*
X135327797Y-107111671D01*
X135327793Y-107111664D01*
X135241547Y-106996455D01*
X135241544Y-106996452D01*
X135126335Y-106910206D01*
X135126328Y-106910202D01*
X134991482Y-106859908D01*
X134991483Y-106859908D01*
X134931883Y-106853501D01*
X134931881Y-106853500D01*
X134931873Y-106853500D01*
X134931864Y-106853500D01*
X133136129Y-106853500D01*
X133136123Y-106853501D01*
X133076516Y-106859908D01*
X132941671Y-106910202D01*
X132941664Y-106910206D01*
X132826455Y-106996452D01*
X132826452Y-106996455D01*
X132740206Y-107111664D01*
X132740202Y-107111671D01*
X132712915Y-107184833D01*
X132671044Y-107240767D01*
X132605579Y-107265184D01*
X132596733Y-107265500D01*
X130761215Y-107265500D01*
X130694176Y-107245815D01*
X130648421Y-107193011D01*
X130638477Y-107123853D01*
X130650730Y-107085206D01*
X130659914Y-107067179D01*
X130659917Y-107067174D01*
X130705752Y-106926108D01*
X130716071Y-106894350D01*
X130716071Y-106894349D01*
X130716072Y-106894346D01*
X130744500Y-106714861D01*
X130744500Y-106533139D01*
X130716072Y-106353654D01*
X130716071Y-106353650D01*
X130716071Y-106353649D01*
X130659918Y-106180828D01*
X130659916Y-106180825D01*
X130582799Y-106029472D01*
X130577417Y-106018910D01*
X130470603Y-105871894D01*
X130342106Y-105743397D01*
X130195090Y-105636583D01*
X130033174Y-105554083D01*
X130033171Y-105554081D01*
X129860348Y-105497928D01*
X129740689Y-105478976D01*
X129680861Y-105469500D01*
X128191139Y-105469500D01*
X128131310Y-105478976D01*
X128011652Y-105497928D01*
X128011649Y-105497928D01*
X127838828Y-105554081D01*
X127838825Y-105554083D01*
X127676909Y-105636583D01*
X127593030Y-105697525D01*
X127529894Y-105743397D01*
X127529892Y-105743399D01*
X127529891Y-105743399D01*
X127401399Y-105871891D01*
X127401399Y-105871892D01*
X127401397Y-105871894D01*
X127378322Y-105903654D01*
X127294583Y-106018909D01*
X127212083Y-106180825D01*
X127212081Y-106180828D01*
X127155928Y-106353649D01*
X127155928Y-106353652D01*
X127127500Y-106533139D01*
X127127500Y-106714860D01*
X127155928Y-106894347D01*
X127155928Y-106894350D01*
X127212081Y-107067171D01*
X127212085Y-107067179D01*
X127221270Y-107085206D01*
X127234166Y-107153875D01*
X127207889Y-107218615D01*
X127150783Y-107258872D01*
X127110785Y-107265500D01*
X122928097Y-107265500D01*
X122861058Y-107245815D01*
X122840416Y-107229181D01*
X122573573Y-106962338D01*
X122540088Y-106901015D01*
X122545072Y-106831323D01*
X122560934Y-106801776D01*
X122577417Y-106779090D01*
X122659917Y-106617174D01*
X122716072Y-106444346D01*
X122744500Y-106264861D01*
X122744500Y-106083139D01*
X122716072Y-105903654D01*
X122716071Y-105903650D01*
X122716071Y-105903649D01*
X122659918Y-105730828D01*
X122659916Y-105730825D01*
X122611898Y-105636583D01*
X122577417Y-105568910D01*
X122470603Y-105421894D01*
X122342106Y-105293397D01*
X122195090Y-105186583D01*
X122033174Y-105104083D01*
X122033171Y-105104081D01*
X121860348Y-105047928D01*
X121740689Y-105028976D01*
X121680861Y-105019500D01*
X120191139Y-105019500D01*
X120131310Y-105028976D01*
X120011652Y-105047928D01*
X120011649Y-105047928D01*
X119838828Y-105104081D01*
X119838825Y-105104083D01*
X119676909Y-105186583D01*
X119640733Y-105212867D01*
X119529894Y-105293397D01*
X119529892Y-105293399D01*
X119529891Y-105293399D01*
X119401399Y-105421891D01*
X119401399Y-105421892D01*
X119401397Y-105421894D01*
X119366809Y-105469500D01*
X119294583Y-105568909D01*
X119212083Y-105730825D01*
X119212081Y-105730828D01*
X119155928Y-105903649D01*
X119155928Y-105903652D01*
X119127500Y-106083139D01*
X119127500Y-106264860D01*
X119155928Y-106444347D01*
X119155928Y-106444350D01*
X119212081Y-106617171D01*
X119212083Y-106617174D01*
X119294583Y-106779090D01*
X119401397Y-106926106D01*
X119529894Y-107054603D01*
X119676910Y-107161417D01*
X119838826Y-107243917D01*
X119838828Y-107243918D01*
X120000029Y-107296294D01*
X120011654Y-107300072D01*
X120191139Y-107328500D01*
X121189903Y-107328500D01*
X121256942Y-107348185D01*
X121277584Y-107364819D01*
X121691083Y-107778318D01*
X121724568Y-107839641D01*
X121719584Y-107909333D01*
X121691083Y-107953680D01*
X120567286Y-109077478D01*
X120455481Y-109189282D01*
X120455475Y-109189290D01*
X120454942Y-109190214D01*
X120454288Y-109190836D01*
X120450530Y-109195735D01*
X120449765Y-109195148D01*
X120404372Y-109238426D01*
X120335764Y-109251645D01*
X120270901Y-109225672D01*
X120232998Y-109175660D01*
X120189704Y-109071138D01*
X120096626Y-108931837D01*
X119978162Y-108813373D01*
X119838860Y-108720295D01*
X119684082Y-108656184D01*
X119684074Y-108656182D01*
X119519771Y-108623500D01*
X119519767Y-108623500D01*
X119352233Y-108623500D01*
X119352228Y-108623500D01*
X119187925Y-108656182D01*
X119187917Y-108656184D01*
X119033139Y-108720295D01*
X118893837Y-108813373D01*
X118775373Y-108931837D01*
X118682295Y-109071139D01*
X118618184Y-109225917D01*
X118618182Y-109225925D01*
X118585500Y-109390228D01*
X118000500Y-109390228D01*
X118000500Y-78110711D01*
X119917500Y-78110711D01*
X119917500Y-78353288D01*
X119949161Y-78593785D01*
X120011947Y-78828104D01*
X120104773Y-79052205D01*
X120104776Y-79052212D01*
X120226064Y-79262289D01*
X120226066Y-79262292D01*
X120226067Y-79262293D01*
X120373733Y-79454736D01*
X120373739Y-79454743D01*
X120545256Y-79626260D01*
X120545263Y-79626266D01*
X120590094Y-79660666D01*
X120737711Y-79773936D01*
X120947788Y-79895224D01*
X121171900Y-79988054D01*
X121406211Y-80050838D01*
X121586586Y-80074584D01*
X121646711Y-80082500D01*
X121646712Y-80082500D01*
X121889289Y-80082500D01*
X121937388Y-80076167D01*
X122129789Y-80050838D01*
X122364100Y-79988054D01*
X122588212Y-79895224D01*
X122798289Y-79773936D01*
X122990738Y-79626265D01*
X123162265Y-79454738D01*
X123309936Y-79262289D01*
X123431224Y-79052212D01*
X123524054Y-78828100D01*
X123586838Y-78593789D01*
X123618500Y-78353288D01*
X123618500Y-78110712D01*
X123586838Y-77870211D01*
X123524054Y-77635900D01*
X123522231Y-77631500D01*
X123431226Y-77411794D01*
X123431224Y-77411788D01*
X123309936Y-77201711D01*
X123191228Y-77047007D01*
X123162266Y-77009263D01*
X123162260Y-77009256D01*
X122990743Y-76837739D01*
X122990736Y-76837733D01*
X122798293Y-76690067D01*
X122798292Y-76690066D01*
X122798289Y-76690064D01*
X122588212Y-76568776D01*
X122535657Y-76547007D01*
X122364104Y-76475947D01*
X122129785Y-76413161D01*
X121889289Y-76381500D01*
X121889288Y-76381500D01*
X121646712Y-76381500D01*
X121646711Y-76381500D01*
X121406214Y-76413161D01*
X121171895Y-76475947D01*
X120947794Y-76568773D01*
X120947785Y-76568777D01*
X120737706Y-76690067D01*
X120545263Y-76837733D01*
X120545256Y-76837739D01*
X120373739Y-77009256D01*
X120373733Y-77009263D01*
X120226067Y-77201706D01*
X120104777Y-77411785D01*
X120104773Y-77411794D01*
X120011947Y-77635895D01*
X119949161Y-77870214D01*
X119917500Y-78110711D01*
X118000500Y-78110711D01*
X118000500Y-77897893D01*
X118020185Y-77830854D01*
X118040121Y-77807030D01*
X121349933Y-74733633D01*
X121412453Y-74702441D01*
X121434308Y-74700500D01*
X161894902Y-74700500D01*
X161961941Y-74720185D01*
G37*
%TD.AperFunction*%
%TA.AperFunction,Conductor*%
G36*
X122729075Y-99116007D02*
G01*
X122695000Y-99243174D01*
X122695000Y-99374826D01*
X122729075Y-99501993D01*
X122761988Y-99559000D01*
X121088012Y-99559000D01*
X121120925Y-99501993D01*
X121155000Y-99374826D01*
X121155000Y-99243174D01*
X121120925Y-99116007D01*
X121088012Y-99059000D01*
X122761988Y-99059000D01*
X122729075Y-99116007D01*
G37*
%TD.AperFunction*%
%TA.AperFunction,Conductor*%
G36*
X125269075Y-99116007D02*
G01*
X125235000Y-99243174D01*
X125235000Y-99374826D01*
X125269075Y-99501993D01*
X125301988Y-99559000D01*
X123628012Y-99559000D01*
X123660925Y-99501993D01*
X123695000Y-99374826D01*
X123695000Y-99243174D01*
X123660925Y-99116007D01*
X123628012Y-99059000D01*
X125301988Y-99059000D01*
X125269075Y-99116007D01*
G37*
%TD.AperFunction*%
%TD*%
M02*
