%TF.GenerationSoftware,KiCad,Pcbnew,8.0.6-8.0.6-0~ubuntu22.04.1*%
%TF.CreationDate,2024-11-16T23:11:19-08:00*%
%TF.ProjectId,telduino,74656c64-7569-46e6-9f2e-6b696361645f,0.1*%
%TF.SameCoordinates,Original*%
%TF.FileFunction,Soldermask,Bot*%
%TF.FilePolarity,Negative*%
%FSLAX46Y46*%
G04 Gerber Fmt 4.6, Leading zero omitted, Abs format (unit mm)*
G04 Created by KiCad (PCBNEW 8.0.6-8.0.6-0~ubuntu22.04.1) date 2024-11-16 23:11:19*
%MOMM*%
%LPD*%
G01*
G04 APERTURE LIST*
G04 Aperture macros list*
%AMRoundRect*
0 Rectangle with rounded corners*
0 $1 Rounding radius*
0 $2 $3 $4 $5 $6 $7 $8 $9 X,Y pos of 4 corners*
0 Add a 4 corners polygon primitive as box body*
4,1,4,$2,$3,$4,$5,$6,$7,$8,$9,$2,$3,0*
0 Add four circle primitives for the rounded corners*
1,1,$1+$1,$2,$3*
1,1,$1+$1,$4,$5*
1,1,$1+$1,$6,$7*
1,1,$1+$1,$8,$9*
0 Add four rect primitives between the rounded corners*
20,1,$1+$1,$2,$3,$4,$5,0*
20,1,$1+$1,$4,$5,$6,$7,0*
20,1,$1+$1,$6,$7,$8,$9,0*
20,1,$1+$1,$8,$9,$2,$3,0*%
G04 Aperture macros list end*
%ADD10C,3.200000*%
%ADD11C,2.360000*%
%ADD12RoundRect,0.102000X0.704000X-0.704000X0.704000X0.704000X-0.704000X0.704000X-0.704000X-0.704000X0*%
%ADD13C,1.612000*%
%ADD14R,1.600000X1.600000*%
%ADD15O,1.600000X1.600000*%
%ADD16C,1.600000*%
%ADD17R,1.700000X1.700000*%
%ADD18O,1.700000X1.700000*%
%ADD19R,2.200000X2.200000*%
%ADD20O,2.200000X2.200000*%
%ADD21R,2.600000X2.600000*%
%ADD22O,2.600000X2.600000*%
%ADD23C,1.200000*%
%ADD24O,2.820000X1.512000*%
%ADD25O,1.512000X2.820000*%
G04 APERTURE END LIST*
D10*
%TO.C,H1*%
X121768000Y-78232000D03*
%TD*%
D11*
%TO.C,J1*%
X181348000Y-104806000D03*
X181348000Y-92806000D03*
D12*
X176508000Y-96256000D03*
D13*
X179048000Y-97276000D03*
X176508000Y-98296000D03*
X179048000Y-99316000D03*
X176508000Y-100336000D03*
X179048000Y-101356000D03*
%TD*%
D14*
%TO.C,A1*%
X145440000Y-125000000D03*
D15*
X147980000Y-125000000D03*
X150520000Y-125000000D03*
X153060000Y-125000000D03*
X155600000Y-125000000D03*
X158140000Y-125000000D03*
X160680000Y-125000000D03*
X163220000Y-125000000D03*
X168300000Y-125000000D03*
X170840000Y-125000000D03*
X173380000Y-125000000D03*
X175920000Y-125000000D03*
X178460000Y-125000000D03*
X181000000Y-125000000D03*
X181000000Y-76740000D03*
X178460000Y-76740000D03*
X175920000Y-76740000D03*
X173380000Y-76740000D03*
X170840000Y-76740000D03*
X168300000Y-76740000D03*
X165760000Y-76740000D03*
X163220000Y-76740000D03*
X159160000Y-76740000D03*
X156620000Y-76740000D03*
X154080000Y-76740000D03*
X151540000Y-76740000D03*
X149000000Y-76740000D03*
X146460000Y-76740000D03*
X143920000Y-76740000D03*
X141380000Y-76740000D03*
X138840000Y-76740000D03*
X136300000Y-76740000D03*
%TD*%
D10*
%TO.C,H2*%
X139446000Y-123190000D03*
%TD*%
D14*
%TO.C,U1*%
X179705000Y-85725000D03*
D16*
X177165000Y-85725000D03*
X174625000Y-85725000D03*
X172085000Y-85725000D03*
X169545000Y-85725000D03*
X149225000Y-85725000D03*
X146685000Y-85725000D03*
X144145000Y-85725000D03*
X141605000Y-85725000D03*
X139065000Y-85725000D03*
X136525000Y-85725000D03*
%TD*%
D17*
%TO.C,J6*%
X133858000Y-118613000D03*
D18*
X133858000Y-121153000D03*
%TD*%
D19*
%TO.C,D3*%
X157226000Y-98298000D03*
D20*
X157226000Y-108458000D03*
%TD*%
D17*
%TO.C,J5*%
X134034000Y-108204000D03*
D18*
X134034000Y-110744000D03*
%TD*%
D21*
%TO.C,D5*%
X171704000Y-113792000D03*
D22*
X156464000Y-113792000D03*
%TD*%
D17*
%TO.C,J2*%
X180340000Y-109982000D03*
D18*
X180340000Y-112522000D03*
X180340000Y-115062000D03*
%TD*%
D16*
%TO.C,R1*%
X169164000Y-93980000D03*
D15*
X159004000Y-93980000D03*
%TD*%
D17*
%TO.C,J7*%
X135895000Y-96769000D03*
D18*
X135895000Y-99309000D03*
X133355000Y-96769000D03*
X133355000Y-99309000D03*
X130815000Y-96769000D03*
X130815000Y-99309000D03*
X128275000Y-96769000D03*
X128275000Y-99309000D03*
X125735000Y-96769000D03*
X125735000Y-99309000D03*
X123195000Y-96769000D03*
X123195000Y-99309000D03*
X120655000Y-96769000D03*
X120655000Y-99309000D03*
%TD*%
D19*
%TO.C,D2*%
X170942000Y-108458000D03*
D20*
X170942000Y-98298000D03*
%TD*%
D10*
%TO.C,H3*%
X182118000Y-120396000D03*
%TD*%
D19*
%TO.C,D1*%
X161798000Y-98298000D03*
D20*
X161798000Y-108458000D03*
%TD*%
D19*
%TO.C,D4*%
X166370000Y-108458000D03*
D20*
X166370000Y-98298000D03*
%TD*%
D23*
%TO.C,J4*%
X126436000Y-119888000D03*
X119436000Y-119888000D03*
D24*
X128936000Y-122738000D03*
X128936000Y-117038000D03*
D25*
X129736000Y-119888000D03*
D24*
X120936000Y-116588000D03*
X120936000Y-123188000D03*
%TD*%
D23*
%TO.C,J3*%
X126436000Y-109474000D03*
X119436000Y-109474000D03*
D24*
X128936000Y-112324000D03*
X128936000Y-106624000D03*
D25*
X129736000Y-109474000D03*
D24*
X120936000Y-106174000D03*
X120936000Y-112774000D03*
%TD*%
M02*
