%TF.GenerationSoftware,KiCad,Pcbnew,8.0.6-8.0.6-0~ubuntu22.04.1*%
%TF.CreationDate,2024-11-16T23:11:18-08:00*%
%TF.ProjectId,telduino,74656c64-7569-46e6-9f2e-6b696361645f,0.1*%
%TF.SameCoordinates,Original*%
%TF.FileFunction,Soldermask,Top*%
%TF.FilePolarity,Negative*%
%FSLAX46Y46*%
G04 Gerber Fmt 4.6, Leading zero omitted, Abs format (unit mm)*
G04 Created by KiCad (PCBNEW 8.0.6-8.0.6-0~ubuntu22.04.1) date 2024-11-16 23:11:18*
%MOMM*%
%LPD*%
G01*
G04 APERTURE LIST*
G04 Aperture macros list*
%AMRoundRect*
0 Rectangle with rounded corners*
0 $1 Rounding radius*
0 $2 $3 $4 $5 $6 $7 $8 $9 X,Y pos of 4 corners*
0 Add a 4 corners polygon primitive as box body*
4,1,4,$2,$3,$4,$5,$6,$7,$8,$9,$2,$3,0*
0 Add four circle primitives for the rounded corners*
1,1,$1+$1,$2,$3*
1,1,$1+$1,$4,$5*
1,1,$1+$1,$6,$7*
1,1,$1+$1,$8,$9*
0 Add four rect primitives between the rounded corners*
20,1,$1+$1,$2,$3,$4,$5,0*
20,1,$1+$1,$4,$5,$6,$7,0*
20,1,$1+$1,$6,$7,$8,$9,0*
20,1,$1+$1,$8,$9,$2,$3,0*%
G04 Aperture macros list end*
%ADD10C,0.000000*%
%ADD11C,3.200000*%
%ADD12C,2.360000*%
%ADD13RoundRect,0.102000X0.704000X-0.704000X0.704000X0.704000X-0.704000X0.704000X-0.704000X-0.704000X0*%
%ADD14C,1.612000*%
%ADD15R,1.600000X1.600000*%
%ADD16O,1.600000X1.600000*%
%ADD17RoundRect,0.250000X-0.475000X0.337500X-0.475000X-0.337500X0.475000X-0.337500X0.475000X0.337500X0*%
%ADD18RoundRect,0.250000X-0.537500X-0.425000X0.537500X-0.425000X0.537500X0.425000X-0.537500X0.425000X0*%
%ADD19C,1.600000*%
%ADD20RoundRect,0.250000X0.450000X-0.350000X0.450000X0.350000X-0.450000X0.350000X-0.450000X-0.350000X0*%
%ADD21R,1.700000X1.700000*%
%ADD22O,1.700000X1.700000*%
%ADD23R,2.200000X2.200000*%
%ADD24O,2.200000X2.200000*%
%ADD25R,2.600000X2.600000*%
%ADD26O,2.600000X2.600000*%
%ADD27RoundRect,0.250000X-0.337500X-0.475000X0.337500X-0.475000X0.337500X0.475000X-0.337500X0.475000X0*%
%ADD28C,1.200000*%
%ADD29O,2.820000X1.512000*%
%ADD30O,1.512000X2.820000*%
G04 APERTURE END LIST*
D10*
%TO.C,G\u002A\u002A\u002A*%
G36*
X148682907Y-109458327D02*
G01*
X148919332Y-109496891D01*
X148986926Y-109512118D01*
X149135746Y-109554772D01*
X149304615Y-109614461D01*
X149480064Y-109685572D01*
X149648626Y-109762494D01*
X149796833Y-109839614D01*
X149854691Y-109873750D01*
X149931605Y-109921958D01*
X150006994Y-109970054D01*
X150070823Y-110011561D01*
X150113057Y-110039999D01*
X150120125Y-110045096D01*
X150142976Y-110062048D01*
X150192457Y-110098646D01*
X150262341Y-110150285D01*
X150346401Y-110212364D01*
X150393305Y-110246990D01*
X150730723Y-110519568D01*
X151034079Y-110814306D01*
X151304295Y-111132303D01*
X151542295Y-111474659D01*
X151749003Y-111842473D01*
X151771477Y-111887816D01*
X151918454Y-112213358D01*
X152038180Y-112535843D01*
X152134001Y-112866361D01*
X152209260Y-113215998D01*
X152251833Y-113480421D01*
X152266139Y-113579498D01*
X152282055Y-113686791D01*
X152292598Y-113756064D01*
X152314589Y-113944478D01*
X152326914Y-114155006D01*
X152329890Y-114377684D01*
X152323834Y-114602551D01*
X152309064Y-114819645D01*
X152285895Y-115019001D01*
X152254645Y-115190659D01*
X152245777Y-115227417D01*
X152218343Y-115323852D01*
X152185207Y-115423976D01*
X152149467Y-115520170D01*
X152114225Y-115604816D01*
X152082579Y-115670296D01*
X152057629Y-115708993D01*
X152046893Y-115716192D01*
X152030740Y-115732540D01*
X152029209Y-115743711D01*
X152013418Y-115777203D01*
X151971302Y-115826189D01*
X151910747Y-115883866D01*
X151839636Y-115943430D01*
X151765854Y-115998074D01*
X151697287Y-116040996D01*
X151667419Y-116055936D01*
X151560518Y-116093490D01*
X151453334Y-116114305D01*
X151358109Y-116116843D01*
X151294171Y-116102840D01*
X151209101Y-116047798D01*
X151139703Y-115966955D01*
X151119806Y-115930888D01*
X151091622Y-115855371D01*
X151061891Y-115750230D01*
X151032838Y-115626498D01*
X151006691Y-115495212D01*
X150985674Y-115367408D01*
X150972013Y-115254121D01*
X150967848Y-115177469D01*
X150964112Y-115101666D01*
X150954845Y-115009288D01*
X150945512Y-114942662D01*
X150931609Y-114865633D01*
X150911989Y-114768101D01*
X150888622Y-114658705D01*
X150863476Y-114546080D01*
X150838521Y-114438865D01*
X150815724Y-114345698D01*
X150797054Y-114275214D01*
X150784481Y-114236052D01*
X150784410Y-114235887D01*
X150764524Y-114181460D01*
X150756739Y-114154215D01*
X150726103Y-114053971D01*
X150677975Y-113927617D01*
X150616323Y-113783787D01*
X150545115Y-113631112D01*
X150468318Y-113478227D01*
X150389901Y-113333764D01*
X150342062Y-113251972D01*
X150135991Y-112939858D01*
X149897620Y-112628765D01*
X149634721Y-112327581D01*
X149355065Y-112045192D01*
X149066424Y-111790487D01*
X149058389Y-111783922D01*
X148949976Y-111696813D01*
X148852093Y-111620600D01*
X148769426Y-111558751D01*
X148706661Y-111514735D01*
X148668485Y-111492020D01*
X148660823Y-111489665D01*
X148640497Y-111477220D01*
X148639820Y-111473035D01*
X148623533Y-111453920D01*
X148582645Y-111425736D01*
X148563252Y-111414606D01*
X148506533Y-111382436D01*
X148431392Y-111338253D01*
X148354081Y-111291613D01*
X148353967Y-111291543D01*
X148200099Y-111201998D01*
X148032811Y-111112595D01*
X147865852Y-111030284D01*
X147712974Y-110962018D01*
X147659755Y-110940554D01*
X147577513Y-110908550D01*
X147506054Y-110880557D01*
X147456686Y-110861013D01*
X147445366Y-110856434D01*
X147357391Y-110827308D01*
X147241491Y-110798949D01*
X147110538Y-110773843D01*
X146977406Y-110754473D01*
X146860885Y-110743661D01*
X146631125Y-110741716D01*
X146404301Y-110765105D01*
X146189659Y-110808926D01*
X146031924Y-110835688D01*
X145851031Y-110845655D01*
X145832344Y-110845670D01*
X145735774Y-110844293D01*
X145668903Y-110839684D01*
X145620608Y-110829725D01*
X145579767Y-110812295D01*
X145543581Y-110790649D01*
X145454197Y-110721293D01*
X145400036Y-110646598D01*
X145375659Y-110557480D01*
X145372939Y-110505678D01*
X145377302Y-110431557D01*
X145394675Y-110378142D01*
X145431477Y-110325836D01*
X145432119Y-110325068D01*
X145491300Y-110254376D01*
X145954323Y-110260554D01*
X146118187Y-110262222D01*
X146247591Y-110261829D01*
X146348890Y-110258615D01*
X146428439Y-110251820D01*
X146492594Y-110240684D01*
X146547709Y-110224448D01*
X146600139Y-110202351D01*
X146649064Y-110177476D01*
X146695814Y-110149433D01*
X146765236Y-110104129D01*
X146847165Y-110048582D01*
X146931438Y-109989810D01*
X147007891Y-109934831D01*
X147066361Y-109890662D01*
X147077842Y-109881421D01*
X147108274Y-109860211D01*
X147162784Y-109825590D01*
X147233097Y-109782471D01*
X147310940Y-109735766D01*
X147388038Y-109690387D01*
X147456118Y-109651246D01*
X147506906Y-109623256D01*
X147532128Y-109611329D01*
X147532965Y-109611209D01*
X147560493Y-109603053D01*
X147609357Y-109582572D01*
X147630398Y-109572787D01*
X147798738Y-109510038D01*
X147995623Y-109466883D01*
X148213588Y-109443658D01*
X148445171Y-109440694D01*
X148682907Y-109458327D01*
G37*
G36*
X146086033Y-114897154D02*
G01*
X146224278Y-114936002D01*
X146348201Y-115009194D01*
X146453793Y-115114586D01*
X146537046Y-115250036D01*
X146578266Y-115356324D01*
X146593459Y-115469506D01*
X146576159Y-115591922D01*
X146530743Y-115715253D01*
X146461588Y-115831179D01*
X146373071Y-115931380D01*
X146269570Y-116007537D01*
X146223927Y-116029834D01*
X146120860Y-116058149D01*
X145998568Y-116069127D01*
X145875468Y-116061268D01*
X145862971Y-116059242D01*
X145791050Y-116036938D01*
X145707934Y-115996671D01*
X145658791Y-115966204D01*
X145585599Y-115908943D01*
X145531665Y-115846305D01*
X145482743Y-115761571D01*
X145480291Y-115756691D01*
X145427915Y-115611929D01*
X145411682Y-115466126D01*
X145429454Y-115325120D01*
X145479094Y-115194749D01*
X145558463Y-115080851D01*
X145665424Y-114989264D01*
X145782614Y-114931058D01*
X145937476Y-114894792D01*
X146086033Y-114897154D01*
G37*
G36*
X146275404Y-113284336D02*
G01*
X146546581Y-113328941D01*
X146800734Y-113410234D01*
X147039589Y-113528893D01*
X147264874Y-113685596D01*
X147447952Y-113850178D01*
X147642572Y-114072627D01*
X147811690Y-114324463D01*
X147953328Y-114601692D01*
X148065510Y-114900324D01*
X148146261Y-115216364D01*
X148159538Y-115287414D01*
X148185515Y-115487389D01*
X148189231Y-115660444D01*
X148170909Y-115804499D01*
X148130771Y-115917469D01*
X148085240Y-115981859D01*
X147997629Y-116051706D01*
X147907299Y-116081352D01*
X147815370Y-116070534D01*
X147776644Y-116053908D01*
X147714089Y-116013940D01*
X147666085Y-115963513D01*
X147629569Y-115895968D01*
X147601476Y-115804646D01*
X147578742Y-115682890D01*
X147567181Y-115598701D01*
X147541746Y-115417651D01*
X147513721Y-115266052D01*
X147480185Y-115132519D01*
X147438214Y-115005670D01*
X147384886Y-114874119D01*
X147375938Y-114853754D01*
X147351641Y-114797102D01*
X147336104Y-114757392D01*
X147333067Y-114746769D01*
X147320899Y-114716243D01*
X147288291Y-114662481D01*
X147241087Y-114593501D01*
X147185130Y-114517319D01*
X147126263Y-114441954D01*
X147070331Y-114375421D01*
X147033622Y-114335939D01*
X146938576Y-114243638D01*
X146857234Y-114173644D01*
X146777300Y-114116777D01*
X146686479Y-114063853D01*
X146629490Y-114034143D01*
X146464848Y-113961868D01*
X146306877Y-113918634D01*
X146138450Y-113900296D01*
X146071251Y-113898990D01*
X145914661Y-113891908D01*
X145769056Y-113871865D01*
X145641078Y-113840667D01*
X145537369Y-113800119D01*
X145464572Y-113752025D01*
X145443695Y-113728441D01*
X145425038Y-113679556D01*
X145414828Y-113605797D01*
X145413775Y-113571579D01*
X145416771Y-113500770D01*
X145429476Y-113454375D01*
X145457459Y-113416182D01*
X145472256Y-113401405D01*
X145534958Y-113355160D01*
X145616988Y-113320720D01*
X145723956Y-113296711D01*
X145861473Y-113281759D01*
X145985479Y-113275740D01*
X146275404Y-113284336D01*
G37*
G36*
X146533268Y-111768431D02*
G01*
X146666041Y-111773759D01*
X146776623Y-111782664D01*
X146843035Y-111792537D01*
X146988482Y-111822670D01*
X147101971Y-111847033D01*
X147191638Y-111867596D01*
X147265621Y-111886329D01*
X147332056Y-111905201D01*
X147399081Y-111926183D01*
X147410558Y-111929917D01*
X147534332Y-111976103D01*
X147676817Y-112038497D01*
X147826467Y-112111234D01*
X147971739Y-112188452D01*
X148101086Y-112264287D01*
X148200832Y-112331286D01*
X148284760Y-112398914D01*
X148386885Y-112489343D01*
X148498801Y-112594396D01*
X148612101Y-112705892D01*
X148718380Y-112815652D01*
X148809230Y-112915498D01*
X148846747Y-112959762D01*
X149081054Y-113273105D01*
X149284571Y-113602618D01*
X149453932Y-113942277D01*
X149582715Y-114276723D01*
X149645202Y-114489659D01*
X149704373Y-114737109D01*
X149758735Y-115012790D01*
X149761882Y-115030490D01*
X149771958Y-115111751D01*
X149778680Y-115215659D01*
X149782078Y-115332147D01*
X149782186Y-115451145D01*
X149779033Y-115562583D01*
X149772652Y-115656393D01*
X149763074Y-115722506D01*
X149759671Y-115735161D01*
X149710186Y-115864697D01*
X149655943Y-115958420D01*
X149593739Y-116021324D01*
X149564231Y-116039883D01*
X149494229Y-116059947D01*
X149411461Y-116060034D01*
X149336534Y-116041101D01*
X149313052Y-116028195D01*
X149263366Y-115988591D01*
X149220927Y-115940939D01*
X149180113Y-115876868D01*
X149135302Y-115788003D01*
X149101312Y-115712852D01*
X149082485Y-115657825D01*
X149061374Y-115577201D01*
X149041730Y-115485773D01*
X149036540Y-115457626D01*
X149003498Y-115272455D01*
X148975330Y-115120665D01*
X148950459Y-114995312D01*
X148927307Y-114889456D01*
X148904296Y-114796152D01*
X148879850Y-114708460D01*
X148852391Y-114619436D01*
X148831706Y-114556144D01*
X148802700Y-114475307D01*
X148764766Y-114378858D01*
X148721297Y-114274425D01*
X148675685Y-114169631D01*
X148631325Y-114072102D01*
X148591610Y-113989464D01*
X148559933Y-113929342D01*
X148539688Y-113899362D01*
X148539272Y-113898990D01*
X148522234Y-113875041D01*
X148499449Y-113834376D01*
X148461729Y-113772320D01*
X148402894Y-113688705D01*
X148329573Y-113591936D01*
X148248395Y-113490420D01*
X148165986Y-113392563D01*
X148088975Y-113306770D01*
X148057906Y-113274399D01*
X147945456Y-113166699D01*
X147825851Y-113062922D01*
X147709078Y-112971184D01*
X147605128Y-112899598D01*
X147572979Y-112880442D01*
X147505411Y-112842447D01*
X147438967Y-112805255D01*
X147430053Y-112800284D01*
X147372391Y-112771765D01*
X147297188Y-112739094D01*
X147251395Y-112721003D01*
X147190303Y-112698606D01*
X147132300Y-112679157D01*
X147066061Y-112659207D01*
X146980259Y-112635303D01*
X146894080Y-112612124D01*
X146851611Y-112605546D01*
X146774832Y-112598435D01*
X146670256Y-112591200D01*
X146544399Y-112584250D01*
X146403775Y-112577994D01*
X146281540Y-112573655D01*
X146117716Y-112568261D01*
X145989087Y-112563226D01*
X145890023Y-112558001D01*
X145814891Y-112552038D01*
X145758062Y-112544785D01*
X145713905Y-112535694D01*
X145676789Y-112524215D01*
X145645108Y-112511542D01*
X145530101Y-112445568D01*
X145450429Y-112363025D01*
X145407428Y-112266235D01*
X145402432Y-112157519D01*
X145412498Y-112106947D01*
X145456253Y-112019892D01*
X145535773Y-111941250D01*
X145646340Y-111874084D01*
X145783235Y-111821457D01*
X145893598Y-111794641D01*
X145984298Y-111782428D01*
X146103817Y-111773677D01*
X146241953Y-111768413D01*
X146388504Y-111766656D01*
X146533268Y-111768431D01*
G37*
%TD*%
D11*
%TO.C,H1*%
X121768000Y-78232000D03*
%TD*%
D12*
%TO.C,J1*%
X181348000Y-104806000D03*
X181348000Y-92806000D03*
D13*
X176508000Y-96256000D03*
D14*
X179048000Y-97276000D03*
X176508000Y-98296000D03*
X179048000Y-99316000D03*
X176508000Y-100336000D03*
X179048000Y-101356000D03*
%TD*%
D15*
%TO.C,A1*%
X145440000Y-125000000D03*
D16*
X147980000Y-125000000D03*
X150520000Y-125000000D03*
X153060000Y-125000000D03*
X155600000Y-125000000D03*
X158140000Y-125000000D03*
X160680000Y-125000000D03*
X163220000Y-125000000D03*
X168300000Y-125000000D03*
X170840000Y-125000000D03*
X173380000Y-125000000D03*
X175920000Y-125000000D03*
X178460000Y-125000000D03*
X181000000Y-125000000D03*
X181000000Y-76740000D03*
X178460000Y-76740000D03*
X175920000Y-76740000D03*
X173380000Y-76740000D03*
X170840000Y-76740000D03*
X168300000Y-76740000D03*
X165760000Y-76740000D03*
X163220000Y-76740000D03*
X159160000Y-76740000D03*
X156620000Y-76740000D03*
X154080000Y-76740000D03*
X151540000Y-76740000D03*
X149000000Y-76740000D03*
X146460000Y-76740000D03*
X143920000Y-76740000D03*
X141380000Y-76740000D03*
X138840000Y-76740000D03*
X136300000Y-76740000D03*
%TD*%
D11*
%TO.C,H2*%
X139446000Y-123190000D03*
%TD*%
D17*
%TO.C,C3*%
X149098000Y-90148500D03*
X149098000Y-92223500D03*
%TD*%
D18*
%TO.C,C2*%
X139024500Y-92456000D03*
X141899500Y-92456000D03*
%TD*%
D15*
%TO.C,U1*%
X179705000Y-85725000D03*
D19*
X177165000Y-85725000D03*
X174625000Y-85725000D03*
X172085000Y-85725000D03*
X169545000Y-85725000D03*
X149225000Y-85725000D03*
X146685000Y-85725000D03*
X144145000Y-85725000D03*
X141605000Y-85725000D03*
X139065000Y-85725000D03*
X136525000Y-85725000D03*
%TD*%
D20*
%TO.C,R2*%
X120592000Y-90154000D03*
X120592000Y-88154000D03*
%TD*%
D21*
%TO.C,J6*%
X133858000Y-118613000D03*
D22*
X133858000Y-121153000D03*
%TD*%
D23*
%TO.C,D3*%
X157226000Y-98298000D03*
D24*
X157226000Y-108458000D03*
%TD*%
D21*
%TO.C,J5*%
X134034000Y-108204000D03*
D22*
X134034000Y-110744000D03*
%TD*%
D25*
%TO.C,D5*%
X171704000Y-113792000D03*
D26*
X156464000Y-113792000D03*
%TD*%
D20*
%TO.C,R3*%
X123190000Y-90154000D03*
X123190000Y-88154000D03*
%TD*%
D21*
%TO.C,J2*%
X180340000Y-109982000D03*
D22*
X180340000Y-112522000D03*
X180340000Y-115062000D03*
%TD*%
D19*
%TO.C,R1*%
X169164000Y-93980000D03*
D16*
X159004000Y-93980000D03*
%TD*%
D21*
%TO.C,J7*%
X135895000Y-96769000D03*
D22*
X135895000Y-99309000D03*
X133355000Y-96769000D03*
X133355000Y-99309000D03*
X130815000Y-96769000D03*
X130815000Y-99309000D03*
X128275000Y-96769000D03*
X128275000Y-99309000D03*
X125735000Y-96769000D03*
X125735000Y-99309000D03*
X123195000Y-96769000D03*
X123195000Y-99309000D03*
X120655000Y-96769000D03*
X120655000Y-99309000D03*
%TD*%
D23*
%TO.C,D2*%
X170942000Y-108458000D03*
D24*
X170942000Y-98298000D03*
%TD*%
D20*
%TO.C,R4*%
X125730000Y-90154000D03*
X125730000Y-88154000D03*
%TD*%
D11*
%TO.C,H3*%
X182118000Y-120396000D03*
%TD*%
D23*
%TO.C,D1*%
X161798000Y-98298000D03*
D24*
X161798000Y-108458000D03*
%TD*%
D27*
%TO.C,C1*%
X138916500Y-89916000D03*
X140991500Y-89916000D03*
%TD*%
D23*
%TO.C,D4*%
X166370000Y-108458000D03*
D24*
X166370000Y-98298000D03*
%TD*%
D17*
%TO.C,C4*%
X146812000Y-90148500D03*
X146812000Y-92223500D03*
%TD*%
D28*
%TO.C,J4*%
X126436000Y-119888000D03*
X119436000Y-119888000D03*
D29*
X128936000Y-122738000D03*
X128936000Y-117038000D03*
D30*
X129736000Y-119888000D03*
D29*
X120936000Y-116588000D03*
X120936000Y-123188000D03*
%TD*%
D28*
%TO.C,J3*%
X126436000Y-109474000D03*
X119436000Y-109474000D03*
D29*
X128936000Y-112324000D03*
X128936000Y-106624000D03*
D30*
X129736000Y-109474000D03*
D29*
X120936000Y-106174000D03*
X120936000Y-112774000D03*
%TD*%
M02*
