%TF.GenerationSoftware,KiCad,Pcbnew,8.0.6-8.0.6-0~ubuntu22.04.1*%
%TF.CreationDate,2024-11-16T23:11:03-08:00*%
%TF.ProjectId,telduino,74656c64-7569-46e6-9f2e-6b696361645f,0.1*%
%TF.SameCoordinates,Original*%
%TF.FileFunction,Copper,L2,Bot*%
%TF.FilePolarity,Positive*%
%FSLAX46Y46*%
G04 Gerber Fmt 4.6, Leading zero omitted, Abs format (unit mm)*
G04 Created by KiCad (PCBNEW 8.0.6-8.0.6-0~ubuntu22.04.1) date 2024-11-16 23:11:03*
%MOMM*%
%LPD*%
G01*
G04 APERTURE LIST*
%TA.AperFunction,ComponentPad*%
%ADD10R,1.408000X1.408000*%
%TD*%
%TA.AperFunction,ComponentPad*%
%ADD11C,1.408000*%
%TD*%
%TA.AperFunction,ComponentPad*%
%ADD12R,1.600000X1.600000*%
%TD*%
%TA.AperFunction,ComponentPad*%
%ADD13O,1.600000X1.600000*%
%TD*%
%TA.AperFunction,ComponentPad*%
%ADD14C,1.600000*%
%TD*%
%TA.AperFunction,ComponentPad*%
%ADD15R,1.700000X1.700000*%
%TD*%
%TA.AperFunction,ComponentPad*%
%ADD16O,1.700000X1.700000*%
%TD*%
%TA.AperFunction,ComponentPad*%
%ADD17R,2.200000X2.200000*%
%TD*%
%TA.AperFunction,ComponentPad*%
%ADD18O,2.200000X2.200000*%
%TD*%
%TA.AperFunction,ComponentPad*%
%ADD19R,2.600000X2.600000*%
%TD*%
%TA.AperFunction,ComponentPad*%
%ADD20O,2.600000X2.600000*%
%TD*%
%TA.AperFunction,ComponentPad*%
%ADD21O,2.616000X1.308000*%
%TD*%
%TA.AperFunction,ComponentPad*%
%ADD22O,1.308000X2.616000*%
%TD*%
%TA.AperFunction,ViaPad*%
%ADD23C,0.600000*%
%TD*%
%TA.AperFunction,Conductor*%
%ADD24C,0.800000*%
%TD*%
%TA.AperFunction,Conductor*%
%ADD25C,0.500000*%
%TD*%
%TA.AperFunction,Conductor*%
%ADD26C,0.200000*%
%TD*%
G04 APERTURE END LIST*
D10*
%TO.P,J1,1*%
%TO.N,unconnected-(J1-Pad1)*%
X176508000Y-96256000D03*
D11*
%TO.P,J1,2*%
%TO.N,unconnected-(J1-Pad2)*%
X179048000Y-97276000D03*
%TO.P,J1,3*%
%TO.N,Net-(D1-K)*%
X176508000Y-98296000D03*
%TO.P,J1,4*%
%TO.N,Net-(D3-K)*%
X179048000Y-99316000D03*
%TO.P,J1,5*%
%TO.N,unconnected-(J1-Pad5)*%
X176508000Y-100336000D03*
%TO.P,J1,6*%
%TO.N,unconnected-(J1-Pad6)*%
X179048000Y-101356000D03*
%TD*%
D12*
%TO.P,A1,1,NC*%
%TO.N,unconnected-(A1-NC-Pad1)*%
X145440000Y-125000000D03*
D13*
%TO.P,A1,2,IOREF*%
%TO.N,unconnected-(A1-IOREF-Pad2)*%
X147980000Y-125000000D03*
%TO.P,A1,3,~{RESET}*%
%TO.N,Net-(A1-~{RESET})*%
X150520000Y-125000000D03*
%TO.P,A1,4,3V3*%
%TO.N,unconnected-(A1-3V3-Pad4)*%
X153060000Y-125000000D03*
%TO.P,A1,5,+5V*%
%TO.N,5V*%
X155600000Y-125000000D03*
%TO.P,A1,6,GND*%
%TO.N,GND*%
X158140000Y-125000000D03*
%TO.P,A1,7,GND*%
X160680000Y-125000000D03*
%TO.P,A1,8,VIN*%
%TO.N,unconnected-(A1-VIN-Pad8)*%
X163220000Y-125000000D03*
%TO.P,A1,9,A0*%
%TO.N,unconnected-(A1-A0-Pad9)*%
X168300000Y-125000000D03*
%TO.P,A1,10,A1*%
%TO.N,unconnected-(A1-A1-Pad10)*%
X170840000Y-125000000D03*
%TO.P,A1,11,A2*%
%TO.N,unconnected-(A1-A2-Pad11)*%
X173380000Y-125000000D03*
%TO.P,A1,12,A3*%
%TO.N,unconnected-(A1-A3-Pad12)*%
X175920000Y-125000000D03*
%TO.P,A1,13,SDA/A4*%
%TO.N,unconnected-(A1-SDA{slash}A4-Pad13)*%
X178460000Y-125000000D03*
%TO.P,A1,14,SCL/A5*%
%TO.N,unconnected-(A1-SCL{slash}A5-Pad14)*%
X181000000Y-125000000D03*
%TO.P,A1,15,D0/RX*%
%TO.N,Net-(A1-D0{slash}RX)*%
X181000000Y-76740000D03*
%TO.P,A1,16,D1/TX*%
%TO.N,Net-(A1-D1{slash}TX)*%
X178460000Y-76740000D03*
%TO.P,A1,17,D2*%
%TO.N,unconnected-(A1-D2-Pad17)*%
X175920000Y-76740000D03*
%TO.P,A1,18,D3*%
%TO.N,unconnected-(A1-D3-Pad18)*%
X173380000Y-76740000D03*
%TO.P,A1,19,D4*%
%TO.N,unconnected-(A1-D4-Pad19)*%
X170840000Y-76740000D03*
%TO.P,A1,20,D5*%
%TO.N,Net-(A1-D5)*%
X168300000Y-76740000D03*
%TO.P,A1,21,D6*%
%TO.N,Net-(A1-D6)*%
X165760000Y-76740000D03*
%TO.P,A1,22,D7*%
%TO.N,Net-(A1-D7)*%
X163220000Y-76740000D03*
%TO.P,A1,23,D8*%
%TO.N,unconnected-(A1-D8-Pad23)*%
X159160000Y-76740000D03*
%TO.P,A1,24,D9*%
%TO.N,unconnected-(A1-D9-Pad24)*%
X156620000Y-76740000D03*
%TO.P,A1,25,D10*%
%TO.N,Net-(A1-D10)*%
X154080000Y-76740000D03*
%TO.P,A1,26,D11*%
%TO.N,Net-(A1-D11)*%
X151540000Y-76740000D03*
%TO.P,A1,27,D12*%
%TO.N,Net-(A1-D12)*%
X149000000Y-76740000D03*
%TO.P,A1,28,D13*%
%TO.N,Net-(A1-D13)*%
X146460000Y-76740000D03*
%TO.P,A1,29,GND*%
%TO.N,GND*%
X143920000Y-76740000D03*
%TO.P,A1,30,AREF*%
%TO.N,unconnected-(A1-AREF-Pad30)*%
X141380000Y-76740000D03*
%TO.P,A1,31,SDA/A4*%
%TO.N,unconnected-(A1-SDA{slash}A4-Pad31)*%
X138840000Y-76740000D03*
%TO.P,A1,32,SCL/A5*%
%TO.N,unconnected-(A1-SCL{slash}A5-Pad32)*%
X136300000Y-76740000D03*
%TD*%
D12*
%TO.P,U1,1,RING*%
%TO.N,Net-(D1-K)*%
X179705000Y-85725000D03*
D14*
%TO.P,U1,2,TIP*%
%TO.N,Net-(D3-K)*%
X177165000Y-85725000D03*
%TO.P,U1,3,FR*%
%TO.N,Net-(A1-D5)*%
X174625000Y-85725000D03*
%TO.P,U1,4,RM*%
%TO.N,Net-(A1-D6)*%
X172085000Y-85725000D03*
%TO.P,U1,5,SHK*%
%TO.N,Net-(A1-D7)*%
X169545000Y-85725000D03*
%TO.P,U1,6,VR*%
%TO.N,Net-(U1-VR)*%
X149225000Y-85725000D03*
%TO.P,U1,7,VX*%
%TO.N,Net-(U1-VX)*%
X146685000Y-85725000D03*
%TO.P,U1,8,NC*%
%TO.N,unconnected-(U1-NC-Pad8)*%
X144145000Y-85725000D03*
%TO.P,U1,9,GND*%
%TO.N,GND*%
X141605000Y-85725000D03*
%TO.P,U1,10,VDC*%
%TO.N,5V*%
X139065000Y-85725000D03*
%TO.P,U1,11,PD*%
%TO.N,unconnected-(U1-PD-Pad11)*%
X136525000Y-85725000D03*
%TD*%
D15*
%TO.P,J6,1,Pin_1*%
%TO.N,Net-(J6-Pin_1)*%
X133858000Y-118613000D03*
D16*
%TO.P,J6,2,Pin_2*%
%TO.N,GND*%
X133858000Y-121153000D03*
%TD*%
D17*
%TO.P,D3,1,K*%
%TO.N,Net-(D3-K)*%
X157226000Y-98298000D03*
D18*
%TO.P,D3,2,A*%
%TO.N,GND*%
X157226000Y-108458000D03*
%TD*%
D15*
%TO.P,J5,1,Pin_1*%
%TO.N,Net-(J5-Pin_1)*%
X134034000Y-108204000D03*
D16*
%TO.P,J5,2,Pin_2*%
%TO.N,GND*%
X134034000Y-110744000D03*
%TD*%
D19*
%TO.P,D5,1,K*%
%TO.N,Net-(D2-K)*%
X171704000Y-113792000D03*
D20*
%TO.P,D5,2,A*%
%TO.N,GND*%
X156464000Y-113792000D03*
%TD*%
D15*
%TO.P,J2,1,Pin_1*%
%TO.N,Net-(D1-K)*%
X180340000Y-109982000D03*
D16*
%TO.P,J2,2,Pin_2*%
%TO.N,Net-(D3-K)*%
X180340000Y-112522000D03*
%TO.P,J2,3,Pin_3*%
%TO.N,unconnected-(J2-Pin_3-Pad3)*%
X180340000Y-115062000D03*
%TD*%
D14*
%TO.P,R1,1*%
%TO.N,Net-(D1-K)*%
X169164000Y-93980000D03*
D13*
%TO.P,R1,2*%
%TO.N,Net-(D3-K)*%
X159004000Y-93980000D03*
%TD*%
D15*
%TO.P,J7,1,Pin_1*%
%TO.N,GND*%
X135895000Y-96769000D03*
D16*
%TO.P,J7,2,Pin_2*%
%TO.N,5V*%
X135895000Y-99309000D03*
%TO.P,J7,3,Pin_3*%
%TO.N,Net-(A1-D0{slash}RX)*%
X133355000Y-96769000D03*
%TO.P,J7,4,Pin_4*%
%TO.N,Net-(A1-~{RESET})*%
X133355000Y-99309000D03*
%TO.P,J7,5,Pin_5*%
%TO.N,Net-(A1-D1{slash}TX)*%
X130815000Y-96769000D03*
%TO.P,J7,6,Pin_6*%
%TO.N,GND*%
X130815000Y-99309000D03*
%TO.P,J7,7,Pin_7*%
%TO.N,Net-(A1-D10)*%
X128275000Y-96769000D03*
%TO.P,J7,8,Pin_8*%
%TO.N,5V*%
X128275000Y-99309000D03*
%TO.P,J7,9,Pin_9*%
%TO.N,Net-(J7-Pin_9)*%
X125735000Y-96769000D03*
%TO.P,J7,10,Pin_10*%
%TO.N,GND*%
X125735000Y-99309000D03*
%TO.P,J7,11,Pin_11*%
%TO.N,Net-(J7-Pin_11)*%
X123195000Y-96769000D03*
%TO.P,J7,12,Pin_12*%
%TO.N,GND*%
X123195000Y-99309000D03*
%TO.P,J7,13,Pin_13*%
%TO.N,Net-(J7-Pin_13)*%
X120655000Y-96769000D03*
%TO.P,J7,14,Pin_14*%
%TO.N,GND*%
X120655000Y-99309000D03*
%TD*%
D17*
%TO.P,D2,1,K*%
%TO.N,Net-(D2-K)*%
X170942000Y-108458000D03*
D18*
%TO.P,D2,2,A*%
%TO.N,Net-(D1-K)*%
X170942000Y-98298000D03*
%TD*%
D17*
%TO.P,D1,1,K*%
%TO.N,Net-(D1-K)*%
X161798000Y-98298000D03*
D18*
%TO.P,D1,2,A*%
%TO.N,GND*%
X161798000Y-108458000D03*
%TD*%
D17*
%TO.P,D4,1,K*%
%TO.N,Net-(D2-K)*%
X166370000Y-108458000D03*
D18*
%TO.P,D4,2,A*%
%TO.N,Net-(D3-K)*%
X166370000Y-98298000D03*
%TD*%
D21*
%TO.P,J4,R1*%
%TO.N,unconnected-(J4-PadR1)*%
X128936000Y-122738000D03*
%TO.P,J4,R2*%
%TO.N,unconnected-(J4-PadR2)*%
X128936000Y-117038000D03*
D22*
%TO.P,J4,S*%
%TO.N,GND*%
X129736000Y-119888000D03*
D21*
%TO.P,J4,T*%
%TO.N,Net-(J6-Pin_1)*%
X120936000Y-116588000D03*
X120936000Y-123188000D03*
%TD*%
%TO.P,J3,R1*%
%TO.N,unconnected-(J3-PadR1)*%
X128936000Y-112324000D03*
%TO.P,J3,R2*%
%TO.N,unconnected-(J3-PadR2)*%
X128936000Y-106624000D03*
D22*
%TO.P,J3,S*%
%TO.N,GND*%
X129736000Y-109474000D03*
D21*
%TO.P,J3,T*%
%TO.N,Net-(J5-Pin_1)*%
X120936000Y-106174000D03*
X120936000Y-112774000D03*
%TD*%
D23*
%TO.N,5V*%
X139024500Y-95504000D03*
X139024500Y-94488000D03*
X139024500Y-96520000D03*
%TO.N,GND*%
X173482000Y-94488000D03*
X175260000Y-108204000D03*
X183388000Y-96266000D03*
X143256000Y-97282000D03*
X124460000Y-114554000D03*
X180340000Y-80010000D03*
X152908000Y-121158000D03*
X153162000Y-95504000D03*
X124460000Y-103124000D03*
X125984000Y-77978000D03*
X151130000Y-105410000D03*
X167386000Y-121158000D03*
X121666000Y-82042000D03*
X154686000Y-84328000D03*
X173736000Y-80010000D03*
X143256000Y-108966000D03*
X183388000Y-111506000D03*
X143256000Y-119380000D03*
X134620000Y-90424000D03*
X124460000Y-125222000D03*
X143510000Y-88646000D03*
X163576000Y-84582000D03*
%TO.N,Net-(D1-K)*%
X173863000Y-97917000D03*
X180340000Y-107696000D03*
%TO.N,Net-(A1-~{RESET})*%
X136398000Y-104140000D03*
%TD*%
D24*
%TO.N,5V*%
X135895000Y-99309000D02*
X138526500Y-101940500D01*
X155600000Y-118516000D02*
X155600000Y-125000000D01*
X139024500Y-94488000D02*
X139024500Y-95504000D01*
X139024500Y-96520000D02*
X139024500Y-101940500D01*
X138526500Y-101940500D02*
X139024500Y-101940500D01*
X139024500Y-95504000D02*
X139024500Y-96520000D01*
X130906500Y-101940500D02*
X139024500Y-101940500D01*
X139024500Y-101940500D02*
X155600000Y-118516000D01*
X128275000Y-99309000D02*
X130906500Y-101940500D01*
D25*
%TO.N,Net-(D1-K)*%
X173863000Y-100203000D02*
X180340000Y-106680000D01*
X173863000Y-97917000D02*
X173863000Y-100203000D01*
X180340000Y-106680000D02*
X180340000Y-107696000D01*
D26*
%TO.N,Net-(A1-~{RESET})*%
X150520000Y-118262000D02*
X150520000Y-125000000D01*
X136398000Y-104140000D02*
X150520000Y-118262000D01*
%TD*%
%TA.AperFunction,Conductor*%
%TO.N,GND*%
G36*
X160214075Y-124807007D02*
G01*
X160180000Y-124934174D01*
X160180000Y-125065826D01*
X160214075Y-125192993D01*
X160246988Y-125250000D01*
X158573012Y-125250000D01*
X158605925Y-125192993D01*
X158640000Y-125065826D01*
X158640000Y-124934174D01*
X158605925Y-124807007D01*
X158573012Y-124750000D01*
X160246988Y-124750000D01*
X160214075Y-124807007D01*
G37*
%TD.AperFunction*%
%TA.AperFunction,Conductor*%
G36*
X122729075Y-99116007D02*
G01*
X122695000Y-99243174D01*
X122695000Y-99374826D01*
X122729075Y-99501993D01*
X122761988Y-99559000D01*
X121088012Y-99559000D01*
X121120925Y-99501993D01*
X121155000Y-99374826D01*
X121155000Y-99243174D01*
X121120925Y-99116007D01*
X121088012Y-99059000D01*
X122761988Y-99059000D01*
X122729075Y-99116007D01*
G37*
%TD.AperFunction*%
%TA.AperFunction,Conductor*%
G36*
X125269075Y-99116007D02*
G01*
X125235000Y-99243174D01*
X125235000Y-99374826D01*
X125269075Y-99501993D01*
X125301988Y-99559000D01*
X123628012Y-99559000D01*
X123660925Y-99501993D01*
X123695000Y-99374826D01*
X123695000Y-99243174D01*
X123660925Y-99116007D01*
X123628012Y-99059000D01*
X125301988Y-99059000D01*
X125269075Y-99116007D01*
G37*
%TD.AperFunction*%
%TA.AperFunction,Conductor*%
G36*
X181661545Y-74720185D02*
G01*
X181673889Y-74729241D01*
X182674796Y-75563330D01*
X182683094Y-75570908D01*
X183003181Y-75890995D01*
X183036666Y-75952318D01*
X183039500Y-75978676D01*
X183039500Y-87215891D01*
X183073608Y-87343187D01*
X183106554Y-87400250D01*
X183139500Y-87457314D01*
X183139502Y-87457316D01*
X185543181Y-89860995D01*
X185576666Y-89922318D01*
X185579500Y-89948676D01*
X185579500Y-122201324D01*
X185559815Y-122268363D01*
X185543181Y-122289005D01*
X183139502Y-124692683D01*
X183139500Y-124692686D01*
X183073608Y-124806812D01*
X183039500Y-124934108D01*
X183039500Y-126876000D01*
X183019815Y-126943039D01*
X182967011Y-126988794D01*
X182915500Y-127000000D01*
X118124500Y-127000000D01*
X118057461Y-126980315D01*
X118011706Y-126927511D01*
X118000500Y-126876000D01*
X118000500Y-123097139D01*
X119127500Y-123097139D01*
X119127500Y-123278860D01*
X119155928Y-123458347D01*
X119155928Y-123458350D01*
X119212081Y-123631171D01*
X119212083Y-123631174D01*
X119294583Y-123793090D01*
X119401397Y-123940106D01*
X119529894Y-124068603D01*
X119676910Y-124175417D01*
X119838826Y-124257917D01*
X119838828Y-124257918D01*
X120000029Y-124310294D01*
X120011654Y-124314072D01*
X120191139Y-124342500D01*
X120191140Y-124342500D01*
X121680860Y-124342500D01*
X121680861Y-124342500D01*
X121860346Y-124314072D01*
X121860349Y-124314071D01*
X121860350Y-124314071D01*
X122033171Y-124257918D01*
X122033171Y-124257917D01*
X122033174Y-124257917D01*
X122195090Y-124175417D01*
X122342106Y-124068603D01*
X122470603Y-123940106D01*
X122577417Y-123793090D01*
X122659917Y-123631174D01*
X122705752Y-123490108D01*
X122716071Y-123458350D01*
X122716071Y-123458349D01*
X122716072Y-123458346D01*
X122744500Y-123278861D01*
X122744500Y-123097139D01*
X122716072Y-122917654D01*
X122716071Y-122917650D01*
X122716071Y-122917649D01*
X122659918Y-122744828D01*
X122659916Y-122744825D01*
X122583017Y-122593900D01*
X122577417Y-122582910D01*
X122470603Y-122435894D01*
X122342106Y-122307397D01*
X122195090Y-122200583D01*
X122033174Y-122118083D01*
X122033171Y-122118081D01*
X121860348Y-122061928D01*
X121740689Y-122042976D01*
X121680861Y-122033500D01*
X120191139Y-122033500D01*
X120131310Y-122042976D01*
X120011652Y-122061928D01*
X120011649Y-122061928D01*
X119838828Y-122118081D01*
X119838825Y-122118083D01*
X119676909Y-122200583D01*
X119613711Y-122246500D01*
X119529894Y-122307397D01*
X119529892Y-122307399D01*
X119529891Y-122307399D01*
X119401399Y-122435891D01*
X119401399Y-122435892D01*
X119401397Y-122435894D01*
X119366712Y-122483634D01*
X119294583Y-122582909D01*
X119212083Y-122744825D01*
X119212081Y-122744828D01*
X119155928Y-122917649D01*
X119155928Y-122917652D01*
X119127500Y-123097139D01*
X118000500Y-123097139D01*
X118000500Y-119804228D01*
X118585500Y-119804228D01*
X118585500Y-119971771D01*
X118618182Y-120136074D01*
X118618184Y-120136082D01*
X118682295Y-120290860D01*
X118775373Y-120430162D01*
X118893837Y-120548626D01*
X118986494Y-120610537D01*
X119033137Y-120641703D01*
X119187918Y-120705816D01*
X119352228Y-120738499D01*
X119352232Y-120738500D01*
X119352233Y-120738500D01*
X119519768Y-120738500D01*
X119519769Y-120738499D01*
X119684082Y-120705816D01*
X119838863Y-120641703D01*
X119978162Y-120548626D01*
X120096626Y-120430162D01*
X120189703Y-120290863D01*
X120253816Y-120136082D01*
X120286500Y-119971767D01*
X120286500Y-119804233D01*
X120286499Y-119804228D01*
X125585500Y-119804228D01*
X125585500Y-119971771D01*
X125618182Y-120136074D01*
X125618184Y-120136082D01*
X125682295Y-120290860D01*
X125775373Y-120430162D01*
X125893837Y-120548626D01*
X125986494Y-120610537D01*
X126033137Y-120641703D01*
X126187918Y-120705816D01*
X126352228Y-120738499D01*
X126352232Y-120738500D01*
X126352233Y-120738500D01*
X126519768Y-120738500D01*
X126519769Y-120738499D01*
X126684082Y-120705816D01*
X126838863Y-120641703D01*
X126978162Y-120548626D01*
X127096626Y-120430162D01*
X127189703Y-120290863D01*
X127253816Y-120136082D01*
X127286500Y-119971767D01*
X127286500Y-119804233D01*
X127253816Y-119639918D01*
X127189703Y-119485137D01*
X127109905Y-119365711D01*
X127096626Y-119345837D01*
X126978162Y-119227373D01*
X126838860Y-119134295D01*
X126684082Y-119070184D01*
X126684074Y-119070182D01*
X126519771Y-119037500D01*
X126519767Y-119037500D01*
X126352233Y-119037500D01*
X126352228Y-119037500D01*
X126187925Y-119070182D01*
X126187917Y-119070184D01*
X126033139Y-119134295D01*
X125893837Y-119227373D01*
X125775373Y-119345837D01*
X125682295Y-119485139D01*
X125618184Y-119639917D01*
X125618182Y-119639925D01*
X125585500Y-119804228D01*
X120286499Y-119804228D01*
X120253816Y-119639918D01*
X120189703Y-119485137D01*
X120109905Y-119365711D01*
X120096626Y-119345837D01*
X119978162Y-119227373D01*
X119838860Y-119134295D01*
X119684082Y-119070184D01*
X119684074Y-119070182D01*
X119519771Y-119037500D01*
X119519767Y-119037500D01*
X119352233Y-119037500D01*
X119352228Y-119037500D01*
X119187925Y-119070182D01*
X119187917Y-119070184D01*
X119033139Y-119134295D01*
X118893837Y-119227373D01*
X118775373Y-119345837D01*
X118682295Y-119485139D01*
X118618184Y-119639917D01*
X118618182Y-119639925D01*
X118585500Y-119804228D01*
X118000500Y-119804228D01*
X118000500Y-116497139D01*
X119127500Y-116497139D01*
X119127500Y-116678860D01*
X119155928Y-116858347D01*
X119155928Y-116858350D01*
X119212081Y-117031171D01*
X119212083Y-117031174D01*
X119294583Y-117193090D01*
X119401397Y-117340106D01*
X119529894Y-117468603D01*
X119676910Y-117575417D01*
X119838826Y-117657917D01*
X119838828Y-117657918D01*
X120000029Y-117710294D01*
X120011654Y-117714072D01*
X120191139Y-117742500D01*
X120191140Y-117742500D01*
X121680860Y-117742500D01*
X121680861Y-117742500D01*
X121860346Y-117714072D01*
X121860349Y-117714071D01*
X121860350Y-117714071D01*
X122033171Y-117657918D01*
X122033171Y-117657917D01*
X122033174Y-117657917D01*
X122195090Y-117575417D01*
X122342106Y-117468603D01*
X122470603Y-117340106D01*
X122577417Y-117193090D01*
X122659917Y-117031174D01*
X122687222Y-116947139D01*
X127127500Y-116947139D01*
X127127500Y-117128860D01*
X127155928Y-117308347D01*
X127155928Y-117308350D01*
X127212081Y-117481171D01*
X127212083Y-117481174D01*
X127294583Y-117643090D01*
X127401397Y-117790106D01*
X127529894Y-117918603D01*
X127676910Y-118025417D01*
X127838826Y-118107917D01*
X127838828Y-118107918D01*
X127986534Y-118155910D01*
X128011654Y-118164072D01*
X128191139Y-118192500D01*
X128191140Y-118192500D01*
X128846136Y-118192500D01*
X128913175Y-118212185D01*
X128958930Y-118264989D01*
X128968874Y-118334147D01*
X128939849Y-118397703D01*
X128933817Y-118404181D01*
X128855780Y-118482217D01*
X128855780Y-118482218D01*
X128749011Y-118629171D01*
X128666548Y-118791015D01*
X128610415Y-118963774D01*
X128582000Y-119143178D01*
X128582000Y-119638000D01*
X129336000Y-119638000D01*
X129336000Y-120138000D01*
X128582000Y-120138000D01*
X128582000Y-120632821D01*
X128610415Y-120812225D01*
X128666548Y-120984984D01*
X128749011Y-121146828D01*
X128855780Y-121293781D01*
X128855780Y-121293782D01*
X128933817Y-121371819D01*
X128967302Y-121433142D01*
X128962318Y-121502834D01*
X128920446Y-121558767D01*
X128854982Y-121583184D01*
X128846136Y-121583500D01*
X128191139Y-121583500D01*
X128131310Y-121592976D01*
X128011652Y-121611928D01*
X128011649Y-121611928D01*
X127838828Y-121668081D01*
X127838825Y-121668083D01*
X127676909Y-121750583D01*
X127614764Y-121795735D01*
X127529894Y-121857397D01*
X127529892Y-121857399D01*
X127529891Y-121857399D01*
X127401399Y-121985891D01*
X127401399Y-121985892D01*
X127401397Y-121985894D01*
X127373652Y-122024082D01*
X127294583Y-122132909D01*
X127212083Y-122294825D01*
X127212081Y-122294828D01*
X127155928Y-122467649D01*
X127155928Y-122467652D01*
X127127500Y-122647139D01*
X127127500Y-122828860D01*
X127155928Y-123008347D01*
X127155928Y-123008350D01*
X127212081Y-123181171D01*
X127212083Y-123181174D01*
X127294583Y-123343090D01*
X127401397Y-123490106D01*
X127529894Y-123618603D01*
X127676910Y-123725417D01*
X127838826Y-123807917D01*
X127838828Y-123807918D01*
X127923241Y-123835345D01*
X128011654Y-123864072D01*
X128191139Y-123892500D01*
X128191140Y-123892500D01*
X129680860Y-123892500D01*
X129680861Y-123892500D01*
X129860346Y-123864072D01*
X129860349Y-123864071D01*
X129860350Y-123864071D01*
X130033171Y-123807918D01*
X130033171Y-123807917D01*
X130033174Y-123807917D01*
X130195090Y-123725417D01*
X130342106Y-123618603D01*
X130470603Y-123490106D01*
X130577417Y-123343090D01*
X130659917Y-123181174D01*
X130696458Y-123068712D01*
X130696458Y-123068711D01*
X137595500Y-123068711D01*
X137595500Y-123311288D01*
X137627161Y-123551785D01*
X137689947Y-123786104D01*
X137778527Y-123999954D01*
X137782776Y-124010212D01*
X137904064Y-124220289D01*
X137904066Y-124220292D01*
X137904067Y-124220293D01*
X138051733Y-124412736D01*
X138051739Y-124412743D01*
X138223256Y-124584260D01*
X138223263Y-124584266D01*
X138243639Y-124599901D01*
X138415711Y-124731936D01*
X138625788Y-124853224D01*
X138849900Y-124946054D01*
X139084211Y-125008838D01*
X139264586Y-125032584D01*
X139324711Y-125040500D01*
X139324712Y-125040500D01*
X139567289Y-125040500D01*
X139615388Y-125034167D01*
X139807789Y-125008838D01*
X140042100Y-124946054D01*
X140266212Y-124853224D01*
X140476289Y-124731936D01*
X140668738Y-124584265D01*
X140840265Y-124412738D01*
X140987936Y-124220289D01*
X141109224Y-124010212D01*
X141202054Y-123786100D01*
X141264838Y-123551789D01*
X141296500Y-123311288D01*
X141296500Y-123068712D01*
X141264838Y-122828211D01*
X141202054Y-122593900D01*
X141109224Y-122369788D01*
X140987936Y-122159711D01*
X140891091Y-122033500D01*
X140840266Y-121967263D01*
X140840260Y-121967256D01*
X140668743Y-121795739D01*
X140668736Y-121795733D01*
X140476293Y-121648067D01*
X140476292Y-121648066D01*
X140476289Y-121648064D01*
X140266212Y-121526776D01*
X140208411Y-121502834D01*
X140042104Y-121433947D01*
X139807785Y-121371161D01*
X139567289Y-121339500D01*
X139567288Y-121339500D01*
X139324712Y-121339500D01*
X139324711Y-121339500D01*
X139084214Y-121371161D01*
X138849895Y-121433947D01*
X138625794Y-121526773D01*
X138625785Y-121526777D01*
X138415706Y-121648067D01*
X138223263Y-121795733D01*
X138223256Y-121795739D01*
X138051739Y-121967256D01*
X138051733Y-121967263D01*
X137904067Y-122159706D01*
X137782777Y-122369785D01*
X137782773Y-122369794D01*
X137689947Y-122593895D01*
X137627161Y-122828214D01*
X137595500Y-123068711D01*
X130696458Y-123068711D01*
X130716071Y-123008350D01*
X130716071Y-123008349D01*
X130716072Y-123008346D01*
X130744500Y-122828861D01*
X130744500Y-122647139D01*
X130716072Y-122467654D01*
X130716071Y-122467650D01*
X130716071Y-122467649D01*
X130659918Y-122294828D01*
X130659916Y-122294825D01*
X130638446Y-122252686D01*
X130577417Y-122132910D01*
X130470603Y-121985894D01*
X130342106Y-121857397D01*
X130239594Y-121782917D01*
X130196930Y-121727587D01*
X130190951Y-121657974D01*
X130223557Y-121596179D01*
X130256187Y-121572115D01*
X130340826Y-121528990D01*
X130487781Y-121422219D01*
X130487782Y-121422219D01*
X130616219Y-121293782D01*
X130616219Y-121293781D01*
X130722988Y-121146828D01*
X130805451Y-120984984D01*
X130861584Y-120812225D01*
X130890000Y-120632821D01*
X130890000Y-120138000D01*
X130136000Y-120138000D01*
X130136000Y-119638000D01*
X130890000Y-119638000D01*
X130890000Y-119143178D01*
X130861584Y-118963774D01*
X130805451Y-118791015D01*
X130722988Y-118629171D01*
X130616219Y-118482218D01*
X130616219Y-118482217D01*
X130487782Y-118353780D01*
X130340828Y-118247011D01*
X130256186Y-118203884D01*
X130205390Y-118155910D01*
X130188595Y-118088089D01*
X130211132Y-118021954D01*
X130239596Y-117993081D01*
X130342106Y-117918603D01*
X130470603Y-117790106D01*
X130525073Y-117715135D01*
X132507500Y-117715135D01*
X132507500Y-119510870D01*
X132507501Y-119510876D01*
X132513908Y-119570483D01*
X132564202Y-119705328D01*
X132564206Y-119705335D01*
X132650452Y-119820544D01*
X132650455Y-119820547D01*
X132765664Y-119906793D01*
X132765671Y-119906797D01*
X132765674Y-119906798D01*
X132897598Y-119956002D01*
X132953531Y-119997873D01*
X132977949Y-120063337D01*
X132963098Y-120131610D01*
X132941947Y-120159865D01*
X132819886Y-120281926D01*
X132684400Y-120475420D01*
X132684399Y-120475422D01*
X132584570Y-120689507D01*
X132584567Y-120689513D01*
X132527364Y-120902999D01*
X132527364Y-120903000D01*
X133424988Y-120903000D01*
X133392075Y-120960007D01*
X133358000Y-121087174D01*
X133358000Y-121218826D01*
X133392075Y-121345993D01*
X133424988Y-121403000D01*
X132527364Y-121403000D01*
X132584567Y-121616486D01*
X132584570Y-121616492D01*
X132684399Y-121830578D01*
X132819894Y-122024082D01*
X132986917Y-122191105D01*
X133180421Y-122326600D01*
X133394507Y-122426429D01*
X133394516Y-122426433D01*
X133608000Y-122483634D01*
X133608000Y-121586012D01*
X133665007Y-121618925D01*
X133792174Y-121653000D01*
X133923826Y-121653000D01*
X134050993Y-121618925D01*
X134108000Y-121586012D01*
X134108000Y-122483633D01*
X134321483Y-122426433D01*
X134321492Y-122426429D01*
X134535578Y-122326600D01*
X134729082Y-122191105D01*
X134896105Y-122024082D01*
X135031600Y-121830578D01*
X135131429Y-121616492D01*
X135131432Y-121616486D01*
X135188636Y-121403000D01*
X134291012Y-121403000D01*
X134323925Y-121345993D01*
X134358000Y-121218826D01*
X134358000Y-121087174D01*
X134323925Y-120960007D01*
X134291012Y-120903000D01*
X135188636Y-120903000D01*
X135188635Y-120902999D01*
X135131432Y-120689513D01*
X135131429Y-120689507D01*
X135031600Y-120475422D01*
X135031599Y-120475420D01*
X134896113Y-120281926D01*
X134896108Y-120281920D01*
X134774053Y-120159865D01*
X134740568Y-120098542D01*
X134745552Y-120028850D01*
X134787424Y-119972917D01*
X134818400Y-119956002D01*
X134950331Y-119906796D01*
X135065546Y-119820546D01*
X135151796Y-119705331D01*
X135202091Y-119570483D01*
X135208500Y-119510873D01*
X135208499Y-117715128D01*
X135202091Y-117655517D01*
X135172215Y-117575416D01*
X135151797Y-117520671D01*
X135151793Y-117520664D01*
X135065547Y-117405455D01*
X135065544Y-117405452D01*
X134950335Y-117319206D01*
X134950328Y-117319202D01*
X134815482Y-117268908D01*
X134815483Y-117268908D01*
X134755883Y-117262501D01*
X134755881Y-117262500D01*
X134755873Y-117262500D01*
X134755864Y-117262500D01*
X132960129Y-117262500D01*
X132960123Y-117262501D01*
X132900516Y-117268908D01*
X132765671Y-117319202D01*
X132765664Y-117319206D01*
X132650455Y-117405452D01*
X132650452Y-117405455D01*
X132564206Y-117520664D01*
X132564202Y-117520671D01*
X132513908Y-117655517D01*
X132507613Y-117714072D01*
X132507501Y-117715123D01*
X132507500Y-117715135D01*
X130525073Y-117715135D01*
X130577417Y-117643090D01*
X130659917Y-117481174D01*
X130664003Y-117468600D01*
X130716071Y-117308350D01*
X130716071Y-117308349D01*
X130716072Y-117308346D01*
X130744500Y-117128861D01*
X130744500Y-116947139D01*
X130716072Y-116767654D01*
X130716071Y-116767650D01*
X130716071Y-116767649D01*
X130659918Y-116594828D01*
X130659916Y-116594825D01*
X130577416Y-116432909D01*
X130551372Y-116397063D01*
X130470603Y-116285894D01*
X130342106Y-116157397D01*
X130195090Y-116050583D01*
X130033174Y-115968083D01*
X130033171Y-115968081D01*
X129860348Y-115911928D01*
X129740689Y-115892976D01*
X129680861Y-115883500D01*
X128191139Y-115883500D01*
X128131310Y-115892976D01*
X128011652Y-115911928D01*
X128011649Y-115911928D01*
X127838828Y-115968081D01*
X127838825Y-115968083D01*
X127676909Y-116050583D01*
X127608215Y-116100493D01*
X127529894Y-116157397D01*
X127529892Y-116157399D01*
X127529891Y-116157399D01*
X127401399Y-116285891D01*
X127401399Y-116285892D01*
X127401397Y-116285894D01*
X127378322Y-116317654D01*
X127294583Y-116432909D01*
X127212083Y-116594825D01*
X127212081Y-116594828D01*
X127155928Y-116767649D01*
X127155928Y-116767652D01*
X127127500Y-116947139D01*
X122687222Y-116947139D01*
X122716072Y-116858346D01*
X122744500Y-116678861D01*
X122744500Y-116497139D01*
X122716072Y-116317654D01*
X122716071Y-116317650D01*
X122716071Y-116317649D01*
X122659918Y-116144828D01*
X122659916Y-116144825D01*
X122637331Y-116100498D01*
X122577417Y-115982910D01*
X122470603Y-115835894D01*
X122342106Y-115707397D01*
X122195090Y-115600583D01*
X122033174Y-115518083D01*
X122033171Y-115518081D01*
X121860348Y-115461928D01*
X121740689Y-115442976D01*
X121680861Y-115433500D01*
X120191139Y-115433500D01*
X120131310Y-115442976D01*
X120011652Y-115461928D01*
X120011649Y-115461928D01*
X119838828Y-115518081D01*
X119838825Y-115518083D01*
X119676909Y-115600583D01*
X119593030Y-115661525D01*
X119529894Y-115707397D01*
X119529892Y-115707399D01*
X119529891Y-115707399D01*
X119401399Y-115835891D01*
X119401399Y-115835892D01*
X119401397Y-115835894D01*
X119366809Y-115883500D01*
X119294583Y-115982909D01*
X119212083Y-116144825D01*
X119212081Y-116144828D01*
X119155928Y-116317649D01*
X119155928Y-116317652D01*
X119127500Y-116497139D01*
X118000500Y-116497139D01*
X118000500Y-112683139D01*
X119127500Y-112683139D01*
X119127500Y-112864860D01*
X119155928Y-113044347D01*
X119155928Y-113044350D01*
X119212081Y-113217171D01*
X119212083Y-113217174D01*
X119294583Y-113379090D01*
X119401397Y-113526106D01*
X119529894Y-113654603D01*
X119676910Y-113761417D01*
X119838826Y-113843917D01*
X119838828Y-113843918D01*
X119940199Y-113876855D01*
X120011654Y-113900072D01*
X120191139Y-113928500D01*
X120191140Y-113928500D01*
X121680860Y-113928500D01*
X121680861Y-113928500D01*
X121860346Y-113900072D01*
X121860349Y-113900071D01*
X121860350Y-113900071D01*
X122033171Y-113843918D01*
X122033171Y-113843917D01*
X122033174Y-113843917D01*
X122195090Y-113761417D01*
X122342106Y-113654603D01*
X122470603Y-113526106D01*
X122577417Y-113379090D01*
X122659917Y-113217174D01*
X122676226Y-113166979D01*
X122716071Y-113044350D01*
X122716071Y-113044349D01*
X122716072Y-113044346D01*
X122744500Y-112864861D01*
X122744500Y-112683139D01*
X122716072Y-112503654D01*
X122716071Y-112503650D01*
X122716071Y-112503649D01*
X122659918Y-112330828D01*
X122659916Y-112330825D01*
X122637381Y-112286596D01*
X122577417Y-112168910D01*
X122470603Y-112021894D01*
X122342106Y-111893397D01*
X122195090Y-111786583D01*
X122033174Y-111704083D01*
X122033171Y-111704081D01*
X121860348Y-111647928D01*
X121740689Y-111628976D01*
X121680861Y-111619500D01*
X120191139Y-111619500D01*
X120131310Y-111628976D01*
X120011652Y-111647928D01*
X120011649Y-111647928D01*
X119838828Y-111704081D01*
X119838825Y-111704083D01*
X119676909Y-111786583D01*
X119597650Y-111844169D01*
X119529894Y-111893397D01*
X119529892Y-111893399D01*
X119529891Y-111893399D01*
X119401399Y-112021891D01*
X119401399Y-112021892D01*
X119401397Y-112021894D01*
X119363080Y-112074633D01*
X119294583Y-112168909D01*
X119212083Y-112330825D01*
X119212081Y-112330828D01*
X119155928Y-112503649D01*
X119155928Y-112503652D01*
X119127500Y-112683139D01*
X118000500Y-112683139D01*
X118000500Y-109390228D01*
X118585500Y-109390228D01*
X118585500Y-109557771D01*
X118618182Y-109722074D01*
X118618184Y-109722082D01*
X118682295Y-109876860D01*
X118775373Y-110016162D01*
X118893837Y-110134626D01*
X118986494Y-110196537D01*
X119033137Y-110227703D01*
X119187918Y-110291816D01*
X119352228Y-110324499D01*
X119352232Y-110324500D01*
X119352233Y-110324500D01*
X119519768Y-110324500D01*
X119519769Y-110324499D01*
X119684082Y-110291816D01*
X119838863Y-110227703D01*
X119978162Y-110134626D01*
X120096626Y-110016162D01*
X120189703Y-109876863D01*
X120253816Y-109722082D01*
X120286500Y-109557767D01*
X120286500Y-109390233D01*
X120286499Y-109390228D01*
X125585500Y-109390228D01*
X125585500Y-109557771D01*
X125618182Y-109722074D01*
X125618184Y-109722082D01*
X125682295Y-109876860D01*
X125775373Y-110016162D01*
X125893837Y-110134626D01*
X125986494Y-110196537D01*
X126033137Y-110227703D01*
X126187918Y-110291816D01*
X126352228Y-110324499D01*
X126352232Y-110324500D01*
X126352233Y-110324500D01*
X126519768Y-110324500D01*
X126519769Y-110324499D01*
X126684082Y-110291816D01*
X126838863Y-110227703D01*
X126978162Y-110134626D01*
X127096626Y-110016162D01*
X127189703Y-109876863D01*
X127253816Y-109722082D01*
X127286500Y-109557767D01*
X127286500Y-109390233D01*
X127253816Y-109225918D01*
X127189703Y-109071137D01*
X127147516Y-109008000D01*
X127096626Y-108931837D01*
X126978162Y-108813373D01*
X126838860Y-108720295D01*
X126684082Y-108656184D01*
X126684074Y-108656182D01*
X126519771Y-108623500D01*
X126519767Y-108623500D01*
X126352233Y-108623500D01*
X126352228Y-108623500D01*
X126187925Y-108656182D01*
X126187917Y-108656184D01*
X126033139Y-108720295D01*
X125893837Y-108813373D01*
X125775373Y-108931837D01*
X125682295Y-109071139D01*
X125618184Y-109225917D01*
X125618182Y-109225925D01*
X125585500Y-109390228D01*
X120286499Y-109390228D01*
X120253816Y-109225918D01*
X120189703Y-109071137D01*
X120147516Y-109008000D01*
X120096626Y-108931837D01*
X119978162Y-108813373D01*
X119838860Y-108720295D01*
X119684082Y-108656184D01*
X119684074Y-108656182D01*
X119519771Y-108623500D01*
X119519767Y-108623500D01*
X119352233Y-108623500D01*
X119352228Y-108623500D01*
X119187925Y-108656182D01*
X119187917Y-108656184D01*
X119033139Y-108720295D01*
X118893837Y-108813373D01*
X118775373Y-108931837D01*
X118682295Y-109071139D01*
X118618184Y-109225917D01*
X118618182Y-109225925D01*
X118585500Y-109390228D01*
X118000500Y-109390228D01*
X118000500Y-106083139D01*
X119127500Y-106083139D01*
X119127500Y-106264860D01*
X119155928Y-106444347D01*
X119155928Y-106444350D01*
X119212081Y-106617171D01*
X119212083Y-106617174D01*
X119294583Y-106779090D01*
X119401397Y-106926106D01*
X119529894Y-107054603D01*
X119676910Y-107161417D01*
X119838826Y-107243917D01*
X119838828Y-107243918D01*
X120000029Y-107296294D01*
X120011654Y-107300072D01*
X120191139Y-107328500D01*
X120191140Y-107328500D01*
X121680860Y-107328500D01*
X121680861Y-107328500D01*
X121860346Y-107300072D01*
X121860349Y-107300071D01*
X121860350Y-107300071D01*
X122033171Y-107243918D01*
X122033171Y-107243917D01*
X122033174Y-107243917D01*
X122195090Y-107161417D01*
X122342106Y-107054603D01*
X122470603Y-106926106D01*
X122577417Y-106779090D01*
X122659917Y-106617174D01*
X122687222Y-106533139D01*
X127127500Y-106533139D01*
X127127500Y-106714860D01*
X127155928Y-106894347D01*
X127155928Y-106894350D01*
X127212081Y-107067171D01*
X127212083Y-107067174D01*
X127294583Y-107229090D01*
X127401397Y-107376106D01*
X127529894Y-107504603D01*
X127676910Y-107611417D01*
X127838826Y-107693917D01*
X127838828Y-107693918D01*
X127947933Y-107729368D01*
X128011654Y-107750072D01*
X128191139Y-107778500D01*
X128191140Y-107778500D01*
X128846136Y-107778500D01*
X128913175Y-107798185D01*
X128958930Y-107850989D01*
X128968874Y-107920147D01*
X128939849Y-107983703D01*
X128933817Y-107990181D01*
X128855780Y-108068217D01*
X128855780Y-108068218D01*
X128749011Y-108215171D01*
X128666548Y-108377015D01*
X128610415Y-108549774D01*
X128582000Y-108729178D01*
X128582000Y-109224000D01*
X129336000Y-109224000D01*
X129336000Y-109724000D01*
X128582000Y-109724000D01*
X128582000Y-110218821D01*
X128610415Y-110398225D01*
X128666548Y-110570984D01*
X128749011Y-110732828D01*
X128855780Y-110879781D01*
X128855780Y-110879782D01*
X128933817Y-110957819D01*
X128967302Y-111019142D01*
X128962318Y-111088834D01*
X128920446Y-111144767D01*
X128854982Y-111169184D01*
X128846136Y-111169500D01*
X128191139Y-111169500D01*
X128131310Y-111178976D01*
X128011652Y-111197928D01*
X128011649Y-111197928D01*
X127838828Y-111254081D01*
X127838825Y-111254083D01*
X127676909Y-111336583D01*
X127593030Y-111397525D01*
X127529894Y-111443397D01*
X127529892Y-111443399D01*
X127529891Y-111443399D01*
X127401399Y-111571891D01*
X127401399Y-111571892D01*
X127401397Y-111571894D01*
X127370019Y-111615082D01*
X127294583Y-111718909D01*
X127212083Y-111880825D01*
X127212081Y-111880828D01*
X127155928Y-112053649D01*
X127155928Y-112053652D01*
X127143131Y-112134452D01*
X127127500Y-112233139D01*
X127127500Y-112414861D01*
X127132136Y-112444129D01*
X127155928Y-112594347D01*
X127155928Y-112594350D01*
X127212081Y-112767171D01*
X127212083Y-112767174D01*
X127294583Y-112929090D01*
X127401397Y-113076106D01*
X127529894Y-113204603D01*
X127676910Y-113311417D01*
X127838826Y-113393917D01*
X127838828Y-113393918D01*
X128000029Y-113446294D01*
X128011654Y-113450072D01*
X128191139Y-113478500D01*
X128191140Y-113478500D01*
X129680860Y-113478500D01*
X129680861Y-113478500D01*
X129860346Y-113450072D01*
X129860349Y-113450071D01*
X129860350Y-113450071D01*
X130033171Y-113393918D01*
X130033171Y-113393917D01*
X130033174Y-113393917D01*
X130195090Y-113311417D01*
X130342106Y-113204603D01*
X130470603Y-113076106D01*
X130577417Y-112929090D01*
X130659917Y-112767174D01*
X130716072Y-112594346D01*
X130744500Y-112414861D01*
X130744500Y-112233139D01*
X130716072Y-112053654D01*
X130716071Y-112053650D01*
X130716071Y-112053649D01*
X130659918Y-111880828D01*
X130659916Y-111880825D01*
X130611898Y-111786583D01*
X130577417Y-111718910D01*
X130470603Y-111571894D01*
X130342106Y-111443397D01*
X130239594Y-111368917D01*
X130196930Y-111313587D01*
X130190951Y-111243974D01*
X130223557Y-111182179D01*
X130256187Y-111158115D01*
X130340826Y-111114990D01*
X130487781Y-111008219D01*
X130487782Y-111008219D01*
X130616219Y-110879782D01*
X130616219Y-110879781D01*
X130722988Y-110732828D01*
X130805451Y-110570984D01*
X130861584Y-110398225D01*
X130890000Y-110218821D01*
X130890000Y-109724000D01*
X130136000Y-109724000D01*
X130136000Y-109224000D01*
X130890000Y-109224000D01*
X130890000Y-108729178D01*
X130861584Y-108549774D01*
X130805451Y-108377015D01*
X130722988Y-108215171D01*
X130616219Y-108068218D01*
X130616219Y-108068217D01*
X130487782Y-107939780D01*
X130340828Y-107833011D01*
X130256186Y-107789884D01*
X130205390Y-107741910D01*
X130188595Y-107674089D01*
X130211132Y-107607954D01*
X130239596Y-107579081D01*
X130342106Y-107504603D01*
X130470603Y-107376106D01*
X130521440Y-107306135D01*
X132683500Y-107306135D01*
X132683500Y-109101870D01*
X132683501Y-109101876D01*
X132689908Y-109161483D01*
X132740202Y-109296328D01*
X132740206Y-109296335D01*
X132826452Y-109411544D01*
X132826455Y-109411547D01*
X132941664Y-109497793D01*
X132941671Y-109497797D01*
X132941674Y-109497798D01*
X133073598Y-109547002D01*
X133129531Y-109588873D01*
X133153949Y-109654337D01*
X133139098Y-109722610D01*
X133117947Y-109750865D01*
X132995886Y-109872926D01*
X132860400Y-110066420D01*
X132860399Y-110066422D01*
X132760570Y-110280507D01*
X132760567Y-110280513D01*
X132703364Y-110493999D01*
X132703364Y-110494000D01*
X133600988Y-110494000D01*
X133568075Y-110551007D01*
X133534000Y-110678174D01*
X133534000Y-110809826D01*
X133568075Y-110936993D01*
X133600988Y-110994000D01*
X132703364Y-110994000D01*
X132760567Y-111207486D01*
X132760570Y-111207492D01*
X132860399Y-111421578D01*
X132995894Y-111615082D01*
X133162917Y-111782105D01*
X133356421Y-111917600D01*
X133570507Y-112017429D01*
X133570516Y-112017433D01*
X133784000Y-112074634D01*
X133784000Y-111177012D01*
X133841007Y-111209925D01*
X133968174Y-111244000D01*
X134099826Y-111244000D01*
X134226993Y-111209925D01*
X134284000Y-111177012D01*
X134284000Y-112074633D01*
X134497483Y-112017433D01*
X134497492Y-112017429D01*
X134711578Y-111917600D01*
X134905082Y-111782105D01*
X135072105Y-111615082D01*
X135207600Y-111421578D01*
X135307429Y-111207492D01*
X135307432Y-111207486D01*
X135364636Y-110994000D01*
X134467012Y-110994000D01*
X134499925Y-110936993D01*
X134534000Y-110809826D01*
X134534000Y-110678174D01*
X134499925Y-110551007D01*
X134467012Y-110494000D01*
X135364636Y-110494000D01*
X135364635Y-110493999D01*
X135307432Y-110280513D01*
X135307429Y-110280507D01*
X135207600Y-110066422D01*
X135207599Y-110066420D01*
X135072113Y-109872926D01*
X135072108Y-109872920D01*
X134950053Y-109750865D01*
X134916568Y-109689542D01*
X134921552Y-109619850D01*
X134963424Y-109563917D01*
X134994400Y-109547002D01*
X135126331Y-109497796D01*
X135241546Y-109411546D01*
X135327796Y-109296331D01*
X135378091Y-109161483D01*
X135384500Y-109101873D01*
X135384499Y-107306128D01*
X135378091Y-107246517D01*
X135377121Y-107243917D01*
X135327797Y-107111671D01*
X135327793Y-107111664D01*
X135241547Y-106996455D01*
X135241544Y-106996452D01*
X135126335Y-106910206D01*
X135126328Y-106910202D01*
X134991482Y-106859908D01*
X134991483Y-106859908D01*
X134931883Y-106853501D01*
X134931881Y-106853500D01*
X134931873Y-106853500D01*
X134931864Y-106853500D01*
X133136129Y-106853500D01*
X133136123Y-106853501D01*
X133076516Y-106859908D01*
X132941671Y-106910202D01*
X132941664Y-106910206D01*
X132826455Y-106996452D01*
X132826452Y-106996455D01*
X132740206Y-107111664D01*
X132740202Y-107111671D01*
X132689908Y-107246517D01*
X132684151Y-107300071D01*
X132683501Y-107306123D01*
X132683500Y-107306135D01*
X130521440Y-107306135D01*
X130577417Y-107229090D01*
X130659917Y-107067174D01*
X130705752Y-106926108D01*
X130716071Y-106894350D01*
X130716071Y-106894349D01*
X130716072Y-106894346D01*
X130744500Y-106714861D01*
X130744500Y-106533139D01*
X130716072Y-106353654D01*
X130716071Y-106353650D01*
X130716071Y-106353649D01*
X130659918Y-106180828D01*
X130659916Y-106180825D01*
X130648172Y-106157775D01*
X130577417Y-106018910D01*
X130470603Y-105871894D01*
X130342106Y-105743397D01*
X130195090Y-105636583D01*
X130033174Y-105554083D01*
X130033171Y-105554081D01*
X129860348Y-105497928D01*
X129740689Y-105478976D01*
X129680861Y-105469500D01*
X128191139Y-105469500D01*
X128131310Y-105478976D01*
X128011652Y-105497928D01*
X128011649Y-105497928D01*
X127838828Y-105554081D01*
X127838825Y-105554083D01*
X127676909Y-105636583D01*
X127593030Y-105697525D01*
X127529894Y-105743397D01*
X127529892Y-105743399D01*
X127529891Y-105743399D01*
X127401399Y-105871891D01*
X127401399Y-105871892D01*
X127401397Y-105871894D01*
X127378322Y-105903654D01*
X127294583Y-106018909D01*
X127212083Y-106180825D01*
X127212081Y-106180828D01*
X127155928Y-106353649D01*
X127155928Y-106353652D01*
X127127500Y-106533139D01*
X122687222Y-106533139D01*
X122716072Y-106444346D01*
X122744500Y-106264861D01*
X122744500Y-106083139D01*
X122716072Y-105903654D01*
X122716071Y-105903650D01*
X122716071Y-105903649D01*
X122659918Y-105730828D01*
X122659916Y-105730825D01*
X122611898Y-105636583D01*
X122577417Y-105568910D01*
X122470603Y-105421894D01*
X122342106Y-105293397D01*
X122195090Y-105186583D01*
X122033174Y-105104083D01*
X122033171Y-105104081D01*
X121860348Y-105047928D01*
X121740689Y-105028976D01*
X121680861Y-105019500D01*
X120191139Y-105019500D01*
X120131310Y-105028976D01*
X120011652Y-105047928D01*
X120011649Y-105047928D01*
X119838828Y-105104081D01*
X119838825Y-105104083D01*
X119676909Y-105186583D01*
X119593030Y-105247525D01*
X119529894Y-105293397D01*
X119529892Y-105293399D01*
X119529891Y-105293399D01*
X119401399Y-105421891D01*
X119401399Y-105421892D01*
X119401397Y-105421894D01*
X119366809Y-105469500D01*
X119294583Y-105568909D01*
X119212083Y-105730825D01*
X119212081Y-105730828D01*
X119155928Y-105903649D01*
X119155928Y-105903652D01*
X119127500Y-106083139D01*
X118000500Y-106083139D01*
X118000500Y-96768999D01*
X119299341Y-96768999D01*
X119299341Y-96769000D01*
X119319936Y-97004403D01*
X119319938Y-97004413D01*
X119381094Y-97232655D01*
X119381096Y-97232659D01*
X119381097Y-97232663D01*
X119460898Y-97403796D01*
X119480965Y-97446830D01*
X119480967Y-97446834D01*
X119523623Y-97507752D01*
X119616505Y-97640401D01*
X119783599Y-97807495D01*
X119939992Y-97917003D01*
X119969594Y-97937730D01*
X120013219Y-97992307D01*
X120020413Y-98061805D01*
X119988890Y-98124160D01*
X119969595Y-98140880D01*
X119783922Y-98270890D01*
X119783920Y-98270891D01*
X119616891Y-98437920D01*
X119616886Y-98437926D01*
X119481400Y-98631420D01*
X119481399Y-98631422D01*
X119381570Y-98845507D01*
X119381567Y-98845513D01*
X119324364Y-99058999D01*
X119324364Y-99059000D01*
X120221988Y-99059000D01*
X120189075Y-99116007D01*
X120155000Y-99243174D01*
X120155000Y-99374826D01*
X120189075Y-99501993D01*
X120221988Y-99559000D01*
X119324364Y-99559000D01*
X119381567Y-99772486D01*
X119381570Y-99772492D01*
X119481399Y-99986578D01*
X119616894Y-100180082D01*
X119783917Y-100347105D01*
X119977421Y-100482600D01*
X120191507Y-100582429D01*
X120191516Y-100582433D01*
X120405000Y-100639634D01*
X120405000Y-99742012D01*
X120462007Y-99774925D01*
X120589174Y-99809000D01*
X120720826Y-99809000D01*
X120847993Y-99774925D01*
X120905000Y-99742012D01*
X120905000Y-100639633D01*
X121118483Y-100582433D01*
X121118492Y-100582429D01*
X121332578Y-100482600D01*
X121526082Y-100347105D01*
X121693105Y-100180082D01*
X121823425Y-99993968D01*
X121878002Y-99950344D01*
X121947501Y-99943151D01*
X122009855Y-99974673D01*
X122026575Y-99993968D01*
X122156894Y-100180082D01*
X122323917Y-100347105D01*
X122517421Y-100482600D01*
X122731507Y-100582429D01*
X122731516Y-100582433D01*
X122945000Y-100639634D01*
X122945000Y-99742012D01*
X123002007Y-99774925D01*
X123129174Y-99809000D01*
X123260826Y-99809000D01*
X123387993Y-99774925D01*
X123445000Y-99742012D01*
X123445000Y-100639633D01*
X123658483Y-100582433D01*
X123658492Y-100582429D01*
X123872578Y-100482600D01*
X124066082Y-100347105D01*
X124233105Y-100180082D01*
X124363425Y-99993968D01*
X124418002Y-99950344D01*
X124487501Y-99943151D01*
X124549855Y-99974673D01*
X124566575Y-99993968D01*
X124696894Y-100180082D01*
X124863917Y-100347105D01*
X125057421Y-100482600D01*
X125271507Y-100582429D01*
X125271516Y-100582433D01*
X125485000Y-100639634D01*
X125485000Y-99742012D01*
X125542007Y-99774925D01*
X125669174Y-99809000D01*
X125800826Y-99809000D01*
X125927993Y-99774925D01*
X125985000Y-99742012D01*
X125985000Y-100639633D01*
X126198483Y-100582433D01*
X126198492Y-100582429D01*
X126412578Y-100482600D01*
X126606082Y-100347105D01*
X126773105Y-100180082D01*
X126903119Y-99994405D01*
X126957696Y-99950781D01*
X127027195Y-99943588D01*
X127089549Y-99975110D01*
X127106269Y-99994405D01*
X127236505Y-100180401D01*
X127403599Y-100347495D01*
X127432779Y-100367927D01*
X127597165Y-100483032D01*
X127597167Y-100483033D01*
X127597170Y-100483035D01*
X127811337Y-100582903D01*
X128039592Y-100644063D01*
X128275000Y-100664659D01*
X128292945Y-100663088D01*
X128361442Y-100676852D01*
X128391435Y-100698935D01*
X130332466Y-102639966D01*
X130391536Y-102679433D01*
X130391539Y-102679436D01*
X130479950Y-102738511D01*
X130479953Y-102738513D01*
X130561893Y-102772453D01*
X130643834Y-102806395D01*
X130817803Y-102840999D01*
X130817807Y-102841000D01*
X130817808Y-102841000D01*
X130817809Y-102841000D01*
X138437808Y-102841000D01*
X138437809Y-102841000D01*
X138600138Y-102841000D01*
X138667177Y-102860685D01*
X138687819Y-102877319D01*
X154663181Y-118852681D01*
X154696666Y-118914004D01*
X154699500Y-118940362D01*
X154699500Y-124009951D01*
X154679815Y-124076990D01*
X154663181Y-124097632D01*
X154599954Y-124160858D01*
X154469432Y-124347265D01*
X154469431Y-124347267D01*
X154442382Y-124405275D01*
X154396209Y-124457714D01*
X154329016Y-124476866D01*
X154262135Y-124456650D01*
X154217618Y-124405275D01*
X154190686Y-124347520D01*
X154190568Y-124347266D01*
X154060047Y-124160861D01*
X154060045Y-124160858D01*
X153899141Y-123999954D01*
X153712734Y-123869432D01*
X153712732Y-123869431D01*
X153506497Y-123773261D01*
X153506488Y-123773258D01*
X153286697Y-123714366D01*
X153286693Y-123714365D01*
X153286692Y-123714365D01*
X153286691Y-123714364D01*
X153286686Y-123714364D01*
X153060002Y-123694532D01*
X153059998Y-123694532D01*
X152833313Y-123714364D01*
X152833302Y-123714366D01*
X152613511Y-123773258D01*
X152613502Y-123773261D01*
X152407267Y-123869431D01*
X152407265Y-123869432D01*
X152220858Y-123999954D01*
X152059954Y-124160858D01*
X151929432Y-124347265D01*
X151929431Y-124347267D01*
X151902382Y-124405275D01*
X151856209Y-124457714D01*
X151789016Y-124476866D01*
X151722135Y-124456650D01*
X151677618Y-124405275D01*
X151650686Y-124347520D01*
X151650568Y-124347266D01*
X151520047Y-124160861D01*
X151520045Y-124160858D01*
X151359140Y-123999953D01*
X151173377Y-123869881D01*
X151129752Y-123815304D01*
X151120500Y-123768306D01*
X151120500Y-118351059D01*
X151120501Y-118351046D01*
X151120501Y-118182945D01*
X151120501Y-118182943D01*
X151079577Y-118030215D01*
X151047824Y-117975218D01*
X151047824Y-117975217D01*
X151000522Y-117893287D01*
X151000521Y-117893286D01*
X151000520Y-117893284D01*
X150888716Y-117781480D01*
X150888715Y-117781479D01*
X150884385Y-117777149D01*
X150884374Y-117777139D01*
X137228700Y-104121465D01*
X137195215Y-104060142D01*
X137193163Y-104047686D01*
X137183368Y-103960745D01*
X137123789Y-103790478D01*
X137027816Y-103637738D01*
X136900262Y-103510184D01*
X136852710Y-103480305D01*
X136747523Y-103414211D01*
X136577254Y-103354631D01*
X136577249Y-103354630D01*
X136398004Y-103334435D01*
X136397996Y-103334435D01*
X136218750Y-103354630D01*
X136218745Y-103354631D01*
X136048476Y-103414211D01*
X135895737Y-103510184D01*
X135768184Y-103637737D01*
X135672211Y-103790476D01*
X135612631Y-103960745D01*
X135612630Y-103960750D01*
X135592435Y-104139996D01*
X135592435Y-104140003D01*
X135612630Y-104319249D01*
X135612631Y-104319254D01*
X135672211Y-104489523D01*
X135768184Y-104642262D01*
X135895738Y-104769816D01*
X136048478Y-104865789D01*
X136218745Y-104925368D01*
X136305669Y-104935161D01*
X136370080Y-104962226D01*
X136379465Y-104970700D01*
X149883181Y-118474416D01*
X149916666Y-118535739D01*
X149919500Y-118562097D01*
X149919500Y-123768306D01*
X149899815Y-123835345D01*
X149866623Y-123869881D01*
X149680859Y-123999953D01*
X149519954Y-124160858D01*
X149389432Y-124347265D01*
X149389431Y-124347267D01*
X149362382Y-124405275D01*
X149316209Y-124457714D01*
X149249016Y-124476866D01*
X149182135Y-124456650D01*
X149137618Y-124405275D01*
X149110686Y-124347520D01*
X149110568Y-124347266D01*
X148980047Y-124160861D01*
X148980045Y-124160858D01*
X148819141Y-123999954D01*
X148632734Y-123869432D01*
X148632732Y-123869431D01*
X148426497Y-123773261D01*
X148426488Y-123773258D01*
X148206697Y-123714366D01*
X148206693Y-123714365D01*
X148206692Y-123714365D01*
X148206691Y-123714364D01*
X148206686Y-123714364D01*
X147980002Y-123694532D01*
X147979998Y-123694532D01*
X147753313Y-123714364D01*
X147753302Y-123714366D01*
X147533511Y-123773258D01*
X147533502Y-123773261D01*
X147327267Y-123869431D01*
X147327265Y-123869432D01*
X147140858Y-123999954D01*
X146979954Y-124160858D01*
X146962725Y-124185464D01*
X146908147Y-124229088D01*
X146838648Y-124236280D01*
X146776294Y-124204757D01*
X146740882Y-124144526D01*
X146737861Y-124127591D01*
X146734091Y-124092516D01*
X146683797Y-123957671D01*
X146683793Y-123957664D01*
X146597547Y-123842455D01*
X146597544Y-123842452D01*
X146482335Y-123756206D01*
X146482328Y-123756202D01*
X146347482Y-123705908D01*
X146347483Y-123705908D01*
X146287883Y-123699501D01*
X146287881Y-123699500D01*
X146287873Y-123699500D01*
X146287864Y-123699500D01*
X144592129Y-123699500D01*
X144592123Y-123699501D01*
X144532516Y-123705908D01*
X144397671Y-123756202D01*
X144397664Y-123756206D01*
X144282455Y-123842452D01*
X144282452Y-123842455D01*
X144196206Y-123957664D01*
X144196202Y-123957671D01*
X144145908Y-124092517D01*
X144139501Y-124152116D01*
X144139500Y-124152135D01*
X144139500Y-125847870D01*
X144139501Y-125847876D01*
X144145908Y-125907483D01*
X144196202Y-126042328D01*
X144196206Y-126042335D01*
X144282452Y-126157544D01*
X144282455Y-126157547D01*
X144397664Y-126243793D01*
X144397671Y-126243797D01*
X144532517Y-126294091D01*
X144532516Y-126294091D01*
X144539444Y-126294835D01*
X144592127Y-126300500D01*
X146287872Y-126300499D01*
X146347483Y-126294091D01*
X146482331Y-126243796D01*
X146597546Y-126157546D01*
X146683796Y-126042331D01*
X146734091Y-125907483D01*
X146737862Y-125872401D01*
X146764599Y-125807855D01*
X146821990Y-125768006D01*
X146891816Y-125765511D01*
X146951905Y-125801163D01*
X146962726Y-125814536D01*
X146979956Y-125839143D01*
X147140858Y-126000045D01*
X147140861Y-126000047D01*
X147327266Y-126130568D01*
X147533504Y-126226739D01*
X147753308Y-126285635D01*
X147915230Y-126299801D01*
X147979998Y-126305468D01*
X147980000Y-126305468D01*
X147980002Y-126305468D01*
X148036807Y-126300498D01*
X148206692Y-126285635D01*
X148426496Y-126226739D01*
X148632734Y-126130568D01*
X148819139Y-126000047D01*
X148980047Y-125839139D01*
X149110568Y-125652734D01*
X149137618Y-125594724D01*
X149183790Y-125542285D01*
X149250983Y-125523133D01*
X149317865Y-125543348D01*
X149362382Y-125594725D01*
X149389429Y-125652728D01*
X149389432Y-125652734D01*
X149519954Y-125839141D01*
X149680858Y-126000045D01*
X149680861Y-126000047D01*
X149867266Y-126130568D01*
X150073504Y-126226739D01*
X150293308Y-126285635D01*
X150455230Y-126299801D01*
X150519998Y-126305468D01*
X150520000Y-126305468D01*
X150520002Y-126305468D01*
X150576807Y-126300498D01*
X150746692Y-126285635D01*
X150966496Y-126226739D01*
X151172734Y-126130568D01*
X151359139Y-126000047D01*
X151520047Y-125839139D01*
X151650568Y-125652734D01*
X151677618Y-125594724D01*
X151723790Y-125542285D01*
X151790983Y-125523133D01*
X151857865Y-125543348D01*
X151902382Y-125594725D01*
X151929429Y-125652728D01*
X151929432Y-125652734D01*
X152059954Y-125839141D01*
X152220858Y-126000045D01*
X152220861Y-126000047D01*
X152407266Y-126130568D01*
X152613504Y-126226739D01*
X152833308Y-126285635D01*
X152995230Y-126299801D01*
X153059998Y-126305468D01*
X153060000Y-126305468D01*
X153060002Y-126305468D01*
X153116807Y-126300498D01*
X153286692Y-126285635D01*
X153506496Y-126226739D01*
X153712734Y-126130568D01*
X153899139Y-126000047D01*
X154060047Y-125839139D01*
X154190568Y-125652734D01*
X154217618Y-125594724D01*
X154263790Y-125542285D01*
X154330983Y-125523133D01*
X154397865Y-125543348D01*
X154442382Y-125594725D01*
X154469429Y-125652728D01*
X154469432Y-125652734D01*
X154599954Y-125839141D01*
X154760858Y-126000045D01*
X154760861Y-126000047D01*
X154947266Y-126130568D01*
X155153504Y-126226739D01*
X155373308Y-126285635D01*
X155535230Y-126299801D01*
X155599998Y-126305468D01*
X155600000Y-126305468D01*
X155600002Y-126305468D01*
X155656807Y-126300498D01*
X155826692Y-126285635D01*
X156046496Y-126226739D01*
X156252734Y-126130568D01*
X156439139Y-126000047D01*
X156600047Y-125839139D01*
X156730568Y-125652734D01*
X156757895Y-125594129D01*
X156804064Y-125541695D01*
X156871257Y-125522542D01*
X156938139Y-125542757D01*
X156982657Y-125594133D01*
X157009865Y-125652482D01*
X157140342Y-125838820D01*
X157301179Y-125999657D01*
X157487517Y-126130134D01*
X157693673Y-126226265D01*
X157693682Y-126226269D01*
X157889999Y-126278872D01*
X157890000Y-126278871D01*
X157890000Y-125433012D01*
X157947007Y-125465925D01*
X158074174Y-125500000D01*
X158205826Y-125500000D01*
X158332993Y-125465925D01*
X158390000Y-125433012D01*
X158390000Y-126278872D01*
X158586317Y-126226269D01*
X158586326Y-126226265D01*
X158792482Y-126130134D01*
X158978820Y-125999657D01*
X159139657Y-125838820D01*
X159270134Y-125652481D01*
X159270135Y-125652479D01*
X159297618Y-125593543D01*
X159343790Y-125541103D01*
X159410983Y-125521951D01*
X159477864Y-125542166D01*
X159522382Y-125593543D01*
X159549864Y-125652479D01*
X159549865Y-125652481D01*
X159680342Y-125838820D01*
X159841179Y-125999657D01*
X160027517Y-126130134D01*
X160233673Y-126226265D01*
X160233682Y-126226269D01*
X160429999Y-126278872D01*
X160430000Y-126278871D01*
X160430000Y-125433012D01*
X160487007Y-125465925D01*
X160614174Y-125500000D01*
X160745826Y-125500000D01*
X160872993Y-125465925D01*
X160930000Y-125433012D01*
X160930000Y-126278872D01*
X161126317Y-126226269D01*
X161126326Y-126226265D01*
X161332482Y-126130134D01*
X161518820Y-125999657D01*
X161679657Y-125838820D01*
X161810132Y-125652484D01*
X161837341Y-125594134D01*
X161883513Y-125541695D01*
X161950707Y-125522542D01*
X162017588Y-125542757D01*
X162062106Y-125594133D01*
X162089431Y-125652732D01*
X162089432Y-125652734D01*
X162219954Y-125839141D01*
X162380858Y-126000045D01*
X162380861Y-126000047D01*
X162567266Y-126130568D01*
X162773504Y-126226739D01*
X162993308Y-126285635D01*
X163155230Y-126299801D01*
X163219998Y-126305468D01*
X163220000Y-126305468D01*
X163220002Y-126305468D01*
X163276807Y-126300498D01*
X163446692Y-126285635D01*
X163666496Y-126226739D01*
X163872734Y-126130568D01*
X164059139Y-126000047D01*
X164220047Y-125839139D01*
X164350568Y-125652734D01*
X164446739Y-125446496D01*
X164505635Y-125226692D01*
X164525468Y-125000000D01*
X164525468Y-124999998D01*
X166994532Y-124999998D01*
X166994532Y-125000001D01*
X167014364Y-125226686D01*
X167014366Y-125226697D01*
X167073258Y-125446488D01*
X167073261Y-125446497D01*
X167169431Y-125652732D01*
X167169432Y-125652734D01*
X167299954Y-125839141D01*
X167460858Y-126000045D01*
X167460861Y-126000047D01*
X167647266Y-126130568D01*
X167853504Y-126226739D01*
X168073308Y-126285635D01*
X168235230Y-126299801D01*
X168299998Y-126305468D01*
X168300000Y-126305468D01*
X168300002Y-126305468D01*
X168356807Y-126300498D01*
X168526692Y-126285635D01*
X168746496Y-126226739D01*
X168952734Y-126130568D01*
X169139139Y-126000047D01*
X169300047Y-125839139D01*
X169430568Y-125652734D01*
X169457618Y-125594724D01*
X169503790Y-125542285D01*
X169570983Y-125523133D01*
X169637865Y-125543348D01*
X169682382Y-125594725D01*
X169709429Y-125652728D01*
X169709432Y-125652734D01*
X169839954Y-125839141D01*
X170000858Y-126000045D01*
X170000861Y-126000047D01*
X170187266Y-126130568D01*
X170393504Y-126226739D01*
X170613308Y-126285635D01*
X170775230Y-126299801D01*
X170839998Y-126305468D01*
X170840000Y-126305468D01*
X170840002Y-126305468D01*
X170896807Y-126300498D01*
X171066692Y-126285635D01*
X171286496Y-126226739D01*
X171492734Y-126130568D01*
X171679139Y-126000047D01*
X171840047Y-125839139D01*
X171970568Y-125652734D01*
X171997618Y-125594724D01*
X172043790Y-125542285D01*
X172110983Y-125523133D01*
X172177865Y-125543348D01*
X172222382Y-125594725D01*
X172249429Y-125652728D01*
X172249432Y-125652734D01*
X172379954Y-125839141D01*
X172540858Y-126000045D01*
X172540861Y-126000047D01*
X172727266Y-126130568D01*
X172933504Y-126226739D01*
X173153308Y-126285635D01*
X173315230Y-126299801D01*
X173379998Y-126305468D01*
X173380000Y-126305468D01*
X173380002Y-126305468D01*
X173436807Y-126300498D01*
X173606692Y-126285635D01*
X173826496Y-126226739D01*
X174032734Y-126130568D01*
X174219139Y-126000047D01*
X174380047Y-125839139D01*
X174510568Y-125652734D01*
X174537618Y-125594724D01*
X174583790Y-125542285D01*
X174650983Y-125523133D01*
X174717865Y-125543348D01*
X174762382Y-125594725D01*
X174789429Y-125652728D01*
X174789432Y-125652734D01*
X174919954Y-125839141D01*
X175080858Y-126000045D01*
X175080861Y-126000047D01*
X175267266Y-126130568D01*
X175473504Y-126226739D01*
X175693308Y-126285635D01*
X175855230Y-126299801D01*
X175919998Y-126305468D01*
X175920000Y-126305468D01*
X175920002Y-126305468D01*
X175976807Y-126300498D01*
X176146692Y-126285635D01*
X176366496Y-126226739D01*
X176572734Y-126130568D01*
X176759139Y-126000047D01*
X176920047Y-125839139D01*
X177050568Y-125652734D01*
X177077618Y-125594724D01*
X177123790Y-125542285D01*
X177190983Y-125523133D01*
X177257865Y-125543348D01*
X177302382Y-125594725D01*
X177329429Y-125652728D01*
X177329432Y-125652734D01*
X177459954Y-125839141D01*
X177620858Y-126000045D01*
X177620861Y-126000047D01*
X177807266Y-126130568D01*
X178013504Y-126226739D01*
X178233308Y-126285635D01*
X178395230Y-126299801D01*
X178459998Y-126305468D01*
X178460000Y-126305468D01*
X178460002Y-126305468D01*
X178516807Y-126300498D01*
X178686692Y-126285635D01*
X178906496Y-126226739D01*
X179112734Y-126130568D01*
X179299139Y-126000047D01*
X179460047Y-125839139D01*
X179590568Y-125652734D01*
X179617618Y-125594724D01*
X179663790Y-125542285D01*
X179730983Y-125523133D01*
X179797865Y-125543348D01*
X179842382Y-125594725D01*
X179869429Y-125652728D01*
X179869432Y-125652734D01*
X179999954Y-125839141D01*
X180160858Y-126000045D01*
X180160861Y-126000047D01*
X180347266Y-126130568D01*
X180553504Y-126226739D01*
X180773308Y-126285635D01*
X180935230Y-126299801D01*
X180999998Y-126305468D01*
X181000000Y-126305468D01*
X181000002Y-126305468D01*
X181056807Y-126300498D01*
X181226692Y-126285635D01*
X181446496Y-126226739D01*
X181652734Y-126130568D01*
X181839139Y-126000047D01*
X182000047Y-125839139D01*
X182130568Y-125652734D01*
X182226739Y-125446496D01*
X182285635Y-125226692D01*
X182305468Y-125000000D01*
X182285635Y-124773308D01*
X182226739Y-124553504D01*
X182130568Y-124347266D01*
X182000047Y-124160861D01*
X182000045Y-124160858D01*
X181839141Y-123999954D01*
X181652734Y-123869432D01*
X181652732Y-123869431D01*
X181446497Y-123773261D01*
X181446488Y-123773258D01*
X181226697Y-123714366D01*
X181226693Y-123714365D01*
X181226692Y-123714365D01*
X181226691Y-123714364D01*
X181226686Y-123714364D01*
X181000002Y-123694532D01*
X180999998Y-123694532D01*
X180773313Y-123714364D01*
X180773302Y-123714366D01*
X180553511Y-123773258D01*
X180553502Y-123773261D01*
X180347267Y-123869431D01*
X180347265Y-123869432D01*
X180160858Y-123999954D01*
X179999954Y-124160858D01*
X179869432Y-124347265D01*
X179869431Y-124347267D01*
X179842382Y-124405275D01*
X179796209Y-124457714D01*
X179729016Y-124476866D01*
X179662135Y-124456650D01*
X179617618Y-124405275D01*
X179590686Y-124347520D01*
X179590568Y-124347266D01*
X179460047Y-124160861D01*
X179460045Y-124160858D01*
X179299141Y-123999954D01*
X179112734Y-123869432D01*
X179112732Y-123869431D01*
X178906497Y-123773261D01*
X178906488Y-123773258D01*
X178686697Y-123714366D01*
X178686693Y-123714365D01*
X178686692Y-123714365D01*
X178686691Y-123714364D01*
X178686686Y-123714364D01*
X178460002Y-123694532D01*
X178459998Y-123694532D01*
X178233313Y-123714364D01*
X178233302Y-123714366D01*
X178013511Y-123773258D01*
X178013502Y-123773261D01*
X177807267Y-123869431D01*
X177807265Y-123869432D01*
X177620858Y-123999954D01*
X177459954Y-124160858D01*
X177329432Y-124347265D01*
X177329431Y-124347267D01*
X177302382Y-124405275D01*
X177256209Y-124457714D01*
X177189016Y-124476866D01*
X177122135Y-124456650D01*
X177077618Y-124405275D01*
X177050686Y-124347520D01*
X177050568Y-124347266D01*
X176920047Y-124160861D01*
X176920045Y-124160858D01*
X176759141Y-123999954D01*
X176572734Y-123869432D01*
X176572732Y-123869431D01*
X176366497Y-123773261D01*
X176366488Y-123773258D01*
X176146697Y-123714366D01*
X176146693Y-123714365D01*
X176146692Y-123714365D01*
X176146691Y-123714364D01*
X176146686Y-123714364D01*
X175920002Y-123694532D01*
X175919998Y-123694532D01*
X175693313Y-123714364D01*
X175693302Y-123714366D01*
X175473511Y-123773258D01*
X175473502Y-123773261D01*
X175267267Y-123869431D01*
X175267265Y-123869432D01*
X175080858Y-123999954D01*
X174919954Y-124160858D01*
X174789432Y-124347265D01*
X174789431Y-124347267D01*
X174762382Y-124405275D01*
X174716209Y-124457714D01*
X174649016Y-124476866D01*
X174582135Y-124456650D01*
X174537618Y-124405275D01*
X174510686Y-124347520D01*
X174510568Y-124347266D01*
X174380047Y-124160861D01*
X174380045Y-124160858D01*
X174219141Y-123999954D01*
X174032734Y-123869432D01*
X174032732Y-123869431D01*
X173826497Y-123773261D01*
X173826488Y-123773258D01*
X173606697Y-123714366D01*
X173606693Y-123714365D01*
X173606692Y-123714365D01*
X173606691Y-123714364D01*
X173606686Y-123714364D01*
X173380002Y-123694532D01*
X173379998Y-123694532D01*
X173153313Y-123714364D01*
X173153302Y-123714366D01*
X172933511Y-123773258D01*
X172933502Y-123773261D01*
X172727267Y-123869431D01*
X172727265Y-123869432D01*
X172540858Y-123999954D01*
X172379954Y-124160858D01*
X172249432Y-124347265D01*
X172249431Y-124347267D01*
X172222382Y-124405275D01*
X172176209Y-124457714D01*
X172109016Y-124476866D01*
X172042135Y-124456650D01*
X171997618Y-124405275D01*
X171970686Y-124347520D01*
X171970568Y-124347266D01*
X171840047Y-124160861D01*
X171840045Y-124160858D01*
X171679141Y-123999954D01*
X171492734Y-123869432D01*
X171492732Y-123869431D01*
X171286497Y-123773261D01*
X171286488Y-123773258D01*
X171066697Y-123714366D01*
X171066693Y-123714365D01*
X171066692Y-123714365D01*
X171066691Y-123714364D01*
X171066686Y-123714364D01*
X170840002Y-123694532D01*
X170839998Y-123694532D01*
X170613313Y-123714364D01*
X170613302Y-123714366D01*
X170393511Y-123773258D01*
X170393502Y-123773261D01*
X170187267Y-123869431D01*
X170187265Y-123869432D01*
X170000858Y-123999954D01*
X169839954Y-124160858D01*
X169709432Y-124347265D01*
X169709431Y-124347267D01*
X169682382Y-124405275D01*
X169636209Y-124457714D01*
X169569016Y-124476866D01*
X169502135Y-124456650D01*
X169457618Y-124405275D01*
X169430686Y-124347520D01*
X169430568Y-124347266D01*
X169300047Y-124160861D01*
X169300045Y-124160858D01*
X169139141Y-123999954D01*
X168952734Y-123869432D01*
X168952732Y-123869431D01*
X168746497Y-123773261D01*
X168746488Y-123773258D01*
X168526697Y-123714366D01*
X168526693Y-123714365D01*
X168526692Y-123714365D01*
X168526691Y-123714364D01*
X168526686Y-123714364D01*
X168300002Y-123694532D01*
X168299998Y-123694532D01*
X168073313Y-123714364D01*
X168073302Y-123714366D01*
X167853511Y-123773258D01*
X167853502Y-123773261D01*
X167647267Y-123869431D01*
X167647265Y-123869432D01*
X167460858Y-123999954D01*
X167299954Y-124160858D01*
X167169432Y-124347265D01*
X167169431Y-124347267D01*
X167073261Y-124553502D01*
X167073258Y-124553511D01*
X167014366Y-124773302D01*
X167014364Y-124773313D01*
X166994532Y-124999998D01*
X164525468Y-124999998D01*
X164505635Y-124773308D01*
X164446739Y-124553504D01*
X164350568Y-124347266D01*
X164220047Y-124160861D01*
X164220045Y-124160858D01*
X164059141Y-123999954D01*
X163872734Y-123869432D01*
X163872732Y-123869431D01*
X163666497Y-123773261D01*
X163666488Y-123773258D01*
X163446697Y-123714366D01*
X163446693Y-123714365D01*
X163446692Y-123714365D01*
X163446691Y-123714364D01*
X163446686Y-123714364D01*
X163220002Y-123694532D01*
X163219998Y-123694532D01*
X162993313Y-123714364D01*
X162993302Y-123714366D01*
X162773511Y-123773258D01*
X162773502Y-123773261D01*
X162567267Y-123869431D01*
X162567265Y-123869432D01*
X162380858Y-123999954D01*
X162219954Y-124160858D01*
X162112675Y-124314071D01*
X162089432Y-124347266D01*
X162089315Y-124347518D01*
X162062106Y-124405867D01*
X162015933Y-124458306D01*
X161948739Y-124477457D01*
X161881858Y-124457241D01*
X161837342Y-124405865D01*
X161810135Y-124347520D01*
X161810134Y-124347518D01*
X161679657Y-124161179D01*
X161518820Y-124000342D01*
X161332482Y-123869865D01*
X161126328Y-123773734D01*
X160930000Y-123721127D01*
X160930000Y-124566988D01*
X160872993Y-124534075D01*
X160745826Y-124500000D01*
X160614174Y-124500000D01*
X160487007Y-124534075D01*
X160430000Y-124566988D01*
X160430000Y-123721127D01*
X160233671Y-123773734D01*
X160027517Y-123869865D01*
X159841179Y-124000342D01*
X159680342Y-124161179D01*
X159549865Y-124347517D01*
X159522382Y-124406457D01*
X159476210Y-124458896D01*
X159409016Y-124478048D01*
X159342135Y-124457832D01*
X159297618Y-124406457D01*
X159270134Y-124347517D01*
X159139657Y-124161179D01*
X158978820Y-124000342D01*
X158792482Y-123869865D01*
X158586328Y-123773734D01*
X158390000Y-123721127D01*
X158390000Y-124566988D01*
X158332993Y-124534075D01*
X158205826Y-124500000D01*
X158074174Y-124500000D01*
X157947007Y-124534075D01*
X157890000Y-124566988D01*
X157890000Y-123721127D01*
X157693671Y-123773734D01*
X157487517Y-123869865D01*
X157301179Y-124000342D01*
X157140342Y-124161179D01*
X157009867Y-124347515D01*
X156982657Y-124405867D01*
X156936484Y-124458306D01*
X156869290Y-124477457D01*
X156802409Y-124457241D01*
X156757893Y-124405865D01*
X156730685Y-124347518D01*
X156730568Y-124347266D01*
X156600047Y-124160861D01*
X156600045Y-124160858D01*
X156536819Y-124097632D01*
X156503334Y-124036309D01*
X156500500Y-124009951D01*
X156500500Y-120274711D01*
X180267500Y-120274711D01*
X180267500Y-120517288D01*
X180299161Y-120757785D01*
X180361947Y-120992104D01*
X180426036Y-121146828D01*
X180454776Y-121216212D01*
X180576064Y-121426289D01*
X180576066Y-121426292D01*
X180576067Y-121426293D01*
X180723733Y-121618736D01*
X180723739Y-121618743D01*
X180895256Y-121790260D01*
X180895263Y-121790266D01*
X180902396Y-121795739D01*
X181087711Y-121937936D01*
X181297788Y-122059224D01*
X181521900Y-122152054D01*
X181756211Y-122214838D01*
X181936586Y-122238584D01*
X181996711Y-122246500D01*
X181996712Y-122246500D01*
X182239289Y-122246500D01*
X182287388Y-122240167D01*
X182479789Y-122214838D01*
X182714100Y-122152054D01*
X182938212Y-122059224D01*
X183148289Y-121937936D01*
X183340738Y-121790265D01*
X183512265Y-121618738D01*
X183659936Y-121426289D01*
X183781224Y-121216212D01*
X183874054Y-120992100D01*
X183936838Y-120757789D01*
X183968500Y-120517288D01*
X183968500Y-120274712D01*
X183936838Y-120034211D01*
X183874054Y-119799900D01*
X183781224Y-119575788D01*
X183659936Y-119365711D01*
X183512265Y-119173262D01*
X183512260Y-119173256D01*
X183340743Y-119001739D01*
X183340736Y-119001733D01*
X183148293Y-118854067D01*
X183148292Y-118854066D01*
X183148289Y-118854064D01*
X182938212Y-118732776D01*
X182938205Y-118732773D01*
X182714104Y-118639947D01*
X182479785Y-118577161D01*
X182239289Y-118545500D01*
X182239288Y-118545500D01*
X181996712Y-118545500D01*
X181996711Y-118545500D01*
X181756214Y-118577161D01*
X181521895Y-118639947D01*
X181297794Y-118732773D01*
X181297785Y-118732777D01*
X181196915Y-118791015D01*
X181090107Y-118852681D01*
X181087706Y-118854067D01*
X180895263Y-119001733D01*
X180895256Y-119001739D01*
X180723739Y-119173256D01*
X180723733Y-119173263D01*
X180576067Y-119365706D01*
X180454777Y-119575785D01*
X180454773Y-119575794D01*
X180361947Y-119799895D01*
X180299161Y-120034214D01*
X180267500Y-120274711D01*
X156500500Y-120274711D01*
X156500500Y-118427307D01*
X156500499Y-118427303D01*
X156494611Y-118397703D01*
X156465895Y-118253334D01*
X156428921Y-118164072D01*
X156418571Y-118139085D01*
X156398011Y-118089449D01*
X156321683Y-117975218D01*
X156321681Y-117975215D01*
X156299466Y-117941966D01*
X151899499Y-113541999D01*
X154677687Y-113541999D01*
X154677688Y-113542000D01*
X155863999Y-113542000D01*
X155838979Y-113602402D01*
X155814000Y-113727981D01*
X155814000Y-113856019D01*
X155838979Y-113981598D01*
X155863999Y-114042000D01*
X154677687Y-114042000D01*
X154679112Y-114061022D01*
X154679114Y-114061031D01*
X154739142Y-114324033D01*
X154739148Y-114324052D01*
X154837709Y-114575181D01*
X154837708Y-114575181D01*
X154972600Y-114808818D01*
X155140810Y-115019748D01*
X155338571Y-115203242D01*
X155561483Y-115355220D01*
X155561485Y-115355221D01*
X155804539Y-115472269D01*
X155804537Y-115472269D01*
X156062337Y-115551790D01*
X156062343Y-115551792D01*
X156213999Y-115574650D01*
X156214000Y-115574649D01*
X156214000Y-114392001D01*
X156274402Y-114417021D01*
X156399981Y-114442000D01*
X156528019Y-114442000D01*
X156653598Y-114417021D01*
X156714000Y-114392001D01*
X156714000Y-115574650D01*
X156865656Y-115551792D01*
X156865662Y-115551790D01*
X157123461Y-115472269D01*
X157366516Y-115355221D01*
X157366517Y-115355220D01*
X157589428Y-115203242D01*
X157787189Y-115019748D01*
X157955399Y-114808818D01*
X158090290Y-114575181D01*
X158188851Y-114324052D01*
X158188857Y-114324033D01*
X158248885Y-114061031D01*
X158248887Y-114061022D01*
X158250312Y-114042000D01*
X157064001Y-114042000D01*
X157089021Y-113981598D01*
X157114000Y-113856019D01*
X157114000Y-113727981D01*
X157089021Y-113602402D01*
X157064001Y-113542000D01*
X158250312Y-113542000D01*
X158250312Y-113541999D01*
X158248887Y-113522977D01*
X158248885Y-113522968D01*
X158188857Y-113259966D01*
X158188851Y-113259947D01*
X158090290Y-113008818D01*
X158090291Y-113008818D01*
X157955399Y-112775181D01*
X157787189Y-112564251D01*
X157657734Y-112444135D01*
X169903500Y-112444135D01*
X169903500Y-115139870D01*
X169903501Y-115139876D01*
X169909908Y-115199483D01*
X169960202Y-115334328D01*
X169960206Y-115334335D01*
X170046452Y-115449544D01*
X170046455Y-115449547D01*
X170161664Y-115535793D01*
X170161671Y-115535797D01*
X170296517Y-115586091D01*
X170296516Y-115586091D01*
X170303444Y-115586835D01*
X170356127Y-115592500D01*
X173051872Y-115592499D01*
X173111483Y-115586091D01*
X173246331Y-115535796D01*
X173361546Y-115449546D01*
X173447796Y-115334331D01*
X173498091Y-115199483D01*
X173504500Y-115139873D01*
X173504499Y-112444128D01*
X173498091Y-112384517D01*
X173478066Y-112330828D01*
X173447797Y-112249671D01*
X173447793Y-112249664D01*
X173361547Y-112134455D01*
X173361544Y-112134452D01*
X173246335Y-112048206D01*
X173246328Y-112048202D01*
X173111482Y-111997908D01*
X173111483Y-111997908D01*
X173051883Y-111991501D01*
X173051881Y-111991500D01*
X173051873Y-111991500D01*
X173051864Y-111991500D01*
X170356129Y-111991500D01*
X170356123Y-111991501D01*
X170296516Y-111997908D01*
X170161671Y-112048202D01*
X170161664Y-112048206D01*
X170046455Y-112134452D01*
X170046452Y-112134455D01*
X169960206Y-112249664D01*
X169960202Y-112249671D01*
X169909908Y-112384517D01*
X169903501Y-112444116D01*
X169903501Y-112444123D01*
X169903500Y-112444135D01*
X157657734Y-112444135D01*
X157589428Y-112380757D01*
X157366517Y-112228779D01*
X157366516Y-112228778D01*
X157123460Y-112111730D01*
X157123462Y-112111730D01*
X156865665Y-112032210D01*
X156714000Y-112009349D01*
X156714000Y-113191998D01*
X156653598Y-113166979D01*
X156528019Y-113142000D01*
X156399981Y-113142000D01*
X156274402Y-113166979D01*
X156214000Y-113191998D01*
X156214000Y-112009349D01*
X156062334Y-112032210D01*
X155804538Y-112111730D01*
X155561485Y-112228778D01*
X155561483Y-112228779D01*
X155338571Y-112380757D01*
X155140810Y-112564251D01*
X154972600Y-112775181D01*
X154837709Y-113008818D01*
X154739148Y-113259947D01*
X154739142Y-113259966D01*
X154679114Y-113522968D01*
X154679112Y-113522977D01*
X154677687Y-113541999D01*
X151899499Y-113541999D01*
X146565499Y-108207999D01*
X155640728Y-108207999D01*
X155640729Y-108208000D01*
X156735252Y-108208000D01*
X156713482Y-108245708D01*
X156676000Y-108385591D01*
X156676000Y-108530409D01*
X156713482Y-108670292D01*
X156735252Y-108708000D01*
X155640728Y-108708000D01*
X155640811Y-108709067D01*
X155699603Y-108953956D01*
X155795980Y-109186631D01*
X155927568Y-109401362D01*
X155927571Y-109401367D01*
X156091130Y-109592869D01*
X156282632Y-109756428D01*
X156282637Y-109756431D01*
X156497368Y-109888019D01*
X156730043Y-109984396D01*
X156974932Y-110043188D01*
X156975999Y-110043271D01*
X156976000Y-110043271D01*
X156976000Y-108948747D01*
X157013708Y-108970518D01*
X157153591Y-109008000D01*
X157298409Y-109008000D01*
X157438292Y-108970518D01*
X157476000Y-108948747D01*
X157476000Y-110043271D01*
X157477067Y-110043188D01*
X157721956Y-109984396D01*
X157954631Y-109888019D01*
X158169362Y-109756431D01*
X158169367Y-109756428D01*
X158360869Y-109592869D01*
X158524428Y-109401367D01*
X158524431Y-109401362D01*
X158656019Y-109186631D01*
X158752396Y-108953956D01*
X158811188Y-108709067D01*
X158811272Y-108708000D01*
X157716748Y-108708000D01*
X157738518Y-108670292D01*
X157776000Y-108530409D01*
X157776000Y-108385591D01*
X157738518Y-108245708D01*
X157716748Y-108208000D01*
X158811271Y-108208000D01*
X158811271Y-108207999D01*
X160212728Y-108207999D01*
X160212729Y-108208000D01*
X161307252Y-108208000D01*
X161285482Y-108245708D01*
X161248000Y-108385591D01*
X161248000Y-108530409D01*
X161285482Y-108670292D01*
X161307252Y-108708000D01*
X160212728Y-108708000D01*
X160212811Y-108709067D01*
X160271603Y-108953956D01*
X160367980Y-109186631D01*
X160499568Y-109401362D01*
X160499571Y-109401367D01*
X160663130Y-109592869D01*
X160854632Y-109756428D01*
X160854637Y-109756431D01*
X161069368Y-109888019D01*
X161302043Y-109984396D01*
X161546932Y-110043188D01*
X161548000Y-110043271D01*
X161548000Y-108948747D01*
X161585708Y-108970518D01*
X161725591Y-109008000D01*
X161870409Y-109008000D01*
X162010292Y-108970518D01*
X162048000Y-108948747D01*
X162048000Y-110043271D01*
X162049067Y-110043188D01*
X162293956Y-109984396D01*
X162526631Y-109888019D01*
X162741362Y-109756431D01*
X162741367Y-109756428D01*
X162932869Y-109592869D01*
X163096428Y-109401367D01*
X163096431Y-109401362D01*
X163228019Y-109186631D01*
X163324396Y-108953956D01*
X163383188Y-108709067D01*
X163383272Y-108708000D01*
X162288748Y-108708000D01*
X162310518Y-108670292D01*
X162348000Y-108530409D01*
X162348000Y-108385591D01*
X162310518Y-108245708D01*
X162288748Y-108208000D01*
X163383271Y-108208000D01*
X163383271Y-108207999D01*
X163383188Y-108206932D01*
X163324396Y-107962043D01*
X163228019Y-107729368D01*
X163096431Y-107514637D01*
X163096428Y-107514632D01*
X162932869Y-107323130D01*
X162917654Y-107310135D01*
X164769500Y-107310135D01*
X164769500Y-109605870D01*
X164769501Y-109605876D01*
X164775908Y-109665483D01*
X164826202Y-109800328D01*
X164826206Y-109800335D01*
X164912452Y-109915544D01*
X164912455Y-109915547D01*
X165027664Y-110001793D01*
X165027671Y-110001797D01*
X165162517Y-110052091D01*
X165162516Y-110052091D01*
X165169444Y-110052835D01*
X165222127Y-110058500D01*
X167517872Y-110058499D01*
X167577483Y-110052091D01*
X167712331Y-110001796D01*
X167827546Y-109915546D01*
X167913796Y-109800331D01*
X167964091Y-109665483D01*
X167970500Y-109605873D01*
X167970499Y-107310135D01*
X169341500Y-107310135D01*
X169341500Y-109605870D01*
X169341501Y-109605876D01*
X169347908Y-109665483D01*
X169398202Y-109800328D01*
X169398206Y-109800335D01*
X169484452Y-109915544D01*
X169484455Y-109915547D01*
X169599664Y-110001793D01*
X169599671Y-110001797D01*
X169734517Y-110052091D01*
X169734516Y-110052091D01*
X169741444Y-110052835D01*
X169794127Y-110058500D01*
X172089872Y-110058499D01*
X172149483Y-110052091D01*
X172284331Y-110001796D01*
X172399546Y-109915546D01*
X172485796Y-109800331D01*
X172536091Y-109665483D01*
X172542500Y-109605873D01*
X172542499Y-107310128D01*
X172536091Y-107250517D01*
X172533629Y-107243917D01*
X172485797Y-107115671D01*
X172485793Y-107115664D01*
X172399547Y-107000455D01*
X172399544Y-107000452D01*
X172284335Y-106914206D01*
X172284328Y-106914202D01*
X172149482Y-106863908D01*
X172149483Y-106863908D01*
X172089883Y-106857501D01*
X172089881Y-106857500D01*
X172089873Y-106857500D01*
X172089864Y-106857500D01*
X169794129Y-106857500D01*
X169794123Y-106857501D01*
X169734516Y-106863908D01*
X169599671Y-106914202D01*
X169599664Y-106914206D01*
X169484455Y-107000452D01*
X169484452Y-107000455D01*
X169398206Y-107115664D01*
X169398202Y-107115671D01*
X169347908Y-107250517D01*
X169342581Y-107300071D01*
X169341501Y-107310123D01*
X169341500Y-107310135D01*
X167970499Y-107310135D01*
X167970499Y-107310128D01*
X167964091Y-107250517D01*
X167961629Y-107243917D01*
X167913797Y-107115671D01*
X167913793Y-107115664D01*
X167827547Y-107000455D01*
X167827544Y-107000452D01*
X167712335Y-106914206D01*
X167712328Y-106914202D01*
X167577482Y-106863908D01*
X167577483Y-106863908D01*
X167517883Y-106857501D01*
X167517881Y-106857500D01*
X167517873Y-106857500D01*
X167517864Y-106857500D01*
X165222129Y-106857500D01*
X165222123Y-106857501D01*
X165162516Y-106863908D01*
X165027671Y-106914202D01*
X165027664Y-106914206D01*
X164912455Y-107000452D01*
X164912452Y-107000455D01*
X164826206Y-107115664D01*
X164826202Y-107115671D01*
X164775908Y-107250517D01*
X164770581Y-107300071D01*
X164769501Y-107310123D01*
X164769500Y-107310135D01*
X162917654Y-107310135D01*
X162741367Y-107159571D01*
X162741362Y-107159568D01*
X162526631Y-107027980D01*
X162293956Y-106931603D01*
X162049064Y-106872811D01*
X162048000Y-106872726D01*
X162048000Y-107967252D01*
X162010292Y-107945482D01*
X161870409Y-107908000D01*
X161725591Y-107908000D01*
X161585708Y-107945482D01*
X161548000Y-107967252D01*
X161548000Y-106872726D01*
X161546935Y-106872811D01*
X161302043Y-106931603D01*
X161069368Y-107027980D01*
X160854637Y-107159568D01*
X160854632Y-107159571D01*
X160663130Y-107323130D01*
X160499571Y-107514632D01*
X160499568Y-107514637D01*
X160367980Y-107729368D01*
X160271603Y-107962043D01*
X160212811Y-108206932D01*
X160212728Y-108207999D01*
X158811271Y-108207999D01*
X158811188Y-108206932D01*
X158752396Y-107962043D01*
X158656019Y-107729368D01*
X158524431Y-107514637D01*
X158524428Y-107514632D01*
X158360869Y-107323130D01*
X158169367Y-107159571D01*
X158169362Y-107159568D01*
X157954631Y-107027980D01*
X157721956Y-106931603D01*
X157477064Y-106872811D01*
X157476000Y-106872726D01*
X157476000Y-107967252D01*
X157438292Y-107945482D01*
X157298409Y-107908000D01*
X157153591Y-107908000D01*
X157013708Y-107945482D01*
X156976000Y-107967252D01*
X156976000Y-106872726D01*
X156974935Y-106872811D01*
X156730043Y-106931603D01*
X156497368Y-107027980D01*
X156282637Y-107159568D01*
X156282632Y-107159571D01*
X156091130Y-107323130D01*
X155927571Y-107514632D01*
X155927568Y-107514637D01*
X155795980Y-107729368D01*
X155699603Y-107962043D01*
X155640811Y-108206932D01*
X155640728Y-108207999D01*
X146565499Y-108207999D01*
X139961319Y-101603819D01*
X139927834Y-101542496D01*
X139925000Y-101516138D01*
X139925000Y-97150135D01*
X155625500Y-97150135D01*
X155625500Y-99445870D01*
X155625501Y-99445876D01*
X155631908Y-99505483D01*
X155682202Y-99640328D01*
X155682206Y-99640335D01*
X155768452Y-99755544D01*
X155768455Y-99755547D01*
X155883664Y-99841793D01*
X155883671Y-99841797D01*
X156018517Y-99892091D01*
X156018516Y-99892091D01*
X156025444Y-99892835D01*
X156078127Y-99898500D01*
X158373872Y-99898499D01*
X158433483Y-99892091D01*
X158568331Y-99841796D01*
X158683546Y-99755546D01*
X158769796Y-99640331D01*
X158820091Y-99505483D01*
X158826500Y-99445873D01*
X158826499Y-97150135D01*
X160197500Y-97150135D01*
X160197500Y-99445870D01*
X160197501Y-99445876D01*
X160203908Y-99505483D01*
X160254202Y-99640328D01*
X160254206Y-99640335D01*
X160340452Y-99755544D01*
X160340455Y-99755547D01*
X160455664Y-99841793D01*
X160455671Y-99841797D01*
X160590517Y-99892091D01*
X160590516Y-99892091D01*
X160597444Y-99892835D01*
X160650127Y-99898500D01*
X162945872Y-99898499D01*
X163005483Y-99892091D01*
X163140331Y-99841796D01*
X163255546Y-99755546D01*
X163341796Y-99640331D01*
X163392091Y-99505483D01*
X163398500Y-99445873D01*
X163398499Y-98298000D01*
X164764551Y-98298000D01*
X164784317Y-98549151D01*
X164843126Y-98794110D01*
X164939533Y-99026859D01*
X165071160Y-99241653D01*
X165071161Y-99241656D01*
X165107390Y-99284074D01*
X165234776Y-99433224D01*
X165357773Y-99538273D01*
X165426343Y-99596838D01*
X165426346Y-99596839D01*
X165641140Y-99728466D01*
X165747842Y-99772663D01*
X165873889Y-99824873D01*
X166118852Y-99883683D01*
X166370000Y-99903449D01*
X166621148Y-99883683D01*
X166866111Y-99824873D01*
X167098859Y-99728466D01*
X167313659Y-99596836D01*
X167505224Y-99433224D01*
X167668836Y-99241659D01*
X167800466Y-99026859D01*
X167896873Y-98794111D01*
X167955683Y-98549148D01*
X167975449Y-98298000D01*
X169336551Y-98298000D01*
X169356317Y-98549151D01*
X169415126Y-98794110D01*
X169511533Y-99026859D01*
X169643160Y-99241653D01*
X169643161Y-99241656D01*
X169679390Y-99284074D01*
X169806776Y-99433224D01*
X169929773Y-99538273D01*
X169998343Y-99596838D01*
X169998346Y-99596839D01*
X170213140Y-99728466D01*
X170319842Y-99772663D01*
X170445889Y-99824873D01*
X170690852Y-99883683D01*
X170942000Y-99903449D01*
X171193148Y-99883683D01*
X171438111Y-99824873D01*
X171670859Y-99728466D01*
X171885659Y-99596836D01*
X172077224Y-99433224D01*
X172240836Y-99241659D01*
X172372466Y-99026859D01*
X172468873Y-98794111D01*
X172527683Y-98549148D01*
X172547449Y-98298000D01*
X172527683Y-98046852D01*
X172496508Y-97916996D01*
X173057435Y-97916996D01*
X173057435Y-97917003D01*
X173077630Y-98096249D01*
X173077631Y-98096254D01*
X173105542Y-98176017D01*
X173112500Y-98216972D01*
X173112500Y-100276918D01*
X173112500Y-100276920D01*
X173112499Y-100276920D01*
X173141340Y-100421907D01*
X173141343Y-100421917D01*
X173197912Y-100558488D01*
X173197921Y-100558504D01*
X173214222Y-100582899D01*
X173214223Y-100582903D01*
X173214225Y-100582903D01*
X173276998Y-100676852D01*
X173280051Y-100681420D01*
X173280052Y-100681421D01*
X179553181Y-106954548D01*
X179586666Y-107015871D01*
X179589500Y-107042229D01*
X179589500Y-107396028D01*
X179582542Y-107436982D01*
X179554631Y-107516747D01*
X179534435Y-107695996D01*
X179534435Y-107696003D01*
X179554630Y-107875249D01*
X179554631Y-107875254D01*
X179614211Y-108045523D01*
X179661192Y-108120292D01*
X179710184Y-108198262D01*
X179837738Y-108325816D01*
X179959790Y-108402506D01*
X180006081Y-108454841D01*
X180016729Y-108523894D01*
X179988354Y-108587743D01*
X179929965Y-108626115D01*
X179893818Y-108631500D01*
X179442129Y-108631500D01*
X179442123Y-108631501D01*
X179382516Y-108637908D01*
X179247671Y-108688202D01*
X179247664Y-108688206D01*
X179132455Y-108774452D01*
X179132452Y-108774455D01*
X179046206Y-108889664D01*
X179046202Y-108889671D01*
X178995908Y-109024517D01*
X178990896Y-109071139D01*
X178989501Y-109084123D01*
X178989500Y-109084135D01*
X178989500Y-110879870D01*
X178989501Y-110879876D01*
X178995908Y-110939483D01*
X179046202Y-111074328D01*
X179046206Y-111074335D01*
X179132452Y-111189544D01*
X179132455Y-111189547D01*
X179247664Y-111275793D01*
X179247671Y-111275797D01*
X179379081Y-111324810D01*
X179435015Y-111366681D01*
X179459432Y-111432145D01*
X179444580Y-111500418D01*
X179423430Y-111528673D01*
X179301503Y-111650600D01*
X179165965Y-111844169D01*
X179165964Y-111844171D01*
X179066098Y-112058335D01*
X179066094Y-112058344D01*
X179004938Y-112286586D01*
X179004936Y-112286596D01*
X178984341Y-112521999D01*
X178984341Y-112522000D01*
X179004936Y-112757403D01*
X179004938Y-112757413D01*
X179066094Y-112985655D01*
X179066096Y-112985659D01*
X179066097Y-112985663D01*
X179138998Y-113142000D01*
X179165965Y-113199830D01*
X179165967Y-113199834D01*
X179301501Y-113393395D01*
X179301506Y-113393402D01*
X179468597Y-113560493D01*
X179468603Y-113560498D01*
X179654158Y-113690425D01*
X179697783Y-113745002D01*
X179704977Y-113814500D01*
X179673454Y-113876855D01*
X179654158Y-113893575D01*
X179468597Y-114023505D01*
X179301505Y-114190597D01*
X179165965Y-114384169D01*
X179165964Y-114384171D01*
X179066098Y-114598335D01*
X179066094Y-114598344D01*
X179004938Y-114826586D01*
X179004936Y-114826596D01*
X178984341Y-115061999D01*
X178984341Y-115062000D01*
X179004936Y-115297403D01*
X179004938Y-115297413D01*
X179066094Y-115525655D01*
X179066096Y-115525659D01*
X179066097Y-115525663D01*
X179097264Y-115592500D01*
X179165965Y-115739830D01*
X179165967Y-115739834D01*
X179266564Y-115883500D01*
X179301505Y-115933401D01*
X179468599Y-116100495D01*
X179549866Y-116157399D01*
X179662165Y-116236032D01*
X179662167Y-116236033D01*
X179662170Y-116236035D01*
X179876337Y-116335903D01*
X180104592Y-116397063D01*
X180292918Y-116413539D01*
X180339999Y-116417659D01*
X180340000Y-116417659D01*
X180340001Y-116417659D01*
X180379234Y-116414226D01*
X180575408Y-116397063D01*
X180803663Y-116335903D01*
X181017830Y-116236035D01*
X181211401Y-116100495D01*
X181378495Y-115933401D01*
X181514035Y-115739830D01*
X181613903Y-115525663D01*
X181675063Y-115297408D01*
X181695659Y-115062000D01*
X181675063Y-114826592D01*
X181613903Y-114598337D01*
X181514035Y-114384171D01*
X181502728Y-114368022D01*
X181378494Y-114190597D01*
X181211402Y-114023506D01*
X181211396Y-114023501D01*
X181025842Y-113893575D01*
X180982217Y-113838998D01*
X180975023Y-113769500D01*
X181006546Y-113707145D01*
X181025842Y-113690425D01*
X181077005Y-113654600D01*
X181211401Y-113560495D01*
X181378495Y-113393401D01*
X181514035Y-113199830D01*
X181613903Y-112985663D01*
X181675063Y-112757408D01*
X181695659Y-112522000D01*
X181694053Y-112503649D01*
X181691539Y-112474918D01*
X181675063Y-112286592D01*
X181618270Y-112074634D01*
X181613905Y-112058344D01*
X181613904Y-112058343D01*
X181613903Y-112058337D01*
X181514035Y-111844171D01*
X181415943Y-111704081D01*
X181378496Y-111650600D01*
X181342978Y-111615082D01*
X181256567Y-111528671D01*
X181223084Y-111467351D01*
X181228068Y-111397659D01*
X181269939Y-111341725D01*
X181300915Y-111324810D01*
X181432331Y-111275796D01*
X181547546Y-111189546D01*
X181633796Y-111074331D01*
X181684091Y-110939483D01*
X181690500Y-110879873D01*
X181690499Y-109084128D01*
X181684091Y-109024517D01*
X181657773Y-108953956D01*
X181633797Y-108889671D01*
X181633793Y-108889664D01*
X181547547Y-108774455D01*
X181547544Y-108774452D01*
X181432335Y-108688206D01*
X181432328Y-108688202D01*
X181297482Y-108637908D01*
X181297483Y-108637908D01*
X181237883Y-108631501D01*
X181237881Y-108631500D01*
X181237873Y-108631500D01*
X181237865Y-108631500D01*
X180786182Y-108631500D01*
X180719143Y-108611815D01*
X180673388Y-108559011D01*
X180663444Y-108489853D01*
X180692469Y-108426297D01*
X180720208Y-108402507D01*
X180842262Y-108325816D01*
X180969816Y-108198262D01*
X181065789Y-108045522D01*
X181125368Y-107875255D01*
X181139473Y-107750071D01*
X181145565Y-107696003D01*
X181145565Y-107695996D01*
X181125368Y-107516747D01*
X181125368Y-107516745D01*
X181097458Y-107436982D01*
X181090500Y-107396028D01*
X181090500Y-106606079D01*
X181061659Y-106461092D01*
X181061658Y-106461091D01*
X181061658Y-106461087D01*
X181034631Y-106395840D01*
X181027163Y-106326371D01*
X181058438Y-106263892D01*
X181118527Y-106228240D01*
X181168587Y-106225915D01*
X181235417Y-106236500D01*
X181235419Y-106236500D01*
X181460582Y-106236500D01*
X181460583Y-106236500D01*
X181682976Y-106201276D01*
X181897121Y-106131696D01*
X182097745Y-106029473D01*
X182279908Y-105897124D01*
X182439124Y-105737908D01*
X182571473Y-105555745D01*
X182673696Y-105355121D01*
X182743276Y-105140976D01*
X182778500Y-104918583D01*
X182778500Y-104693417D01*
X182743276Y-104471024D01*
X182673696Y-104256879D01*
X182673694Y-104256876D01*
X182673694Y-104256874D01*
X182589066Y-104090784D01*
X182571473Y-104056255D01*
X182439124Y-103874092D01*
X182279908Y-103714876D01*
X182097745Y-103582527D01*
X181897125Y-103480305D01*
X181682976Y-103410723D01*
X181490989Y-103380316D01*
X181460583Y-103375500D01*
X181235417Y-103375500D01*
X181208667Y-103379736D01*
X181013023Y-103410723D01*
X180798874Y-103480305D01*
X180598254Y-103582527D01*
X180416089Y-103714878D01*
X180256878Y-103874089D01*
X180124527Y-104056254D01*
X180022305Y-104256874D01*
X179952723Y-104471023D01*
X179917500Y-104693417D01*
X179917500Y-104896770D01*
X179897815Y-104963809D01*
X179845011Y-105009564D01*
X179775853Y-105019508D01*
X179712297Y-104990483D01*
X179705819Y-104984451D01*
X176473549Y-101752181D01*
X176440064Y-101690858D01*
X176445048Y-101621166D01*
X176486920Y-101565233D01*
X176552384Y-101540816D01*
X176561230Y-101540500D01*
X176619611Y-101540500D01*
X176619613Y-101540500D01*
X176839039Y-101499482D01*
X177047192Y-101418843D01*
X177236983Y-101301330D01*
X177401950Y-101150943D01*
X177536474Y-100972804D01*
X177635974Y-100772980D01*
X177635974Y-100772977D01*
X177635976Y-100772975D01*
X177678554Y-100623325D01*
X177697063Y-100558274D01*
X177717660Y-100336000D01*
X177711034Y-100264500D01*
X177697063Y-100113726D01*
X177697062Y-100113723D01*
X177635976Y-99899024D01*
X177635973Y-99899018D01*
X177599053Y-99824873D01*
X177536474Y-99699196D01*
X177401950Y-99521057D01*
X177277530Y-99407633D01*
X177241252Y-99347927D01*
X177243012Y-99278079D01*
X177277530Y-99224366D01*
X177401950Y-99110943D01*
X177536474Y-98932804D01*
X177635974Y-98732980D01*
X177635974Y-98732977D01*
X177635976Y-98732975D01*
X177670954Y-98610036D01*
X177697063Y-98518274D01*
X177717660Y-98296000D01*
X177709168Y-98204363D01*
X177697063Y-98073726D01*
X177697062Y-98073723D01*
X177635976Y-97859024D01*
X177635973Y-97859018D01*
X177575589Y-97737750D01*
X177536474Y-97659196D01*
X177458633Y-97556117D01*
X177433942Y-97490759D01*
X177448507Y-97422424D01*
X177483274Y-97382128D01*
X177569546Y-97317546D01*
X177619140Y-97251295D01*
X177675072Y-97209427D01*
X177744763Y-97204443D01*
X177806086Y-97237928D01*
X177839571Y-97299251D01*
X177841876Y-97314167D01*
X177858937Y-97498273D01*
X177858937Y-97498276D01*
X177920023Y-97712975D01*
X177920026Y-97712981D01*
X178019526Y-97912804D01*
X178154051Y-98090945D01*
X178278465Y-98204363D01*
X178314747Y-98264074D01*
X178312986Y-98333922D01*
X178278465Y-98387637D01*
X178154051Y-98501054D01*
X178019526Y-98679195D01*
X177920026Y-98879018D01*
X177920023Y-98879024D01*
X177858937Y-99093723D01*
X177858936Y-99093726D01*
X177838340Y-99315999D01*
X177838340Y-99316000D01*
X177858936Y-99538273D01*
X177858937Y-99538276D01*
X177920023Y-99752975D01*
X177920026Y-99752981D01*
X178019526Y-99952804D01*
X178154051Y-100130945D01*
X178278465Y-100244363D01*
X178314747Y-100304074D01*
X178312986Y-100373922D01*
X178278465Y-100427637D01*
X178154051Y-100541054D01*
X178019526Y-100719195D01*
X177920026Y-100919018D01*
X177920023Y-100919024D01*
X177858937Y-101133723D01*
X177858936Y-101133726D01*
X177838340Y-101355999D01*
X177838340Y-101356000D01*
X177858936Y-101578273D01*
X177858937Y-101578276D01*
X177920023Y-101792975D01*
X177920026Y-101792980D01*
X178019526Y-101992804D01*
X178154050Y-102170943D01*
X178319017Y-102321330D01*
X178319024Y-102321334D01*
X178319025Y-102321335D01*
X178508804Y-102438841D01*
X178508805Y-102438841D01*
X178508808Y-102438843D01*
X178716961Y-102519482D01*
X178936387Y-102560500D01*
X178936389Y-102560500D01*
X179159611Y-102560500D01*
X179159613Y-102560500D01*
X179379039Y-102519482D01*
X179587192Y-102438843D01*
X179776983Y-102321330D01*
X179941950Y-102170943D01*
X180076474Y-101992804D01*
X180175974Y-101792980D01*
X180175974Y-101792977D01*
X180175976Y-101792975D01*
X180237062Y-101578276D01*
X180237063Y-101578273D01*
X180257660Y-101356000D01*
X180257660Y-101355999D01*
X180237063Y-101133726D01*
X180237062Y-101133723D01*
X180175976Y-100919024D01*
X180175973Y-100919018D01*
X180076474Y-100719196D01*
X179941950Y-100541057D01*
X179817530Y-100427633D01*
X179781252Y-100367927D01*
X179783012Y-100298079D01*
X179817530Y-100244366D01*
X179941950Y-100130943D01*
X180076474Y-99952804D01*
X180175974Y-99752980D01*
X180175974Y-99752977D01*
X180175976Y-99752975D01*
X180231166Y-99559000D01*
X180237063Y-99538274D01*
X180257660Y-99316000D01*
X180249168Y-99224363D01*
X180237063Y-99093726D01*
X180237062Y-99093723D01*
X180231335Y-99073596D01*
X180191277Y-98932804D01*
X180175976Y-98879024D01*
X180175973Y-98879018D01*
X180076474Y-98679196D01*
X179941950Y-98501057D01*
X179817530Y-98387633D01*
X179781252Y-98327927D01*
X179783012Y-98258079D01*
X179817530Y-98204366D01*
X179941950Y-98090943D01*
X180076474Y-97912804D01*
X180175974Y-97712980D01*
X180175974Y-97712977D01*
X180175976Y-97712975D01*
X180237062Y-97498276D01*
X180237063Y-97498273D01*
X180257660Y-97276000D01*
X180257660Y-97275999D01*
X180237063Y-97053726D01*
X180237062Y-97053723D01*
X180175976Y-96839024D01*
X180175973Y-96839018D01*
X180133740Y-96754202D01*
X180076474Y-96639196D01*
X179941950Y-96461057D01*
X179840859Y-96368901D01*
X179776984Y-96310671D01*
X179776974Y-96310664D01*
X179587195Y-96193158D01*
X179587189Y-96193156D01*
X179379039Y-96112518D01*
X179159613Y-96071500D01*
X178936387Y-96071500D01*
X178716961Y-96112518D01*
X178585328Y-96163512D01*
X178508810Y-96193156D01*
X178508804Y-96193158D01*
X178319025Y-96310664D01*
X178319015Y-96310671D01*
X178154051Y-96461055D01*
X178019526Y-96639195D01*
X177947499Y-96783844D01*
X177899996Y-96835081D01*
X177832333Y-96852502D01*
X177765993Y-96830576D01*
X177722038Y-96776265D01*
X177712499Y-96728576D01*
X177712499Y-95504128D01*
X177706091Y-95444517D01*
X177702145Y-95433938D01*
X177655797Y-95309671D01*
X177655793Y-95309664D01*
X177569547Y-95194455D01*
X177569544Y-95194452D01*
X177454335Y-95108206D01*
X177454328Y-95108202D01*
X177319482Y-95057908D01*
X177319483Y-95057908D01*
X177259883Y-95051501D01*
X177259881Y-95051500D01*
X177259873Y-95051500D01*
X177259864Y-95051500D01*
X175756129Y-95051500D01*
X175756123Y-95051501D01*
X175696516Y-95057908D01*
X175561671Y-95108202D01*
X175561664Y-95108206D01*
X175446455Y-95194452D01*
X175446452Y-95194455D01*
X175360206Y-95309664D01*
X175360202Y-95309671D01*
X175309908Y-95444517D01*
X175303501Y-95504116D01*
X175303501Y-95504123D01*
X175303500Y-95504135D01*
X175303500Y-97007870D01*
X175303501Y-97007876D01*
X175309908Y-97067483D01*
X175360202Y-97202328D01*
X175360206Y-97202335D01*
X175446452Y-97317544D01*
X175446455Y-97317547D01*
X175532722Y-97382127D01*
X175574593Y-97438061D01*
X175579577Y-97507752D01*
X175557365Y-97556120D01*
X175479526Y-97659195D01*
X175380026Y-97859018D01*
X175380023Y-97859024D01*
X175318937Y-98073723D01*
X175318936Y-98073726D01*
X175298340Y-98295999D01*
X175298340Y-98296000D01*
X175318936Y-98518273D01*
X175318937Y-98518276D01*
X175380023Y-98732975D01*
X175380026Y-98732981D01*
X175479526Y-98932804D01*
X175614051Y-99110945D01*
X175738465Y-99224363D01*
X175774747Y-99284074D01*
X175772986Y-99353922D01*
X175738465Y-99407637D01*
X175614051Y-99521054D01*
X175479526Y-99699195D01*
X175380026Y-99899018D01*
X175380023Y-99899024D01*
X175318937Y-100113723D01*
X175318937Y-100113726D01*
X175302276Y-100293517D01*
X175276489Y-100358454D01*
X175219689Y-100399141D01*
X175149908Y-100402661D01*
X175091124Y-100369756D01*
X174649819Y-99928451D01*
X174616334Y-99867128D01*
X174613500Y-99840770D01*
X174613500Y-98216972D01*
X174620458Y-98176017D01*
X174638429Y-98124659D01*
X174648368Y-98096255D01*
X174648369Y-98096249D01*
X174668565Y-97917003D01*
X174668565Y-97916996D01*
X174648369Y-97737750D01*
X174648368Y-97737745D01*
X174623553Y-97666827D01*
X174588789Y-97567478D01*
X174492816Y-97414738D01*
X174365262Y-97287184D01*
X174347461Y-97275999D01*
X174212523Y-97191211D01*
X174042254Y-97131631D01*
X174042249Y-97131630D01*
X173863004Y-97111435D01*
X173862996Y-97111435D01*
X173683750Y-97131630D01*
X173683745Y-97131631D01*
X173513476Y-97191211D01*
X173360737Y-97287184D01*
X173233184Y-97414737D01*
X173137211Y-97567476D01*
X173077631Y-97737745D01*
X173077630Y-97737750D01*
X173057435Y-97916996D01*
X172496508Y-97916996D01*
X172468873Y-97801889D01*
X172409768Y-97659196D01*
X172372466Y-97569140D01*
X172240839Y-97354346D01*
X172240838Y-97354343D01*
X172173926Y-97276000D01*
X172077224Y-97162776D01*
X171908884Y-97019000D01*
X171885656Y-96999161D01*
X171885653Y-96999160D01*
X171670859Y-96867533D01*
X171438110Y-96771126D01*
X171193151Y-96712317D01*
X170942000Y-96692551D01*
X170690848Y-96712317D01*
X170445889Y-96771126D01*
X170213140Y-96867533D01*
X169998346Y-96999160D01*
X169998343Y-96999161D01*
X169806776Y-97162776D01*
X169643161Y-97354343D01*
X169643160Y-97354346D01*
X169511533Y-97569140D01*
X169415126Y-97801889D01*
X169356317Y-98046848D01*
X169336551Y-98298000D01*
X167975449Y-98298000D01*
X167955683Y-98046852D01*
X167896873Y-97801889D01*
X167837768Y-97659196D01*
X167800466Y-97569140D01*
X167668839Y-97354346D01*
X167668838Y-97354343D01*
X167601926Y-97276000D01*
X167505224Y-97162776D01*
X167336884Y-97019000D01*
X167313656Y-96999161D01*
X167313653Y-96999160D01*
X167098859Y-96867533D01*
X166866110Y-96771126D01*
X166621151Y-96712317D01*
X166370000Y-96692551D01*
X166118848Y-96712317D01*
X165873889Y-96771126D01*
X165641140Y-96867533D01*
X165426346Y-96999160D01*
X165426343Y-96999161D01*
X165234776Y-97162776D01*
X165071161Y-97354343D01*
X165071160Y-97354346D01*
X164939533Y-97569140D01*
X164843126Y-97801889D01*
X164784317Y-98046848D01*
X164764551Y-98298000D01*
X163398499Y-98298000D01*
X163398499Y-97150128D01*
X163392091Y-97090517D01*
X163361266Y-97007872D01*
X163341797Y-96955671D01*
X163341793Y-96955664D01*
X163255547Y-96840455D01*
X163255544Y-96840452D01*
X163140335Y-96754206D01*
X163140328Y-96754202D01*
X163005482Y-96703908D01*
X163005483Y-96703908D01*
X162945883Y-96697501D01*
X162945881Y-96697500D01*
X162945873Y-96697500D01*
X162945864Y-96697500D01*
X160650129Y-96697500D01*
X160650123Y-96697501D01*
X160590516Y-96703908D01*
X160455671Y-96754202D01*
X160455664Y-96754206D01*
X160340455Y-96840452D01*
X160340452Y-96840455D01*
X160254206Y-96955664D01*
X160254202Y-96955671D01*
X160203908Y-97090517D01*
X160199488Y-97131632D01*
X160197501Y-97150123D01*
X160197500Y-97150135D01*
X158826499Y-97150135D01*
X158826499Y-97150128D01*
X158820091Y-97090517D01*
X158789266Y-97007872D01*
X158769797Y-96955671D01*
X158769793Y-96955664D01*
X158683547Y-96840455D01*
X158683544Y-96840452D01*
X158568335Y-96754206D01*
X158568328Y-96754202D01*
X158433482Y-96703908D01*
X158433483Y-96703908D01*
X158373883Y-96697501D01*
X158373881Y-96697500D01*
X158373873Y-96697500D01*
X158373864Y-96697500D01*
X156078129Y-96697500D01*
X156078123Y-96697501D01*
X156018516Y-96703908D01*
X155883671Y-96754202D01*
X155883664Y-96754206D01*
X155768455Y-96840452D01*
X155768452Y-96840455D01*
X155682206Y-96955664D01*
X155682202Y-96955671D01*
X155631908Y-97090517D01*
X155627488Y-97131632D01*
X155625501Y-97150123D01*
X155625500Y-97150135D01*
X139925000Y-97150135D01*
X139925000Y-94399306D01*
X139924999Y-94399304D01*
X139890396Y-94225341D01*
X139890393Y-94225332D01*
X139822516Y-94061459D01*
X139822509Y-94061446D01*
X139768086Y-93979998D01*
X157698532Y-93979998D01*
X157698532Y-93980001D01*
X157718364Y-94206686D01*
X157718366Y-94206697D01*
X157777258Y-94426488D01*
X157777261Y-94426497D01*
X157873431Y-94632732D01*
X157873432Y-94632734D01*
X158003954Y-94819141D01*
X158164858Y-94980045D01*
X158164861Y-94980047D01*
X158351266Y-95110568D01*
X158557504Y-95206739D01*
X158777308Y-95265635D01*
X158939230Y-95279801D01*
X159003998Y-95285468D01*
X159004000Y-95285468D01*
X159004002Y-95285468D01*
X159060673Y-95280509D01*
X159230692Y-95265635D01*
X159450496Y-95206739D01*
X159656734Y-95110568D01*
X159843139Y-94980047D01*
X160004047Y-94819139D01*
X160134568Y-94632734D01*
X160230739Y-94426496D01*
X160289635Y-94206692D01*
X160309468Y-93980000D01*
X160309468Y-93979998D01*
X167858532Y-93979998D01*
X167858532Y-93980001D01*
X167878364Y-94206686D01*
X167878366Y-94206697D01*
X167937258Y-94426488D01*
X167937261Y-94426497D01*
X168033431Y-94632732D01*
X168033432Y-94632734D01*
X168163954Y-94819141D01*
X168324858Y-94980045D01*
X168324861Y-94980047D01*
X168511266Y-95110568D01*
X168717504Y-95206739D01*
X168937308Y-95265635D01*
X169099230Y-95279801D01*
X169163998Y-95285468D01*
X169164000Y-95285468D01*
X169164002Y-95285468D01*
X169220673Y-95280509D01*
X169390692Y-95265635D01*
X169610496Y-95206739D01*
X169816734Y-95110568D01*
X170003139Y-94980047D01*
X170164047Y-94819139D01*
X170294568Y-94632734D01*
X170390739Y-94426496D01*
X170449635Y-94206692D01*
X170469468Y-93980000D01*
X170449635Y-93753308D01*
X170390739Y-93533504D01*
X170294568Y-93327266D01*
X170164047Y-93140861D01*
X170164045Y-93140858D01*
X170003141Y-92979954D01*
X169816734Y-92849432D01*
X169816732Y-92849431D01*
X169610497Y-92753261D01*
X169610488Y-92753258D01*
X169390697Y-92694366D01*
X169390693Y-92694365D01*
X169390692Y-92694365D01*
X169390691Y-92694364D01*
X169390686Y-92694364D01*
X169379862Y-92693417D01*
X179917500Y-92693417D01*
X179917500Y-92918582D01*
X179952723Y-93140976D01*
X180022305Y-93355125D01*
X180113194Y-93533502D01*
X180124527Y-93555745D01*
X180256876Y-93737908D01*
X180416092Y-93897124D01*
X180598255Y-94029473D01*
X180661031Y-94061459D01*
X180798874Y-94131694D01*
X180798876Y-94131694D01*
X180798879Y-94131696D01*
X180913666Y-94168992D01*
X181013023Y-94201276D01*
X181047250Y-94206697D01*
X181235417Y-94236500D01*
X181235418Y-94236500D01*
X181460582Y-94236500D01*
X181460583Y-94236500D01*
X181682976Y-94201276D01*
X181897121Y-94131696D01*
X182097745Y-94029473D01*
X182279908Y-93897124D01*
X182439124Y-93737908D01*
X182571473Y-93555745D01*
X182673696Y-93355121D01*
X182743276Y-93140976D01*
X182778500Y-92918583D01*
X182778500Y-92693417D01*
X182743276Y-92471024D01*
X182673696Y-92256879D01*
X182673694Y-92256876D01*
X182673694Y-92256874D01*
X182571472Y-92056254D01*
X182439124Y-91874092D01*
X182279908Y-91714876D01*
X182097745Y-91582527D01*
X181897125Y-91480305D01*
X181682976Y-91410723D01*
X181490989Y-91380316D01*
X181460583Y-91375500D01*
X181235417Y-91375500D01*
X181208667Y-91379736D01*
X181013023Y-91410723D01*
X180798874Y-91480305D01*
X180598254Y-91582527D01*
X180416089Y-91714878D01*
X180256878Y-91874089D01*
X180124527Y-92056254D01*
X180022305Y-92256874D01*
X179952723Y-92471023D01*
X179917500Y-92693417D01*
X169379862Y-92693417D01*
X169164002Y-92674532D01*
X169163998Y-92674532D01*
X168937313Y-92694364D01*
X168937302Y-92694366D01*
X168717511Y-92753258D01*
X168717502Y-92753261D01*
X168511267Y-92849431D01*
X168511265Y-92849432D01*
X168324858Y-92979954D01*
X168163954Y-93140858D01*
X168033432Y-93327265D01*
X168033431Y-93327267D01*
X167937261Y-93533502D01*
X167937258Y-93533511D01*
X167878366Y-93753302D01*
X167878364Y-93753313D01*
X167858532Y-93979998D01*
X160309468Y-93979998D01*
X160289635Y-93753308D01*
X160230739Y-93533504D01*
X160134568Y-93327266D01*
X160004047Y-93140861D01*
X160004045Y-93140858D01*
X159843141Y-92979954D01*
X159656734Y-92849432D01*
X159656732Y-92849431D01*
X159450497Y-92753261D01*
X159450488Y-92753258D01*
X159230697Y-92694366D01*
X159230693Y-92694365D01*
X159230692Y-92694365D01*
X159230691Y-92694364D01*
X159230686Y-92694364D01*
X159004002Y-92674532D01*
X159003998Y-92674532D01*
X158777313Y-92694364D01*
X158777302Y-92694366D01*
X158557511Y-92753258D01*
X158557502Y-92753261D01*
X158351267Y-92849431D01*
X158351265Y-92849432D01*
X158164858Y-92979954D01*
X158003954Y-93140858D01*
X157873432Y-93327265D01*
X157873431Y-93327267D01*
X157777261Y-93533502D01*
X157777258Y-93533511D01*
X157718366Y-93753302D01*
X157718364Y-93753313D01*
X157698532Y-93979998D01*
X139768086Y-93979998D01*
X139723964Y-93913965D01*
X139723961Y-93913961D01*
X139598538Y-93788538D01*
X139598534Y-93788535D01*
X139451053Y-93689990D01*
X139451040Y-93689983D01*
X139287167Y-93622106D01*
X139287158Y-93622103D01*
X139113194Y-93587500D01*
X139113191Y-93587500D01*
X138935809Y-93587500D01*
X138935806Y-93587500D01*
X138761841Y-93622103D01*
X138761832Y-93622106D01*
X138597959Y-93689983D01*
X138597946Y-93689990D01*
X138450465Y-93788535D01*
X138450461Y-93788538D01*
X138325038Y-93913961D01*
X138325035Y-93913965D01*
X138226490Y-94061446D01*
X138226483Y-94061459D01*
X138158606Y-94225332D01*
X138158603Y-94225341D01*
X138124000Y-94399304D01*
X138124000Y-99965138D01*
X138104315Y-100032177D01*
X138051511Y-100077932D01*
X137982353Y-100087876D01*
X137918797Y-100058851D01*
X137912319Y-100052819D01*
X137284935Y-99425435D01*
X137251450Y-99364112D01*
X137249088Y-99326949D01*
X137250659Y-99309000D01*
X137230063Y-99073592D01*
X137168903Y-98845337D01*
X137069035Y-98631171D01*
X137063730Y-98623595D01*
X136933496Y-98437600D01*
X136883533Y-98387637D01*
X136811179Y-98315283D01*
X136777696Y-98253963D01*
X136782680Y-98184271D01*
X136824551Y-98128337D01*
X136855529Y-98111422D01*
X136987086Y-98062354D01*
X136987093Y-98062350D01*
X137102187Y-97976190D01*
X137102190Y-97976187D01*
X137188350Y-97861093D01*
X137188354Y-97861086D01*
X137238596Y-97726379D01*
X137238598Y-97726372D01*
X137244999Y-97666844D01*
X137245000Y-97666827D01*
X137245000Y-97019000D01*
X136328012Y-97019000D01*
X136360925Y-96961993D01*
X136395000Y-96834826D01*
X136395000Y-96703174D01*
X136360925Y-96576007D01*
X136328012Y-96519000D01*
X137245000Y-96519000D01*
X137245000Y-95871172D01*
X137244999Y-95871155D01*
X137238598Y-95811627D01*
X137238596Y-95811620D01*
X137188354Y-95676913D01*
X137188350Y-95676906D01*
X137102190Y-95561812D01*
X137102187Y-95561809D01*
X136987093Y-95475649D01*
X136987086Y-95475645D01*
X136852379Y-95425403D01*
X136852372Y-95425401D01*
X136792844Y-95419000D01*
X136145000Y-95419000D01*
X136145000Y-96335988D01*
X136087993Y-96303075D01*
X135960826Y-96269000D01*
X135829174Y-96269000D01*
X135702007Y-96303075D01*
X135645000Y-96335988D01*
X135645000Y-95419000D01*
X134997155Y-95419000D01*
X134937627Y-95425401D01*
X134937620Y-95425403D01*
X134802913Y-95475645D01*
X134802906Y-95475649D01*
X134687812Y-95561809D01*
X134687809Y-95561812D01*
X134601649Y-95676906D01*
X134601645Y-95676913D01*
X134552578Y-95808470D01*
X134510707Y-95864404D01*
X134445242Y-95888821D01*
X134376969Y-95873969D01*
X134348715Y-95852819D01*
X134304366Y-95808470D01*
X134226401Y-95730505D01*
X134226397Y-95730502D01*
X134226396Y-95730501D01*
X134032834Y-95594967D01*
X134032830Y-95594965D01*
X133961727Y-95561809D01*
X133818663Y-95495097D01*
X133818659Y-95495096D01*
X133818655Y-95495094D01*
X133590413Y-95433938D01*
X133590403Y-95433936D01*
X133355001Y-95413341D01*
X133354999Y-95413341D01*
X133119596Y-95433936D01*
X133119586Y-95433938D01*
X132891344Y-95495094D01*
X132891335Y-95495098D01*
X132677171Y-95594964D01*
X132677169Y-95594965D01*
X132483597Y-95730505D01*
X132316505Y-95897597D01*
X132186575Y-96083158D01*
X132131998Y-96126783D01*
X132062500Y-96133977D01*
X132000145Y-96102454D01*
X131983425Y-96083158D01*
X131853494Y-95897597D01*
X131686402Y-95730506D01*
X131686395Y-95730501D01*
X131492834Y-95594967D01*
X131492830Y-95594965D01*
X131421727Y-95561809D01*
X131278663Y-95495097D01*
X131278659Y-95495096D01*
X131278655Y-95495094D01*
X131050413Y-95433938D01*
X131050403Y-95433936D01*
X130815001Y-95413341D01*
X130814999Y-95413341D01*
X130579596Y-95433936D01*
X130579586Y-95433938D01*
X130351344Y-95495094D01*
X130351335Y-95495098D01*
X130137171Y-95594964D01*
X130137169Y-95594965D01*
X129943597Y-95730505D01*
X129776505Y-95897597D01*
X129646575Y-96083158D01*
X129591998Y-96126783D01*
X129522500Y-96133977D01*
X129460145Y-96102454D01*
X129443425Y-96083158D01*
X129313494Y-95897597D01*
X129146402Y-95730506D01*
X129146395Y-95730501D01*
X128952834Y-95594967D01*
X128952830Y-95594965D01*
X128881727Y-95561809D01*
X128738663Y-95495097D01*
X128738659Y-95495096D01*
X128738655Y-95495094D01*
X128510413Y-95433938D01*
X128510403Y-95433936D01*
X128275001Y-95413341D01*
X128274999Y-95413341D01*
X128039596Y-95433936D01*
X128039586Y-95433938D01*
X127811344Y-95495094D01*
X127811335Y-95495098D01*
X127597171Y-95594964D01*
X127597169Y-95594965D01*
X127403597Y-95730505D01*
X127236505Y-95897597D01*
X127106575Y-96083158D01*
X127051998Y-96126783D01*
X126982500Y-96133977D01*
X126920145Y-96102454D01*
X126903425Y-96083158D01*
X126773494Y-95897597D01*
X126606402Y-95730506D01*
X126606395Y-95730501D01*
X126412834Y-95594967D01*
X126412830Y-95594965D01*
X126341727Y-95561809D01*
X126198663Y-95495097D01*
X126198659Y-95495096D01*
X126198655Y-95495094D01*
X125970413Y-95433938D01*
X125970403Y-95433936D01*
X125735001Y-95413341D01*
X125734999Y-95413341D01*
X125499596Y-95433936D01*
X125499586Y-95433938D01*
X125271344Y-95495094D01*
X125271335Y-95495098D01*
X125057171Y-95594964D01*
X125057169Y-95594965D01*
X124863597Y-95730505D01*
X124696505Y-95897597D01*
X124566575Y-96083158D01*
X124511998Y-96126783D01*
X124442500Y-96133977D01*
X124380145Y-96102454D01*
X124363425Y-96083158D01*
X124233494Y-95897597D01*
X124066402Y-95730506D01*
X124066395Y-95730501D01*
X123872834Y-95594967D01*
X123872830Y-95594965D01*
X123801727Y-95561809D01*
X123658663Y-95495097D01*
X123658659Y-95495096D01*
X123658655Y-95495094D01*
X123430413Y-95433938D01*
X123430403Y-95433936D01*
X123195001Y-95413341D01*
X123194999Y-95413341D01*
X122959596Y-95433936D01*
X122959586Y-95433938D01*
X122731344Y-95495094D01*
X122731335Y-95495098D01*
X122517171Y-95594964D01*
X122517169Y-95594965D01*
X122323597Y-95730505D01*
X122156505Y-95897597D01*
X122026575Y-96083158D01*
X121971998Y-96126783D01*
X121902500Y-96133977D01*
X121840145Y-96102454D01*
X121823425Y-96083158D01*
X121693494Y-95897597D01*
X121526402Y-95730506D01*
X121526395Y-95730501D01*
X121332834Y-95594967D01*
X121332830Y-95594965D01*
X121261727Y-95561809D01*
X121118663Y-95495097D01*
X121118659Y-95495096D01*
X121118655Y-95495094D01*
X120890413Y-95433938D01*
X120890403Y-95433936D01*
X120655001Y-95413341D01*
X120654999Y-95413341D01*
X120419596Y-95433936D01*
X120419586Y-95433938D01*
X120191344Y-95495094D01*
X120191335Y-95495098D01*
X119977171Y-95594964D01*
X119977169Y-95594965D01*
X119783597Y-95730505D01*
X119616505Y-95897597D01*
X119480965Y-96091169D01*
X119480964Y-96091171D01*
X119381098Y-96305335D01*
X119381094Y-96305344D01*
X119319938Y-96533586D01*
X119319936Y-96533596D01*
X119299341Y-96768999D01*
X118000500Y-96768999D01*
X118000500Y-85724998D01*
X135219532Y-85724998D01*
X135219532Y-85725001D01*
X135239364Y-85951686D01*
X135239366Y-85951697D01*
X135298258Y-86171488D01*
X135298261Y-86171497D01*
X135394431Y-86377732D01*
X135394432Y-86377734D01*
X135524954Y-86564141D01*
X135685858Y-86725045D01*
X135685861Y-86725047D01*
X135872266Y-86855568D01*
X136078504Y-86951739D01*
X136298308Y-87010635D01*
X136460230Y-87024801D01*
X136524998Y-87030468D01*
X136525000Y-87030468D01*
X136525002Y-87030468D01*
X136581807Y-87025498D01*
X136751692Y-87010635D01*
X136971496Y-86951739D01*
X137177734Y-86855568D01*
X137364139Y-86725047D01*
X137525047Y-86564139D01*
X137655568Y-86377734D01*
X137682618Y-86319724D01*
X137728790Y-86267285D01*
X137795983Y-86248133D01*
X137862865Y-86268348D01*
X137907382Y-86319725D01*
X137934429Y-86377728D01*
X137934432Y-86377734D01*
X138064954Y-86564141D01*
X138225858Y-86725045D01*
X138225861Y-86725047D01*
X138412266Y-86855568D01*
X138618504Y-86951739D01*
X138838308Y-87010635D01*
X139000230Y-87024801D01*
X139064998Y-87030468D01*
X139065000Y-87030468D01*
X139065002Y-87030468D01*
X139121807Y-87025498D01*
X139291692Y-87010635D01*
X139511496Y-86951739D01*
X139717734Y-86855568D01*
X139904139Y-86725047D01*
X140065047Y-86564139D01*
X140195568Y-86377734D01*
X140222893Y-86319134D01*
X140269065Y-86266695D01*
X140336258Y-86247543D01*
X140403139Y-86267758D01*
X140447657Y-86319134D01*
X140474864Y-86377480D01*
X140525974Y-86450472D01*
X141122037Y-85854409D01*
X141139075Y-85917993D01*
X141204901Y-86032007D01*
X141297993Y-86125099D01*
X141412007Y-86190925D01*
X141475590Y-86207962D01*
X140879526Y-86804025D01*
X140952513Y-86855132D01*
X140952521Y-86855136D01*
X141158668Y-86951264D01*
X141158682Y-86951269D01*
X141378389Y-87010139D01*
X141378400Y-87010141D01*
X141604998Y-87029966D01*
X141605002Y-87029966D01*
X141831599Y-87010141D01*
X141831610Y-87010139D01*
X142051317Y-86951269D01*
X142051331Y-86951264D01*
X142257478Y-86855136D01*
X142330471Y-86804024D01*
X141734409Y-86207962D01*
X141797993Y-86190925D01*
X141912007Y-86125099D01*
X142005099Y-86032007D01*
X142070925Y-85917993D01*
X142087962Y-85854409D01*
X142684024Y-86450471D01*
X142735133Y-86377482D01*
X142762341Y-86319135D01*
X142808513Y-86266696D01*
X142875707Y-86247543D01*
X142942588Y-86267758D01*
X142987105Y-86319132D01*
X143014432Y-86377734D01*
X143014433Y-86377735D01*
X143144954Y-86564141D01*
X143305858Y-86725045D01*
X143305861Y-86725047D01*
X143492266Y-86855568D01*
X143698504Y-86951739D01*
X143918308Y-87010635D01*
X144080230Y-87024801D01*
X144144998Y-87030468D01*
X144145000Y-87030468D01*
X144145002Y-87030468D01*
X144201807Y-87025498D01*
X144371692Y-87010635D01*
X144591496Y-86951739D01*
X144797734Y-86855568D01*
X144984139Y-86725047D01*
X145145047Y-86564139D01*
X145275568Y-86377734D01*
X145302618Y-86319724D01*
X145348790Y-86267285D01*
X145415983Y-86248133D01*
X145482865Y-86268348D01*
X145527382Y-86319725D01*
X145554429Y-86377728D01*
X145554432Y-86377734D01*
X145684954Y-86564141D01*
X145845858Y-86725045D01*
X145845861Y-86725047D01*
X146032266Y-86855568D01*
X146238504Y-86951739D01*
X146458308Y-87010635D01*
X146620230Y-87024801D01*
X146684998Y-87030468D01*
X146685000Y-87030468D01*
X146685002Y-87030468D01*
X146741807Y-87025498D01*
X146911692Y-87010635D01*
X147131496Y-86951739D01*
X147337734Y-86855568D01*
X147524139Y-86725047D01*
X147685047Y-86564139D01*
X147815568Y-86377734D01*
X147842618Y-86319724D01*
X147888790Y-86267285D01*
X147955983Y-86248133D01*
X148022865Y-86268348D01*
X148067382Y-86319725D01*
X148094429Y-86377728D01*
X148094432Y-86377734D01*
X148224954Y-86564141D01*
X148385858Y-86725045D01*
X148385861Y-86725047D01*
X148572266Y-86855568D01*
X148778504Y-86951739D01*
X148998308Y-87010635D01*
X149160230Y-87024801D01*
X149224998Y-87030468D01*
X149225000Y-87030468D01*
X149225002Y-87030468D01*
X149281807Y-87025498D01*
X149451692Y-87010635D01*
X149671496Y-86951739D01*
X149877734Y-86855568D01*
X150064139Y-86725047D01*
X150225047Y-86564139D01*
X150355568Y-86377734D01*
X150451739Y-86171496D01*
X150510635Y-85951692D01*
X150530468Y-85725000D01*
X150530468Y-85724998D01*
X168239532Y-85724998D01*
X168239532Y-85725001D01*
X168259364Y-85951686D01*
X168259366Y-85951697D01*
X168318258Y-86171488D01*
X168318261Y-86171497D01*
X168414431Y-86377732D01*
X168414432Y-86377734D01*
X168544954Y-86564141D01*
X168705858Y-86725045D01*
X168705861Y-86725047D01*
X168892266Y-86855568D01*
X169098504Y-86951739D01*
X169318308Y-87010635D01*
X169480230Y-87024801D01*
X169544998Y-87030468D01*
X169545000Y-87030468D01*
X169545002Y-87030468D01*
X169601807Y-87025498D01*
X169771692Y-87010635D01*
X169991496Y-86951739D01*
X170197734Y-86855568D01*
X170384139Y-86725047D01*
X170545047Y-86564139D01*
X170675568Y-86377734D01*
X170702618Y-86319724D01*
X170748790Y-86267285D01*
X170815983Y-86248133D01*
X170882865Y-86268348D01*
X170927382Y-86319725D01*
X170954429Y-86377728D01*
X170954432Y-86377734D01*
X171084954Y-86564141D01*
X171245858Y-86725045D01*
X171245861Y-86725047D01*
X171432266Y-86855568D01*
X171638504Y-86951739D01*
X171858308Y-87010635D01*
X172020230Y-87024801D01*
X172084998Y-87030468D01*
X172085000Y-87030468D01*
X172085002Y-87030468D01*
X172141807Y-87025498D01*
X172311692Y-87010635D01*
X172531496Y-86951739D01*
X172737734Y-86855568D01*
X172924139Y-86725047D01*
X173085047Y-86564139D01*
X173215568Y-86377734D01*
X173242618Y-86319724D01*
X173288790Y-86267285D01*
X173355983Y-86248133D01*
X173422865Y-86268348D01*
X173467382Y-86319725D01*
X173494429Y-86377728D01*
X173494432Y-86377734D01*
X173624954Y-86564141D01*
X173785858Y-86725045D01*
X173785861Y-86725047D01*
X173972266Y-86855568D01*
X174178504Y-86951739D01*
X174398308Y-87010635D01*
X174560230Y-87024801D01*
X174624998Y-87030468D01*
X174625000Y-87030468D01*
X174625002Y-87030468D01*
X174681807Y-87025498D01*
X174851692Y-87010635D01*
X175071496Y-86951739D01*
X175277734Y-86855568D01*
X175464139Y-86725047D01*
X175625047Y-86564139D01*
X175755568Y-86377734D01*
X175782618Y-86319724D01*
X175828790Y-86267285D01*
X175895983Y-86248133D01*
X175962865Y-86268348D01*
X176007382Y-86319725D01*
X176034429Y-86377728D01*
X176034432Y-86377734D01*
X176164954Y-86564141D01*
X176325858Y-86725045D01*
X176325861Y-86725047D01*
X176512266Y-86855568D01*
X176718504Y-86951739D01*
X176938308Y-87010635D01*
X177100230Y-87024801D01*
X177164998Y-87030468D01*
X177165000Y-87030468D01*
X177165002Y-87030468D01*
X177221807Y-87025498D01*
X177391692Y-87010635D01*
X177611496Y-86951739D01*
X177817734Y-86855568D01*
X178004139Y-86725047D01*
X178165047Y-86564139D01*
X178182272Y-86539539D01*
X178236848Y-86495913D01*
X178306346Y-86488718D01*
X178368701Y-86520239D01*
X178404116Y-86580468D01*
X178407138Y-86597406D01*
X178410908Y-86632483D01*
X178461202Y-86767328D01*
X178461206Y-86767335D01*
X178547452Y-86882544D01*
X178547455Y-86882547D01*
X178662664Y-86968793D01*
X178662671Y-86968797D01*
X178797517Y-87019091D01*
X178797516Y-87019091D01*
X178804444Y-87019835D01*
X178857127Y-87025500D01*
X180552872Y-87025499D01*
X180612483Y-87019091D01*
X180747331Y-86968796D01*
X180862546Y-86882546D01*
X180948796Y-86767331D01*
X180999091Y-86632483D01*
X181005500Y-86572873D01*
X181005499Y-84877128D01*
X180999091Y-84817517D01*
X180964567Y-84724954D01*
X180948797Y-84682671D01*
X180948793Y-84682664D01*
X180862547Y-84567455D01*
X180862544Y-84567452D01*
X180747335Y-84481206D01*
X180747328Y-84481202D01*
X180612482Y-84430908D01*
X180612483Y-84430908D01*
X180552883Y-84424501D01*
X180552881Y-84424500D01*
X180552873Y-84424500D01*
X180552864Y-84424500D01*
X178857129Y-84424500D01*
X178857123Y-84424501D01*
X178797516Y-84430908D01*
X178662671Y-84481202D01*
X178662664Y-84481206D01*
X178547455Y-84567452D01*
X178547452Y-84567455D01*
X178461206Y-84682664D01*
X178461202Y-84682671D01*
X178410908Y-84817516D01*
X178407137Y-84852596D01*
X178380398Y-84917146D01*
X178323006Y-84956994D01*
X178253180Y-84959487D01*
X178193092Y-84923834D01*
X178182273Y-84910462D01*
X178165045Y-84885858D01*
X178004141Y-84724954D01*
X177817734Y-84594432D01*
X177817732Y-84594431D01*
X177611497Y-84498261D01*
X177611488Y-84498258D01*
X177391697Y-84439366D01*
X177391693Y-84439365D01*
X177391692Y-84439365D01*
X177391691Y-84439364D01*
X177391686Y-84439364D01*
X177165002Y-84419532D01*
X177164998Y-84419532D01*
X176938313Y-84439364D01*
X176938302Y-84439366D01*
X176718511Y-84498258D01*
X176718502Y-84498261D01*
X176512267Y-84594431D01*
X176512265Y-84594432D01*
X176325858Y-84724954D01*
X176164954Y-84885858D01*
X176034432Y-85072265D01*
X176034431Y-85072267D01*
X176007382Y-85130275D01*
X175961209Y-85182714D01*
X175894016Y-85201866D01*
X175827135Y-85181650D01*
X175782618Y-85130275D01*
X175755568Y-85072266D01*
X175625047Y-84885861D01*
X175625045Y-84885858D01*
X175464141Y-84724954D01*
X175277734Y-84594432D01*
X175277732Y-84594431D01*
X175071497Y-84498261D01*
X175071488Y-84498258D01*
X174851697Y-84439366D01*
X174851693Y-84439365D01*
X174851692Y-84439365D01*
X174851691Y-84439364D01*
X174851686Y-84439364D01*
X174625002Y-84419532D01*
X174624998Y-84419532D01*
X174398313Y-84439364D01*
X174398302Y-84439366D01*
X174178511Y-84498258D01*
X174178502Y-84498261D01*
X173972267Y-84594431D01*
X173972265Y-84594432D01*
X173785858Y-84724954D01*
X173624954Y-84885858D01*
X173494432Y-85072265D01*
X173494431Y-85072267D01*
X173467382Y-85130275D01*
X173421209Y-85182714D01*
X173354016Y-85201866D01*
X173287135Y-85181650D01*
X173242618Y-85130275D01*
X173215568Y-85072266D01*
X173085047Y-84885861D01*
X173085045Y-84885858D01*
X172924141Y-84724954D01*
X172737734Y-84594432D01*
X172737732Y-84594431D01*
X172531497Y-84498261D01*
X172531488Y-84498258D01*
X172311697Y-84439366D01*
X172311693Y-84439365D01*
X172311692Y-84439365D01*
X172311691Y-84439364D01*
X172311686Y-84439364D01*
X172085002Y-84419532D01*
X172084998Y-84419532D01*
X171858313Y-84439364D01*
X171858302Y-84439366D01*
X171638511Y-84498258D01*
X171638502Y-84498261D01*
X171432267Y-84594431D01*
X171432265Y-84594432D01*
X171245858Y-84724954D01*
X171084954Y-84885858D01*
X170954432Y-85072265D01*
X170954431Y-85072267D01*
X170927382Y-85130275D01*
X170881209Y-85182714D01*
X170814016Y-85201866D01*
X170747135Y-85181650D01*
X170702618Y-85130275D01*
X170675568Y-85072266D01*
X170545047Y-84885861D01*
X170545045Y-84885858D01*
X170384141Y-84724954D01*
X170197734Y-84594432D01*
X170197732Y-84594431D01*
X169991497Y-84498261D01*
X169991488Y-84498258D01*
X169771697Y-84439366D01*
X169771693Y-84439365D01*
X169771692Y-84439365D01*
X169771691Y-84439364D01*
X169771686Y-84439364D01*
X169545002Y-84419532D01*
X169544998Y-84419532D01*
X169318313Y-84439364D01*
X169318302Y-84439366D01*
X169098511Y-84498258D01*
X169098502Y-84498261D01*
X168892267Y-84594431D01*
X168892265Y-84594432D01*
X168705858Y-84724954D01*
X168544954Y-84885858D01*
X168414432Y-85072265D01*
X168414431Y-85072267D01*
X168318261Y-85278502D01*
X168318258Y-85278511D01*
X168259366Y-85498302D01*
X168259364Y-85498313D01*
X168239532Y-85724998D01*
X150530468Y-85724998D01*
X150510635Y-85498308D01*
X150451739Y-85278504D01*
X150355568Y-85072266D01*
X150225047Y-84885861D01*
X150225045Y-84885858D01*
X150064141Y-84724954D01*
X149877734Y-84594432D01*
X149877732Y-84594431D01*
X149671497Y-84498261D01*
X149671488Y-84498258D01*
X149451697Y-84439366D01*
X149451693Y-84439365D01*
X149451692Y-84439365D01*
X149451691Y-84439364D01*
X149451686Y-84439364D01*
X149225002Y-84419532D01*
X149224998Y-84419532D01*
X148998313Y-84439364D01*
X148998302Y-84439366D01*
X148778511Y-84498258D01*
X148778502Y-84498261D01*
X148572267Y-84594431D01*
X148572265Y-84594432D01*
X148385858Y-84724954D01*
X148224954Y-84885858D01*
X148094432Y-85072265D01*
X148094431Y-85072267D01*
X148067382Y-85130275D01*
X148021209Y-85182714D01*
X147954016Y-85201866D01*
X147887135Y-85181650D01*
X147842618Y-85130275D01*
X147815568Y-85072266D01*
X147685047Y-84885861D01*
X147685045Y-84885858D01*
X147524141Y-84724954D01*
X147337734Y-84594432D01*
X147337732Y-84594431D01*
X147131497Y-84498261D01*
X147131488Y-84498258D01*
X146911697Y-84439366D01*
X146911693Y-84439365D01*
X146911692Y-84439365D01*
X146911691Y-84439364D01*
X146911686Y-84439364D01*
X146685002Y-84419532D01*
X146684998Y-84419532D01*
X146458313Y-84439364D01*
X146458302Y-84439366D01*
X146238511Y-84498258D01*
X146238502Y-84498261D01*
X146032267Y-84594431D01*
X146032265Y-84594432D01*
X145845858Y-84724954D01*
X145684954Y-84885858D01*
X145554432Y-85072265D01*
X145554431Y-85072267D01*
X145527382Y-85130275D01*
X145481209Y-85182714D01*
X145414016Y-85201866D01*
X145347135Y-85181650D01*
X145302618Y-85130275D01*
X145275568Y-85072266D01*
X145145047Y-84885861D01*
X145145045Y-84885858D01*
X144984141Y-84724954D01*
X144797734Y-84594432D01*
X144797732Y-84594431D01*
X144591497Y-84498261D01*
X144591488Y-84498258D01*
X144371697Y-84439366D01*
X144371693Y-84439365D01*
X144371692Y-84439365D01*
X144371691Y-84439364D01*
X144371686Y-84439364D01*
X144145002Y-84419532D01*
X144144998Y-84419532D01*
X143918313Y-84439364D01*
X143918302Y-84439366D01*
X143698511Y-84498258D01*
X143698502Y-84498261D01*
X143492267Y-84594431D01*
X143492265Y-84594432D01*
X143305858Y-84724954D01*
X143144954Y-84885858D01*
X143014432Y-85072265D01*
X143014428Y-85072272D01*
X142987105Y-85130866D01*
X142940932Y-85183305D01*
X142873738Y-85202456D01*
X142806858Y-85182239D01*
X142762342Y-85130864D01*
X142735136Y-85072521D01*
X142735132Y-85072513D01*
X142684025Y-84999526D01*
X142087962Y-85595589D01*
X142070925Y-85532007D01*
X142005099Y-85417993D01*
X141912007Y-85324901D01*
X141797993Y-85259075D01*
X141734410Y-85242037D01*
X142330472Y-84645974D01*
X142257478Y-84594863D01*
X142051331Y-84498735D01*
X142051317Y-84498730D01*
X141831610Y-84439860D01*
X141831599Y-84439858D01*
X141605002Y-84420034D01*
X141604998Y-84420034D01*
X141378400Y-84439858D01*
X141378389Y-84439860D01*
X141158682Y-84498730D01*
X141158673Y-84498734D01*
X140952516Y-84594866D01*
X140952512Y-84594868D01*
X140879526Y-84645973D01*
X140879526Y-84645974D01*
X141475590Y-85242037D01*
X141412007Y-85259075D01*
X141297993Y-85324901D01*
X141204901Y-85417993D01*
X141139075Y-85532007D01*
X141122037Y-85595589D01*
X140525974Y-84999526D01*
X140525973Y-84999526D01*
X140474868Y-85072512D01*
X140474868Y-85072513D01*
X140447657Y-85130867D01*
X140401484Y-85183306D01*
X140334290Y-85202457D01*
X140267409Y-85182241D01*
X140222893Y-85130865D01*
X140195682Y-85072512D01*
X140195568Y-85072266D01*
X140065047Y-84885861D01*
X140065045Y-84885858D01*
X139904141Y-84724954D01*
X139717734Y-84594432D01*
X139717732Y-84594431D01*
X139511497Y-84498261D01*
X139511488Y-84498258D01*
X139291697Y-84439366D01*
X139291693Y-84439365D01*
X139291692Y-84439365D01*
X139291691Y-84439364D01*
X139291686Y-84439364D01*
X139065002Y-84419532D01*
X139064998Y-84419532D01*
X138838313Y-84439364D01*
X138838302Y-84439366D01*
X138618511Y-84498258D01*
X138618502Y-84498261D01*
X138412267Y-84594431D01*
X138412265Y-84594432D01*
X138225858Y-84724954D01*
X138064954Y-84885858D01*
X137934432Y-85072265D01*
X137934431Y-85072267D01*
X137907382Y-85130275D01*
X137861209Y-85182714D01*
X137794016Y-85201866D01*
X137727135Y-85181650D01*
X137682618Y-85130275D01*
X137655568Y-85072266D01*
X137525047Y-84885861D01*
X137525045Y-84885858D01*
X137364141Y-84724954D01*
X137177734Y-84594432D01*
X137177732Y-84594431D01*
X136971497Y-84498261D01*
X136971488Y-84498258D01*
X136751697Y-84439366D01*
X136751693Y-84439365D01*
X136751692Y-84439365D01*
X136751691Y-84439364D01*
X136751686Y-84439364D01*
X136525002Y-84419532D01*
X136524998Y-84419532D01*
X136298313Y-84439364D01*
X136298302Y-84439366D01*
X136078511Y-84498258D01*
X136078502Y-84498261D01*
X135872267Y-84594431D01*
X135872265Y-84594432D01*
X135685858Y-84724954D01*
X135524954Y-84885858D01*
X135394432Y-85072265D01*
X135394431Y-85072267D01*
X135298261Y-85278502D01*
X135298258Y-85278511D01*
X135239366Y-85498302D01*
X135239364Y-85498313D01*
X135219532Y-85724998D01*
X118000500Y-85724998D01*
X118000500Y-78110711D01*
X119917500Y-78110711D01*
X119917500Y-78353288D01*
X119949161Y-78593785D01*
X120011947Y-78828104D01*
X120104773Y-79052205D01*
X120104776Y-79052212D01*
X120226064Y-79262289D01*
X120226066Y-79262292D01*
X120226067Y-79262293D01*
X120373733Y-79454736D01*
X120373739Y-79454743D01*
X120545256Y-79626260D01*
X120545262Y-79626265D01*
X120737711Y-79773936D01*
X120947788Y-79895224D01*
X121171900Y-79988054D01*
X121406211Y-80050838D01*
X121586586Y-80074584D01*
X121646711Y-80082500D01*
X121646712Y-80082500D01*
X121889289Y-80082500D01*
X121937388Y-80076167D01*
X122129789Y-80050838D01*
X122364100Y-79988054D01*
X122588212Y-79895224D01*
X122798289Y-79773936D01*
X122990738Y-79626265D01*
X123162265Y-79454738D01*
X123309936Y-79262289D01*
X123431224Y-79052212D01*
X123524054Y-78828100D01*
X123586838Y-78593789D01*
X123618500Y-78353288D01*
X123618500Y-78110712D01*
X123586838Y-77870211D01*
X123524054Y-77635900D01*
X123431224Y-77411788D01*
X123309936Y-77201711D01*
X123191228Y-77047007D01*
X123162266Y-77009263D01*
X123162260Y-77009256D01*
X122990743Y-76837739D01*
X122990736Y-76837733D01*
X122863365Y-76739998D01*
X134994532Y-76739998D01*
X134994532Y-76740001D01*
X135014364Y-76966686D01*
X135014366Y-76966697D01*
X135073258Y-77186488D01*
X135073261Y-77186497D01*
X135169431Y-77392732D01*
X135169432Y-77392734D01*
X135299954Y-77579141D01*
X135460858Y-77740045D01*
X135460861Y-77740047D01*
X135647266Y-77870568D01*
X135853504Y-77966739D01*
X136073308Y-78025635D01*
X136235230Y-78039801D01*
X136299998Y-78045468D01*
X136300000Y-78045468D01*
X136300002Y-78045468D01*
X136356673Y-78040509D01*
X136526692Y-78025635D01*
X136746496Y-77966739D01*
X136952734Y-77870568D01*
X137139139Y-77740047D01*
X137300047Y-77579139D01*
X137430568Y-77392734D01*
X137457618Y-77334724D01*
X137503790Y-77282285D01*
X137570983Y-77263133D01*
X137637865Y-77283348D01*
X137682382Y-77334725D01*
X137709429Y-77392728D01*
X137709432Y-77392734D01*
X137839954Y-77579141D01*
X138000858Y-77740045D01*
X138000861Y-77740047D01*
X138187266Y-77870568D01*
X138393504Y-77966739D01*
X138613308Y-78025635D01*
X138775230Y-78039801D01*
X138839998Y-78045468D01*
X138840000Y-78045468D01*
X138840002Y-78045468D01*
X138896673Y-78040509D01*
X139066692Y-78025635D01*
X139286496Y-77966739D01*
X139492734Y-77870568D01*
X139679139Y-77740047D01*
X139840047Y-77579139D01*
X139970568Y-77392734D01*
X139997618Y-77334724D01*
X140043790Y-77282285D01*
X140110983Y-77263133D01*
X140177865Y-77283348D01*
X140222382Y-77334725D01*
X140249429Y-77392728D01*
X140249432Y-77392734D01*
X140379954Y-77579141D01*
X140540858Y-77740045D01*
X140540861Y-77740047D01*
X140727266Y-77870568D01*
X140933504Y-77966739D01*
X141153308Y-78025635D01*
X141315230Y-78039801D01*
X141379998Y-78045468D01*
X141380000Y-78045468D01*
X141380002Y-78045468D01*
X141436673Y-78040509D01*
X141606692Y-78025635D01*
X141826496Y-77966739D01*
X142032734Y-77870568D01*
X142219139Y-77740047D01*
X142380047Y-77579139D01*
X142510568Y-77392734D01*
X142537895Y-77334129D01*
X142584064Y-77281695D01*
X142651257Y-77262542D01*
X142718139Y-77282757D01*
X142762657Y-77334133D01*
X142789865Y-77392482D01*
X142920342Y-77578820D01*
X143081179Y-77739657D01*
X143267517Y-77870134D01*
X143473673Y-77966265D01*
X143473682Y-77966269D01*
X143669999Y-78018872D01*
X143670000Y-78018871D01*
X143670000Y-77173012D01*
X143727007Y-77205925D01*
X143854174Y-77240000D01*
X143985826Y-77240000D01*
X144112993Y-77205925D01*
X144170000Y-77173012D01*
X144170000Y-78018872D01*
X144366317Y-77966269D01*
X144366326Y-77966265D01*
X144572482Y-77870134D01*
X144758820Y-77739657D01*
X144919657Y-77578820D01*
X145050132Y-77392484D01*
X145077341Y-77334134D01*
X145123513Y-77281695D01*
X145190707Y-77262542D01*
X145257588Y-77282757D01*
X145302106Y-77334133D01*
X145329431Y-77392732D01*
X145329432Y-77392734D01*
X145459954Y-77579141D01*
X145620858Y-77740045D01*
X145620861Y-77740047D01*
X145807266Y-77870568D01*
X146013504Y-77966739D01*
X146233308Y-78025635D01*
X146395230Y-78039801D01*
X146459998Y-78045468D01*
X146460000Y-78045468D01*
X146460002Y-78045468D01*
X146516673Y-78040509D01*
X146686692Y-78025635D01*
X146906496Y-77966739D01*
X147112734Y-77870568D01*
X147299139Y-77740047D01*
X147460047Y-77579139D01*
X147590568Y-77392734D01*
X147617618Y-77334724D01*
X147663790Y-77282285D01*
X147730983Y-77263133D01*
X147797865Y-77283348D01*
X147842382Y-77334725D01*
X147869429Y-77392728D01*
X147869432Y-77392734D01*
X147999954Y-77579141D01*
X148160858Y-77740045D01*
X148160861Y-77740047D01*
X148347266Y-77870568D01*
X148553504Y-77966739D01*
X148773308Y-78025635D01*
X148935230Y-78039801D01*
X148999998Y-78045468D01*
X149000000Y-78045468D01*
X149000002Y-78045468D01*
X149056673Y-78040509D01*
X149226692Y-78025635D01*
X149446496Y-77966739D01*
X149652734Y-77870568D01*
X149839139Y-77740047D01*
X150000047Y-77579139D01*
X150130568Y-77392734D01*
X150157618Y-77334724D01*
X150203790Y-77282285D01*
X150270983Y-77263133D01*
X150337865Y-77283348D01*
X150382382Y-77334725D01*
X150409429Y-77392728D01*
X150409432Y-77392734D01*
X150539954Y-77579141D01*
X150700858Y-77740045D01*
X150700861Y-77740047D01*
X150887266Y-77870568D01*
X151093504Y-77966739D01*
X151313308Y-78025635D01*
X151475230Y-78039801D01*
X151539998Y-78045468D01*
X151540000Y-78045468D01*
X151540002Y-78045468D01*
X151596673Y-78040509D01*
X151766692Y-78025635D01*
X151986496Y-77966739D01*
X152192734Y-77870568D01*
X152379139Y-77740047D01*
X152540047Y-77579139D01*
X152670568Y-77392734D01*
X152697618Y-77334724D01*
X152743790Y-77282285D01*
X152810983Y-77263133D01*
X152877865Y-77283348D01*
X152922382Y-77334725D01*
X152949429Y-77392728D01*
X152949432Y-77392734D01*
X153079954Y-77579141D01*
X153240858Y-77740045D01*
X153240861Y-77740047D01*
X153427266Y-77870568D01*
X153633504Y-77966739D01*
X153853308Y-78025635D01*
X154015230Y-78039801D01*
X154079998Y-78045468D01*
X154080000Y-78045468D01*
X154080002Y-78045468D01*
X154136673Y-78040509D01*
X154306692Y-78025635D01*
X154526496Y-77966739D01*
X154732734Y-77870568D01*
X154919139Y-77740047D01*
X155080047Y-77579139D01*
X155210568Y-77392734D01*
X155237618Y-77334724D01*
X155283790Y-77282285D01*
X155350983Y-77263133D01*
X155417865Y-77283348D01*
X155462382Y-77334725D01*
X155489429Y-77392728D01*
X155489432Y-77392734D01*
X155619954Y-77579141D01*
X155780858Y-77740045D01*
X155780861Y-77740047D01*
X155967266Y-77870568D01*
X156173504Y-77966739D01*
X156393308Y-78025635D01*
X156555230Y-78039801D01*
X156619998Y-78045468D01*
X156620000Y-78045468D01*
X156620002Y-78045468D01*
X156676673Y-78040509D01*
X156846692Y-78025635D01*
X157066496Y-77966739D01*
X157272734Y-77870568D01*
X157459139Y-77740047D01*
X157620047Y-77579139D01*
X157750568Y-77392734D01*
X157777618Y-77334724D01*
X157823790Y-77282285D01*
X157890983Y-77263133D01*
X157957865Y-77283348D01*
X158002382Y-77334725D01*
X158029429Y-77392728D01*
X158029432Y-77392734D01*
X158159954Y-77579141D01*
X158320858Y-77740045D01*
X158320861Y-77740047D01*
X158507266Y-77870568D01*
X158713504Y-77966739D01*
X158933308Y-78025635D01*
X159095230Y-78039801D01*
X159159998Y-78045468D01*
X159160000Y-78045468D01*
X159160002Y-78045468D01*
X159216673Y-78040509D01*
X159386692Y-78025635D01*
X159606496Y-77966739D01*
X159812734Y-77870568D01*
X159999139Y-77740047D01*
X160160047Y-77579139D01*
X160290568Y-77392734D01*
X160386739Y-77186496D01*
X160445635Y-76966692D01*
X160465468Y-76740000D01*
X160465468Y-76739998D01*
X161914532Y-76739998D01*
X161914532Y-76740001D01*
X161934364Y-76966686D01*
X161934366Y-76966697D01*
X161993258Y-77186488D01*
X161993261Y-77186497D01*
X162089431Y-77392732D01*
X162089432Y-77392734D01*
X162219954Y-77579141D01*
X162380858Y-77740045D01*
X162380861Y-77740047D01*
X162567266Y-77870568D01*
X162773504Y-77966739D01*
X162993308Y-78025635D01*
X163155230Y-78039801D01*
X163219998Y-78045468D01*
X163220000Y-78045468D01*
X163220002Y-78045468D01*
X163276673Y-78040509D01*
X163446692Y-78025635D01*
X163666496Y-77966739D01*
X163872734Y-77870568D01*
X164059139Y-77740047D01*
X164220047Y-77579139D01*
X164350568Y-77392734D01*
X164377618Y-77334724D01*
X164423790Y-77282285D01*
X164490983Y-77263133D01*
X164557865Y-77283348D01*
X164602382Y-77334725D01*
X164629429Y-77392728D01*
X164629432Y-77392734D01*
X164759954Y-77579141D01*
X164920858Y-77740045D01*
X164920861Y-77740047D01*
X165107266Y-77870568D01*
X165313504Y-77966739D01*
X165533308Y-78025635D01*
X165695230Y-78039801D01*
X165759998Y-78045468D01*
X165760000Y-78045468D01*
X165760002Y-78045468D01*
X165816673Y-78040509D01*
X165986692Y-78025635D01*
X166206496Y-77966739D01*
X166412734Y-77870568D01*
X166599139Y-77740047D01*
X166760047Y-77579139D01*
X166890568Y-77392734D01*
X166917618Y-77334724D01*
X166963790Y-77282285D01*
X167030983Y-77263133D01*
X167097865Y-77283348D01*
X167142382Y-77334725D01*
X167169429Y-77392728D01*
X167169432Y-77392734D01*
X167299954Y-77579141D01*
X167460858Y-77740045D01*
X167460861Y-77740047D01*
X167647266Y-77870568D01*
X167853504Y-77966739D01*
X168073308Y-78025635D01*
X168235230Y-78039801D01*
X168299998Y-78045468D01*
X168300000Y-78045468D01*
X168300002Y-78045468D01*
X168356673Y-78040509D01*
X168526692Y-78025635D01*
X168746496Y-77966739D01*
X168952734Y-77870568D01*
X169139139Y-77740047D01*
X169300047Y-77579139D01*
X169430568Y-77392734D01*
X169457618Y-77334724D01*
X169503790Y-77282285D01*
X169570983Y-77263133D01*
X169637865Y-77283348D01*
X169682382Y-77334725D01*
X169709429Y-77392728D01*
X169709432Y-77392734D01*
X169839954Y-77579141D01*
X170000858Y-77740045D01*
X170000861Y-77740047D01*
X170187266Y-77870568D01*
X170393504Y-77966739D01*
X170613308Y-78025635D01*
X170775230Y-78039801D01*
X170839998Y-78045468D01*
X170840000Y-78045468D01*
X170840002Y-78045468D01*
X170896673Y-78040509D01*
X171066692Y-78025635D01*
X171286496Y-77966739D01*
X171492734Y-77870568D01*
X171679139Y-77740047D01*
X171840047Y-77579139D01*
X171970568Y-77392734D01*
X171997618Y-77334724D01*
X172043790Y-77282285D01*
X172110983Y-77263133D01*
X172177865Y-77283348D01*
X172222382Y-77334725D01*
X172249429Y-77392728D01*
X172249432Y-77392734D01*
X172379954Y-77579141D01*
X172540858Y-77740045D01*
X172540861Y-77740047D01*
X172727266Y-77870568D01*
X172933504Y-77966739D01*
X173153308Y-78025635D01*
X173315230Y-78039801D01*
X173379998Y-78045468D01*
X173380000Y-78045468D01*
X173380002Y-78045468D01*
X173436673Y-78040509D01*
X173606692Y-78025635D01*
X173826496Y-77966739D01*
X174032734Y-77870568D01*
X174219139Y-77740047D01*
X174380047Y-77579139D01*
X174510568Y-77392734D01*
X174537618Y-77334724D01*
X174583790Y-77282285D01*
X174650983Y-77263133D01*
X174717865Y-77283348D01*
X174762382Y-77334725D01*
X174789429Y-77392728D01*
X174789432Y-77392734D01*
X174919954Y-77579141D01*
X175080858Y-77740045D01*
X175080861Y-77740047D01*
X175267266Y-77870568D01*
X175473504Y-77966739D01*
X175693308Y-78025635D01*
X175855230Y-78039801D01*
X175919998Y-78045468D01*
X175920000Y-78045468D01*
X175920002Y-78045468D01*
X175976673Y-78040509D01*
X176146692Y-78025635D01*
X176366496Y-77966739D01*
X176572734Y-77870568D01*
X176759139Y-77740047D01*
X176920047Y-77579139D01*
X177050568Y-77392734D01*
X177077618Y-77334724D01*
X177123790Y-77282285D01*
X177190983Y-77263133D01*
X177257865Y-77283348D01*
X177302382Y-77334725D01*
X177329429Y-77392728D01*
X177329432Y-77392734D01*
X177459954Y-77579141D01*
X177620858Y-77740045D01*
X177620861Y-77740047D01*
X177807266Y-77870568D01*
X178013504Y-77966739D01*
X178233308Y-78025635D01*
X178395230Y-78039801D01*
X178459998Y-78045468D01*
X178460000Y-78045468D01*
X178460002Y-78045468D01*
X178516673Y-78040509D01*
X178686692Y-78025635D01*
X178906496Y-77966739D01*
X179112734Y-77870568D01*
X179299139Y-77740047D01*
X179460047Y-77579139D01*
X179590568Y-77392734D01*
X179617618Y-77334724D01*
X179663790Y-77282285D01*
X179730983Y-77263133D01*
X179797865Y-77283348D01*
X179842382Y-77334725D01*
X179869429Y-77392728D01*
X179869432Y-77392734D01*
X179999954Y-77579141D01*
X180160858Y-77740045D01*
X180160861Y-77740047D01*
X180347266Y-77870568D01*
X180553504Y-77966739D01*
X180773308Y-78025635D01*
X180935230Y-78039801D01*
X180999998Y-78045468D01*
X181000000Y-78045468D01*
X181000002Y-78045468D01*
X181056673Y-78040509D01*
X181226692Y-78025635D01*
X181446496Y-77966739D01*
X181652734Y-77870568D01*
X181839139Y-77740047D01*
X182000047Y-77579139D01*
X182130568Y-77392734D01*
X182226739Y-77186496D01*
X182285635Y-76966692D01*
X182305468Y-76740000D01*
X182285635Y-76513308D01*
X182226739Y-76293504D01*
X182130568Y-76087266D01*
X182000047Y-75900861D01*
X182000045Y-75900858D01*
X181839141Y-75739954D01*
X181652734Y-75609432D01*
X181652732Y-75609431D01*
X181446497Y-75513261D01*
X181446488Y-75513258D01*
X181226697Y-75454366D01*
X181226693Y-75454365D01*
X181226692Y-75454365D01*
X181226691Y-75454364D01*
X181226686Y-75454364D01*
X181000002Y-75434532D01*
X180999998Y-75434532D01*
X180773313Y-75454364D01*
X180773302Y-75454366D01*
X180553511Y-75513258D01*
X180553502Y-75513261D01*
X180347267Y-75609431D01*
X180347265Y-75609432D01*
X180160858Y-75739954D01*
X179999954Y-75900858D01*
X179869432Y-76087265D01*
X179869431Y-76087267D01*
X179842382Y-76145275D01*
X179796209Y-76197714D01*
X179729016Y-76216866D01*
X179662135Y-76196650D01*
X179617618Y-76145275D01*
X179590686Y-76087520D01*
X179590568Y-76087266D01*
X179460047Y-75900861D01*
X179460045Y-75900858D01*
X179299141Y-75739954D01*
X179112734Y-75609432D01*
X179112732Y-75609431D01*
X178906497Y-75513261D01*
X178906488Y-75513258D01*
X178686697Y-75454366D01*
X178686693Y-75454365D01*
X178686692Y-75454365D01*
X178686691Y-75454364D01*
X178686686Y-75454364D01*
X178460002Y-75434532D01*
X178459998Y-75434532D01*
X178233313Y-75454364D01*
X178233302Y-75454366D01*
X178013511Y-75513258D01*
X178013502Y-75513261D01*
X177807267Y-75609431D01*
X177807265Y-75609432D01*
X177620858Y-75739954D01*
X177459954Y-75900858D01*
X177329432Y-76087265D01*
X177329431Y-76087267D01*
X177302382Y-76145275D01*
X177256209Y-76197714D01*
X177189016Y-76216866D01*
X177122135Y-76196650D01*
X177077618Y-76145275D01*
X177050686Y-76087520D01*
X177050568Y-76087266D01*
X176920047Y-75900861D01*
X176920045Y-75900858D01*
X176759141Y-75739954D01*
X176572734Y-75609432D01*
X176572732Y-75609431D01*
X176366497Y-75513261D01*
X176366488Y-75513258D01*
X176146697Y-75454366D01*
X176146693Y-75454365D01*
X176146692Y-75454365D01*
X176146691Y-75454364D01*
X176146686Y-75454364D01*
X175920002Y-75434532D01*
X175919998Y-75434532D01*
X175693313Y-75454364D01*
X175693302Y-75454366D01*
X175473511Y-75513258D01*
X175473502Y-75513261D01*
X175267267Y-75609431D01*
X175267265Y-75609432D01*
X175080858Y-75739954D01*
X174919954Y-75900858D01*
X174789432Y-76087265D01*
X174789431Y-76087267D01*
X174762382Y-76145275D01*
X174716209Y-76197714D01*
X174649016Y-76216866D01*
X174582135Y-76196650D01*
X174537618Y-76145275D01*
X174510686Y-76087520D01*
X174510568Y-76087266D01*
X174380047Y-75900861D01*
X174380045Y-75900858D01*
X174219141Y-75739954D01*
X174032734Y-75609432D01*
X174032732Y-75609431D01*
X173826497Y-75513261D01*
X173826488Y-75513258D01*
X173606697Y-75454366D01*
X173606693Y-75454365D01*
X173606692Y-75454365D01*
X173606691Y-75454364D01*
X173606686Y-75454364D01*
X173380002Y-75434532D01*
X173379998Y-75434532D01*
X173153313Y-75454364D01*
X173153302Y-75454366D01*
X172933511Y-75513258D01*
X172933502Y-75513261D01*
X172727267Y-75609431D01*
X172727265Y-75609432D01*
X172540858Y-75739954D01*
X172379954Y-75900858D01*
X172249432Y-76087265D01*
X172249431Y-76087267D01*
X172222382Y-76145275D01*
X172176209Y-76197714D01*
X172109016Y-76216866D01*
X172042135Y-76196650D01*
X171997618Y-76145275D01*
X171970686Y-76087520D01*
X171970568Y-76087266D01*
X171840047Y-75900861D01*
X171840045Y-75900858D01*
X171679141Y-75739954D01*
X171492734Y-75609432D01*
X171492732Y-75609431D01*
X171286497Y-75513261D01*
X171286488Y-75513258D01*
X171066697Y-75454366D01*
X171066693Y-75454365D01*
X171066692Y-75454365D01*
X171066691Y-75454364D01*
X171066686Y-75454364D01*
X170840002Y-75434532D01*
X170839998Y-75434532D01*
X170613313Y-75454364D01*
X170613302Y-75454366D01*
X170393511Y-75513258D01*
X170393502Y-75513261D01*
X170187267Y-75609431D01*
X170187265Y-75609432D01*
X170000858Y-75739954D01*
X169839954Y-75900858D01*
X169709432Y-76087265D01*
X169709431Y-76087267D01*
X169682382Y-76145275D01*
X169636209Y-76197714D01*
X169569016Y-76216866D01*
X169502135Y-76196650D01*
X169457618Y-76145275D01*
X169430686Y-76087520D01*
X169430568Y-76087266D01*
X169300047Y-75900861D01*
X169300045Y-75900858D01*
X169139141Y-75739954D01*
X168952734Y-75609432D01*
X168952732Y-75609431D01*
X168746497Y-75513261D01*
X168746488Y-75513258D01*
X168526697Y-75454366D01*
X168526693Y-75454365D01*
X168526692Y-75454365D01*
X168526691Y-75454364D01*
X168526686Y-75454364D01*
X168300002Y-75434532D01*
X168299998Y-75434532D01*
X168073313Y-75454364D01*
X168073302Y-75454366D01*
X167853511Y-75513258D01*
X167853502Y-75513261D01*
X167647267Y-75609431D01*
X167647265Y-75609432D01*
X167460858Y-75739954D01*
X167299954Y-75900858D01*
X167169432Y-76087265D01*
X167169431Y-76087267D01*
X167142382Y-76145275D01*
X167096209Y-76197714D01*
X167029016Y-76216866D01*
X166962135Y-76196650D01*
X166917618Y-76145275D01*
X166890686Y-76087520D01*
X166890568Y-76087266D01*
X166760047Y-75900861D01*
X166760045Y-75900858D01*
X166599141Y-75739954D01*
X166412734Y-75609432D01*
X166412732Y-75609431D01*
X166206497Y-75513261D01*
X166206488Y-75513258D01*
X165986697Y-75454366D01*
X165986693Y-75454365D01*
X165986692Y-75454365D01*
X165986691Y-75454364D01*
X165986686Y-75454364D01*
X165760002Y-75434532D01*
X165759998Y-75434532D01*
X165533313Y-75454364D01*
X165533302Y-75454366D01*
X165313511Y-75513258D01*
X165313502Y-75513261D01*
X165107267Y-75609431D01*
X165107265Y-75609432D01*
X164920858Y-75739954D01*
X164759954Y-75900858D01*
X164629432Y-76087265D01*
X164629431Y-76087267D01*
X164602382Y-76145275D01*
X164556209Y-76197714D01*
X164489016Y-76216866D01*
X164422135Y-76196650D01*
X164377618Y-76145275D01*
X164350686Y-76087520D01*
X164350568Y-76087266D01*
X164220047Y-75900861D01*
X164220045Y-75900858D01*
X164059141Y-75739954D01*
X163872734Y-75609432D01*
X163872732Y-75609431D01*
X163666497Y-75513261D01*
X163666488Y-75513258D01*
X163446697Y-75454366D01*
X163446693Y-75454365D01*
X163446692Y-75454365D01*
X163446691Y-75454364D01*
X163446686Y-75454364D01*
X163220002Y-75434532D01*
X163219998Y-75434532D01*
X162993313Y-75454364D01*
X162993302Y-75454366D01*
X162773511Y-75513258D01*
X162773502Y-75513261D01*
X162567267Y-75609431D01*
X162567265Y-75609432D01*
X162380858Y-75739954D01*
X162219954Y-75900858D01*
X162089432Y-76087265D01*
X162089431Y-76087267D01*
X161993261Y-76293502D01*
X161993258Y-76293511D01*
X161934366Y-76513302D01*
X161934364Y-76513313D01*
X161914532Y-76739998D01*
X160465468Y-76739998D01*
X160445635Y-76513308D01*
X160386739Y-76293504D01*
X160290568Y-76087266D01*
X160160047Y-75900861D01*
X160160045Y-75900858D01*
X159999141Y-75739954D01*
X159812734Y-75609432D01*
X159812732Y-75609431D01*
X159606497Y-75513261D01*
X159606488Y-75513258D01*
X159386697Y-75454366D01*
X159386693Y-75454365D01*
X159386692Y-75454365D01*
X159386691Y-75454364D01*
X159386686Y-75454364D01*
X159160002Y-75434532D01*
X159159998Y-75434532D01*
X158933313Y-75454364D01*
X158933302Y-75454366D01*
X158713511Y-75513258D01*
X158713502Y-75513261D01*
X158507267Y-75609431D01*
X158507265Y-75609432D01*
X158320858Y-75739954D01*
X158159954Y-75900858D01*
X158029432Y-76087265D01*
X158029431Y-76087267D01*
X158002382Y-76145275D01*
X157956209Y-76197714D01*
X157889016Y-76216866D01*
X157822135Y-76196650D01*
X157777618Y-76145275D01*
X157750686Y-76087520D01*
X157750568Y-76087266D01*
X157620047Y-75900861D01*
X157620045Y-75900858D01*
X157459141Y-75739954D01*
X157272734Y-75609432D01*
X157272732Y-75609431D01*
X157066497Y-75513261D01*
X157066488Y-75513258D01*
X156846697Y-75454366D01*
X156846693Y-75454365D01*
X156846692Y-75454365D01*
X156846691Y-75454364D01*
X156846686Y-75454364D01*
X156620002Y-75434532D01*
X156619998Y-75434532D01*
X156393313Y-75454364D01*
X156393302Y-75454366D01*
X156173511Y-75513258D01*
X156173502Y-75513261D01*
X155967267Y-75609431D01*
X155967265Y-75609432D01*
X155780858Y-75739954D01*
X155619954Y-75900858D01*
X155489432Y-76087265D01*
X155489431Y-76087267D01*
X155462382Y-76145275D01*
X155416209Y-76197714D01*
X155349016Y-76216866D01*
X155282135Y-76196650D01*
X155237618Y-76145275D01*
X155210686Y-76087520D01*
X155210568Y-76087266D01*
X155080047Y-75900861D01*
X155080045Y-75900858D01*
X154919141Y-75739954D01*
X154732734Y-75609432D01*
X154732732Y-75609431D01*
X154526497Y-75513261D01*
X154526488Y-75513258D01*
X154306697Y-75454366D01*
X154306693Y-75454365D01*
X154306692Y-75454365D01*
X154306691Y-75454364D01*
X154306686Y-75454364D01*
X154080002Y-75434532D01*
X154079998Y-75434532D01*
X153853313Y-75454364D01*
X153853302Y-75454366D01*
X153633511Y-75513258D01*
X153633502Y-75513261D01*
X153427267Y-75609431D01*
X153427265Y-75609432D01*
X153240858Y-75739954D01*
X153079954Y-75900858D01*
X152949432Y-76087265D01*
X152949431Y-76087267D01*
X152922382Y-76145275D01*
X152876209Y-76197714D01*
X152809016Y-76216866D01*
X152742135Y-76196650D01*
X152697618Y-76145275D01*
X152670686Y-76087520D01*
X152670568Y-76087266D01*
X152540047Y-75900861D01*
X152540045Y-75900858D01*
X152379141Y-75739954D01*
X152192734Y-75609432D01*
X152192732Y-75609431D01*
X151986497Y-75513261D01*
X151986488Y-75513258D01*
X151766697Y-75454366D01*
X151766693Y-75454365D01*
X151766692Y-75454365D01*
X151766691Y-75454364D01*
X151766686Y-75454364D01*
X151540002Y-75434532D01*
X151539998Y-75434532D01*
X151313313Y-75454364D01*
X151313302Y-75454366D01*
X151093511Y-75513258D01*
X151093502Y-75513261D01*
X150887267Y-75609431D01*
X150887265Y-75609432D01*
X150700858Y-75739954D01*
X150539954Y-75900858D01*
X150409432Y-76087265D01*
X150409431Y-76087267D01*
X150382382Y-76145275D01*
X150336209Y-76197714D01*
X150269016Y-76216866D01*
X150202135Y-76196650D01*
X150157618Y-76145275D01*
X150130686Y-76087520D01*
X150130568Y-76087266D01*
X150000047Y-75900861D01*
X150000045Y-75900858D01*
X149839141Y-75739954D01*
X149652734Y-75609432D01*
X149652732Y-75609431D01*
X149446497Y-75513261D01*
X149446488Y-75513258D01*
X149226697Y-75454366D01*
X149226693Y-75454365D01*
X149226692Y-75454365D01*
X149226691Y-75454364D01*
X149226686Y-75454364D01*
X149000002Y-75434532D01*
X148999998Y-75434532D01*
X148773313Y-75454364D01*
X148773302Y-75454366D01*
X148553511Y-75513258D01*
X148553502Y-75513261D01*
X148347267Y-75609431D01*
X148347265Y-75609432D01*
X148160858Y-75739954D01*
X147999954Y-75900858D01*
X147869432Y-76087265D01*
X147869431Y-76087267D01*
X147842382Y-76145275D01*
X147796209Y-76197714D01*
X147729016Y-76216866D01*
X147662135Y-76196650D01*
X147617618Y-76145275D01*
X147590686Y-76087520D01*
X147590568Y-76087266D01*
X147460047Y-75900861D01*
X147460045Y-75900858D01*
X147299141Y-75739954D01*
X147112734Y-75609432D01*
X147112732Y-75609431D01*
X146906497Y-75513261D01*
X146906488Y-75513258D01*
X146686697Y-75454366D01*
X146686693Y-75454365D01*
X146686692Y-75454365D01*
X146686691Y-75454364D01*
X146686686Y-75454364D01*
X146460002Y-75434532D01*
X146459998Y-75434532D01*
X146233313Y-75454364D01*
X146233302Y-75454366D01*
X146013511Y-75513258D01*
X146013502Y-75513261D01*
X145807267Y-75609431D01*
X145807265Y-75609432D01*
X145620858Y-75739954D01*
X145459954Y-75900858D01*
X145329433Y-76087264D01*
X145329432Y-76087266D01*
X145329315Y-76087518D01*
X145302106Y-76145867D01*
X145255933Y-76198306D01*
X145188739Y-76217457D01*
X145121858Y-76197241D01*
X145077342Y-76145865D01*
X145050135Y-76087520D01*
X145050134Y-76087518D01*
X144919657Y-75901179D01*
X144758820Y-75740342D01*
X144572482Y-75609865D01*
X144366328Y-75513734D01*
X144170000Y-75461127D01*
X144170000Y-76306988D01*
X144112993Y-76274075D01*
X143985826Y-76240000D01*
X143854174Y-76240000D01*
X143727007Y-76274075D01*
X143670000Y-76306988D01*
X143670000Y-75461127D01*
X143473671Y-75513734D01*
X143267517Y-75609865D01*
X143081179Y-75740342D01*
X142920342Y-75901179D01*
X142789867Y-76087515D01*
X142762657Y-76145867D01*
X142716484Y-76198306D01*
X142649290Y-76217457D01*
X142582409Y-76197241D01*
X142537893Y-76145865D01*
X142510685Y-76087518D01*
X142510568Y-76087266D01*
X142380047Y-75900861D01*
X142380045Y-75900858D01*
X142219141Y-75739954D01*
X142032734Y-75609432D01*
X142032732Y-75609431D01*
X141826497Y-75513261D01*
X141826488Y-75513258D01*
X141606697Y-75454366D01*
X141606693Y-75454365D01*
X141606692Y-75454365D01*
X141606691Y-75454364D01*
X141606686Y-75454364D01*
X141380002Y-75434532D01*
X141379998Y-75434532D01*
X141153313Y-75454364D01*
X141153302Y-75454366D01*
X140933511Y-75513258D01*
X140933502Y-75513261D01*
X140727267Y-75609431D01*
X140727265Y-75609432D01*
X140540858Y-75739954D01*
X140379954Y-75900858D01*
X140249432Y-76087265D01*
X140249431Y-76087267D01*
X140222382Y-76145275D01*
X140176209Y-76197714D01*
X140109016Y-76216866D01*
X140042135Y-76196650D01*
X139997618Y-76145275D01*
X139970686Y-76087520D01*
X139970568Y-76087266D01*
X139840047Y-75900861D01*
X139840045Y-75900858D01*
X139679141Y-75739954D01*
X139492734Y-75609432D01*
X139492732Y-75609431D01*
X139286497Y-75513261D01*
X139286488Y-75513258D01*
X139066697Y-75454366D01*
X139066693Y-75454365D01*
X139066692Y-75454365D01*
X139066691Y-75454364D01*
X139066686Y-75454364D01*
X138840002Y-75434532D01*
X138839998Y-75434532D01*
X138613313Y-75454364D01*
X138613302Y-75454366D01*
X138393511Y-75513258D01*
X138393502Y-75513261D01*
X138187267Y-75609431D01*
X138187265Y-75609432D01*
X138000858Y-75739954D01*
X137839954Y-75900858D01*
X137709432Y-76087265D01*
X137709431Y-76087267D01*
X137682382Y-76145275D01*
X137636209Y-76197714D01*
X137569016Y-76216866D01*
X137502135Y-76196650D01*
X137457618Y-76145275D01*
X137430686Y-76087520D01*
X137430568Y-76087266D01*
X137300047Y-75900861D01*
X137300045Y-75900858D01*
X137139141Y-75739954D01*
X136952734Y-75609432D01*
X136952732Y-75609431D01*
X136746497Y-75513261D01*
X136746488Y-75513258D01*
X136526697Y-75454366D01*
X136526693Y-75454365D01*
X136526692Y-75454365D01*
X136526691Y-75454364D01*
X136526686Y-75454364D01*
X136300002Y-75434532D01*
X136299998Y-75434532D01*
X136073313Y-75454364D01*
X136073302Y-75454366D01*
X135853511Y-75513258D01*
X135853502Y-75513261D01*
X135647267Y-75609431D01*
X135647265Y-75609432D01*
X135460858Y-75739954D01*
X135299954Y-75900858D01*
X135169432Y-76087265D01*
X135169431Y-76087267D01*
X135073261Y-76293502D01*
X135073258Y-76293511D01*
X135014366Y-76513302D01*
X135014364Y-76513313D01*
X134994532Y-76739998D01*
X122863365Y-76739998D01*
X122798293Y-76690067D01*
X122798292Y-76690066D01*
X122798289Y-76690064D01*
X122588212Y-76568776D01*
X122535657Y-76547007D01*
X122364104Y-76475947D01*
X122129785Y-76413161D01*
X121889289Y-76381500D01*
X121889288Y-76381500D01*
X121646712Y-76381500D01*
X121646711Y-76381500D01*
X121406214Y-76413161D01*
X121171895Y-76475947D01*
X120947794Y-76568773D01*
X120947785Y-76568777D01*
X120737706Y-76690067D01*
X120545263Y-76837733D01*
X120545256Y-76837739D01*
X120373739Y-77009256D01*
X120373733Y-77009263D01*
X120226067Y-77201706D01*
X120104777Y-77411785D01*
X120104773Y-77411794D01*
X120011947Y-77635895D01*
X119949161Y-77870214D01*
X119917500Y-78110711D01*
X118000500Y-78110711D01*
X118000500Y-77897893D01*
X118020185Y-77830854D01*
X118040121Y-77807030D01*
X121349933Y-74733633D01*
X121412453Y-74702441D01*
X121434308Y-74700500D01*
X181594506Y-74700500D01*
X181661545Y-74720185D01*
G37*
%TD.AperFunction*%
%TD*%
M02*
